%TF.GenerationSoftware,KiCad,Pcbnew,(5.1.9)-1*%
%TF.CreationDate,2022-08-08T16:35:08+09:00*%
%TF.ProjectId,Receiver,52656365-6976-4657-922e-6b696361645f,rev?*%
%TF.SameCoordinates,Original*%
%TF.FileFunction,Copper,L2,Bot*%
%TF.FilePolarity,Positive*%
%FSLAX46Y46*%
G04 Gerber Fmt 4.6, Leading zero omitted, Abs format (unit mm)*
G04 Created by KiCad (PCBNEW (5.1.9)-1) date 2022-08-08 16:35:08*
%MOMM*%
%LPD*%
G01*
G04 APERTURE LIST*
%TA.AperFunction,ComponentPad*%
%ADD10C,1.700000*%
%TD*%
%TA.AperFunction,ComponentPad*%
%ADD11C,3.500000*%
%TD*%
%TA.AperFunction,ComponentPad*%
%ADD12R,1.700000X1.700000*%
%TD*%
%TA.AperFunction,ComponentPad*%
%ADD13O,1.700000X1.700000*%
%TD*%
%TA.AperFunction,ComponentPad*%
%ADD14O,1.700000X2.000000*%
%TD*%
%TA.AperFunction,ComponentPad*%
%ADD15R,1.800000X1.800000*%
%TD*%
%TA.AperFunction,ComponentPad*%
%ADD16C,1.800000*%
%TD*%
%TA.AperFunction,ComponentPad*%
%ADD17C,6.400000*%
%TD*%
%TA.AperFunction,ComponentPad*%
%ADD18C,0.800000*%
%TD*%
%TA.AperFunction,ComponentPad*%
%ADD19R,1.600000X1.600000*%
%TD*%
%TA.AperFunction,ComponentPad*%
%ADD20O,1.600000X1.600000*%
%TD*%
%TA.AperFunction,ComponentPad*%
%ADD21C,1.600000*%
%TD*%
%TA.AperFunction,ComponentPad*%
%ADD22R,1.905000X2.000000*%
%TD*%
%TA.AperFunction,ComponentPad*%
%ADD23O,1.905000X2.000000*%
%TD*%
%TA.AperFunction,ViaPad*%
%ADD24C,0.800000*%
%TD*%
%TA.AperFunction,Conductor*%
%ADD25C,0.250000*%
%TD*%
G04 APERTURE END LIST*
D10*
%TO.P,U2,4*%
%TO.N,N/C*%
X149936200Y-111535400D03*
%TO.P,U2,5*%
X149936200Y-114075400D03*
%TO.P,U2,6*%
%TO.N,OUT2*%
X149936200Y-116615400D03*
%TO.P,U2,7*%
%TO.N,N/C*%
X149936200Y-119155400D03*
%TO.P,U2,8*%
X149936200Y-121695400D03*
%TO.P,U2,9*%
X149936200Y-124235400D03*
%TO.P,U2,10*%
X149936200Y-126775400D03*
%TO.P,U2,3*%
X149936200Y-108995400D03*
%TO.P,U2,2*%
%TO.N,+5V*%
X149936200Y-106455400D03*
%TO.P,U2,1*%
%TO.N,GND*%
X149936200Y-103915400D03*
D11*
%TO.P,U2,11*%
%TO.N,N/C*%
X177800000Y-83820000D03*
%TO.P,U2,12*%
X177800000Y-146820000D03*
%TD*%
D12*
%TO.P,J3,1*%
%TO.N,N/C*%
X104540000Y-103580000D03*
D13*
%TO.P,J3,2*%
X104540000Y-106120000D03*
%TO.P,J3,3*%
X104540000Y-108660000D03*
%TO.P,J3,4*%
X104540000Y-111200000D03*
%TO.P,J3,5*%
X104540000Y-113740000D03*
%TO.P,J3,6*%
X104540000Y-116280000D03*
%TO.P,J3,7*%
X104540000Y-118820000D03*
%TO.P,J3,8*%
X104540000Y-121360000D03*
%TO.P,J3,9*%
%TO.N,+3V3*%
X104540000Y-123900000D03*
%TO.P,J3,10*%
%TO.N,N/C*%
X104540000Y-126440000D03*
%TD*%
%TO.P,J4,10*%
%TO.N,N/C*%
X129940000Y-126440000D03*
%TO.P,J4,9*%
%TO.N,GND*%
X129940000Y-123900000D03*
%TO.P,J4,8*%
%TO.N,N/C*%
X129940000Y-121360000D03*
%TO.P,J4,7*%
X129940000Y-118820000D03*
%TO.P,J4,6*%
X129940000Y-116280000D03*
%TO.P,J4,5*%
%TO.N,+3V3*%
X129940000Y-113740000D03*
%TO.P,J4,4*%
%TO.N,N/C*%
X129940000Y-111200000D03*
%TO.P,J4,3*%
X129940000Y-108660000D03*
%TO.P,J4,2*%
X129940000Y-106120000D03*
D12*
%TO.P,J4,1*%
%TO.N,OUT1*%
X129940000Y-103580000D03*
%TD*%
%TO.P,J5,1*%
%TO.N,+5V*%
%TA.AperFunction,ComponentPad*%
G36*
G01*
X122340000Y-144260000D02*
X122340000Y-142760000D01*
G75*
G02*
X122590000Y-142510000I250000J0D01*
G01*
X123790000Y-142510000D01*
G75*
G02*
X124040000Y-142760000I0J-250000D01*
G01*
X124040000Y-144260000D01*
G75*
G02*
X123790000Y-144510000I-250000J0D01*
G01*
X122590000Y-144510000D01*
G75*
G02*
X122340000Y-144260000I0J250000D01*
G01*
G37*
%TD.AperFunction*%
D14*
%TO.P,J5,2*%
%TO.N,GND*%
X125690000Y-143510000D03*
%TD*%
%TO.P,J6,1*%
%TO.N,Net-(D1-Pad2)*%
%TA.AperFunction,ComponentPad*%
G36*
G01*
X112180000Y-144260000D02*
X112180000Y-142760000D01*
G75*
G02*
X112430000Y-142510000I250000J0D01*
G01*
X113630000Y-142510000D01*
G75*
G02*
X113880000Y-142760000I0J-250000D01*
G01*
X113880000Y-144260000D01*
G75*
G02*
X113630000Y-144510000I-250000J0D01*
G01*
X112430000Y-144510000D01*
G75*
G02*
X112180000Y-144260000I0J250000D01*
G01*
G37*
%TD.AperFunction*%
%TO.P,J6,2*%
%TO.N,Net-(J6-Pad2)*%
X115530000Y-143510000D03*
%TD*%
D15*
%TO.P,D1,1*%
%TO.N,Net-(D1-Pad1)*%
X136725000Y-148985000D03*
D16*
%TO.P,D1,2*%
%TO.N,Net-(D1-Pad2)*%
X136725000Y-146445000D03*
%TD*%
D17*
%TO.P,H1,1*%
%TO.N,N/C*%
X104140000Y-83820000D03*
D18*
X106540000Y-83820000D03*
X105837056Y-85517056D03*
X104140000Y-86220000D03*
X102442944Y-85517056D03*
X101740000Y-83820000D03*
X102442944Y-82122944D03*
X104140000Y-81420000D03*
X105837056Y-82122944D03*
%TD*%
%TO.P,H2,1*%
%TO.N,N/C*%
X105837056Y-146892944D03*
X104140000Y-146190000D03*
X102442944Y-146892944D03*
X101740000Y-148590000D03*
X102442944Y-150287056D03*
X104140000Y-150990000D03*
X105837056Y-150287056D03*
X106540000Y-148590000D03*
D17*
X104140000Y-148590000D03*
%TD*%
%TO.P,H3,1*%
%TO.N,N/C*%
X191770000Y-148590000D03*
D18*
X194170000Y-148590000D03*
X193467056Y-150287056D03*
X191770000Y-150990000D03*
X190072944Y-150287056D03*
X189370000Y-148590000D03*
X190072944Y-146892944D03*
X191770000Y-146190000D03*
X193467056Y-146892944D03*
%TD*%
%TO.P,H4,1*%
%TO.N,N/C*%
X193467056Y-82122944D03*
X191770000Y-81420000D03*
X190072944Y-82122944D03*
X189370000Y-83820000D03*
X190072944Y-85517056D03*
X191770000Y-86220000D03*
X193467056Y-85517056D03*
X194170000Y-83820000D03*
D17*
X191770000Y-83820000D03*
%TD*%
D19*
%TO.P,SW2,1*%
%TO.N,+3V3*%
X114935000Y-84455000D03*
D20*
%TO.P,SW2,3*%
%TO.N,OUT4*%
X122555000Y-86995000D03*
%TO.P,SW2,2*%
%TO.N,+3V3*%
X114935000Y-86995000D03*
%TO.P,SW2,4*%
%TO.N,OUT3*%
X122555000Y-84455000D03*
%TD*%
D19*
%TO.P,U4,1*%
%TO.N,OUT1*%
X109855000Y-119380000D03*
D20*
%TO.P,U4,8*%
%TO.N,N/C*%
X125095000Y-111760000D03*
%TO.P,U4,2*%
%TO.N,OUT3*%
X112395000Y-119380000D03*
%TO.P,U4,9*%
%TO.N,N/C*%
X122555000Y-111760000D03*
%TO.P,U4,3*%
%TO.N,OUT5*%
X114935000Y-119380000D03*
%TO.P,U4,10*%
%TO.N,N/C*%
X120015000Y-111760000D03*
%TO.P,U4,4*%
%TO.N,OUT2*%
X117475000Y-119380000D03*
%TO.P,U4,11*%
%TO.N,N/C*%
X117475000Y-111760000D03*
%TO.P,U4,5*%
%TO.N,OUT4*%
X120015000Y-119380000D03*
%TO.P,U4,12*%
%TO.N,N/C*%
X114935000Y-111760000D03*
%TO.P,U4,6*%
%TO.N,OUT6*%
X122555000Y-119380000D03*
%TO.P,U4,13*%
%TO.N,N/C*%
X112395000Y-111760000D03*
%TO.P,U4,7*%
%TO.N,GND*%
X125095000Y-119380000D03*
%TO.P,U4,14*%
%TO.N,+5V*%
X109855000Y-111760000D03*
%TD*%
%TO.P,U5,14*%
%TO.N,+5V*%
X109855000Y-98425000D03*
%TO.P,U5,7*%
%TO.N,GND*%
X125095000Y-106045000D03*
%TO.P,U5,13*%
%TO.N,N/C*%
X112395000Y-98425000D03*
%TO.P,U5,6*%
X122555000Y-106045000D03*
%TO.P,U5,12*%
X114935000Y-98425000D03*
%TO.P,U5,5*%
X120015000Y-106045000D03*
%TO.P,U5,11*%
X117475000Y-98425000D03*
%TO.P,U5,4*%
X117475000Y-106045000D03*
%TO.P,U5,10*%
X120015000Y-98425000D03*
%TO.P,U5,3*%
%TO.N,OUT*%
X114935000Y-106045000D03*
%TO.P,U5,9*%
%TO.N,N/C*%
X122555000Y-98425000D03*
%TO.P,U5,2*%
%TO.N,OUT6*%
X112395000Y-106045000D03*
%TO.P,U5,8*%
%TO.N,N/C*%
X125095000Y-98425000D03*
D19*
%TO.P,U5,1*%
%TO.N,OUT5*%
X109855000Y-106045000D03*
%TD*%
D21*
%TO.P,R1,1*%
%TO.N,Net-(R1-Pad1)*%
X113030000Y-135255000D03*
D20*
%TO.P,R1,2*%
%TO.N,OUT*%
X120650000Y-135255000D03*
%TD*%
D19*
%TO.P,U1,1*%
%TO.N,Net-(R1-Pad1)*%
X108585000Y-126365000D03*
D20*
%TO.P,U1,3*%
%TO.N,Net-(J6-Pad2)*%
X116205000Y-128905000D03*
%TO.P,U1,2*%
%TO.N,GND*%
X108585000Y-128905000D03*
%TO.P,U1,4*%
%TO.N,Net-(D1-Pad1)*%
X116205000Y-126365000D03*
%TD*%
D21*
%TO.P,C1,1*%
%TO.N,+5V*%
X159980000Y-85090000D03*
%TO.P,C1,2*%
%TO.N,GND*%
X157480000Y-85090000D03*
%TD*%
D19*
%TO.P,C2,1*%
%TO.N,+3V3*%
X163830000Y-85090000D03*
D21*
%TO.P,C2,2*%
%TO.N,GND*%
X165830000Y-85090000D03*
%TD*%
D22*
%TO.P,U3,1*%
%TO.N,+5V*%
X137795000Y-101115000D03*
D23*
%TO.P,U3,2*%
%TO.N,GND*%
X140335000Y-101115000D03*
%TO.P,U3,3*%
%TO.N,+3V3*%
X142875000Y-101115000D03*
%TD*%
D24*
%TO.N,Net-(D1-Pad1)*%
X119380000Y-144780000D03*
%TO.N,+5V*%
X114300000Y-95250000D03*
X123190000Y-135890000D03*
%TO.N,+3V3*%
X142875000Y-111760000D03*
%TO.N,OUT1*%
X113665000Y-102870000D03*
%TO.N,OUT*%
X120650000Y-125095000D03*
X116205000Y-117475000D03*
X113665000Y-109855000D03*
%TD*%
D25*
%TO.N,Net-(D1-Pad1)*%
X123585000Y-148985000D02*
X136725000Y-148985000D01*
X119380000Y-144780000D02*
X123585000Y-148985000D01*
%TO.N,Net-(J6-Pad2)*%
X115530000Y-143510000D02*
X115570000Y-143510000D01*
X115570000Y-143510000D02*
X122555000Y-150495000D01*
X122555000Y-150495000D02*
X142240000Y-150495000D01*
X142240000Y-150495000D02*
X142240000Y-150470000D01*
%TO.N,+5V*%
X109855000Y-98425000D02*
X113030000Y-95250000D01*
X113030000Y-95250000D02*
X114300000Y-95250000D01*
X109855000Y-116205000D02*
X109855000Y-111760000D01*
X111125000Y-120650000D02*
X111125000Y-117475000D01*
X112395000Y-121920000D02*
X111125000Y-120650000D01*
X115570000Y-121920000D02*
X112395000Y-121920000D01*
X123190000Y-129540000D02*
X115570000Y-121920000D01*
X111125000Y-117475000D02*
X109855000Y-116205000D01*
X123190000Y-135890000D02*
X123190000Y-129540000D01*
%TO.N,GND*%
X125420000Y-119380000D02*
X125095000Y-119380000D01*
X129940000Y-123900000D02*
X125420000Y-119380000D01*
X125095000Y-119380000D02*
X125095000Y-114935000D01*
X125095000Y-114935000D02*
X127000000Y-113030000D01*
X127000000Y-107950000D02*
X125095000Y-106045000D01*
X127000000Y-113030000D02*
X127000000Y-107950000D01*
X140335000Y-101115000D02*
X140335000Y-116840000D01*
X133275000Y-123900000D02*
X129940000Y-123900000D01*
X140335000Y-116840000D02*
X133275000Y-123900000D01*
%TO.N,+3V3*%
X114935000Y-84455000D02*
X114935000Y-86995000D01*
X142875000Y-101115000D02*
X142875000Y-111760000D01*
X142875000Y-111760000D02*
X142875000Y-111760000D01*
X148855000Y-101115000D02*
X163830000Y-86140000D01*
X163830000Y-86140000D02*
X163830000Y-85090000D01*
X142875000Y-101115000D02*
X148855000Y-101115000D01*
X142875000Y-99060000D02*
X142875000Y-101115000D01*
X126365000Y-82550000D02*
X142875000Y-99060000D01*
X119380000Y-82550000D02*
X126365000Y-82550000D01*
X117475000Y-84455000D02*
X119380000Y-82550000D01*
X114935000Y-84455000D02*
X117475000Y-84455000D01*
%TO.N,OUT1*%
X109855000Y-119380000D02*
X110490000Y-119380000D01*
X109855000Y-119380000D02*
X107950000Y-117475000D01*
X107950000Y-117475000D02*
X107315000Y-116840000D01*
X107315000Y-116840000D02*
X107315000Y-104775000D01*
X107315000Y-104775000D02*
X108585000Y-103505000D01*
X108585000Y-103505000D02*
X109220000Y-102870000D01*
X109220000Y-102870000D02*
X113665000Y-102870000D01*
%TO.N,OUT4*%
X118745000Y-97155000D02*
X118745000Y-118110000D01*
X122555000Y-93345000D02*
X118745000Y-97155000D01*
X118745000Y-118110000D02*
X120015000Y-119380000D01*
X122555000Y-86995000D02*
X122555000Y-93345000D01*
%TO.N,OUT3*%
X122555000Y-84455000D02*
X121285000Y-84455000D01*
X121285000Y-84455000D02*
X116205000Y-89535000D01*
X116205000Y-115570000D02*
X112395000Y-119380000D01*
X116205000Y-89535000D02*
X116205000Y-115570000D01*
%TO.N,OUT*%
X120650000Y-125095000D02*
X116205000Y-120650000D01*
X116205000Y-120650000D02*
X116205000Y-117475000D01*
X113665000Y-107315000D02*
X114935000Y-106045000D01*
X113665000Y-109855000D02*
X113665000Y-107315000D01*
%TO.N,OUT2*%
X117475000Y-119380000D02*
X127000000Y-128905000D01*
X137646600Y-128905000D02*
X136525000Y-128905000D01*
X149936200Y-116615400D02*
X137646600Y-128905000D01*
X127000000Y-128905000D02*
X136525000Y-128905000D01*
%TD*%
M02*
