%TF.GenerationSoftware,KiCad,Pcbnew,(6.0.8)*%
%TF.CreationDate,2022-10-07T14:53:03+09:00*%
%TF.ProjectId,Receiver,52656365-6976-4657-922e-6b696361645f,rev?*%
%TF.SameCoordinates,Original*%
%TF.FileFunction,Copper,L1,Top*%
%TF.FilePolarity,Positive*%
%FSLAX46Y46*%
G04 Gerber Fmt 4.6, Leading zero omitted, Abs format (unit mm)*
G04 Created by KiCad (PCBNEW (6.0.8)) date 2022-10-07 14:53:03*
%MOMM*%
%LPD*%
G01*
G04 APERTURE LIST*
G04 Aperture macros list*
%AMRoundRect*
0 Rectangle with rounded corners*
0 $1 Rounding radius*
0 $2 $3 $4 $5 $6 $7 $8 $9 X,Y pos of 4 corners*
0 Add a 4 corners polygon primitive as box body*
4,1,4,$2,$3,$4,$5,$6,$7,$8,$9,$2,$3,0*
0 Add four circle primitives for the rounded corners*
1,1,$1+$1,$2,$3*
1,1,$1+$1,$4,$5*
1,1,$1+$1,$6,$7*
1,1,$1+$1,$8,$9*
0 Add four rect primitives between the rounded corners*
20,1,$1+$1,$2,$3,$4,$5,0*
20,1,$1+$1,$4,$5,$6,$7,0*
20,1,$1+$1,$6,$7,$8,$9,0*
20,1,$1+$1,$8,$9,$2,$3,0*%
G04 Aperture macros list end*
%TA.AperFunction,ComponentPad*%
%ADD10C,0.800000*%
%TD*%
%TA.AperFunction,ComponentPad*%
%ADD11C,6.400000*%
%TD*%
%TA.AperFunction,ComponentPad*%
%ADD12R,1.700000X1.700000*%
%TD*%
%TA.AperFunction,ComponentPad*%
%ADD13O,1.700000X1.700000*%
%TD*%
%TA.AperFunction,ComponentPad*%
%ADD14RoundRect,0.250000X-0.750000X0.600000X-0.750000X-0.600000X0.750000X-0.600000X0.750000X0.600000X0*%
%TD*%
%TA.AperFunction,ComponentPad*%
%ADD15O,2.000000X1.700000*%
%TD*%
%TA.AperFunction,ComponentPad*%
%ADD16R,1.800000X1.800000*%
%TD*%
%TA.AperFunction,ComponentPad*%
%ADD17C,1.800000*%
%TD*%
%TA.AperFunction,ComponentPad*%
%ADD18R,1.600000X1.600000*%
%TD*%
%TA.AperFunction,ComponentPad*%
%ADD19O,1.600000X1.600000*%
%TD*%
%TA.AperFunction,ComponentPad*%
%ADD20C,1.600000*%
%TD*%
%TA.AperFunction,ComponentPad*%
%ADD21RoundRect,0.400000X0.400000X-0.400000X0.400000X0.400000X-0.400000X0.400000X-0.400000X-0.400000X0*%
%TD*%
%TA.AperFunction,ViaPad*%
%ADD22C,0.800000*%
%TD*%
%TA.AperFunction,Conductor*%
%ADD23C,0.250000*%
%TD*%
G04 APERTURE END LIST*
D10*
%TO.P,H1,1*%
%TO.N,N/C*%
X86787056Y-85517056D03*
X85090000Y-86220000D03*
X83392944Y-82122944D03*
X86787056Y-82122944D03*
X85090000Y-81420000D03*
D11*
X85090000Y-83820000D03*
D10*
X82690000Y-83820000D03*
X87490000Y-83820000D03*
X83392944Y-85517056D03*
%TD*%
%TO.P,H3,1*%
%TO.N,N/C*%
X125095000Y-146190000D03*
X126792056Y-146892944D03*
X123397944Y-150287056D03*
X125095000Y-150990000D03*
X123397944Y-146892944D03*
D11*
X125095000Y-148590000D03*
D10*
X122695000Y-148590000D03*
X126792056Y-150287056D03*
X127495000Y-148590000D03*
%TD*%
%TO.P,H4,1*%
%TO.N,N/C*%
X125095000Y-81420000D03*
X123397944Y-85517056D03*
X126792056Y-82122944D03*
D11*
X125095000Y-83820000D03*
D10*
X126792056Y-85517056D03*
X125095000Y-86220000D03*
X122695000Y-83820000D03*
X127495000Y-83820000D03*
X123397944Y-82122944D03*
%TD*%
D11*
%TO.P,H2,1*%
%TO.N,N/C*%
X85090000Y-148590000D03*
D10*
X86787056Y-146892944D03*
X83392944Y-146892944D03*
X83392944Y-150287056D03*
X85090000Y-146190000D03*
X86787056Y-150287056D03*
X87490000Y-148590000D03*
X85090000Y-150990000D03*
X82690000Y-148590000D03*
%TD*%
D12*
%TO.P,J4,1*%
%TO.N,Net-(J4-Pad1)*%
X95280000Y-82525000D03*
D13*
%TO.P,J4,2*%
%TO.N,Net-(J4-Pad2)*%
X97820000Y-82525000D03*
%TO.P,J4,3*%
%TO.N,TX*%
X100360000Y-82525000D03*
%TO.P,J4,4*%
%TO.N,Net-(J4-Pad4)*%
X102900000Y-82525000D03*
%TO.P,J4,5*%
%TO.N,Net-(J4-Pad5)*%
X105440000Y-82525000D03*
%TO.P,J4,6*%
%TO.N,Net-(J4-Pad6)*%
X107980000Y-82525000D03*
%TO.P,J4,7*%
%TO.N,Net-(J4-Pad7)*%
X110520000Y-82525000D03*
%TO.P,J4,8*%
%TO.N,Net-(J4-Pad8)*%
X113060000Y-82525000D03*
%TO.P,J4,9*%
%TO.N,GND*%
X115600000Y-82525000D03*
%TO.P,J4,10*%
%TO.N,Net-(J4-Pad10)*%
X118140000Y-82525000D03*
%TD*%
D12*
%TO.P,J1,1*%
%TO.N,TX*%
X87660000Y-129515000D03*
D13*
%TO.P,J1,2*%
%TO.N,RX*%
X90200000Y-129515000D03*
%TO.P,J1,3*%
%TO.N,Net-(J1-Pad3)*%
X92740000Y-129515000D03*
%TO.P,J1,4*%
%TO.N,Net-(J1-Pad4)*%
X95280000Y-129515000D03*
%TO.P,J1,5*%
%TO.N,Net-(J1-Pad5)*%
X97820000Y-129515000D03*
%TO.P,J1,6*%
%TO.N,Net-(J1-Pad6)*%
X100360000Y-129515000D03*
%TO.P,J1,7*%
%TO.N,Net-(J1-Pad7)*%
X102900000Y-129515000D03*
%TO.P,J1,8*%
%TO.N,Net-(J1-Pad8)*%
X105440000Y-129515000D03*
%TO.P,J1,9*%
%TO.N,Net-(J1-Pad9)*%
X107980000Y-129515000D03*
%TO.P,J1,10*%
%TO.N,Net-(J1-Pad10)*%
X110520000Y-129515000D03*
%TO.P,J1,11*%
%TO.N,Net-(J1-Pad11)*%
X113060000Y-129515000D03*
%TO.P,J1,12*%
%TO.N,Net-(J1-Pad12)*%
X115600000Y-129515000D03*
%TO.P,J1,13*%
%TO.N,Net-(J1-Pad13)*%
X118140000Y-129515000D03*
%TO.P,J1,14*%
%TO.N,Net-(J1-Pad14)*%
X120680000Y-129515000D03*
%TO.P,J1,15*%
%TO.N,Net-(J1-Pad15)*%
X123220000Y-129515000D03*
%TD*%
D14*
%TO.P,J5,1*%
%TO.N,+5V*%
X89810000Y-91460000D03*
D15*
%TO.P,J5,2*%
%TO.N,GND*%
X89810000Y-93960000D03*
%TD*%
D16*
%TO.P,D2,1*%
%TO.N,Net-(D2-Pad1)*%
X97790000Y-151130000D03*
D17*
%TO.P,D2,2*%
%TO.N,Net-(D2-Pad2)*%
X97790000Y-148590000D03*
%TD*%
D12*
%TO.P,J2,1*%
%TO.N,Net-(J2-Pad1)*%
X87615000Y-114275000D03*
D13*
%TO.P,J2,2*%
%TO.N,GND*%
X90155000Y-114275000D03*
%TO.P,J2,3*%
%TO.N,Net-(J2-Pad3)*%
X92695000Y-114275000D03*
%TO.P,J2,4*%
%TO.N,+5V*%
X95235000Y-114275000D03*
%TO.P,J2,5*%
%TO.N,Net-(J2-Pad5)*%
X97775000Y-114275000D03*
%TO.P,J2,6*%
%TO.N,Out*%
X100315000Y-114275000D03*
%TO.P,J2,7*%
%TO.N,Net-(J2-Pad7)*%
X102855000Y-114275000D03*
%TO.P,J2,8*%
%TO.N,Net-(J2-Pad8)*%
X105395000Y-114275000D03*
%TO.P,J2,9*%
%TO.N,Net-(J2-Pad9)*%
X107935000Y-114275000D03*
%TO.P,J2,10*%
%TO.N,Net-(J2-Pad10)*%
X110475000Y-114275000D03*
%TO.P,J2,11*%
%TO.N,Net-(J2-Pad11)*%
X113015000Y-114275000D03*
%TO.P,J2,12*%
%TO.N,Net-(J2-Pad12)*%
X115555000Y-114275000D03*
%TO.P,J2,13*%
%TO.N,Net-(J2-Pad13)*%
X118095000Y-114275000D03*
%TO.P,J2,14*%
%TO.N,+3V3*%
X120635000Y-114275000D03*
%TO.P,J2,15*%
%TO.N,Net-(J2-Pad15)*%
X123175000Y-114275000D03*
%TD*%
D18*
%TO.P,U1,1*%
%TO.N,Out*%
X104135000Y-137155000D03*
D19*
%TO.P,U1,2*%
%TO.N,GND*%
X104135000Y-139695000D03*
%TO.P,U1,3*%
%TO.N,Net-(D1-Pad2)*%
X111755000Y-139695000D03*
%TO.P,U1,4*%
%TO.N,Net-(D2-Pad2)*%
X111755000Y-137155000D03*
%TD*%
D14*
%TO.P,J6,1*%
%TO.N,Net-(J6-Pad1)*%
X89810000Y-100620000D03*
D15*
%TO.P,J6,2*%
%TO.N,Net-(D2-Pad2)*%
X89810000Y-103120000D03*
%TD*%
D12*
%TO.P,J3,1*%
%TO.N,Net-(J3-Pad1)*%
X95280000Y-107925000D03*
D13*
%TO.P,J3,2*%
%TO.N,Net-(J3-Pad2)*%
X97820000Y-107925000D03*
%TO.P,J3,3*%
%TO.N,Net-(J3-Pad3)*%
X100360000Y-107925000D03*
%TO.P,J3,4*%
%TO.N,RX*%
X102900000Y-107925000D03*
%TO.P,J3,5*%
%TO.N,Net-(J3-Pad5)*%
X105440000Y-107925000D03*
%TO.P,J3,6*%
%TO.N,Net-(J3-Pad6)*%
X107980000Y-107925000D03*
%TO.P,J3,7*%
%TO.N,Net-(J3-Pad7)*%
X110520000Y-107925000D03*
%TO.P,J3,8*%
%TO.N,Net-(J3-Pad8)*%
X113060000Y-107925000D03*
%TO.P,J3,9*%
%TO.N,+3V3*%
X115600000Y-107925000D03*
%TO.P,J3,10*%
%TO.N,Net-(J3-Pad10)*%
X118140000Y-107925000D03*
%TD*%
D16*
%TO.P,D1,1*%
%TO.N,Net-(D1-Pad1)*%
X104140000Y-151130000D03*
D17*
%TO.P,D1,2*%
%TO.N,Net-(D1-Pad2)*%
X104140000Y-148590000D03*
%TD*%
D20*
%TO.P,SW1,*%
%TO.N,*%
X116840000Y-149850000D03*
X111760000Y-149850000D03*
D21*
%TO.P,SW1,1*%
%TO.N,Net-(D1-Pad1)*%
X116840000Y-144770000D03*
D20*
%TO.P,SW1,2*%
%TO.N,Net-(J6-Pad1)*%
X114300000Y-144770000D03*
%TO.P,SW1,3*%
%TO.N,Net-(D2-Pad1)*%
X111760000Y-144770000D03*
%TD*%
D22*
%TO.N,GND*%
X85090000Y-96520000D03*
%TD*%
D23*
%TO.N,Net-(D1-Pad1)*%
X107950000Y-149860000D02*
X106680000Y-151130000D01*
X115570000Y-147320000D02*
X109220000Y-147320000D01*
X106680000Y-151130000D02*
X104140000Y-151130000D01*
X116840000Y-146050000D02*
X115570000Y-147320000D01*
X107950000Y-148590000D02*
X107950000Y-149860000D01*
X116840000Y-144770000D02*
X116840000Y-146050000D01*
X109220000Y-147320000D02*
X107950000Y-148590000D01*
%TO.N,Net-(D2-Pad1)*%
X104150000Y-144770000D02*
X111760000Y-144770000D01*
X97790000Y-151130000D02*
X99060000Y-151130000D01*
X101600000Y-148590000D02*
X101600000Y-147320000D01*
X99060000Y-151130000D02*
X101600000Y-148590000D01*
X101600000Y-147320000D02*
X104150000Y-144770000D01*
%TO.N,GND*%
X90155000Y-114275000D02*
X90155000Y-113015000D01*
X86360000Y-111760000D02*
X85090000Y-110490000D01*
X85090000Y-110490000D02*
X85090000Y-99060000D01*
X96520000Y-133350000D02*
X96520000Y-120640000D01*
X104135000Y-139695000D02*
X102865000Y-139695000D01*
X90155000Y-114275000D02*
X92715000Y-116835000D01*
X96520000Y-120640000D02*
X92715000Y-116835000D01*
X102865000Y-139695000D02*
X96520000Y-133350000D01*
X85090000Y-99060000D02*
X85090000Y-96520000D01*
X88900000Y-111760000D02*
X86360000Y-111760000D01*
X90155000Y-113015000D02*
X88900000Y-111760000D01*
%TO.N,Net-(D2-Pad2)*%
X99060000Y-148590000D02*
X97790000Y-148590000D01*
X110495000Y-137155000D02*
X99060000Y-148590000D01*
X111755000Y-137155000D02*
X110495000Y-137155000D01*
%TO.N,+5V*%
X86360000Y-92710000D02*
X86360000Y-107950000D01*
X86360000Y-107950000D02*
X88900000Y-110490000D01*
X95235000Y-111745000D02*
X95235000Y-114275000D01*
X89810000Y-91460000D02*
X87610000Y-91460000D01*
X87610000Y-91460000D02*
X86360000Y-92710000D01*
X93980000Y-110490000D02*
X95235000Y-111745000D01*
X88900000Y-110490000D02*
X93980000Y-110490000D01*
%TO.N,+3V3*%
X115600000Y-107925000D02*
X115600000Y-110460000D01*
X120650000Y-113030000D02*
X120635000Y-113045000D01*
X119380000Y-111760000D02*
X120650000Y-113030000D01*
X116900000Y-111760000D02*
X119380000Y-111760000D01*
X115600000Y-110460000D02*
X116900000Y-111760000D01*
X120635000Y-113045000D02*
X120635000Y-114275000D01*
%TO.N,TX*%
X85065000Y-129515000D02*
X87660000Y-129515000D01*
X83820000Y-90170000D02*
X83820000Y-128270000D01*
X85090000Y-88900000D02*
X83820000Y-90170000D01*
X83820000Y-128270000D02*
X85065000Y-129515000D01*
X93985000Y-88900000D02*
X85090000Y-88900000D01*
X100360000Y-82525000D02*
X93985000Y-88900000D01*
%TO.N,Out*%
X102875000Y-116835000D02*
X104140000Y-118100000D01*
X104135000Y-137155000D02*
X104135000Y-118095000D01*
X104135000Y-118095000D02*
X102875000Y-116835000D01*
X100315000Y-114275000D02*
X102875000Y-116835000D01*
%TD*%
M02*
