%TF.GenerationSoftware,KiCad,Pcbnew,(5.1.9)-1*%
%TF.CreationDate,2022-08-08T16:35:08+09:00*%
%TF.ProjectId,Receiver,52656365-6976-4657-922e-6b696361645f,rev?*%
%TF.SameCoordinates,Original*%
%TF.FileFunction,Legend,Top*%
%TF.FilePolarity,Positive*%
%FSLAX46Y46*%
G04 Gerber Fmt 4.6, Leading zero omitted, Abs format (unit mm)*
G04 Created by KiCad (PCBNEW (5.1.9)-1) date 2022-08-08 16:35:08*
%MOMM*%
%LPD*%
G01*
G04 APERTURE LIST*
%ADD10C,0.150000*%
%ADD11C,0.300000*%
%ADD12C,0.120000*%
G04 APERTURE END LIST*
D10*
X111086190Y-90067380D02*
X111086190Y-90876904D01*
X111133809Y-90972142D01*
X111181428Y-91019761D01*
X111276666Y-91067380D01*
X111467142Y-91067380D01*
X111562380Y-91019761D01*
X111610000Y-90972142D01*
X111657619Y-90876904D01*
X111657619Y-90067380D01*
X112133809Y-91067380D02*
X112133809Y-90067380D01*
X112514761Y-90067380D01*
X112610000Y-90115000D01*
X112657619Y-90162619D01*
X112705238Y-90257857D01*
X112705238Y-90400714D01*
X112657619Y-90495952D01*
X112610000Y-90543571D01*
X112514761Y-90591190D01*
X112133809Y-90591190D01*
X113848095Y-91019761D02*
X113943333Y-91067380D01*
X114133809Y-91067380D01*
X114229047Y-91019761D01*
X114276666Y-90924523D01*
X114276666Y-90876904D01*
X114229047Y-90781666D01*
X114133809Y-90734047D01*
X113990952Y-90734047D01*
X113895714Y-90686428D01*
X113848095Y-90591190D01*
X113848095Y-90543571D01*
X113895714Y-90448333D01*
X113990952Y-90400714D01*
X114133809Y-90400714D01*
X114229047Y-90448333D01*
X114705238Y-91067380D02*
X114705238Y-90400714D01*
X114705238Y-90067380D02*
X114657619Y-90115000D01*
X114705238Y-90162619D01*
X114752857Y-90115000D01*
X114705238Y-90067380D01*
X114705238Y-90162619D01*
X115610000Y-91067380D02*
X115610000Y-90067380D01*
X115610000Y-91019761D02*
X115514761Y-91067380D01*
X115324285Y-91067380D01*
X115229047Y-91019761D01*
X115181428Y-90972142D01*
X115133809Y-90876904D01*
X115133809Y-90591190D01*
X115181428Y-90495952D01*
X115229047Y-90448333D01*
X115324285Y-90400714D01*
X115514761Y-90400714D01*
X115610000Y-90448333D01*
X116467142Y-91019761D02*
X116371904Y-91067380D01*
X116181428Y-91067380D01*
X116086190Y-91019761D01*
X116038571Y-90924523D01*
X116038571Y-90543571D01*
X116086190Y-90448333D01*
X116181428Y-90400714D01*
X116371904Y-90400714D01*
X116467142Y-90448333D01*
X116514761Y-90543571D01*
X116514761Y-90638809D01*
X116038571Y-90734047D01*
X117705238Y-91067380D02*
X117705238Y-90400714D01*
X117705238Y-90067380D02*
X117657619Y-90115000D01*
X117705238Y-90162619D01*
X117752857Y-90115000D01*
X117705238Y-90067380D01*
X117705238Y-90162619D01*
X118133809Y-91019761D02*
X118229047Y-91067380D01*
X118419523Y-91067380D01*
X118514761Y-91019761D01*
X118562380Y-90924523D01*
X118562380Y-90876904D01*
X118514761Y-90781666D01*
X118419523Y-90734047D01*
X118276666Y-90734047D01*
X118181428Y-90686428D01*
X118133809Y-90591190D01*
X118133809Y-90543571D01*
X118181428Y-90448333D01*
X118276666Y-90400714D01*
X118419523Y-90400714D01*
X118514761Y-90448333D01*
X119800476Y-91067380D02*
X119990952Y-91067380D01*
X120086190Y-91019761D01*
X120133809Y-90972142D01*
X120229047Y-90829285D01*
X120276666Y-90638809D01*
X120276666Y-90257857D01*
X120229047Y-90162619D01*
X120181428Y-90115000D01*
X120086190Y-90067380D01*
X119895714Y-90067380D01*
X119800476Y-90115000D01*
X119752857Y-90162619D01*
X119705238Y-90257857D01*
X119705238Y-90495952D01*
X119752857Y-90591190D01*
X119800476Y-90638809D01*
X119895714Y-90686428D01*
X120086190Y-90686428D01*
X120181428Y-90638809D01*
X120229047Y-90591190D01*
X120276666Y-90495952D01*
X120657619Y-90162619D02*
X120705238Y-90115000D01*
X120800476Y-90067380D01*
X121038571Y-90067380D01*
X121133809Y-90115000D01*
X121181428Y-90162619D01*
X121229047Y-90257857D01*
X121229047Y-90353095D01*
X121181428Y-90495952D01*
X120610000Y-91067380D01*
X121229047Y-91067380D01*
X121848095Y-90067380D02*
X121943333Y-90067380D01*
X122038571Y-90115000D01*
X122086190Y-90162619D01*
X122133809Y-90257857D01*
X122181428Y-90448333D01*
X122181428Y-90686428D01*
X122133809Y-90876904D01*
X122086190Y-90972142D01*
X122038571Y-91019761D01*
X121943333Y-91067380D01*
X121848095Y-91067380D01*
X121752857Y-91019761D01*
X121705238Y-90972142D01*
X121657619Y-90876904D01*
X121610000Y-90686428D01*
X121610000Y-90448333D01*
X121657619Y-90257857D01*
X121705238Y-90162619D01*
X121752857Y-90115000D01*
X121848095Y-90067380D01*
X122610000Y-91067380D02*
X122610000Y-90067380D01*
X122943333Y-90781666D01*
X123276666Y-90067380D01*
X123276666Y-91067380D01*
X123752857Y-91067380D02*
X123752857Y-90067380D01*
X123752857Y-90543571D02*
X124324285Y-90543571D01*
X124324285Y-91067380D02*
X124324285Y-90067380D01*
X124705238Y-90400714D02*
X125229047Y-90400714D01*
X124705238Y-91067380D01*
X125229047Y-91067380D01*
X110181428Y-92717380D02*
X110181428Y-91717380D01*
X110419523Y-91717380D01*
X110562380Y-91765000D01*
X110657619Y-91860238D01*
X110705238Y-91955476D01*
X110752857Y-92145952D01*
X110752857Y-92288809D01*
X110705238Y-92479285D01*
X110657619Y-92574523D01*
X110562380Y-92669761D01*
X110419523Y-92717380D01*
X110181428Y-92717380D01*
X111324285Y-92717380D02*
X111229047Y-92669761D01*
X111181428Y-92622142D01*
X111133809Y-92526904D01*
X111133809Y-92241190D01*
X111181428Y-92145952D01*
X111229047Y-92098333D01*
X111324285Y-92050714D01*
X111467142Y-92050714D01*
X111562380Y-92098333D01*
X111610000Y-92145952D01*
X111657619Y-92241190D01*
X111657619Y-92526904D01*
X111610000Y-92622142D01*
X111562380Y-92669761D01*
X111467142Y-92717380D01*
X111324285Y-92717380D01*
X111990952Y-92050714D02*
X112181428Y-92717380D01*
X112371904Y-92241190D01*
X112562380Y-92717380D01*
X112752857Y-92050714D01*
X113133809Y-92050714D02*
X113133809Y-92717380D01*
X113133809Y-92145952D02*
X113181428Y-92098333D01*
X113276666Y-92050714D01*
X113419523Y-92050714D01*
X113514761Y-92098333D01*
X113562380Y-92193571D01*
X113562380Y-92717380D01*
X114752857Y-92669761D02*
X114848095Y-92717380D01*
X115038571Y-92717380D01*
X115133809Y-92669761D01*
X115181428Y-92574523D01*
X115181428Y-92526904D01*
X115133809Y-92431666D01*
X115038571Y-92384047D01*
X114895714Y-92384047D01*
X114800476Y-92336428D01*
X114752857Y-92241190D01*
X114752857Y-92193571D01*
X114800476Y-92098333D01*
X114895714Y-92050714D01*
X115038571Y-92050714D01*
X115133809Y-92098333D01*
X115610000Y-92717380D02*
X115610000Y-92050714D01*
X115610000Y-91717380D02*
X115562380Y-91765000D01*
X115610000Y-91812619D01*
X115657619Y-91765000D01*
X115610000Y-91717380D01*
X115610000Y-91812619D01*
X116514761Y-92717380D02*
X116514761Y-91717380D01*
X116514761Y-92669761D02*
X116419523Y-92717380D01*
X116229047Y-92717380D01*
X116133809Y-92669761D01*
X116086190Y-92622142D01*
X116038571Y-92526904D01*
X116038571Y-92241190D01*
X116086190Y-92145952D01*
X116133809Y-92098333D01*
X116229047Y-92050714D01*
X116419523Y-92050714D01*
X116514761Y-92098333D01*
X117371904Y-92669761D02*
X117276666Y-92717380D01*
X117086190Y-92717380D01*
X116990952Y-92669761D01*
X116943333Y-92574523D01*
X116943333Y-92193571D01*
X116990952Y-92098333D01*
X117086190Y-92050714D01*
X117276666Y-92050714D01*
X117371904Y-92098333D01*
X117419523Y-92193571D01*
X117419523Y-92288809D01*
X116943333Y-92384047D01*
X118610000Y-92717380D02*
X118610000Y-92050714D01*
X118610000Y-91717380D02*
X118562380Y-91765000D01*
X118610000Y-91812619D01*
X118657619Y-91765000D01*
X118610000Y-91717380D01*
X118610000Y-91812619D01*
X119038571Y-92669761D02*
X119133809Y-92717380D01*
X119324285Y-92717380D01*
X119419523Y-92669761D01*
X119467142Y-92574523D01*
X119467142Y-92526904D01*
X119419523Y-92431666D01*
X119324285Y-92384047D01*
X119181428Y-92384047D01*
X119086190Y-92336428D01*
X119038571Y-92241190D01*
X119038571Y-92193571D01*
X119086190Y-92098333D01*
X119181428Y-92050714D01*
X119324285Y-92050714D01*
X119419523Y-92098333D01*
X120562380Y-91717380D02*
X121181428Y-91717380D01*
X120848095Y-92098333D01*
X120990952Y-92098333D01*
X121086190Y-92145952D01*
X121133809Y-92193571D01*
X121181428Y-92288809D01*
X121181428Y-92526904D01*
X121133809Y-92622142D01*
X121086190Y-92669761D01*
X120990952Y-92717380D01*
X120705238Y-92717380D01*
X120610000Y-92669761D01*
X120562380Y-92622142D01*
X122133809Y-92717380D02*
X121562380Y-92717380D01*
X121848095Y-92717380D02*
X121848095Y-91717380D01*
X121752857Y-91860238D01*
X121657619Y-91955476D01*
X121562380Y-92003095D01*
X123038571Y-91717380D02*
X122562380Y-91717380D01*
X122514761Y-92193571D01*
X122562380Y-92145952D01*
X122657619Y-92098333D01*
X122895714Y-92098333D01*
X122990952Y-92145952D01*
X123038571Y-92193571D01*
X123086190Y-92288809D01*
X123086190Y-92526904D01*
X123038571Y-92622142D01*
X122990952Y-92669761D01*
X122895714Y-92717380D01*
X122657619Y-92717380D01*
X122562380Y-92669761D01*
X122514761Y-92622142D01*
X123514761Y-92717380D02*
X123514761Y-91717380D01*
X123848095Y-92431666D01*
X124181428Y-91717380D01*
X124181428Y-92717380D01*
X124657619Y-92717380D02*
X124657619Y-91717380D01*
X124657619Y-92193571D02*
X125229047Y-92193571D01*
X125229047Y-92717380D02*
X125229047Y-91717380D01*
X125609999Y-92050714D02*
X126133809Y-92050714D01*
X125609999Y-92717380D01*
X126133809Y-92717380D01*
D11*
X169601428Y-112208571D02*
X169601428Y-113280000D01*
X169530000Y-113494285D01*
X169387142Y-113637142D01*
X169172857Y-113708571D01*
X169030000Y-113708571D01*
X171030000Y-113708571D02*
X170315714Y-113708571D01*
X170315714Y-112208571D01*
X172387142Y-113565714D02*
X172315714Y-113637142D01*
X172101428Y-113708571D01*
X171958571Y-113708571D01*
X171744285Y-113637142D01*
X171601428Y-113494285D01*
X171530000Y-113351428D01*
X171458571Y-113065714D01*
X171458571Y-112851428D01*
X171530000Y-112565714D01*
X171601428Y-112422857D01*
X171744285Y-112280000D01*
X171958571Y-112208571D01*
X172101428Y-112208571D01*
X172315714Y-112280000D01*
X172387142Y-112351428D01*
X173458571Y-112208571D02*
X173458571Y-113280000D01*
X173387142Y-113494285D01*
X173244285Y-113637142D01*
X173030000Y-113708571D01*
X172887142Y-113708571D01*
X174887142Y-113708571D02*
X174172857Y-113708571D01*
X174172857Y-112208571D01*
X176244285Y-113565714D02*
X176172857Y-113637142D01*
X175958571Y-113708571D01*
X175815714Y-113708571D01*
X175601428Y-113637142D01*
X175458571Y-113494285D01*
X175387142Y-113351428D01*
X175315714Y-113065714D01*
X175315714Y-112851428D01*
X175387142Y-112565714D01*
X175458571Y-112422857D01*
X175601428Y-112280000D01*
X175815714Y-112208571D01*
X175958571Y-112208571D01*
X176172857Y-112280000D01*
X176244285Y-112351428D01*
X177315714Y-112208571D02*
X177315714Y-113280000D01*
X177244285Y-113494285D01*
X177101428Y-113637142D01*
X176887142Y-113708571D01*
X176744285Y-113708571D01*
X178744285Y-113708571D02*
X178030000Y-113708571D01*
X178030000Y-112208571D01*
X180101428Y-113565714D02*
X180030000Y-113637142D01*
X179815714Y-113708571D01*
X179672857Y-113708571D01*
X179458571Y-113637142D01*
X179315714Y-113494285D01*
X179244285Y-113351428D01*
X179172857Y-113065714D01*
X179172857Y-112851428D01*
X179244285Y-112565714D01*
X179315714Y-112422857D01*
X179458571Y-112280000D01*
X179672857Y-112208571D01*
X179815714Y-112208571D01*
X180030000Y-112280000D01*
X180101428Y-112351428D01*
X181172857Y-112208571D02*
X181172857Y-113280000D01*
X181101428Y-113494285D01*
X180958571Y-113637142D01*
X180744285Y-113708571D01*
X180601428Y-113708571D01*
X182601428Y-113708571D02*
X181887142Y-113708571D01*
X181887142Y-112208571D01*
X183958571Y-113565714D02*
X183887142Y-113637142D01*
X183672857Y-113708571D01*
X183530000Y-113708571D01*
X183315714Y-113637142D01*
X183172857Y-113494285D01*
X183101428Y-113351428D01*
X183030000Y-113065714D01*
X183030000Y-112851428D01*
X183101428Y-112565714D01*
X183172857Y-112422857D01*
X183315714Y-112280000D01*
X183530000Y-112208571D01*
X183672857Y-112208571D01*
X183887142Y-112280000D01*
X183958571Y-112351428D01*
D10*
X157702857Y-148217380D02*
X157369523Y-147741190D01*
X157131428Y-148217380D02*
X157131428Y-147217380D01*
X157512380Y-147217380D01*
X157607619Y-147265000D01*
X157655238Y-147312619D01*
X157702857Y-147407857D01*
X157702857Y-147550714D01*
X157655238Y-147645952D01*
X157607619Y-147693571D01*
X157512380Y-147741190D01*
X157131428Y-147741190D01*
X158131428Y-147693571D02*
X158464761Y-147693571D01*
X158607619Y-148217380D02*
X158131428Y-148217380D01*
X158131428Y-147217380D01*
X158607619Y-147217380D01*
X158988571Y-148169761D02*
X159131428Y-148217380D01*
X159369523Y-148217380D01*
X159464761Y-148169761D01*
X159512380Y-148122142D01*
X159560000Y-148026904D01*
X159560000Y-147931666D01*
X159512380Y-147836428D01*
X159464761Y-147788809D01*
X159369523Y-147741190D01*
X159179047Y-147693571D01*
X159083809Y-147645952D01*
X159036190Y-147598333D01*
X158988571Y-147503095D01*
X158988571Y-147407857D01*
X159036190Y-147312619D01*
X159083809Y-147265000D01*
X159179047Y-147217380D01*
X159417142Y-147217380D01*
X159560000Y-147265000D01*
X159940952Y-148169761D02*
X160083809Y-148217380D01*
X160321904Y-148217380D01*
X160417142Y-148169761D01*
X160464761Y-148122142D01*
X160512380Y-148026904D01*
X160512380Y-147931666D01*
X160464761Y-147836428D01*
X160417142Y-147788809D01*
X160321904Y-147741190D01*
X160131428Y-147693571D01*
X160036190Y-147645952D01*
X159988571Y-147598333D01*
X159940952Y-147503095D01*
X159940952Y-147407857D01*
X159988571Y-147312619D01*
X160036190Y-147265000D01*
X160131428Y-147217380D01*
X160369523Y-147217380D01*
X160512380Y-147265000D01*
X160940952Y-147836428D02*
X161702857Y-147836428D01*
X162750476Y-148217380D02*
X162417142Y-147741190D01*
X162179047Y-148217380D02*
X162179047Y-147217380D01*
X162560000Y-147217380D01*
X162655238Y-147265000D01*
X162702857Y-147312619D01*
X162750476Y-147407857D01*
X162750476Y-147550714D01*
X162702857Y-147645952D01*
X162655238Y-147693571D01*
X162560000Y-147741190D01*
X162179047Y-147741190D01*
X163560000Y-148169761D02*
X163464761Y-148217380D01*
X163274285Y-148217380D01*
X163179047Y-148169761D01*
X163131428Y-148074523D01*
X163131428Y-147693571D01*
X163179047Y-147598333D01*
X163274285Y-147550714D01*
X163464761Y-147550714D01*
X163560000Y-147598333D01*
X163607619Y-147693571D01*
X163607619Y-147788809D01*
X163131428Y-147884047D01*
X164464761Y-148169761D02*
X164369523Y-148217380D01*
X164179047Y-148217380D01*
X164083809Y-148169761D01*
X164036190Y-148122142D01*
X163988571Y-148026904D01*
X163988571Y-147741190D01*
X164036190Y-147645952D01*
X164083809Y-147598333D01*
X164179047Y-147550714D01*
X164369523Y-147550714D01*
X164464761Y-147598333D01*
X165274285Y-148169761D02*
X165179047Y-148217380D01*
X164988571Y-148217380D01*
X164893333Y-148169761D01*
X164845714Y-148074523D01*
X164845714Y-147693571D01*
X164893333Y-147598333D01*
X164988571Y-147550714D01*
X165179047Y-147550714D01*
X165274285Y-147598333D01*
X165321904Y-147693571D01*
X165321904Y-147788809D01*
X164845714Y-147884047D01*
X165750476Y-148217380D02*
X165750476Y-147550714D01*
X165750476Y-147217380D02*
X165702857Y-147265000D01*
X165750476Y-147312619D01*
X165798095Y-147265000D01*
X165750476Y-147217380D01*
X165750476Y-147312619D01*
X166131428Y-147550714D02*
X166369523Y-148217380D01*
X166607619Y-147550714D01*
X167369523Y-148169761D02*
X167274285Y-148217380D01*
X167083809Y-148217380D01*
X166988571Y-148169761D01*
X166940952Y-148074523D01*
X166940952Y-147693571D01*
X166988571Y-147598333D01*
X167083809Y-147550714D01*
X167274285Y-147550714D01*
X167369523Y-147598333D01*
X167417142Y-147693571D01*
X167417142Y-147788809D01*
X166940952Y-147884047D01*
X167845714Y-148217380D02*
X167845714Y-147550714D01*
X167845714Y-147741190D02*
X167893333Y-147645952D01*
X167940952Y-147598333D01*
X168036190Y-147550714D01*
X168131428Y-147550714D01*
X155607619Y-148962619D02*
X155655238Y-148915000D01*
X155750476Y-148867380D01*
X155988571Y-148867380D01*
X156083809Y-148915000D01*
X156131428Y-148962619D01*
X156179047Y-149057857D01*
X156179047Y-149153095D01*
X156131428Y-149295952D01*
X155560000Y-149867380D01*
X156179047Y-149867380D01*
X156798095Y-148867380D02*
X156893333Y-148867380D01*
X156988571Y-148915000D01*
X157036190Y-148962619D01*
X157083809Y-149057857D01*
X157131428Y-149248333D01*
X157131428Y-149486428D01*
X157083809Y-149676904D01*
X157036190Y-149772142D01*
X156988571Y-149819761D01*
X156893333Y-149867380D01*
X156798095Y-149867380D01*
X156702857Y-149819761D01*
X156655238Y-149772142D01*
X156607619Y-149676904D01*
X156560000Y-149486428D01*
X156560000Y-149248333D01*
X156607619Y-149057857D01*
X156655238Y-148962619D01*
X156702857Y-148915000D01*
X156798095Y-148867380D01*
X157512380Y-148962619D02*
X157560000Y-148915000D01*
X157655238Y-148867380D01*
X157893333Y-148867380D01*
X157988571Y-148915000D01*
X158036190Y-148962619D01*
X158083809Y-149057857D01*
X158083809Y-149153095D01*
X158036190Y-149295952D01*
X157464761Y-149867380D01*
X158083809Y-149867380D01*
X158464761Y-148962619D02*
X158512380Y-148915000D01*
X158607619Y-148867380D01*
X158845714Y-148867380D01*
X158940952Y-148915000D01*
X158988571Y-148962619D01*
X159036190Y-149057857D01*
X159036190Y-149153095D01*
X158988571Y-149295952D01*
X158417142Y-149867380D01*
X159036190Y-149867380D01*
X160226666Y-149867380D02*
X160226666Y-148867380D01*
X161131428Y-149819761D02*
X161036190Y-149867380D01*
X160845714Y-149867380D01*
X160750476Y-149819761D01*
X160702857Y-149772142D01*
X160655238Y-149676904D01*
X160655238Y-149391190D01*
X160702857Y-149295952D01*
X160750476Y-149248333D01*
X160845714Y-149200714D01*
X161036190Y-149200714D01*
X161131428Y-149248333D01*
X161560000Y-149867380D02*
X161560000Y-148867380D01*
X161988571Y-149867380D02*
X161988571Y-149343571D01*
X161940952Y-149248333D01*
X161845714Y-149200714D01*
X161702857Y-149200714D01*
X161607619Y-149248333D01*
X161560000Y-149295952D01*
X162464761Y-149867380D02*
X162464761Y-149200714D01*
X162464761Y-148867380D02*
X162417142Y-148915000D01*
X162464761Y-148962619D01*
X162512380Y-148915000D01*
X162464761Y-148867380D01*
X162464761Y-148962619D01*
X162940952Y-149200714D02*
X162940952Y-149867380D01*
X162940952Y-149295952D02*
X162988571Y-149248333D01*
X163083809Y-149200714D01*
X163226666Y-149200714D01*
X163321904Y-149248333D01*
X163369523Y-149343571D01*
X163369523Y-149867380D01*
X163988571Y-149867380D02*
X163893333Y-149819761D01*
X163845714Y-149772142D01*
X163798095Y-149676904D01*
X163798095Y-149391190D01*
X163845714Y-149295952D01*
X163893333Y-149248333D01*
X163988571Y-149200714D01*
X164131428Y-149200714D01*
X164226666Y-149248333D01*
X164274285Y-149295952D01*
X164321904Y-149391190D01*
X164321904Y-149676904D01*
X164274285Y-149772142D01*
X164226666Y-149819761D01*
X164131428Y-149867380D01*
X163988571Y-149867380D01*
X164702857Y-149819761D02*
X164798095Y-149867380D01*
X164988571Y-149867380D01*
X165083809Y-149819761D01*
X165131428Y-149724523D01*
X165131428Y-149676904D01*
X165083809Y-149581666D01*
X164988571Y-149534047D01*
X164845714Y-149534047D01*
X164750476Y-149486428D01*
X164702857Y-149391190D01*
X164702857Y-149343571D01*
X164750476Y-149248333D01*
X164845714Y-149200714D01*
X164988571Y-149200714D01*
X165083809Y-149248333D01*
X165940952Y-149819761D02*
X165845714Y-149867380D01*
X165655238Y-149867380D01*
X165560000Y-149819761D01*
X165512380Y-149724523D01*
X165512380Y-149343571D01*
X165560000Y-149248333D01*
X165655238Y-149200714D01*
X165845714Y-149200714D01*
X165940952Y-149248333D01*
X165988571Y-149343571D01*
X165988571Y-149438809D01*
X165512380Y-149534047D01*
X166417142Y-149867380D02*
X166417142Y-148867380D01*
X166512380Y-149486428D02*
X166798095Y-149867380D01*
X166798095Y-149200714D02*
X166417142Y-149581666D01*
X167226666Y-149867380D02*
X167226666Y-149200714D01*
X167226666Y-148867380D02*
X167179047Y-148915000D01*
X167226666Y-148962619D01*
X167274285Y-148915000D01*
X167226666Y-148867380D01*
X167226666Y-148962619D01*
X167702857Y-149486428D02*
X168464761Y-149486428D01*
X169274285Y-149343571D02*
X169417142Y-149391190D01*
X169464761Y-149438809D01*
X169512380Y-149534047D01*
X169512380Y-149676904D01*
X169464761Y-149772142D01*
X169417142Y-149819761D01*
X169321904Y-149867380D01*
X168940952Y-149867380D01*
X168940952Y-148867380D01*
X169274285Y-148867380D01*
X169369523Y-148915000D01*
X169417142Y-148962619D01*
X169464761Y-149057857D01*
X169464761Y-149153095D01*
X169417142Y-149248333D01*
X169369523Y-149295952D01*
X169274285Y-149343571D01*
X168940952Y-149343571D01*
D12*
%TO.C,U2*%
X180800000Y-79820000D02*
X180800000Y-83820000D01*
X174800000Y-79820000D02*
X180800000Y-79820000D01*
X174800000Y-83820000D02*
X174800000Y-79820000D01*
X174800000Y-150820000D02*
X174800000Y-146820000D01*
X180800000Y-150820000D02*
X174800000Y-150820000D01*
X180800000Y-146820000D02*
X180800000Y-150820000D01*
X180800000Y-146820000D02*
X180800000Y-142820000D01*
X174800000Y-146820000D02*
X174800000Y-142820000D01*
X174800000Y-83820000D02*
X174800000Y-87820000D01*
X180800000Y-83820000D02*
X180800000Y-87820000D01*
X155300000Y-142820000D02*
X155300000Y-115320000D01*
X200300000Y-142820000D02*
X155300000Y-142820000D01*
X200300000Y-115320000D02*
X200300000Y-142820000D01*
X155300000Y-87820000D02*
X200300000Y-87820000D01*
X155300000Y-115320000D02*
X155300000Y-87820000D01*
X200300000Y-115320000D02*
X200300000Y-87820000D01*
%TO.C,J3*%
X104540000Y-102250000D02*
X105870000Y-102250000D01*
X105870000Y-102250000D02*
X105870000Y-103580000D01*
X105870000Y-104850000D02*
X105870000Y-127770000D01*
X103210000Y-127770000D02*
X105870000Y-127770000D01*
X103210000Y-104850000D02*
X103210000Y-127770000D01*
X103210000Y-104850000D02*
X105870000Y-104850000D01*
%TO.C,J4*%
X128610000Y-104850000D02*
X131270000Y-104850000D01*
X128610000Y-104850000D02*
X128610000Y-127770000D01*
X128610000Y-127770000D02*
X131270000Y-127770000D01*
X131270000Y-104850000D02*
X131270000Y-127770000D01*
X131270000Y-102250000D02*
X131270000Y-103580000D01*
X129940000Y-102250000D02*
X131270000Y-102250000D01*
%TO.C,J5*%
X123490000Y-141410000D02*
X123190000Y-142010000D01*
X122890000Y-141410000D02*
X123490000Y-141410000D01*
X123190000Y-142010000D02*
X122890000Y-141410000D01*
X125940000Y-146710000D02*
X125440000Y-146710000D01*
X125940000Y-152210000D02*
X125940000Y-146710000D01*
X125440000Y-152210000D02*
X125940000Y-152210000D01*
X125440000Y-146710000D02*
X125440000Y-152210000D01*
X123440000Y-146710000D02*
X122940000Y-146710000D01*
X123440000Y-152210000D02*
X123440000Y-146710000D01*
X122940000Y-152210000D02*
X123440000Y-152210000D01*
X122940000Y-146710000D02*
X122940000Y-152210000D01*
X126830000Y-145600000D02*
X124440000Y-145600000D01*
X126830000Y-141100000D02*
X126830000Y-145600000D01*
X128250000Y-141100000D02*
X126830000Y-141100000D01*
X128250000Y-152820000D02*
X128250000Y-141100000D01*
X124440000Y-152820000D02*
X128250000Y-152820000D01*
X122050000Y-145600000D02*
X124440000Y-145600000D01*
X122050000Y-141100000D02*
X122050000Y-145600000D01*
X120630000Y-141100000D02*
X122050000Y-141100000D01*
X120630000Y-152820000D02*
X120630000Y-141100000D01*
X124440000Y-152820000D02*
X120630000Y-152820000D01*
%TO.C,J6*%
X113330000Y-141410000D02*
X113030000Y-142010000D01*
X112730000Y-141410000D02*
X113330000Y-141410000D01*
X113030000Y-142010000D02*
X112730000Y-141410000D01*
X115780000Y-146710000D02*
X115280000Y-146710000D01*
X115780000Y-152210000D02*
X115780000Y-146710000D01*
X115280000Y-152210000D02*
X115780000Y-152210000D01*
X115280000Y-146710000D02*
X115280000Y-152210000D01*
X113280000Y-146710000D02*
X112780000Y-146710000D01*
X113280000Y-152210000D02*
X113280000Y-146710000D01*
X112780000Y-152210000D02*
X113280000Y-152210000D01*
X112780000Y-146710000D02*
X112780000Y-152210000D01*
X116670000Y-145600000D02*
X114280000Y-145600000D01*
X116670000Y-141100000D02*
X116670000Y-145600000D01*
X118090000Y-141100000D02*
X116670000Y-141100000D01*
X118090000Y-152820000D02*
X118090000Y-141100000D01*
X114280000Y-152820000D02*
X118090000Y-152820000D01*
X111890000Y-145600000D02*
X114280000Y-145600000D01*
X111890000Y-141100000D02*
X111890000Y-145600000D01*
X110470000Y-141100000D02*
X111890000Y-141100000D01*
X110470000Y-152820000D02*
X110470000Y-141100000D01*
X114280000Y-152820000D02*
X110470000Y-152820000D01*
%TO.C,D1*%
X139225000Y-147715000D02*
G75*
G03*
X139225000Y-147715000I-2500000J0D01*
G01*
X135180000Y-150275000D02*
X138270000Y-150275000D01*
X136725462Y-144725000D02*
G75*
G03*
X135180170Y-150275000I-462J-2990000D01*
G01*
X136724538Y-144725000D02*
G75*
G02*
X138269830Y-150275000I462J-2990000D01*
G01*
%TO.C,SW2*%
X117745000Y-83125000D02*
X116095000Y-83125000D01*
X116095000Y-83125000D02*
X116095000Y-88325000D01*
X116095000Y-88325000D02*
X121395000Y-88325000D01*
X121395000Y-88325000D02*
X121395000Y-83125000D01*
X121395000Y-83125000D02*
X119745000Y-83125000D01*
X119745000Y-83125000D02*
G75*
G02*
X117745000Y-83125000I-1000000J0D01*
G01*
%TO.C,U4*%
X108525000Y-116570000D02*
X108525000Y-118220000D01*
X108525000Y-118220000D02*
X126425000Y-118220000D01*
X126425000Y-118220000D02*
X126425000Y-112920000D01*
X126425000Y-112920000D02*
X108525000Y-112920000D01*
X108525000Y-112920000D02*
X108525000Y-114570000D01*
X108525000Y-114570000D02*
G75*
G02*
X108525000Y-116570000I0J-1000000D01*
G01*
%TO.C,U5*%
X108525000Y-99585000D02*
X108525000Y-101235000D01*
X126425000Y-99585000D02*
X108525000Y-99585000D01*
X126425000Y-104885000D02*
X126425000Y-99585000D01*
X108525000Y-104885000D02*
X126425000Y-104885000D01*
X108525000Y-103235000D02*
X108525000Y-104885000D01*
X108525000Y-101235000D02*
G75*
G02*
X108525000Y-103235000I0J-1000000D01*
G01*
%TO.C,R1*%
X113570000Y-134215000D02*
X113570000Y-133885000D01*
X113570000Y-133885000D02*
X120110000Y-133885000D01*
X120110000Y-133885000D02*
X120110000Y-134215000D01*
X113570000Y-136295000D02*
X113570000Y-136625000D01*
X113570000Y-136625000D02*
X120110000Y-136625000D01*
X120110000Y-136625000D02*
X120110000Y-136295000D01*
%TO.C,U1*%
X111395000Y-125035000D02*
X109745000Y-125035000D01*
X109745000Y-125035000D02*
X109745000Y-130235000D01*
X109745000Y-130235000D02*
X115045000Y-130235000D01*
X115045000Y-130235000D02*
X115045000Y-125035000D01*
X115045000Y-125035000D02*
X113395000Y-125035000D01*
X113395000Y-125035000D02*
G75*
G02*
X111395000Y-125035000I-1000000J0D01*
G01*
%TO.C,C1*%
X160850000Y-86460000D02*
X156610000Y-86460000D01*
X160850000Y-83720000D02*
X156610000Y-83720000D01*
X160850000Y-86460000D02*
X160850000Y-85755000D01*
X160850000Y-84425000D02*
X160850000Y-83720000D01*
X156610000Y-86460000D02*
X156610000Y-85755000D01*
X156610000Y-84425000D02*
X156610000Y-83720000D01*
%TO.C,C2*%
X167450000Y-85090000D02*
G75*
G03*
X167450000Y-85090000I-2620000J0D01*
G01*
X164830000Y-86130000D02*
X164830000Y-87670000D01*
X164830000Y-82510000D02*
X164830000Y-84050000D01*
X164870000Y-86130000D02*
X164870000Y-87670000D01*
X164870000Y-82510000D02*
X164870000Y-84050000D01*
X164910000Y-82511000D02*
X164910000Y-84050000D01*
X164910000Y-86130000D02*
X164910000Y-87669000D01*
X164950000Y-82512000D02*
X164950000Y-84050000D01*
X164950000Y-86130000D02*
X164950000Y-87668000D01*
X164990000Y-82514000D02*
X164990000Y-84050000D01*
X164990000Y-86130000D02*
X164990000Y-87666000D01*
X165030000Y-82517000D02*
X165030000Y-84050000D01*
X165030000Y-86130000D02*
X165030000Y-87663000D01*
X165070000Y-82521000D02*
X165070000Y-84050000D01*
X165070000Y-86130000D02*
X165070000Y-87659000D01*
X165110000Y-82525000D02*
X165110000Y-84050000D01*
X165110000Y-86130000D02*
X165110000Y-87655000D01*
X165150000Y-82529000D02*
X165150000Y-84050000D01*
X165150000Y-86130000D02*
X165150000Y-87651000D01*
X165190000Y-82534000D02*
X165190000Y-84050000D01*
X165190000Y-86130000D02*
X165190000Y-87646000D01*
X165230000Y-82540000D02*
X165230000Y-84050000D01*
X165230000Y-86130000D02*
X165230000Y-87640000D01*
X165270000Y-82547000D02*
X165270000Y-84050000D01*
X165270000Y-86130000D02*
X165270000Y-87633000D01*
X165310000Y-82554000D02*
X165310000Y-84050000D01*
X165310000Y-86130000D02*
X165310000Y-87626000D01*
X165350000Y-82562000D02*
X165350000Y-84050000D01*
X165350000Y-86130000D02*
X165350000Y-87618000D01*
X165390000Y-82570000D02*
X165390000Y-84050000D01*
X165390000Y-86130000D02*
X165390000Y-87610000D01*
X165430000Y-82579000D02*
X165430000Y-84050000D01*
X165430000Y-86130000D02*
X165430000Y-87601000D01*
X165470000Y-82589000D02*
X165470000Y-84050000D01*
X165470000Y-86130000D02*
X165470000Y-87591000D01*
X165510000Y-82599000D02*
X165510000Y-84050000D01*
X165510000Y-86130000D02*
X165510000Y-87581000D01*
X165551000Y-82610000D02*
X165551000Y-84050000D01*
X165551000Y-86130000D02*
X165551000Y-87570000D01*
X165591000Y-82622000D02*
X165591000Y-84050000D01*
X165591000Y-86130000D02*
X165591000Y-87558000D01*
X165631000Y-82635000D02*
X165631000Y-84050000D01*
X165631000Y-86130000D02*
X165631000Y-87545000D01*
X165671000Y-82648000D02*
X165671000Y-84050000D01*
X165671000Y-86130000D02*
X165671000Y-87532000D01*
X165711000Y-82662000D02*
X165711000Y-84050000D01*
X165711000Y-86130000D02*
X165711000Y-87518000D01*
X165751000Y-82676000D02*
X165751000Y-84050000D01*
X165751000Y-86130000D02*
X165751000Y-87504000D01*
X165791000Y-82692000D02*
X165791000Y-84050000D01*
X165791000Y-86130000D02*
X165791000Y-87488000D01*
X165831000Y-82708000D02*
X165831000Y-84050000D01*
X165831000Y-86130000D02*
X165831000Y-87472000D01*
X165871000Y-82725000D02*
X165871000Y-84050000D01*
X165871000Y-86130000D02*
X165871000Y-87455000D01*
X165911000Y-82742000D02*
X165911000Y-84050000D01*
X165911000Y-86130000D02*
X165911000Y-87438000D01*
X165951000Y-82761000D02*
X165951000Y-84050000D01*
X165951000Y-86130000D02*
X165951000Y-87419000D01*
X165991000Y-82780000D02*
X165991000Y-84050000D01*
X165991000Y-86130000D02*
X165991000Y-87400000D01*
X166031000Y-82800000D02*
X166031000Y-84050000D01*
X166031000Y-86130000D02*
X166031000Y-87380000D01*
X166071000Y-82822000D02*
X166071000Y-84050000D01*
X166071000Y-86130000D02*
X166071000Y-87358000D01*
X166111000Y-82843000D02*
X166111000Y-84050000D01*
X166111000Y-86130000D02*
X166111000Y-87337000D01*
X166151000Y-82866000D02*
X166151000Y-84050000D01*
X166151000Y-86130000D02*
X166151000Y-87314000D01*
X166191000Y-82890000D02*
X166191000Y-84050000D01*
X166191000Y-86130000D02*
X166191000Y-87290000D01*
X166231000Y-82915000D02*
X166231000Y-84050000D01*
X166231000Y-86130000D02*
X166231000Y-87265000D01*
X166271000Y-82941000D02*
X166271000Y-84050000D01*
X166271000Y-86130000D02*
X166271000Y-87239000D01*
X166311000Y-82968000D02*
X166311000Y-84050000D01*
X166311000Y-86130000D02*
X166311000Y-87212000D01*
X166351000Y-82995000D02*
X166351000Y-84050000D01*
X166351000Y-86130000D02*
X166351000Y-87185000D01*
X166391000Y-83025000D02*
X166391000Y-84050000D01*
X166391000Y-86130000D02*
X166391000Y-87155000D01*
X166431000Y-83055000D02*
X166431000Y-84050000D01*
X166431000Y-86130000D02*
X166431000Y-87125000D01*
X166471000Y-83086000D02*
X166471000Y-84050000D01*
X166471000Y-86130000D02*
X166471000Y-87094000D01*
X166511000Y-83119000D02*
X166511000Y-84050000D01*
X166511000Y-86130000D02*
X166511000Y-87061000D01*
X166551000Y-83153000D02*
X166551000Y-84050000D01*
X166551000Y-86130000D02*
X166551000Y-87027000D01*
X166591000Y-83189000D02*
X166591000Y-84050000D01*
X166591000Y-86130000D02*
X166591000Y-86991000D01*
X166631000Y-83226000D02*
X166631000Y-84050000D01*
X166631000Y-86130000D02*
X166631000Y-86954000D01*
X166671000Y-83264000D02*
X166671000Y-84050000D01*
X166671000Y-86130000D02*
X166671000Y-86916000D01*
X166711000Y-83305000D02*
X166711000Y-84050000D01*
X166711000Y-86130000D02*
X166711000Y-86875000D01*
X166751000Y-83347000D02*
X166751000Y-84050000D01*
X166751000Y-86130000D02*
X166751000Y-86833000D01*
X166791000Y-83391000D02*
X166791000Y-84050000D01*
X166791000Y-86130000D02*
X166791000Y-86789000D01*
X166831000Y-83437000D02*
X166831000Y-84050000D01*
X166831000Y-86130000D02*
X166831000Y-86743000D01*
X166871000Y-83485000D02*
X166871000Y-86695000D01*
X166911000Y-83536000D02*
X166911000Y-86644000D01*
X166951000Y-83590000D02*
X166951000Y-86590000D01*
X166991000Y-83647000D02*
X166991000Y-86533000D01*
X167031000Y-83707000D02*
X167031000Y-86473000D01*
X167071000Y-83771000D02*
X167071000Y-86409000D01*
X167111000Y-83839000D02*
X167111000Y-86341000D01*
X167151000Y-83912000D02*
X167151000Y-86268000D01*
X167191000Y-83992000D02*
X167191000Y-86188000D01*
X167231000Y-84079000D02*
X167231000Y-86101000D01*
X167271000Y-84175000D02*
X167271000Y-86005000D01*
X167311000Y-84285000D02*
X167311000Y-85895000D01*
X167351000Y-84413000D02*
X167351000Y-85767000D01*
X167391000Y-84572000D02*
X167391000Y-85608000D01*
X167431000Y-84806000D02*
X167431000Y-85374000D01*
X162025225Y-83615000D02*
X162525225Y-83615000D01*
X162275225Y-83365000D02*
X162275225Y-83865000D01*
%TO.C,U3*%
X135215000Y-97425000D02*
X145455000Y-97425000D01*
X135215000Y-81535000D02*
X145455000Y-81535000D01*
X135215000Y-81535000D02*
X135215000Y-97425000D01*
X145455000Y-81535000D02*
X145455000Y-97425000D01*
X137795000Y-97425000D02*
X137795000Y-99965000D01*
X140335000Y-97425000D02*
X140335000Y-99965000D01*
X142875000Y-97425000D02*
X142875000Y-99965000D01*
%TO.C,U2*%
D10*
X175982380Y-116081904D02*
X176791904Y-116081904D01*
X176887142Y-116034285D01*
X176934761Y-115986666D01*
X176982380Y-115891428D01*
X176982380Y-115700952D01*
X176934761Y-115605714D01*
X176887142Y-115558095D01*
X176791904Y-115510476D01*
X175982380Y-115510476D01*
X176077619Y-115081904D02*
X176030000Y-115034285D01*
X175982380Y-114939047D01*
X175982380Y-114700952D01*
X176030000Y-114605714D01*
X176077619Y-114558095D01*
X176172857Y-114510476D01*
X176268095Y-114510476D01*
X176410952Y-114558095D01*
X176982380Y-115129523D01*
X176982380Y-114510476D01*
%TO.C,J3*%
X104206666Y-100262380D02*
X104206666Y-100976666D01*
X104159047Y-101119523D01*
X104063809Y-101214761D01*
X103920952Y-101262380D01*
X103825714Y-101262380D01*
X104587619Y-100262380D02*
X105206666Y-100262380D01*
X104873333Y-100643333D01*
X105016190Y-100643333D01*
X105111428Y-100690952D01*
X105159047Y-100738571D01*
X105206666Y-100833809D01*
X105206666Y-101071904D01*
X105159047Y-101167142D01*
X105111428Y-101214761D01*
X105016190Y-101262380D01*
X104730476Y-101262380D01*
X104635238Y-101214761D01*
X104587619Y-101167142D01*
%TO.C,J4*%
X129606666Y-100262380D02*
X129606666Y-100976666D01*
X129559047Y-101119523D01*
X129463809Y-101214761D01*
X129320952Y-101262380D01*
X129225714Y-101262380D01*
X130511428Y-100595714D02*
X130511428Y-101262380D01*
X130273333Y-100214761D02*
X130035238Y-100929047D01*
X130654285Y-100929047D01*
%TO.C,SW2*%
X117411666Y-82529761D02*
X117554523Y-82577380D01*
X117792619Y-82577380D01*
X117887857Y-82529761D01*
X117935476Y-82482142D01*
X117983095Y-82386904D01*
X117983095Y-82291666D01*
X117935476Y-82196428D01*
X117887857Y-82148809D01*
X117792619Y-82101190D01*
X117602142Y-82053571D01*
X117506904Y-82005952D01*
X117459285Y-81958333D01*
X117411666Y-81863095D01*
X117411666Y-81767857D01*
X117459285Y-81672619D01*
X117506904Y-81625000D01*
X117602142Y-81577380D01*
X117840238Y-81577380D01*
X117983095Y-81625000D01*
X118316428Y-81577380D02*
X118554523Y-82577380D01*
X118745000Y-81863095D01*
X118935476Y-82577380D01*
X119173571Y-81577380D01*
X119506904Y-81672619D02*
X119554523Y-81625000D01*
X119649761Y-81577380D01*
X119887857Y-81577380D01*
X119983095Y-81625000D01*
X120030714Y-81672619D01*
X120078333Y-81767857D01*
X120078333Y-81863095D01*
X120030714Y-82005952D01*
X119459285Y-82577380D01*
X120078333Y-82577380D01*
%TO.C,U4*%
X106977380Y-116331904D02*
X107786904Y-116331904D01*
X107882142Y-116284285D01*
X107929761Y-116236666D01*
X107977380Y-116141428D01*
X107977380Y-115950952D01*
X107929761Y-115855714D01*
X107882142Y-115808095D01*
X107786904Y-115760476D01*
X106977380Y-115760476D01*
X107310714Y-114855714D02*
X107977380Y-114855714D01*
X106929761Y-115093809D02*
X107644047Y-115331904D01*
X107644047Y-114712857D01*
%TO.C,U5*%
X106977380Y-102996904D02*
X107786904Y-102996904D01*
X107882142Y-102949285D01*
X107929761Y-102901666D01*
X107977380Y-102806428D01*
X107977380Y-102615952D01*
X107929761Y-102520714D01*
X107882142Y-102473095D01*
X107786904Y-102425476D01*
X106977380Y-102425476D01*
X106977380Y-101473095D02*
X106977380Y-101949285D01*
X107453571Y-101996904D01*
X107405952Y-101949285D01*
X107358333Y-101854047D01*
X107358333Y-101615952D01*
X107405952Y-101520714D01*
X107453571Y-101473095D01*
X107548809Y-101425476D01*
X107786904Y-101425476D01*
X107882142Y-101473095D01*
X107929761Y-101520714D01*
X107977380Y-101615952D01*
X107977380Y-101854047D01*
X107929761Y-101949285D01*
X107882142Y-101996904D01*
%TO.C,R1*%
X116673333Y-133337380D02*
X116340000Y-132861190D01*
X116101904Y-133337380D02*
X116101904Y-132337380D01*
X116482857Y-132337380D01*
X116578095Y-132385000D01*
X116625714Y-132432619D01*
X116673333Y-132527857D01*
X116673333Y-132670714D01*
X116625714Y-132765952D01*
X116578095Y-132813571D01*
X116482857Y-132861190D01*
X116101904Y-132861190D01*
X117625714Y-133337380D02*
X117054285Y-133337380D01*
X117340000Y-133337380D02*
X117340000Y-132337380D01*
X117244761Y-132480238D01*
X117149523Y-132575476D01*
X117054285Y-132623095D01*
%TO.C,U1*%
X111633095Y-123487380D02*
X111633095Y-124296904D01*
X111680714Y-124392142D01*
X111728333Y-124439761D01*
X111823571Y-124487380D01*
X112014047Y-124487380D01*
X112109285Y-124439761D01*
X112156904Y-124392142D01*
X112204523Y-124296904D01*
X112204523Y-123487380D01*
X113204523Y-124487380D02*
X112633095Y-124487380D01*
X112918809Y-124487380D02*
X112918809Y-123487380D01*
X112823571Y-123630238D01*
X112728333Y-123725476D01*
X112633095Y-123773095D01*
%TO.C,C1*%
X158563333Y-87947142D02*
X158515714Y-87994761D01*
X158372857Y-88042380D01*
X158277619Y-88042380D01*
X158134761Y-87994761D01*
X158039523Y-87899523D01*
X157991904Y-87804285D01*
X157944285Y-87613809D01*
X157944285Y-87470952D01*
X157991904Y-87280476D01*
X158039523Y-87185238D01*
X158134761Y-87090000D01*
X158277619Y-87042380D01*
X158372857Y-87042380D01*
X158515714Y-87090000D01*
X158563333Y-87137619D01*
X159515714Y-88042380D02*
X158944285Y-88042380D01*
X159230000Y-88042380D02*
X159230000Y-87042380D01*
X159134761Y-87185238D01*
X159039523Y-87280476D01*
X158944285Y-87328095D01*
%TO.C,C2*%
X164663333Y-81697142D02*
X164615714Y-81744761D01*
X164472857Y-81792380D01*
X164377619Y-81792380D01*
X164234761Y-81744761D01*
X164139523Y-81649523D01*
X164091904Y-81554285D01*
X164044285Y-81363809D01*
X164044285Y-81220952D01*
X164091904Y-81030476D01*
X164139523Y-80935238D01*
X164234761Y-80840000D01*
X164377619Y-80792380D01*
X164472857Y-80792380D01*
X164615714Y-80840000D01*
X164663333Y-80887619D01*
X165044285Y-80887619D02*
X165091904Y-80840000D01*
X165187142Y-80792380D01*
X165425238Y-80792380D01*
X165520476Y-80840000D01*
X165568095Y-80887619D01*
X165615714Y-80982857D01*
X165615714Y-81078095D01*
X165568095Y-81220952D01*
X164996666Y-81792380D01*
X165615714Y-81792380D01*
%TO.C,U3*%
X139573095Y-79987380D02*
X139573095Y-80796904D01*
X139620714Y-80892142D01*
X139668333Y-80939761D01*
X139763571Y-80987380D01*
X139954047Y-80987380D01*
X140049285Y-80939761D01*
X140096904Y-80892142D01*
X140144523Y-80796904D01*
X140144523Y-79987380D01*
X140525476Y-79987380D02*
X141144523Y-79987380D01*
X140811190Y-80368333D01*
X140954047Y-80368333D01*
X141049285Y-80415952D01*
X141096904Y-80463571D01*
X141144523Y-80558809D01*
X141144523Y-80796904D01*
X141096904Y-80892142D01*
X141049285Y-80939761D01*
X140954047Y-80987380D01*
X140668333Y-80987380D01*
X140573095Y-80939761D01*
X140525476Y-80892142D01*
%TD*%
M02*
