M48
; DRILL file {KiCad (6.0.8)} date Fri Oct  7 14:53:05 2022
; FORMAT={-:-/ absolute / metric / decimal}
; #@! TF.CreationDate,2022-10-07T14:53:05+09:00
; #@! TF.GenerationSoftware,Kicad,Pcbnew,(6.0.8)
; #@! TF.FileFunction,MixedPlating,1,2
FMAT,2
METRIC
; #@! TA.AperFunction,Plated,PTH,ViaDrill
T1C0.400
; #@! TA.AperFunction,Plated,PTH,ComponentDrill
T2C0.500
; #@! TA.AperFunction,Plated,PTH,ComponentDrill
T3C0.800
; #@! TA.AperFunction,Plated,PTH,ComponentDrill
T4C0.890
; #@! TA.AperFunction,Plated,PTH,ComponentDrill
T5C0.900
; #@! TA.AperFunction,Plated,PTH,ComponentDrill
T6C1.000
; #@! TA.AperFunction,Plated,PTH,ComponentDrill
T7C3.200
%
G90
G05
T1
X85.09Y-96.52
T2
X82.69Y-83.82
X82.69Y-148.59
X83.393Y-82.123
X83.393Y-85.517
X83.393Y-146.893
X83.393Y-150.287
X85.09Y-81.42
X85.09Y-86.22
X85.09Y-146.19
X85.09Y-150.99
X86.787Y-82.123
X86.787Y-85.517
X86.787Y-146.893
X86.787Y-150.287
X87.49Y-83.82
X87.49Y-148.59
X122.695Y-83.82
X122.695Y-148.59
X123.398Y-82.123
X123.398Y-85.517
X123.398Y-146.893
X123.398Y-150.287
X125.095Y-81.42
X125.095Y-86.22
X125.095Y-146.19
X125.095Y-150.99
X126.792Y-82.123
X126.792Y-85.517
X126.792Y-146.893
X126.792Y-150.287
X127.495Y-83.82
X127.495Y-148.59
T3
X104.135Y-137.155
X104.135Y-139.695
X111.755Y-137.155
X111.755Y-139.695
T4
X111.76Y-144.77
X111.76Y-149.85
X114.3Y-144.77
X116.84Y-144.77
X116.84Y-149.85
T5
X97.79Y-148.59
X97.79Y-151.13
X104.14Y-148.59
X104.14Y-151.13
T6
X87.615Y-114.275
X87.66Y-129.515
X89.81Y-91.46
X89.81Y-93.96
X89.81Y-100.62
X89.81Y-103.12
X90.155Y-114.275
X90.2Y-129.515
X92.695Y-114.275
X92.74Y-129.515
X95.235Y-114.275
X95.28Y-82.525
X95.28Y-107.925
X95.28Y-129.515
X97.775Y-114.275
X97.82Y-82.525
X97.82Y-107.925
X97.82Y-129.515
X100.315Y-114.275
X100.36Y-82.525
X100.36Y-107.925
X100.36Y-129.515
X102.855Y-114.275
X102.9Y-82.525
X102.9Y-107.925
X102.9Y-129.515
X105.395Y-114.275
X105.44Y-82.525
X105.44Y-107.925
X105.44Y-129.515
X107.935Y-114.275
X107.98Y-82.525
X107.98Y-107.925
X107.98Y-129.515
X110.475Y-114.275
X110.52Y-82.525
X110.52Y-107.925
X110.52Y-129.515
X113.015Y-114.275
X113.06Y-82.525
X113.06Y-107.925
X113.06Y-129.515
X115.555Y-114.275
X115.6Y-82.525
X115.6Y-107.925
X115.6Y-129.515
X118.095Y-114.275
X118.14Y-82.525
X118.14Y-107.925
X118.14Y-129.515
X120.635Y-114.275
X120.68Y-129.515
X123.175Y-114.275
X123.22Y-129.515
T7
X85.09Y-83.82
X85.09Y-148.59
X125.095Y-83.82
X125.095Y-148.59
T0
M30
