%TF.GenerationSoftware,KiCad,Pcbnew,(6.0.8)*%
%TF.CreationDate,2022-10-07T14:53:03+09:00*%
%TF.ProjectId,Receiver,52656365-6976-4657-922e-6b696361645f,rev?*%
%TF.SameCoordinates,Original*%
%TF.FileFunction,Soldermask,Bot*%
%TF.FilePolarity,Negative*%
%FSLAX46Y46*%
G04 Gerber Fmt 4.6, Leading zero omitted, Abs format (unit mm)*
G04 Created by KiCad (PCBNEW (6.0.8)) date 2022-10-07 14:53:03*
%MOMM*%
%LPD*%
G01*
G04 APERTURE LIST*
G04 Aperture macros list*
%AMRoundRect*
0 Rectangle with rounded corners*
0 $1 Rounding radius*
0 $2 $3 $4 $5 $6 $7 $8 $9 X,Y pos of 4 corners*
0 Add a 4 corners polygon primitive as box body*
4,1,4,$2,$3,$4,$5,$6,$7,$8,$9,$2,$3,0*
0 Add four circle primitives for the rounded corners*
1,1,$1+$1,$2,$3*
1,1,$1+$1,$4,$5*
1,1,$1+$1,$6,$7*
1,1,$1+$1,$8,$9*
0 Add four rect primitives between the rounded corners*
20,1,$1+$1,$2,$3,$4,$5,0*
20,1,$1+$1,$4,$5,$6,$7,0*
20,1,$1+$1,$6,$7,$8,$9,0*
20,1,$1+$1,$8,$9,$2,$3,0*%
G04 Aperture macros list end*
%ADD10C,0.800000*%
%ADD11C,6.400000*%
%ADD12R,1.700000X1.700000*%
%ADD13O,1.700000X1.700000*%
%ADD14RoundRect,0.250000X-0.750000X0.600000X-0.750000X-0.600000X0.750000X-0.600000X0.750000X0.600000X0*%
%ADD15O,2.000000X1.700000*%
%ADD16R,1.800000X1.800000*%
%ADD17C,1.800000*%
%ADD18R,1.600000X1.600000*%
%ADD19O,1.600000X1.600000*%
%ADD20C,1.600000*%
%ADD21RoundRect,0.400000X0.400000X-0.400000X0.400000X0.400000X-0.400000X0.400000X-0.400000X-0.400000X0*%
G04 APERTURE END LIST*
D10*
%TO.C,H1*%
X86787056Y-85517056D03*
X85090000Y-86220000D03*
X83392944Y-82122944D03*
X86787056Y-82122944D03*
X85090000Y-81420000D03*
D11*
X85090000Y-83820000D03*
D10*
X82690000Y-83820000D03*
X87490000Y-83820000D03*
X83392944Y-85517056D03*
%TD*%
%TO.C,H3*%
X125095000Y-146190000D03*
X126792056Y-146892944D03*
X123397944Y-150287056D03*
X125095000Y-150990000D03*
X123397944Y-146892944D03*
D11*
X125095000Y-148590000D03*
D10*
X122695000Y-148590000D03*
X126792056Y-150287056D03*
X127495000Y-148590000D03*
%TD*%
%TO.C,H4*%
X125095000Y-81420000D03*
X123397944Y-85517056D03*
X126792056Y-82122944D03*
D11*
X125095000Y-83820000D03*
D10*
X126792056Y-85517056D03*
X125095000Y-86220000D03*
X122695000Y-83820000D03*
X127495000Y-83820000D03*
X123397944Y-82122944D03*
%TD*%
D11*
%TO.C,H2*%
X85090000Y-148590000D03*
D10*
X86787056Y-146892944D03*
X83392944Y-146892944D03*
X83392944Y-150287056D03*
X85090000Y-146190000D03*
X86787056Y-150287056D03*
X87490000Y-148590000D03*
X85090000Y-150990000D03*
X82690000Y-148590000D03*
%TD*%
D12*
%TO.C,J4*%
X95280000Y-82525000D03*
D13*
X97820000Y-82525000D03*
X100360000Y-82525000D03*
X102900000Y-82525000D03*
X105440000Y-82525000D03*
X107980000Y-82525000D03*
X110520000Y-82525000D03*
X113060000Y-82525000D03*
X115600000Y-82525000D03*
X118140000Y-82525000D03*
%TD*%
D12*
%TO.C,J1*%
X87660000Y-129515000D03*
D13*
X90200000Y-129515000D03*
X92740000Y-129515000D03*
X95280000Y-129515000D03*
X97820000Y-129515000D03*
X100360000Y-129515000D03*
X102900000Y-129515000D03*
X105440000Y-129515000D03*
X107980000Y-129515000D03*
X110520000Y-129515000D03*
X113060000Y-129515000D03*
X115600000Y-129515000D03*
X118140000Y-129515000D03*
X120680000Y-129515000D03*
X123220000Y-129515000D03*
%TD*%
D14*
%TO.C,J5*%
X89810000Y-91460000D03*
D15*
X89810000Y-93960000D03*
%TD*%
D16*
%TO.C,D2*%
X97790000Y-151130000D03*
D17*
X97790000Y-148590000D03*
%TD*%
D12*
%TO.C,J2*%
X87615000Y-114275000D03*
D13*
X90155000Y-114275000D03*
X92695000Y-114275000D03*
X95235000Y-114275000D03*
X97775000Y-114275000D03*
X100315000Y-114275000D03*
X102855000Y-114275000D03*
X105395000Y-114275000D03*
X107935000Y-114275000D03*
X110475000Y-114275000D03*
X113015000Y-114275000D03*
X115555000Y-114275000D03*
X118095000Y-114275000D03*
X120635000Y-114275000D03*
X123175000Y-114275000D03*
%TD*%
D18*
%TO.C,U1*%
X104135000Y-137155000D03*
D19*
X104135000Y-139695000D03*
X111755000Y-139695000D03*
X111755000Y-137155000D03*
%TD*%
D14*
%TO.C,J6*%
X89810000Y-100620000D03*
D15*
X89810000Y-103120000D03*
%TD*%
D12*
%TO.C,J3*%
X95280000Y-107925000D03*
D13*
X97820000Y-107925000D03*
X100360000Y-107925000D03*
X102900000Y-107925000D03*
X105440000Y-107925000D03*
X107980000Y-107925000D03*
X110520000Y-107925000D03*
X113060000Y-107925000D03*
X115600000Y-107925000D03*
X118140000Y-107925000D03*
%TD*%
D16*
%TO.C,D1*%
X104140000Y-151130000D03*
D17*
X104140000Y-148590000D03*
%TD*%
D20*
%TO.C,SW1*%
X116840000Y-149850000D03*
X111760000Y-149850000D03*
D21*
X116840000Y-144770000D03*
D20*
X114300000Y-144770000D03*
X111760000Y-144770000D03*
%TD*%
M02*
