M48
; DRILL file {KiCad (5.1.9)-1} date 06/16/22 16:59:41
; FORMAT={-:-/ absolute / metric / decimal}
; #@! TF.CreationDate,2022-06-16T16:59:41+09:00
; #@! TF.GenerationSoftware,Kicad,Pcbnew,(5.1.9)-1
FMAT,2
METRIC
T1C0.400
T2C0.500
T3C0.800
T4C0.890
T5C1.000
T6C3.200
%
G90
G05
T1
X140.533Y-102.967
X144.0Y-101.0
X152.0Y-87.5
X153.0Y-83.5
X156.5Y-79.5
T2
X122.6Y-74.0
X122.6Y-112.0
X123.303Y-72.303
X123.303Y-75.697
X123.303Y-110.303
X123.303Y-113.697
X125.0Y-71.6
X125.0Y-76.4
X125.0Y-109.6
X125.0Y-114.4
X126.697Y-72.303
X126.697Y-75.697
X126.697Y-110.303
X126.697Y-113.697
X127.4Y-74.0
X127.4Y-112.0
X164.6Y-74.0
X164.6Y-112.0
X165.303Y-72.303
X165.303Y-75.697
X165.303Y-110.303
X165.303Y-113.697
X167.0Y-71.6
X167.0Y-76.4
X167.0Y-109.6
X167.0Y-114.4
X168.697Y-72.303
X168.697Y-75.697
X168.697Y-110.303
X168.697Y-113.697
X169.4Y-74.0
X169.4Y-112.0
T3
X131.38Y-109.0
X139.0Y-109.0
X142.38Y-109.0
X150.0Y-109.0
X153.38Y-109.0
X161.0Y-109.0
T4
X133.0Y-72.92
X133.0Y-78.0
X135.54Y-78.0
X138.08Y-72.92
X138.08Y-78.0
T5
X130.0Y-86.0
X130.0Y-88.5
X130.0Y-96.0
X130.0Y-98.5
X135.89Y-81.55
X135.89Y-84.09
X135.89Y-86.63
X135.89Y-89.17
X135.89Y-91.71
X135.89Y-94.25
X135.89Y-96.79
X135.89Y-99.33
X135.89Y-101.87
X135.89Y-104.41
X161.29Y-81.55
X161.29Y-84.09
X161.29Y-86.63
X161.29Y-89.17
X161.29Y-91.71
X161.29Y-94.25
X161.29Y-96.79
X161.29Y-99.33
X161.29Y-101.87
X161.29Y-104.41
T6
X125.0Y-74.0
X125.0Y-112.0
X167.0Y-74.0
X167.0Y-112.0
T0
M30
