M48
; DRILL file {KiCad (5.1.9)-1} date 06/16/22 11:18:56
; FORMAT={-:-/ absolute / metric / decimal}
; #@! TF.CreationDate,2022-06-16T11:18:56+09:00
; #@! TF.GenerationSoftware,Kicad,Pcbnew,(5.1.9)-1
FMAT,2
METRIC
T1C0.400
T2C0.500
T3C0.800
T4C0.890
T5C1.000
T6C3.200
%
G90
G05
T1
X128.0Y-89.0
X132.0Y-100.0
X138.0Y-93.0
X144.0Y-96.0
X150.0Y-81.0
T2
X122.6Y-74.0
X122.6Y-109.0
X123.303Y-72.303
X123.303Y-75.697
X123.303Y-107.303
X123.303Y-110.697
X125.0Y-71.6
X125.0Y-76.4
X125.0Y-106.6
X125.0Y-111.4
X126.697Y-72.303
X126.697Y-75.697
X126.697Y-107.303
X126.697Y-110.697
X127.4Y-74.0
X127.4Y-109.0
X157.6Y-74.0
X157.6Y-109.0
X158.303Y-72.303
X158.303Y-75.697
X158.303Y-107.303
X158.303Y-110.697
X160.0Y-71.6
X160.0Y-76.4
X160.0Y-106.6
X160.0Y-111.4
X161.697Y-72.303
X161.697Y-75.697
X161.697Y-107.303
X161.697Y-110.697
X162.4Y-74.0
X162.4Y-109.0
T3
X155.0Y-102.0
X157.0Y-90.0
X157.0Y-97.62
X161.0Y-90.0
X161.0Y-97.62
X162.62Y-102.0
T4
X156.0Y-81.0
X156.0Y-83.54
X156.0Y-86.08
X161.08Y-81.0
X161.08Y-86.08
T5
X126.32Y-79.81
X126.32Y-82.35
X126.32Y-84.89
X126.32Y-87.43
X126.32Y-89.97
X126.32Y-92.51
X126.32Y-95.05
X126.32Y-97.59
X126.32Y-100.13
X126.32Y-102.67
X133.0Y-104.0
X135.5Y-104.0
X143.0Y-104.0
X145.5Y-104.0
X151.72Y-79.81
X151.72Y-82.35
X151.72Y-84.89
X151.72Y-87.43
X151.72Y-89.97
X151.72Y-92.51
X151.72Y-95.05
X151.72Y-97.59
X151.72Y-100.13
X151.72Y-102.67
T6
X125.0Y-74.0
X125.0Y-109.0
X160.0Y-74.0
X160.0Y-109.0
T0
M30
