%TF.GenerationSoftware,KiCad,Pcbnew,(5.1.9)-1*%
%TF.CreationDate,2022-06-16T11:18:54+09:00*%
%TF.ProjectId,Transmitter,5472616e-736d-4697-9474-65722e6b6963,rev?*%
%TF.SameCoordinates,Original*%
%TF.FileFunction,Legend,Top*%
%TF.FilePolarity,Positive*%
%FSLAX46Y46*%
G04 Gerber Fmt 4.6, Leading zero omitted, Abs format (unit mm)*
G04 Created by KiCad (PCBNEW (5.1.9)-1) date 2022-06-16 11:18:54*
%MOMM*%
%LPD*%
G01*
G04 APERTURE LIST*
%ADD10C,0.150000*%
%ADD11C,0.120000*%
%ADD12C,0.100000*%
%ADD13C,0.127000*%
%ADD14C,0.066040*%
%ADD15C,0.101600*%
%ADD16C,0.076200*%
G04 APERTURE END LIST*
D10*
X138071428Y-72802380D02*
X137738095Y-72326190D01*
X137500000Y-72802380D02*
X137500000Y-71802380D01*
X137880952Y-71802380D01*
X137976190Y-71850000D01*
X138023809Y-71897619D01*
X138071428Y-71992857D01*
X138071428Y-72135714D01*
X138023809Y-72230952D01*
X137976190Y-72278571D01*
X137880952Y-72326190D01*
X137500000Y-72326190D01*
X138500000Y-72278571D02*
X138833333Y-72278571D01*
X138976190Y-72802380D02*
X138500000Y-72802380D01*
X138500000Y-71802380D01*
X138976190Y-71802380D01*
X139357142Y-72754761D02*
X139500000Y-72802380D01*
X139738095Y-72802380D01*
X139833333Y-72754761D01*
X139880952Y-72707142D01*
X139928571Y-72611904D01*
X139928571Y-72516666D01*
X139880952Y-72421428D01*
X139833333Y-72373809D01*
X139738095Y-72326190D01*
X139547619Y-72278571D01*
X139452380Y-72230952D01*
X139404761Y-72183333D01*
X139357142Y-72088095D01*
X139357142Y-71992857D01*
X139404761Y-71897619D01*
X139452380Y-71850000D01*
X139547619Y-71802380D01*
X139785714Y-71802380D01*
X139928571Y-71850000D01*
X140309523Y-72754761D02*
X140452380Y-72802380D01*
X140690476Y-72802380D01*
X140785714Y-72754761D01*
X140833333Y-72707142D01*
X140880952Y-72611904D01*
X140880952Y-72516666D01*
X140833333Y-72421428D01*
X140785714Y-72373809D01*
X140690476Y-72326190D01*
X140500000Y-72278571D01*
X140404761Y-72230952D01*
X140357142Y-72183333D01*
X140309523Y-72088095D01*
X140309523Y-71992857D01*
X140357142Y-71897619D01*
X140404761Y-71850000D01*
X140500000Y-71802380D01*
X140738095Y-71802380D01*
X140880952Y-71850000D01*
X141309523Y-72421428D02*
X142071428Y-72421428D01*
X142404761Y-71802380D02*
X142976190Y-71802380D01*
X142690476Y-72802380D02*
X142690476Y-71802380D01*
X143309523Y-72802380D02*
X143309523Y-72135714D01*
X143309523Y-72326190D02*
X143357142Y-72230952D01*
X143404761Y-72183333D01*
X143500000Y-72135714D01*
X143595238Y-72135714D01*
X144357142Y-72802380D02*
X144357142Y-72278571D01*
X144309523Y-72183333D01*
X144214285Y-72135714D01*
X144023809Y-72135714D01*
X143928571Y-72183333D01*
X144357142Y-72754761D02*
X144261904Y-72802380D01*
X144023809Y-72802380D01*
X143928571Y-72754761D01*
X143880952Y-72659523D01*
X143880952Y-72564285D01*
X143928571Y-72469047D01*
X144023809Y-72421428D01*
X144261904Y-72421428D01*
X144357142Y-72373809D01*
X144833333Y-72135714D02*
X144833333Y-72802380D01*
X144833333Y-72230952D02*
X144880952Y-72183333D01*
X144976190Y-72135714D01*
X145119047Y-72135714D01*
X145214285Y-72183333D01*
X145261904Y-72278571D01*
X145261904Y-72802380D01*
X145690476Y-72754761D02*
X145785714Y-72802380D01*
X145976190Y-72802380D01*
X146071428Y-72754761D01*
X146119047Y-72659523D01*
X146119047Y-72611904D01*
X146071428Y-72516666D01*
X145976190Y-72469047D01*
X145833333Y-72469047D01*
X145738095Y-72421428D01*
X145690476Y-72326190D01*
X145690476Y-72278571D01*
X145738095Y-72183333D01*
X145833333Y-72135714D01*
X145976190Y-72135714D01*
X146071428Y-72183333D01*
X146547619Y-72802380D02*
X146547619Y-72135714D01*
X146547619Y-72230952D02*
X146595238Y-72183333D01*
X146690476Y-72135714D01*
X146833333Y-72135714D01*
X146928571Y-72183333D01*
X146976190Y-72278571D01*
X146976190Y-72802380D01*
X146976190Y-72278571D02*
X147023809Y-72183333D01*
X147119047Y-72135714D01*
X147261904Y-72135714D01*
X147357142Y-72183333D01*
X147404761Y-72278571D01*
X147404761Y-72802380D01*
X147880952Y-72802380D02*
X147880952Y-72135714D01*
X147880952Y-71802380D02*
X147833333Y-71850000D01*
X147880952Y-71897619D01*
X147928571Y-71850000D01*
X147880952Y-71802380D01*
X147880952Y-71897619D01*
X148214285Y-72135714D02*
X148595238Y-72135714D01*
X148357142Y-71802380D02*
X148357142Y-72659523D01*
X148404761Y-72754761D01*
X148500000Y-72802380D01*
X148595238Y-72802380D01*
X148785714Y-72135714D02*
X149166666Y-72135714D01*
X148928571Y-71802380D02*
X148928571Y-72659523D01*
X148976190Y-72754761D01*
X149071428Y-72802380D01*
X149166666Y-72802380D01*
X149880952Y-72754761D02*
X149785714Y-72802380D01*
X149595238Y-72802380D01*
X149500000Y-72754761D01*
X149452380Y-72659523D01*
X149452380Y-72278571D01*
X149500000Y-72183333D01*
X149595238Y-72135714D01*
X149785714Y-72135714D01*
X149880952Y-72183333D01*
X149928571Y-72278571D01*
X149928571Y-72373809D01*
X149452380Y-72469047D01*
X150357142Y-72802380D02*
X150357142Y-72135714D01*
X150357142Y-72326190D02*
X150404761Y-72230952D01*
X150452380Y-72183333D01*
X150547619Y-72135714D01*
X150642857Y-72135714D01*
X137047619Y-73547619D02*
X137095238Y-73500000D01*
X137190476Y-73452380D01*
X137428571Y-73452380D01*
X137523809Y-73500000D01*
X137571428Y-73547619D01*
X137619047Y-73642857D01*
X137619047Y-73738095D01*
X137571428Y-73880952D01*
X137000000Y-74452380D01*
X137619047Y-74452380D01*
X138238095Y-73452380D02*
X138333333Y-73452380D01*
X138428571Y-73500000D01*
X138476190Y-73547619D01*
X138523809Y-73642857D01*
X138571428Y-73833333D01*
X138571428Y-74071428D01*
X138523809Y-74261904D01*
X138476190Y-74357142D01*
X138428571Y-74404761D01*
X138333333Y-74452380D01*
X138238095Y-74452380D01*
X138142857Y-74404761D01*
X138095238Y-74357142D01*
X138047619Y-74261904D01*
X138000000Y-74071428D01*
X138000000Y-73833333D01*
X138047619Y-73642857D01*
X138095238Y-73547619D01*
X138142857Y-73500000D01*
X138238095Y-73452380D01*
X138952380Y-73547619D02*
X139000000Y-73500000D01*
X139095238Y-73452380D01*
X139333333Y-73452380D01*
X139428571Y-73500000D01*
X139476190Y-73547619D01*
X139523809Y-73642857D01*
X139523809Y-73738095D01*
X139476190Y-73880952D01*
X138904761Y-74452380D01*
X139523809Y-74452380D01*
X139904761Y-73547619D02*
X139952380Y-73500000D01*
X140047619Y-73452380D01*
X140285714Y-73452380D01*
X140380952Y-73500000D01*
X140428571Y-73547619D01*
X140476190Y-73642857D01*
X140476190Y-73738095D01*
X140428571Y-73880952D01*
X139857142Y-74452380D01*
X140476190Y-74452380D01*
X141666666Y-74452380D02*
X141666666Y-73452380D01*
X142571428Y-74404761D02*
X142476190Y-74452380D01*
X142285714Y-74452380D01*
X142190476Y-74404761D01*
X142142857Y-74357142D01*
X142095238Y-74261904D01*
X142095238Y-73976190D01*
X142142857Y-73880952D01*
X142190476Y-73833333D01*
X142285714Y-73785714D01*
X142476190Y-73785714D01*
X142571428Y-73833333D01*
X143000000Y-74452380D02*
X143000000Y-73452380D01*
X143428571Y-74452380D02*
X143428571Y-73928571D01*
X143380952Y-73833333D01*
X143285714Y-73785714D01*
X143142857Y-73785714D01*
X143047619Y-73833333D01*
X143000000Y-73880952D01*
X143904761Y-74452380D02*
X143904761Y-73785714D01*
X143904761Y-73452380D02*
X143857142Y-73500000D01*
X143904761Y-73547619D01*
X143952380Y-73500000D01*
X143904761Y-73452380D01*
X143904761Y-73547619D01*
X144380952Y-73785714D02*
X144380952Y-74452380D01*
X144380952Y-73880952D02*
X144428571Y-73833333D01*
X144523809Y-73785714D01*
X144666666Y-73785714D01*
X144761904Y-73833333D01*
X144809523Y-73928571D01*
X144809523Y-74452380D01*
X145428571Y-74452380D02*
X145333333Y-74404761D01*
X145285714Y-74357142D01*
X145238095Y-74261904D01*
X145238095Y-73976190D01*
X145285714Y-73880952D01*
X145333333Y-73833333D01*
X145428571Y-73785714D01*
X145571428Y-73785714D01*
X145666666Y-73833333D01*
X145714285Y-73880952D01*
X145761904Y-73976190D01*
X145761904Y-74261904D01*
X145714285Y-74357142D01*
X145666666Y-74404761D01*
X145571428Y-74452380D01*
X145428571Y-74452380D01*
X146142857Y-74404761D02*
X146238095Y-74452380D01*
X146428571Y-74452380D01*
X146523809Y-74404761D01*
X146571428Y-74309523D01*
X146571428Y-74261904D01*
X146523809Y-74166666D01*
X146428571Y-74119047D01*
X146285714Y-74119047D01*
X146190476Y-74071428D01*
X146142857Y-73976190D01*
X146142857Y-73928571D01*
X146190476Y-73833333D01*
X146285714Y-73785714D01*
X146428571Y-73785714D01*
X146523809Y-73833333D01*
X147380952Y-74404761D02*
X147285714Y-74452380D01*
X147095238Y-74452380D01*
X147000000Y-74404761D01*
X146952380Y-74309523D01*
X146952380Y-73928571D01*
X147000000Y-73833333D01*
X147095238Y-73785714D01*
X147285714Y-73785714D01*
X147380952Y-73833333D01*
X147428571Y-73928571D01*
X147428571Y-74023809D01*
X146952380Y-74119047D01*
X147857142Y-74452380D02*
X147857142Y-73452380D01*
X147952380Y-74071428D02*
X148238095Y-74452380D01*
X148238095Y-73785714D02*
X147857142Y-74166666D01*
X148666666Y-74452380D02*
X148666666Y-73785714D01*
X148666666Y-73452380D02*
X148619047Y-73500000D01*
X148666666Y-73547619D01*
X148714285Y-73500000D01*
X148666666Y-73452380D01*
X148666666Y-73547619D01*
X149142857Y-74071428D02*
X149904761Y-74071428D01*
X150714285Y-73928571D02*
X150857142Y-73976190D01*
X150904761Y-74023809D01*
X150952380Y-74119047D01*
X150952380Y-74261904D01*
X150904761Y-74357142D01*
X150857142Y-74404761D01*
X150761904Y-74452380D01*
X150380952Y-74452380D01*
X150380952Y-73452380D01*
X150714285Y-73452380D01*
X150809523Y-73500000D01*
X150857142Y-73547619D01*
X150904761Y-73642857D01*
X150904761Y-73738095D01*
X150857142Y-73833333D01*
X150809523Y-73880952D01*
X150714285Y-73928571D01*
X150380952Y-73928571D01*
X142547619Y-75578571D02*
X142214285Y-75578571D01*
X142214285Y-76102380D02*
X142214285Y-75102380D01*
X142690476Y-75102380D01*
X143500000Y-76102380D02*
X143500000Y-75578571D01*
X143452380Y-75483333D01*
X143357142Y-75435714D01*
X143166666Y-75435714D01*
X143071428Y-75483333D01*
X143500000Y-76054761D02*
X143404761Y-76102380D01*
X143166666Y-76102380D01*
X143071428Y-76054761D01*
X143023809Y-75959523D01*
X143023809Y-75864285D01*
X143071428Y-75769047D01*
X143166666Y-75721428D01*
X143404761Y-75721428D01*
X143500000Y-75673809D01*
X144119047Y-76102380D02*
X144023809Y-76054761D01*
X143976190Y-75959523D01*
X143976190Y-75102380D01*
X144928571Y-76054761D02*
X144833333Y-76102380D01*
X144642857Y-76102380D01*
X144547619Y-76054761D01*
X144500000Y-76007142D01*
X144452380Y-75911904D01*
X144452380Y-75626190D01*
X144500000Y-75530952D01*
X144547619Y-75483333D01*
X144642857Y-75435714D01*
X144833333Y-75435714D01*
X144928571Y-75483333D01*
X145500000Y-76102380D02*
X145404761Y-76054761D01*
X145357142Y-76007142D01*
X145309523Y-75911904D01*
X145309523Y-75626190D01*
X145357142Y-75530952D01*
X145404761Y-75483333D01*
X145500000Y-75435714D01*
X145642857Y-75435714D01*
X145738095Y-75483333D01*
X145785714Y-75530952D01*
X145833333Y-75626190D01*
X145833333Y-75911904D01*
X145785714Y-76007142D01*
X145738095Y-76054761D01*
X145642857Y-76102380D01*
X145500000Y-76102380D01*
D11*
%TO.C,ESS*%
X143300000Y-101900000D02*
X143000000Y-102500000D01*
X142700000Y-101900000D02*
X143300000Y-101900000D01*
X143000000Y-102500000D02*
X142700000Y-101900000D01*
X145750000Y-107200000D02*
X145250000Y-107200000D01*
X145750000Y-112700000D02*
X145750000Y-107200000D01*
X145250000Y-112700000D02*
X145750000Y-112700000D01*
X145250000Y-107200000D02*
X145250000Y-112700000D01*
X143250000Y-107200000D02*
X142750000Y-107200000D01*
X143250000Y-112700000D02*
X143250000Y-107200000D01*
X142750000Y-112700000D02*
X143250000Y-112700000D01*
X142750000Y-107200000D02*
X142750000Y-112700000D01*
X146640000Y-106090000D02*
X144250000Y-106090000D01*
X146640000Y-101590000D02*
X146640000Y-106090000D01*
X148060000Y-101590000D02*
X146640000Y-101590000D01*
X148060000Y-113310000D02*
X148060000Y-101590000D01*
X144250000Y-113310000D02*
X148060000Y-113310000D01*
X141860000Y-106090000D02*
X144250000Y-106090000D01*
X141860000Y-101590000D02*
X141860000Y-106090000D01*
X140440000Y-101590000D02*
X141860000Y-101590000D01*
X140440000Y-113310000D02*
X140440000Y-101590000D01*
X144250000Y-113310000D02*
X140440000Y-113310000D01*
%TO.C,J3*%
X124990000Y-81080000D02*
X127650000Y-81080000D01*
X124990000Y-81080000D02*
X124990000Y-104000000D01*
X124990000Y-104000000D02*
X127650000Y-104000000D01*
X127650000Y-81080000D02*
X127650000Y-104000000D01*
X127650000Y-78480000D02*
X127650000Y-79810000D01*
X126320000Y-78480000D02*
X127650000Y-78480000D01*
%TO.C,J4*%
X151720000Y-78480000D02*
X153050000Y-78480000D01*
X153050000Y-78480000D02*
X153050000Y-79810000D01*
X153050000Y-81080000D02*
X153050000Y-104000000D01*
X150390000Y-104000000D02*
X153050000Y-104000000D01*
X150390000Y-81080000D02*
X150390000Y-104000000D01*
X150390000Y-81080000D02*
X153050000Y-81080000D01*
%TO.C,5V*%
X134250000Y-113310000D02*
X130440000Y-113310000D01*
X130440000Y-113310000D02*
X130440000Y-101590000D01*
X130440000Y-101590000D02*
X131860000Y-101590000D01*
X131860000Y-101590000D02*
X131860000Y-106090000D01*
X131860000Y-106090000D02*
X134250000Y-106090000D01*
X134250000Y-113310000D02*
X138060000Y-113310000D01*
X138060000Y-113310000D02*
X138060000Y-101590000D01*
X138060000Y-101590000D02*
X136640000Y-101590000D01*
X136640000Y-101590000D02*
X136640000Y-106090000D01*
X136640000Y-106090000D02*
X134250000Y-106090000D01*
X132750000Y-107200000D02*
X132750000Y-112700000D01*
X132750000Y-112700000D02*
X133250000Y-112700000D01*
X133250000Y-112700000D02*
X133250000Y-107200000D01*
X133250000Y-107200000D02*
X132750000Y-107200000D01*
X135250000Y-107200000D02*
X135250000Y-112700000D01*
X135250000Y-112700000D02*
X135750000Y-112700000D01*
X135750000Y-112700000D02*
X135750000Y-107200000D01*
X135750000Y-107200000D02*
X135250000Y-107200000D01*
X133000000Y-102500000D02*
X132700000Y-101900000D01*
X132700000Y-101900000D02*
X133300000Y-101900000D01*
X133300000Y-101900000D02*
X133000000Y-102500000D01*
%TO.C,SW*%
X155880000Y-87190000D02*
X155880000Y-87040000D01*
X155880000Y-85040000D02*
X155880000Y-84540000D01*
X155880000Y-82540000D02*
X155880000Y-82040000D01*
X155880000Y-79890000D02*
X155880000Y-80040000D01*
X163830000Y-79890000D02*
X155880000Y-79890000D01*
X163830000Y-87190000D02*
X163830000Y-79890000D01*
X155880000Y-87190000D02*
X163830000Y-87190000D01*
%TO.C,R1*%
X155960000Y-97080000D02*
X155630000Y-97080000D01*
X155630000Y-97080000D02*
X155630000Y-90540000D01*
X155630000Y-90540000D02*
X155960000Y-90540000D01*
X158040000Y-97080000D02*
X158370000Y-97080000D01*
X158370000Y-97080000D02*
X158370000Y-90540000D01*
X158370000Y-90540000D02*
X158040000Y-90540000D01*
%TO.C,R2*%
X162370000Y-90540000D02*
X162040000Y-90540000D01*
X162370000Y-97080000D02*
X162370000Y-90540000D01*
X162040000Y-97080000D02*
X162370000Y-97080000D01*
X159630000Y-90540000D02*
X159960000Y-90540000D01*
X159630000Y-97080000D02*
X159630000Y-90540000D01*
X159960000Y-97080000D02*
X159630000Y-97080000D01*
%TO.C,R3*%
X155540000Y-100960000D02*
X155540000Y-100630000D01*
X155540000Y-100630000D02*
X162080000Y-100630000D01*
X162080000Y-100630000D02*
X162080000Y-100960000D01*
X155540000Y-103040000D02*
X155540000Y-103370000D01*
X155540000Y-103370000D02*
X162080000Y-103370000D01*
X162080000Y-103370000D02*
X162080000Y-103040000D01*
D12*
%TO.C,U1*%
X129365000Y-80839000D02*
G75*
G03*
X129365000Y-80839000I-254000J0D01*
G01*
D13*
X134394200Y-83930180D02*
X134394200Y-76576880D01*
X143393420Y-83930180D02*
X134394200Y-83930180D01*
X143393420Y-76576880D02*
X143393420Y-83930180D01*
X134399280Y-76576880D02*
X143393420Y-76576880D01*
X130000000Y-78672380D02*
X130000000Y-99000000D01*
X130670560Y-78001820D02*
X130000000Y-78672380D01*
X147797780Y-78001820D02*
X130670560Y-78001820D01*
X147797780Y-99000000D02*
X147797780Y-78001820D01*
X130000000Y-99000000D02*
X147797780Y-99000000D01*
D14*
X142319000Y-80585000D02*
X142319000Y-77918000D01*
X142319000Y-77918000D02*
X144097000Y-77918000D01*
X144097000Y-80585000D02*
X144097000Y-77918000D01*
X142319000Y-80585000D02*
X144097000Y-80585000D01*
X142319000Y-84651540D02*
X142319000Y-81982000D01*
X142319000Y-81982000D02*
X144097000Y-81982000D01*
X144097000Y-84651540D02*
X144097000Y-81982000D01*
X142319000Y-84651540D02*
X144097000Y-84651540D01*
X133683000Y-84651540D02*
X133683000Y-81982000D01*
X133683000Y-81982000D02*
X135461000Y-81982000D01*
X135461000Y-84651540D02*
X135461000Y-81982000D01*
X133683000Y-84651540D02*
X135461000Y-84651540D01*
X133683000Y-80585000D02*
X133683000Y-77918000D01*
X133683000Y-77918000D02*
X135461000Y-77918000D01*
X135461000Y-80585000D02*
X135461000Y-77918000D01*
X133683000Y-80585000D02*
X135461000Y-80585000D01*
X136350000Y-98365000D02*
X136350000Y-95825000D01*
X136350000Y-95825000D02*
X142065000Y-95825000D01*
X142065000Y-98365000D02*
X142065000Y-95825000D01*
X136350000Y-98365000D02*
X142065000Y-98365000D01*
X136350000Y-81220000D02*
X136350000Y-78680000D01*
X136350000Y-78680000D02*
X141430000Y-78680000D01*
X141430000Y-81220000D02*
X141430000Y-78680000D01*
X136350000Y-81220000D02*
X141430000Y-81220000D01*
%TO.C,ESS*%
D10*
X143083333Y-100428571D02*
X143416666Y-100428571D01*
X143559523Y-100952380D02*
X143083333Y-100952380D01*
X143083333Y-99952380D01*
X143559523Y-99952380D01*
X143940476Y-100904761D02*
X144083333Y-100952380D01*
X144321428Y-100952380D01*
X144416666Y-100904761D01*
X144464285Y-100857142D01*
X144511904Y-100761904D01*
X144511904Y-100666666D01*
X144464285Y-100571428D01*
X144416666Y-100523809D01*
X144321428Y-100476190D01*
X144130952Y-100428571D01*
X144035714Y-100380952D01*
X143988095Y-100333333D01*
X143940476Y-100238095D01*
X143940476Y-100142857D01*
X143988095Y-100047619D01*
X144035714Y-100000000D01*
X144130952Y-99952380D01*
X144369047Y-99952380D01*
X144511904Y-100000000D01*
X144892857Y-100904761D02*
X145035714Y-100952380D01*
X145273809Y-100952380D01*
X145369047Y-100904761D01*
X145416666Y-100857142D01*
X145464285Y-100761904D01*
X145464285Y-100666666D01*
X145416666Y-100571428D01*
X145369047Y-100523809D01*
X145273809Y-100476190D01*
X145083333Y-100428571D01*
X144988095Y-100380952D01*
X144940476Y-100333333D01*
X144892857Y-100238095D01*
X144892857Y-100142857D01*
X144940476Y-100047619D01*
X144988095Y-100000000D01*
X145083333Y-99952380D01*
X145321428Y-99952380D01*
X145464285Y-100000000D01*
%TO.C,J3*%
X128526666Y-79262380D02*
X128526666Y-79976666D01*
X128479047Y-80119523D01*
X128383809Y-80214761D01*
X128240952Y-80262380D01*
X128145714Y-80262380D01*
X128907619Y-79262380D02*
X129526666Y-79262380D01*
X129193333Y-79643333D01*
X129336190Y-79643333D01*
X129431428Y-79690952D01*
X129479047Y-79738571D01*
X129526666Y-79833809D01*
X129526666Y-80071904D01*
X129479047Y-80167142D01*
X129431428Y-80214761D01*
X129336190Y-80262380D01*
X129050476Y-80262380D01*
X128955238Y-80214761D01*
X128907619Y-80167142D01*
%TO.C,J4*%
X148846666Y-79262380D02*
X148846666Y-79976666D01*
X148799047Y-80119523D01*
X148703809Y-80214761D01*
X148560952Y-80262380D01*
X148465714Y-80262380D01*
X149751428Y-79595714D02*
X149751428Y-80262380D01*
X149513333Y-79214761D02*
X149275238Y-79929047D01*
X149894285Y-79929047D01*
%TO.C,5V*%
X134059523Y-99952380D02*
X133583333Y-99952380D01*
X133535714Y-100428571D01*
X133583333Y-100380952D01*
X133678571Y-100333333D01*
X133916666Y-100333333D01*
X134011904Y-100380952D01*
X134059523Y-100428571D01*
X134107142Y-100523809D01*
X134107142Y-100761904D01*
X134059523Y-100857142D01*
X134011904Y-100904761D01*
X133916666Y-100952380D01*
X133678571Y-100952380D01*
X133583333Y-100904761D01*
X133535714Y-100857142D01*
X134392857Y-99952380D02*
X134726190Y-100952380D01*
X135059523Y-99952380D01*
%TO.C,SW*%
X158622857Y-79494761D02*
X158765714Y-79542380D01*
X159003809Y-79542380D01*
X159099047Y-79494761D01*
X159146666Y-79447142D01*
X159194285Y-79351904D01*
X159194285Y-79256666D01*
X159146666Y-79161428D01*
X159099047Y-79113809D01*
X159003809Y-79066190D01*
X158813333Y-79018571D01*
X158718095Y-78970952D01*
X158670476Y-78923333D01*
X158622857Y-78828095D01*
X158622857Y-78732857D01*
X158670476Y-78637619D01*
X158718095Y-78590000D01*
X158813333Y-78542380D01*
X159051428Y-78542380D01*
X159194285Y-78590000D01*
X159527619Y-78542380D02*
X159765714Y-79542380D01*
X159956190Y-78828095D01*
X160146666Y-79542380D01*
X160384761Y-78542380D01*
%TO.C,R1*%
X155082380Y-93976666D02*
X154606190Y-94310000D01*
X155082380Y-94548095D02*
X154082380Y-94548095D01*
X154082380Y-94167142D01*
X154130000Y-94071904D01*
X154177619Y-94024285D01*
X154272857Y-93976666D01*
X154415714Y-93976666D01*
X154510952Y-94024285D01*
X154558571Y-94071904D01*
X154606190Y-94167142D01*
X154606190Y-94548095D01*
X155082380Y-93024285D02*
X155082380Y-93595714D01*
X155082380Y-93310000D02*
X154082380Y-93310000D01*
X154225238Y-93405238D01*
X154320476Y-93500476D01*
X154368095Y-93595714D01*
%TO.C,R2*%
X159082380Y-93976666D02*
X158606190Y-94310000D01*
X159082380Y-94548095D02*
X158082380Y-94548095D01*
X158082380Y-94167142D01*
X158130000Y-94071904D01*
X158177619Y-94024285D01*
X158272857Y-93976666D01*
X158415714Y-93976666D01*
X158510952Y-94024285D01*
X158558571Y-94071904D01*
X158606190Y-94167142D01*
X158606190Y-94548095D01*
X158177619Y-93595714D02*
X158130000Y-93548095D01*
X158082380Y-93452857D01*
X158082380Y-93214761D01*
X158130000Y-93119523D01*
X158177619Y-93071904D01*
X158272857Y-93024285D01*
X158368095Y-93024285D01*
X158510952Y-93071904D01*
X159082380Y-93643333D01*
X159082380Y-93024285D01*
%TO.C,R3*%
X158643333Y-100082380D02*
X158310000Y-99606190D01*
X158071904Y-100082380D02*
X158071904Y-99082380D01*
X158452857Y-99082380D01*
X158548095Y-99130000D01*
X158595714Y-99177619D01*
X158643333Y-99272857D01*
X158643333Y-99415714D01*
X158595714Y-99510952D01*
X158548095Y-99558571D01*
X158452857Y-99606190D01*
X158071904Y-99606190D01*
X158976666Y-99082380D02*
X159595714Y-99082380D01*
X159262380Y-99463333D01*
X159405238Y-99463333D01*
X159500476Y-99510952D01*
X159548095Y-99558571D01*
X159595714Y-99653809D01*
X159595714Y-99891904D01*
X159548095Y-99987142D01*
X159500476Y-100034761D01*
X159405238Y-100082380D01*
X159119523Y-100082380D01*
X159024285Y-100034761D01*
X158976666Y-99987142D01*
%TO.C,U1*%
D15*
X138657166Y-76732666D02*
X138657166Y-77452333D01*
X138699500Y-77537000D01*
X138741833Y-77579333D01*
X138826500Y-77621666D01*
X138995833Y-77621666D01*
X139080500Y-77579333D01*
X139122833Y-77537000D01*
X139165166Y-77452333D01*
X139165166Y-76732666D01*
X140054166Y-77621666D02*
X139546166Y-77621666D01*
X139800166Y-77621666D02*
X139800166Y-76732666D01*
X139715500Y-76859666D01*
X139630833Y-76944333D01*
X139546166Y-76986666D01*
D16*
X135667828Y-88451742D02*
X135754914Y-88480771D01*
X135900057Y-88480771D01*
X135958114Y-88451742D01*
X135987142Y-88422714D01*
X136016171Y-88364657D01*
X136016171Y-88306600D01*
X135987142Y-88248542D01*
X135958114Y-88219514D01*
X135900057Y-88190485D01*
X135783942Y-88161457D01*
X135725885Y-88132428D01*
X135696857Y-88103400D01*
X135667828Y-88045342D01*
X135667828Y-87987285D01*
X135696857Y-87929228D01*
X135725885Y-87900200D01*
X135783942Y-87871171D01*
X135929085Y-87871171D01*
X136016171Y-87900200D01*
X136509657Y-88451742D02*
X136451600Y-88480771D01*
X136335485Y-88480771D01*
X136277428Y-88451742D01*
X136248400Y-88393685D01*
X136248400Y-88161457D01*
X136277428Y-88103400D01*
X136335485Y-88074371D01*
X136451600Y-88074371D01*
X136509657Y-88103400D01*
X136538685Y-88161457D01*
X136538685Y-88219514D01*
X136248400Y-88277571D01*
X137032171Y-88451742D02*
X136974114Y-88480771D01*
X136858000Y-88480771D01*
X136799942Y-88451742D01*
X136770914Y-88393685D01*
X136770914Y-88161457D01*
X136799942Y-88103400D01*
X136858000Y-88074371D01*
X136974114Y-88074371D01*
X137032171Y-88103400D01*
X137061200Y-88161457D01*
X137061200Y-88219514D01*
X136770914Y-88277571D01*
X137554685Y-88451742D02*
X137496628Y-88480771D01*
X137380514Y-88480771D01*
X137322457Y-88451742D01*
X137293428Y-88393685D01*
X137293428Y-88161457D01*
X137322457Y-88103400D01*
X137380514Y-88074371D01*
X137496628Y-88074371D01*
X137554685Y-88103400D01*
X137583714Y-88161457D01*
X137583714Y-88219514D01*
X137293428Y-88277571D01*
X138106228Y-88480771D02*
X138106228Y-87871171D01*
X138106228Y-88451742D02*
X138048171Y-88480771D01*
X137932057Y-88480771D01*
X137874000Y-88451742D01*
X137844971Y-88422714D01*
X137815942Y-88364657D01*
X137815942Y-88190485D01*
X137844971Y-88132428D01*
X137874000Y-88103400D01*
X137932057Y-88074371D01*
X138048171Y-88074371D01*
X138106228Y-88103400D01*
X138657771Y-88074371D02*
X138657771Y-88480771D01*
X138396514Y-88074371D02*
X138396514Y-88393685D01*
X138425542Y-88451742D01*
X138483600Y-88480771D01*
X138570685Y-88480771D01*
X138628742Y-88451742D01*
X138657771Y-88422714D01*
X138948057Y-88480771D02*
X138948057Y-88074371D01*
X138948057Y-87871171D02*
X138919028Y-87900200D01*
X138948057Y-87929228D01*
X138977085Y-87900200D01*
X138948057Y-87871171D01*
X138948057Y-87929228D01*
X139238342Y-88074371D02*
X139238342Y-88480771D01*
X139238342Y-88132428D02*
X139267371Y-88103400D01*
X139325428Y-88074371D01*
X139412514Y-88074371D01*
X139470571Y-88103400D01*
X139499600Y-88161457D01*
X139499600Y-88480771D01*
X139876971Y-88480771D02*
X139818914Y-88451742D01*
X139789885Y-88422714D01*
X139760857Y-88364657D01*
X139760857Y-88190485D01*
X139789885Y-88132428D01*
X139818914Y-88103400D01*
X139876971Y-88074371D01*
X139964057Y-88074371D01*
X140022114Y-88103400D01*
X140051142Y-88132428D01*
X140080171Y-88190485D01*
X140080171Y-88364657D01*
X140051142Y-88422714D01*
X140022114Y-88451742D01*
X139964057Y-88480771D01*
X139876971Y-88480771D01*
X140283371Y-87871171D02*
X140689771Y-88480771D01*
X140689771Y-87871171D02*
X140283371Y-88480771D01*
X140922000Y-88480771D02*
X140922000Y-87871171D01*
X141183257Y-88306600D02*
X141473542Y-88306600D01*
X141125200Y-88480771D02*
X141328400Y-87871171D01*
X141531600Y-88480771D01*
X141850914Y-87871171D02*
X141967028Y-87871171D01*
X142025085Y-87900200D01*
X142083142Y-87958257D01*
X142112171Y-88074371D01*
X142112171Y-88277571D01*
X142083142Y-88393685D01*
X142025085Y-88451742D01*
X141967028Y-88480771D01*
X141850914Y-88480771D01*
X141792857Y-88451742D01*
X141734800Y-88393685D01*
X141705771Y-88277571D01*
X141705771Y-88074371D01*
X141734800Y-87958257D01*
X141792857Y-87900200D01*
X141850914Y-87871171D01*
%TD*%
M02*
