%TF.GenerationSoftware,KiCad,Pcbnew,(5.1.9)-1*%
%TF.CreationDate,2022-06-16T16:59:39+09:00*%
%TF.ProjectId,Transmitter,5472616e-736d-4697-9474-65722e6b6963,rev?*%
%TF.SameCoordinates,Original*%
%TF.FileFunction,Copper,L2,Bot*%
%TF.FilePolarity,Positive*%
%FSLAX46Y46*%
G04 Gerber Fmt 4.6, Leading zero omitted, Abs format (unit mm)*
G04 Created by KiCad (PCBNEW (5.1.9)-1) date 2022-06-16 16:59:39*
%MOMM*%
%LPD*%
G01*
G04 APERTURE LIST*
%TA.AperFunction,ComponentPad*%
%ADD10C,0.800000*%
%TD*%
%TA.AperFunction,ComponentPad*%
%ADD11C,6.400000*%
%TD*%
%TA.AperFunction,ComponentPad*%
%ADD12O,2.000000X1.700000*%
%TD*%
%TA.AperFunction,ComponentPad*%
%ADD13R,1.700000X1.700000*%
%TD*%
%TA.AperFunction,ComponentPad*%
%ADD14O,1.700000X1.700000*%
%TD*%
%TA.AperFunction,ComponentPad*%
%ADD15C,1.600000*%
%TD*%
%TA.AperFunction,ComponentPad*%
%ADD16O,1.600000X1.600000*%
%TD*%
%TA.AperFunction,ViaPad*%
%ADD17C,0.800000*%
%TD*%
%TA.AperFunction,Conductor*%
%ADD18C,0.250000*%
%TD*%
G04 APERTURE END LIST*
D10*
%TO.P,REF\u002A\u002A,1*%
%TO.N,N/C*%
X168697056Y-110302944D03*
X167000000Y-109600000D03*
X165302944Y-110302944D03*
X164600000Y-112000000D03*
X165302944Y-113697056D03*
X167000000Y-114400000D03*
X168697056Y-113697056D03*
X169400000Y-112000000D03*
D11*
X167000000Y-112000000D03*
%TD*%
D10*
%TO.P,REF\u002A\u002A,1*%
%TO.N,N/C*%
X126697056Y-110302944D03*
X125000000Y-109600000D03*
X123302944Y-110302944D03*
X122600000Y-112000000D03*
X123302944Y-113697056D03*
X125000000Y-114400000D03*
X126697056Y-113697056D03*
X127400000Y-112000000D03*
D11*
X125000000Y-112000000D03*
%TD*%
D10*
%TO.P,REF\u002A\u002A,1*%
%TO.N,N/C*%
X168697056Y-72302944D03*
X167000000Y-71600000D03*
X165302944Y-72302944D03*
X164600000Y-74000000D03*
X165302944Y-75697056D03*
X167000000Y-76400000D03*
X168697056Y-75697056D03*
X169400000Y-74000000D03*
D11*
X167000000Y-74000000D03*
%TD*%
D10*
%TO.P,REF\u002A\u002A,1*%
%TO.N,N/C*%
X126697056Y-72302944D03*
X125000000Y-71600000D03*
X123302944Y-72302944D03*
X122600000Y-74000000D03*
X123302944Y-75697056D03*
X125000000Y-76400000D03*
X126697056Y-75697056D03*
X127400000Y-74000000D03*
D11*
X125000000Y-74000000D03*
%TD*%
%TO.P,ESS,1*%
%TO.N,+5V*%
%TA.AperFunction,ComponentPad*%
G36*
G01*
X129250000Y-95150000D02*
X130750000Y-95150000D01*
G75*
G02*
X131000000Y-95400000I0J-250000D01*
G01*
X131000000Y-96600000D01*
G75*
G02*
X130750000Y-96850000I-250000J0D01*
G01*
X129250000Y-96850000D01*
G75*
G02*
X129000000Y-96600000I0J250000D01*
G01*
X129000000Y-95400000D01*
G75*
G02*
X129250000Y-95150000I250000J0D01*
G01*
G37*
%TD.AperFunction*%
D12*
%TO.P,ESS,2*%
%TO.N,ESS_IN*%
X130000000Y-98500000D03*
%TD*%
D13*
%TO.P,J3,1*%
%TO.N,N/C*%
X135890000Y-81550000D03*
D14*
%TO.P,J3,2*%
X135890000Y-84090000D03*
%TO.P,J3,3*%
X135890000Y-86630000D03*
%TO.P,J3,4*%
%TO.N,RX*%
X135890000Y-89170000D03*
%TO.P,J3,5*%
%TO.N,N/C*%
X135890000Y-91710000D03*
%TO.P,J3,6*%
X135890000Y-94250000D03*
%TO.P,J3,7*%
X135890000Y-96790000D03*
%TO.P,J3,8*%
X135890000Y-99330000D03*
%TO.P,J3,9*%
%TO.N,+3V3*%
X135890000Y-101870000D03*
%TO.P,J3,10*%
%TO.N,N/C*%
X135890000Y-104410000D03*
%TD*%
%TO.P,J4,10*%
%TO.N,N/C*%
X161290000Y-104410000D03*
%TO.P,J4,9*%
%TO.N,GND*%
X161290000Y-101870000D03*
%TO.P,J4,8*%
%TO.N,N/C*%
X161290000Y-99330000D03*
%TO.P,J4,7*%
X161290000Y-96790000D03*
%TO.P,J4,6*%
X161290000Y-94250000D03*
%TO.P,J4,5*%
X161290000Y-91710000D03*
%TO.P,J4,4*%
X161290000Y-89170000D03*
%TO.P,J4,3*%
%TO.N,TX*%
X161290000Y-86630000D03*
%TO.P,J4,2*%
%TO.N,N/C*%
X161290000Y-84090000D03*
D13*
%TO.P,J4,1*%
X161290000Y-81550000D03*
%TD*%
%TO.P,5V,1*%
%TO.N,PW_IN*%
%TA.AperFunction,ComponentPad*%
G36*
G01*
X129250000Y-85150000D02*
X130750000Y-85150000D01*
G75*
G02*
X131000000Y-85400000I0J-250000D01*
G01*
X131000000Y-86600000D01*
G75*
G02*
X130750000Y-86850000I-250000J0D01*
G01*
X129250000Y-86850000D01*
G75*
G02*
X129000000Y-86600000I0J250000D01*
G01*
X129000000Y-85400000D01*
G75*
G02*
X129250000Y-85150000I250000J0D01*
G01*
G37*
%TD.AperFunction*%
D12*
%TO.P,5V,2*%
%TO.N,GND*%
X130000000Y-88500000D03*
%TD*%
D15*
%TO.P,SW,*%
%TO.N,*%
X138080000Y-72920000D03*
X133000000Y-72920000D03*
%TO.P,SW,1*%
%TO.N,+5V*%
%TA.AperFunction,ComponentPad*%
G36*
G01*
X132600000Y-77200000D02*
X133400000Y-77200000D01*
G75*
G02*
X133800000Y-77600000I0J-400000D01*
G01*
X133800000Y-78400000D01*
G75*
G02*
X133400000Y-78800000I-400000J0D01*
G01*
X132600000Y-78800000D01*
G75*
G02*
X132200000Y-78400000I0J400000D01*
G01*
X132200000Y-77600000D01*
G75*
G02*
X132600000Y-77200000I400000J0D01*
G01*
G37*
%TD.AperFunction*%
%TO.P,SW,2*%
%TO.N,PW_IN*%
X135540000Y-78000000D03*
%TO.P,SW,3*%
%TO.N,N/C*%
X138080000Y-78000000D03*
%TD*%
%TO.P,R1,1*%
%TO.N,Net-(R1-Pad1)*%
X139000000Y-109000000D03*
D16*
%TO.P,R1,2*%
%TO.N,GND*%
X131380000Y-109000000D03*
%TD*%
D15*
%TO.P,R2,1*%
%TO.N,Net-(R2-Pad1)*%
X150000000Y-109000000D03*
D16*
%TO.P,R2,2*%
%TO.N,Net-(R1-Pad1)*%
X142380000Y-109000000D03*
%TD*%
D15*
%TO.P,R3,1*%
%TO.N,+5V*%
X161000000Y-109000000D03*
D16*
%TO.P,R3,2*%
%TO.N,Net-(R2-Pad1)*%
X153380000Y-109000000D03*
%TD*%
D17*
%TO.N,GND*%
X153000000Y-83500000D03*
%TO.N,+5V*%
X156500000Y-79500000D03*
%TO.N,+3V3*%
X152000000Y-87500000D03*
%TO.N,TX*%
X140533120Y-102966880D03*
%TO.N,ESS_IN*%
X144000000Y-101000000D03*
%TD*%
D18*
%TO.N,GND*%
X130000000Y-88500000D02*
X130500000Y-88500000D01*
X130500000Y-88500000D02*
X133000000Y-86000000D01*
X133000000Y-86000000D02*
X133000000Y-81000000D01*
X133000000Y-81000000D02*
X134000000Y-80000000D01*
X134000000Y-80000000D02*
X134500000Y-79500000D01*
X135225001Y-80225001D02*
X152225001Y-80225001D01*
X134500000Y-79500000D02*
X135225001Y-80225001D01*
X152225001Y-80225001D02*
X153000000Y-81000000D01*
X153000000Y-81000000D02*
X153000000Y-83500000D01*
X153000000Y-83500000D02*
X153000000Y-83500000D01*
%TO.N,+5V*%
X133000000Y-78000000D02*
X133000000Y-77500000D01*
X133000000Y-77500000D02*
X134500000Y-76000000D01*
X134500000Y-76000000D02*
X154000000Y-76000000D01*
X154000000Y-76000000D02*
X156500000Y-78500000D01*
X156500000Y-78500000D02*
X156500000Y-79500000D01*
X156500000Y-79500000D02*
X156500000Y-79500000D01*
%TO.N,+3V3*%
X135890000Y-101870000D02*
X137760000Y-100000000D01*
X137760000Y-100000000D02*
X142500000Y-100000000D01*
X142500000Y-100000000D02*
X146000000Y-96500000D01*
X146000000Y-96500000D02*
X146000000Y-93500000D01*
X146000000Y-93500000D02*
X152000000Y-87500000D01*
X152000000Y-87500000D02*
X152000000Y-87500000D01*
%TO.N,TX*%
X140533120Y-102966880D02*
X140533120Y-109533120D01*
X140533120Y-109533120D02*
X142000000Y-111000000D01*
X142000000Y-111000000D02*
X161500000Y-111000000D01*
X161500000Y-111000000D02*
X163500000Y-109000000D01*
X163500000Y-88840000D02*
X161290000Y-86630000D01*
X163500000Y-109000000D02*
X163500000Y-88840000D01*
%TO.N,ESS_IN*%
X144000000Y-101000000D02*
X143500000Y-101500000D01*
X143500000Y-101500000D02*
X139000000Y-101500000D01*
X139000000Y-101500000D02*
X138500000Y-102000000D01*
X138500000Y-102000000D02*
X138500000Y-105500000D01*
X138500000Y-105500000D02*
X137500000Y-106500000D01*
X137500000Y-106500000D02*
X133500000Y-106500000D01*
X130000000Y-103000000D02*
X130000000Y-98500000D01*
X133500000Y-106500000D02*
X130000000Y-103000000D01*
%TD*%
M02*
