%TF.GenerationSoftware,KiCad,Pcbnew,(5.1.9)-1*%
%TF.CreationDate,2022-06-16T11:18:54+09:00*%
%TF.ProjectId,Transmitter,5472616e-736d-4697-9474-65722e6b6963,rev?*%
%TF.SameCoordinates,Original*%
%TF.FileFunction,Copper,L1,Top*%
%TF.FilePolarity,Positive*%
%FSLAX46Y46*%
G04 Gerber Fmt 4.6, Leading zero omitted, Abs format (unit mm)*
G04 Created by KiCad (PCBNEW (5.1.9)-1) date 2022-06-16 11:18:54*
%MOMM*%
%LPD*%
G01*
G04 APERTURE LIST*
%TA.AperFunction,ComponentPad*%
%ADD10C,0.800000*%
%TD*%
%TA.AperFunction,ComponentPad*%
%ADD11C,6.400000*%
%TD*%
%TA.AperFunction,ComponentPad*%
%ADD12O,1.700000X2.000000*%
%TD*%
%TA.AperFunction,ComponentPad*%
%ADD13R,1.700000X1.700000*%
%TD*%
%TA.AperFunction,ComponentPad*%
%ADD14O,1.700000X1.700000*%
%TD*%
%TA.AperFunction,ComponentPad*%
%ADD15C,1.600000*%
%TD*%
%TA.AperFunction,ComponentPad*%
%ADD16O,1.600000X1.600000*%
%TD*%
%TA.AperFunction,SMDPad,CuDef*%
%ADD17O,2.748280X1.998980*%
%TD*%
%TA.AperFunction,SMDPad,CuDef*%
%ADD18O,1.016000X2.032000*%
%TD*%
%TA.AperFunction,SMDPad,CuDef*%
%ADD19C,1.143000*%
%TD*%
%TA.AperFunction,ViaPad*%
%ADD20C,0.800000*%
%TD*%
%TA.AperFunction,Conductor*%
%ADD21C,0.250000*%
%TD*%
G04 APERTURE END LIST*
D10*
%TO.P,REF\u002A\u002A,1*%
%TO.N,N/C*%
X161697056Y-107302944D03*
X160000000Y-106600000D03*
X158302944Y-107302944D03*
X157600000Y-109000000D03*
X158302944Y-110697056D03*
X160000000Y-111400000D03*
X161697056Y-110697056D03*
X162400000Y-109000000D03*
D11*
X160000000Y-109000000D03*
%TD*%
D10*
%TO.P,REF\u002A\u002A,1*%
%TO.N,N/C*%
X126697056Y-107302944D03*
X125000000Y-106600000D03*
X123302944Y-107302944D03*
X122600000Y-109000000D03*
X123302944Y-110697056D03*
X125000000Y-111400000D03*
X126697056Y-110697056D03*
X127400000Y-109000000D03*
D11*
X125000000Y-109000000D03*
%TD*%
D10*
%TO.P,REF\u002A\u002A,1*%
%TO.N,N/C*%
X161697056Y-72302944D03*
X160000000Y-71600000D03*
X158302944Y-72302944D03*
X157600000Y-74000000D03*
X158302944Y-75697056D03*
X160000000Y-76400000D03*
X161697056Y-75697056D03*
X162400000Y-74000000D03*
D11*
X160000000Y-74000000D03*
%TD*%
D10*
%TO.P,REF\u002A\u002A,1*%
%TO.N,N/C*%
X126697056Y-72302944D03*
X125000000Y-71600000D03*
X123302944Y-72302944D03*
X122600000Y-74000000D03*
X123302944Y-75697056D03*
X125000000Y-76400000D03*
X126697056Y-75697056D03*
X127400000Y-74000000D03*
D11*
X125000000Y-74000000D03*
%TD*%
%TO.P,ESS,1*%
%TO.N,+5V*%
%TA.AperFunction,ComponentPad*%
G36*
G01*
X142150000Y-104750000D02*
X142150000Y-103250000D01*
G75*
G02*
X142400000Y-103000000I250000J0D01*
G01*
X143600000Y-103000000D01*
G75*
G02*
X143850000Y-103250000I0J-250000D01*
G01*
X143850000Y-104750000D01*
G75*
G02*
X143600000Y-105000000I-250000J0D01*
G01*
X142400000Y-105000000D01*
G75*
G02*
X142150000Y-104750000I0J250000D01*
G01*
G37*
%TD.AperFunction*%
D12*
%TO.P,ESS,2*%
%TO.N,ESS_IN*%
X145500000Y-104000000D03*
%TD*%
D13*
%TO.P,J3,1*%
%TO.N,N/C*%
X126320000Y-79810000D03*
D14*
%TO.P,J3,2*%
X126320000Y-82350000D03*
%TO.P,J3,3*%
X126320000Y-84890000D03*
%TO.P,J3,4*%
%TO.N,RX*%
X126320000Y-87430000D03*
%TO.P,J3,5*%
%TO.N,N/C*%
X126320000Y-89970000D03*
%TO.P,J3,6*%
X126320000Y-92510000D03*
%TO.P,J3,7*%
X126320000Y-95050000D03*
%TO.P,J3,8*%
X126320000Y-97590000D03*
%TO.P,J3,9*%
%TO.N,+3V3*%
X126320000Y-100130000D03*
%TO.P,J3,10*%
%TO.N,N/C*%
X126320000Y-102670000D03*
%TD*%
%TO.P,J4,10*%
%TO.N,N/C*%
X151720000Y-102670000D03*
%TO.P,J4,9*%
%TO.N,GND*%
X151720000Y-100130000D03*
%TO.P,J4,8*%
%TO.N,N/C*%
X151720000Y-97590000D03*
%TO.P,J4,7*%
X151720000Y-95050000D03*
%TO.P,J4,6*%
X151720000Y-92510000D03*
%TO.P,J4,5*%
X151720000Y-89970000D03*
%TO.P,J4,4*%
X151720000Y-87430000D03*
%TO.P,J4,3*%
%TO.N,TX*%
X151720000Y-84890000D03*
%TO.P,J4,2*%
%TO.N,N/C*%
X151720000Y-82350000D03*
D13*
%TO.P,J4,1*%
X151720000Y-79810000D03*
%TD*%
%TO.P,5V,1*%
%TO.N,PW_IN*%
%TA.AperFunction,ComponentPad*%
G36*
G01*
X132150000Y-104750000D02*
X132150000Y-103250000D01*
G75*
G02*
X132400000Y-103000000I250000J0D01*
G01*
X133600000Y-103000000D01*
G75*
G02*
X133850000Y-103250000I0J-250000D01*
G01*
X133850000Y-104750000D01*
G75*
G02*
X133600000Y-105000000I-250000J0D01*
G01*
X132400000Y-105000000D01*
G75*
G02*
X132150000Y-104750000I0J250000D01*
G01*
G37*
%TD.AperFunction*%
D12*
%TO.P,5V,2*%
%TO.N,GND*%
X135500000Y-104000000D03*
%TD*%
D15*
%TO.P,SW,*%
%TO.N,*%
X161080000Y-86080000D03*
X161080000Y-81000000D03*
%TO.P,SW,1*%
%TO.N,+5V*%
%TA.AperFunction,ComponentPad*%
G36*
G01*
X156800000Y-80600000D02*
X156800000Y-81400000D01*
G75*
G02*
X156400000Y-81800000I-400000J0D01*
G01*
X155600000Y-81800000D01*
G75*
G02*
X155200000Y-81400000I0J400000D01*
G01*
X155200000Y-80600000D01*
G75*
G02*
X155600000Y-80200000I400000J0D01*
G01*
X156400000Y-80200000D01*
G75*
G02*
X156800000Y-80600000I0J-400000D01*
G01*
G37*
%TD.AperFunction*%
%TO.P,SW,2*%
%TO.N,PW_IN*%
X156000000Y-83540000D03*
%TO.P,SW,3*%
%TO.N,N/C*%
X156000000Y-86080000D03*
%TD*%
%TO.P,R1,1*%
%TO.N,Net-(R1-Pad1)*%
X157000000Y-97620000D03*
D16*
%TO.P,R1,2*%
%TO.N,GND*%
X157000000Y-90000000D03*
%TD*%
%TO.P,R2,2*%
%TO.N,Net-(R1-Pad1)*%
X161000000Y-90000000D03*
D15*
%TO.P,R2,1*%
%TO.N,Net-(R2-Pad1)*%
X161000000Y-97620000D03*
%TD*%
%TO.P,R3,1*%
%TO.N,+5V*%
X155000000Y-102000000D03*
D16*
%TO.P,R3,2*%
%TO.N,Net-(R2-Pad1)*%
X162620000Y-102000000D03*
%TD*%
D17*
%TO.P,U1,14*%
%TO.N,+5V*%
X146997680Y-80882180D03*
%TO.P,U1,13*%
%TO.N,GND*%
X146997680Y-83422180D03*
%TO.P,U1,12*%
%TO.N,+3V3*%
X146997680Y-85962180D03*
%TO.P,U1,11*%
%TO.N,N/C*%
X146997680Y-88502180D03*
%TO.P,U1,10*%
X146997680Y-91042180D03*
%TO.P,U1,9*%
X146997680Y-93582180D03*
%TO.P,U1,8*%
%TO.N,RX*%
X146997680Y-96122180D03*
%TO.P,U1,7*%
%TO.N,TX*%
X130833120Y-96122180D03*
%TO.P,U1,6*%
%TO.N,N/C*%
X130833120Y-93582180D03*
%TO.P,U1,5*%
X130833120Y-91042180D03*
%TO.P,U1,4*%
X130833120Y-88502180D03*
%TO.P,U1,3*%
X130833120Y-85962180D03*
%TO.P,U1,2*%
%TO.N,ESS_IN*%
X130833120Y-83422180D03*
%TO.P,U1,1*%
%TO.N,N/C*%
X130833120Y-80882180D03*
D18*
%TO.P,U1,15*%
X137700000Y-97200000D03*
%TO.P,U1,16*%
X140250000Y-97200000D03*
D19*
%TO.P,U1,17*%
X137698803Y-80195813D03*
%TO.P,U1,18*%
X140238803Y-80195813D03*
%TO.P,U1,19*%
X137698803Y-82735813D03*
%TO.P,U1,20*%
X140238803Y-82735813D03*
%TD*%
D20*
%TO.N,GND*%
X150000000Y-81000000D03*
%TO.N,RX*%
X144000000Y-96000000D03*
%TO.N,+3V3*%
X132000000Y-100000000D03*
X138000000Y-93000000D03*
%TO.N,ESS_IN*%
X128000000Y-89000000D03*
%TD*%
D21*
%TO.N,GND*%
X135500000Y-104000000D02*
X138000000Y-104000000D01*
X141870000Y-100130000D02*
X151720000Y-100130000D01*
X138000000Y-104000000D02*
X141870000Y-100130000D01*
X150000000Y-81000000D02*
X150000000Y-82000000D01*
X148577820Y-83422180D02*
X146997680Y-83422180D01*
X150000000Y-82000000D02*
X148577820Y-83422180D01*
X157000000Y-91509002D02*
X155000000Y-93509002D01*
X157000000Y-90000000D02*
X157000000Y-91509002D01*
X155000000Y-96850000D02*
X151720000Y-100130000D01*
X155000000Y-93509002D02*
X155000000Y-96850000D01*
%TO.N,+5V*%
X143000000Y-104000000D02*
X143000000Y-105000000D01*
X143000000Y-105000000D02*
X144000000Y-106000000D01*
X144000000Y-106000000D02*
X153000000Y-106000000D01*
X155000000Y-104000000D02*
X155000000Y-102000000D01*
X153000000Y-106000000D02*
X155000000Y-104000000D01*
X156000000Y-81000000D02*
X153000000Y-78000000D01*
X149879860Y-78000000D02*
X146997680Y-80882180D01*
X153000000Y-78000000D02*
X149879860Y-78000000D01*
%TO.N,RX*%
X146875500Y-96000000D02*
X146997680Y-96122180D01*
X144000000Y-96000000D02*
X146875500Y-96000000D01*
%TO.N,+3V3*%
X126320000Y-100130000D02*
X128870000Y-100130000D01*
X128870000Y-100130000D02*
X131870000Y-100130000D01*
X131870000Y-100130000D02*
X132000000Y-100000000D01*
X132000000Y-100000000D02*
X132000000Y-100000000D01*
X138000000Y-93000000D02*
X138000000Y-92000000D01*
X144037820Y-85962180D02*
X146997680Y-85962180D01*
X138000000Y-92000000D02*
X144037820Y-85962180D01*
%TO.N,TX*%
X149000000Y-87610000D02*
X151720000Y-84890000D01*
X149000000Y-97000000D02*
X149000000Y-87610000D01*
X147000000Y-99000000D02*
X149000000Y-97000000D01*
X133000000Y-99000000D02*
X147000000Y-99000000D01*
X130833120Y-96833120D02*
X133000000Y-99000000D01*
X130833120Y-96122180D02*
X130833120Y-96833120D01*
%TO.N,PW_IN*%
X156540000Y-83540000D02*
X156000000Y-83540000D01*
X159000000Y-86000000D02*
X156540000Y-83540000D01*
X133000000Y-104000000D02*
X133000000Y-105000000D01*
X133000000Y-105000000D02*
X135000000Y-107000000D01*
X159000000Y-96000000D02*
X163000000Y-92000000D01*
X135000000Y-107000000D02*
X154000000Y-107000000D01*
X163000000Y-92000000D02*
X163000000Y-89000000D01*
X154000000Y-107000000D02*
X157000000Y-104000000D01*
X159000000Y-87000000D02*
X159000000Y-86000000D01*
X157000000Y-104000000D02*
X157000000Y-102000000D01*
X157000000Y-102000000D02*
X159000000Y-100000000D01*
X163000000Y-89000000D02*
X162000000Y-88000000D01*
X159000000Y-100000000D02*
X159000000Y-96000000D01*
X162000000Y-88000000D02*
X160000000Y-88000000D01*
X160000000Y-88000000D02*
X159000000Y-87000000D01*
%TO.N,ESS_IN*%
X128000000Y-89000000D02*
X128000000Y-84000000D01*
X128577820Y-83422180D02*
X130833120Y-83422180D01*
X128000000Y-84000000D02*
X128577820Y-83422180D01*
%TO.N,Net-(R1-Pad1)*%
X157000000Y-94000000D02*
X161000000Y-90000000D01*
X157000000Y-97620000D02*
X157000000Y-94000000D01*
%TO.N,Net-(R2-Pad1)*%
X161000000Y-100380000D02*
X162620000Y-102000000D01*
X161000000Y-97620000D02*
X161000000Y-100380000D01*
%TD*%
M02*
