M48
; DRILL file {KiCad (5.1.9)-1} date 07/22/22 17:15:24
; FORMAT={-:-/ absolute / metric / decimal}
; #@! TF.CreationDate,2022-07-22T17:15:24+09:00
; #@! TF.GenerationSoftware,Kicad,Pcbnew,(5.1.9)-1
FMAT,2
METRIC
T1C0.400
T2C0.500
T3C0.800
T4C0.890
T5C0.900
T6C1.000
T7C1.100
T8C3.000
T9C3.200
T10C3.500
%
G90
G05
T1
X113.665Y-102.87
X113.665Y-109.855
X114.3Y-95.25
X116.205Y-117.475
X119.38Y-144.78
X120.65Y-125.095
X123.19Y-135.89
T2
X101.74Y-83.82
X101.74Y-148.59
X102.443Y-82.123
X102.443Y-85.517
X102.443Y-146.893
X102.443Y-150.287
X104.14Y-81.42
X104.14Y-86.22
X104.14Y-146.19
X104.14Y-150.99
X105.837Y-82.123
X105.837Y-85.517
X105.837Y-146.893
X105.837Y-150.287
X106.54Y-83.82
X106.54Y-148.59
X189.37Y-83.82
X189.37Y-148.59
X190.073Y-82.123
X190.073Y-85.517
X190.073Y-146.893
X190.073Y-150.287
X191.77Y-81.42
X191.77Y-86.22
X191.77Y-146.19
X191.77Y-150.99
X193.467Y-82.123
X193.467Y-85.517
X193.467Y-146.893
X193.467Y-150.287
X194.17Y-83.82
X194.17Y-148.59
T3
X108.585Y-126.365
X108.585Y-128.905
X109.855Y-98.425
X109.855Y-106.045
X109.855Y-111.76
X109.855Y-119.38
X112.395Y-98.425
X112.395Y-106.045
X112.395Y-111.76
X112.395Y-119.38
X113.03Y-135.255
X114.935Y-84.455
X114.935Y-86.995
X114.935Y-98.425
X114.935Y-106.045
X114.935Y-111.76
X114.935Y-119.38
X116.205Y-126.365
X116.205Y-128.905
X117.475Y-98.425
X117.475Y-106.045
X117.475Y-111.76
X117.475Y-119.38
X120.015Y-98.425
X120.015Y-106.045
X120.015Y-111.76
X120.015Y-119.38
X120.65Y-135.255
X122.555Y-84.455
X122.555Y-86.995
X122.555Y-98.425
X122.555Y-106.045
X122.555Y-111.76
X122.555Y-119.38
X125.095Y-98.425
X125.095Y-106.045
X125.095Y-111.76
X125.095Y-119.38
X157.48Y-85.09
X159.98Y-85.09
X163.83Y-85.09
X165.83Y-85.09
T4
X102.87Y-135.89
X102.87Y-140.97
X107.95Y-135.89
X107.95Y-138.43
X107.95Y-140.97
T5
X136.725Y-146.445
X136.725Y-148.985
X143.725Y-146.445
X143.725Y-148.985
T6
X104.54Y-103.58
X104.54Y-106.12
X104.54Y-108.66
X104.54Y-111.2
X104.54Y-113.74
X104.54Y-116.28
X104.54Y-118.82
X104.54Y-121.36
X104.54Y-123.9
X104.54Y-126.44
X113.03Y-143.51
X115.53Y-143.51
X123.19Y-143.51
X125.69Y-143.51
X129.94Y-103.58
X129.94Y-106.12
X129.94Y-108.66
X129.94Y-111.2
X129.94Y-113.74
X129.94Y-116.28
X129.94Y-118.82
X129.94Y-121.36
X129.94Y-123.9
X129.94Y-126.44
X149.936Y-103.915
X149.936Y-106.455
X149.936Y-108.995
X149.936Y-111.535
X149.936Y-114.075
X149.936Y-116.615
X149.936Y-119.155
X149.936Y-121.695
X149.936Y-124.235
X149.936Y-126.775
T7
X141.605Y-102.235
X144.145Y-102.235
X146.685Y-102.235
T8
X177.8Y-83.82
X177.8Y-146.82
T9
X104.14Y-83.82
X104.14Y-148.59
X191.77Y-83.82
X191.77Y-148.59
T10
X144.145Y-85.575
T0
M30
