%TF.GenerationSoftware,KiCad,Pcbnew,(5.1.9)-1*%
%TF.CreationDate,2022-07-22T17:15:22+09:00*%
%TF.ProjectId,Receiver,52656365-6976-4657-922e-6b696361645f,rev?*%
%TF.SameCoordinates,Original*%
%TF.FileFunction,Soldermask,Top*%
%TF.FilePolarity,Negative*%
%FSLAX46Y46*%
G04 Gerber Fmt 4.6, Leading zero omitted, Abs format (unit mm)*
G04 Created by KiCad (PCBNEW (5.1.9)-1) date 2022-07-22 17:15:22*
%MOMM*%
%LPD*%
G01*
G04 APERTURE LIST*
%ADD10C,1.700000*%
%ADD11C,3.500000*%
%ADD12R,1.700000X1.700000*%
%ADD13O,1.700000X1.700000*%
%ADD14O,1.700000X2.000000*%
%ADD15R,1.800000X1.800000*%
%ADD16C,1.800000*%
%ADD17C,6.400000*%
%ADD18C,0.800000*%
%ADD19R,1.600000X1.600000*%
%ADD20O,1.600000X1.600000*%
%ADD21C,1.600000*%
%ADD22O,3.500000X3.500000*%
%ADD23R,1.905000X2.000000*%
%ADD24O,1.905000X2.000000*%
G04 APERTURE END LIST*
D10*
%TO.C,U2*%
X149936200Y-111535400D03*
X149936200Y-114075400D03*
X149936200Y-116615400D03*
X149936200Y-119155400D03*
X149936200Y-121695400D03*
X149936200Y-124235400D03*
X149936200Y-126775400D03*
X149936200Y-108995400D03*
X149936200Y-106455400D03*
X149936200Y-103915400D03*
D11*
X177800000Y-83820000D03*
X177800000Y-146820000D03*
%TD*%
D12*
%TO.C,J3*%
X104540000Y-103580000D03*
D13*
X104540000Y-106120000D03*
X104540000Y-108660000D03*
X104540000Y-111200000D03*
X104540000Y-113740000D03*
X104540000Y-116280000D03*
X104540000Y-118820000D03*
X104540000Y-121360000D03*
X104540000Y-123900000D03*
X104540000Y-126440000D03*
%TD*%
%TO.C,J4*%
X129940000Y-126440000D03*
X129940000Y-123900000D03*
X129940000Y-121360000D03*
X129940000Y-118820000D03*
X129940000Y-116280000D03*
X129940000Y-113740000D03*
X129940000Y-111200000D03*
X129940000Y-108660000D03*
X129940000Y-106120000D03*
D12*
X129940000Y-103580000D03*
%TD*%
%TO.C,J5*%
G36*
G01*
X122340000Y-144260000D02*
X122340000Y-142760000D01*
G75*
G02*
X122590000Y-142510000I250000J0D01*
G01*
X123790000Y-142510000D01*
G75*
G02*
X124040000Y-142760000I0J-250000D01*
G01*
X124040000Y-144260000D01*
G75*
G02*
X123790000Y-144510000I-250000J0D01*
G01*
X122590000Y-144510000D01*
G75*
G02*
X122340000Y-144260000I0J250000D01*
G01*
G37*
D14*
X125690000Y-143510000D03*
%TD*%
%TO.C,J6*%
G36*
G01*
X112180000Y-144260000D02*
X112180000Y-142760000D01*
G75*
G02*
X112430000Y-142510000I250000J0D01*
G01*
X113630000Y-142510000D01*
G75*
G02*
X113880000Y-142760000I0J-250000D01*
G01*
X113880000Y-144260000D01*
G75*
G02*
X113630000Y-144510000I-250000J0D01*
G01*
X112430000Y-144510000D01*
G75*
G02*
X112180000Y-144260000I0J250000D01*
G01*
G37*
X115530000Y-143510000D03*
%TD*%
D15*
%TO.C,D1*%
X136725000Y-148985000D03*
D16*
X136725000Y-146445000D03*
%TD*%
%TO.C,D2*%
X143725000Y-146445000D03*
D15*
X143725000Y-148985000D03*
%TD*%
D17*
%TO.C,H1*%
X104140000Y-83820000D03*
D18*
X106540000Y-83820000D03*
X105837056Y-85517056D03*
X104140000Y-86220000D03*
X102442944Y-85517056D03*
X101740000Y-83820000D03*
X102442944Y-82122944D03*
X104140000Y-81420000D03*
X105837056Y-82122944D03*
%TD*%
%TO.C,H2*%
X105837056Y-146892944D03*
X104140000Y-146190000D03*
X102442944Y-146892944D03*
X101740000Y-148590000D03*
X102442944Y-150287056D03*
X104140000Y-150990000D03*
X105837056Y-150287056D03*
X106540000Y-148590000D03*
D17*
X104140000Y-148590000D03*
%TD*%
%TO.C,H3*%
X191770000Y-148590000D03*
D18*
X194170000Y-148590000D03*
X193467056Y-150287056D03*
X191770000Y-150990000D03*
X190072944Y-150287056D03*
X189370000Y-148590000D03*
X190072944Y-146892944D03*
X191770000Y-146190000D03*
X193467056Y-146892944D03*
%TD*%
%TO.C,H4*%
X193467056Y-82122944D03*
X191770000Y-81420000D03*
X190072944Y-82122944D03*
X189370000Y-83820000D03*
X190072944Y-85517056D03*
X191770000Y-86220000D03*
X193467056Y-85517056D03*
X194170000Y-83820000D03*
D17*
X191770000Y-83820000D03*
%TD*%
D19*
%TO.C,SW2*%
X114935000Y-84455000D03*
D20*
X122555000Y-86995000D03*
X114935000Y-86995000D03*
X122555000Y-84455000D03*
%TD*%
D19*
%TO.C,U4*%
X109855000Y-119380000D03*
D20*
X125095000Y-111760000D03*
X112395000Y-119380000D03*
X122555000Y-111760000D03*
X114935000Y-119380000D03*
X120015000Y-111760000D03*
X117475000Y-119380000D03*
X117475000Y-111760000D03*
X120015000Y-119380000D03*
X114935000Y-111760000D03*
X122555000Y-119380000D03*
X112395000Y-111760000D03*
X125095000Y-119380000D03*
X109855000Y-111760000D03*
%TD*%
%TO.C,U5*%
X109855000Y-98425000D03*
X125095000Y-106045000D03*
X112395000Y-98425000D03*
X122555000Y-106045000D03*
X114935000Y-98425000D03*
X120015000Y-106045000D03*
X117475000Y-98425000D03*
X117475000Y-106045000D03*
X120015000Y-98425000D03*
X114935000Y-106045000D03*
X122555000Y-98425000D03*
X112395000Y-106045000D03*
X125095000Y-98425000D03*
D19*
X109855000Y-106045000D03*
%TD*%
D21*
%TO.C,SW1*%
X102870000Y-135890000D03*
X102870000Y-140970000D03*
G36*
G01*
X107150000Y-141370000D02*
X107150000Y-140570000D01*
G75*
G02*
X107550000Y-140170000I400000J0D01*
G01*
X108350000Y-140170000D01*
G75*
G02*
X108750000Y-140570000I0J-400000D01*
G01*
X108750000Y-141370000D01*
G75*
G02*
X108350000Y-141770000I-400000J0D01*
G01*
X107550000Y-141770000D01*
G75*
G02*
X107150000Y-141370000I0J400000D01*
G01*
G37*
X107950000Y-138430000D03*
X107950000Y-135890000D03*
%TD*%
%TO.C,R1*%
X113030000Y-135255000D03*
D20*
X120650000Y-135255000D03*
%TD*%
D19*
%TO.C,U1*%
X108585000Y-126365000D03*
D20*
X116205000Y-128905000D03*
X108585000Y-128905000D03*
X116205000Y-126365000D03*
%TD*%
D21*
%TO.C,C1*%
X159980000Y-85090000D03*
X157480000Y-85090000D03*
%TD*%
D19*
%TO.C,C2*%
X163830000Y-85090000D03*
D21*
X165830000Y-85090000D03*
%TD*%
D22*
%TO.C,U3*%
X144145000Y-85575000D03*
D23*
X141605000Y-102235000D03*
D24*
X144145000Y-102235000D03*
X146685000Y-102235000D03*
%TD*%
M02*
