%TF.GenerationSoftware,KiCad,Pcbnew,(5.1.9)-1*%
%TF.CreationDate,2022-07-09T00:28:58+09:00*%
%TF.ProjectId,Transmitter,5472616e-736d-4697-9474-65722e6b6963,rev?*%
%TF.SameCoordinates,Original*%
%TF.FileFunction,Copper,L2,Bot*%
%TF.FilePolarity,Positive*%
%FSLAX46Y46*%
G04 Gerber Fmt 4.6, Leading zero omitted, Abs format (unit mm)*
G04 Created by KiCad (PCBNEW (5.1.9)-1) date 2022-07-09 00:28:58*
%MOMM*%
%LPD*%
G01*
G04 APERTURE LIST*
%TA.AperFunction,ComponentPad*%
%ADD10O,1.700000X2.000000*%
%TD*%
%TA.AperFunction,ComponentPad*%
%ADD11R,1.700000X1.700000*%
%TD*%
%TA.AperFunction,ComponentPad*%
%ADD12O,1.700000X1.700000*%
%TD*%
%TA.AperFunction,ComponentPad*%
%ADD13C,1.600000*%
%TD*%
%TA.AperFunction,ComponentPad*%
%ADD14O,1.600000X1.600000*%
%TD*%
%TA.AperFunction,ComponentPad*%
%ADD15R,1.800000X1.800000*%
%TD*%
%TA.AperFunction,ComponentPad*%
%ADD16C,1.800000*%
%TD*%
%TA.AperFunction,ComponentPad*%
%ADD17C,6.400000*%
%TD*%
%TA.AperFunction,ComponentPad*%
%ADD18C,0.800000*%
%TD*%
%TA.AperFunction,Conductor*%
%ADD19C,0.250000*%
%TD*%
G04 APERTURE END LIST*
%TO.P,J6,1*%
%TO.N,+5V*%
%TA.AperFunction,ComponentPad*%
G36*
G01*
X147220000Y-108240000D02*
X147220000Y-106740000D01*
G75*
G02*
X147470000Y-106490000I250000J0D01*
G01*
X148670000Y-106490000D01*
G75*
G02*
X148920000Y-106740000I0J-250000D01*
G01*
X148920000Y-108240000D01*
G75*
G02*
X148670000Y-108490000I-250000J0D01*
G01*
X147470000Y-108490000D01*
G75*
G02*
X147220000Y-108240000I0J250000D01*
G01*
G37*
%TD.AperFunction*%
D10*
%TO.P,J6,2*%
%TO.N,LED*%
X150570000Y-107490000D03*
%TD*%
D11*
%TO.P,J3,1*%
%TO.N,N/C*%
X132080000Y-82550000D03*
D12*
%TO.P,J3,2*%
X132080000Y-85090000D03*
%TO.P,J3,3*%
X132080000Y-87630000D03*
%TO.P,J3,4*%
X132080000Y-90170000D03*
%TO.P,J3,5*%
%TO.N,+3V3*%
X132080000Y-92710000D03*
%TO.P,J3,6*%
%TO.N,N/C*%
X132080000Y-95250000D03*
%TO.P,J3,7*%
X132080000Y-97790000D03*
%TO.P,J3,8*%
X132080000Y-100330000D03*
%TO.P,J3,9*%
%TO.N,+3V3*%
X132080000Y-102870000D03*
%TO.P,J3,10*%
%TO.N,N/C*%
X132080000Y-105410000D03*
%TD*%
%TO.P,J4,10*%
%TO.N,N/C*%
X157480000Y-105410000D03*
%TO.P,J4,9*%
%TO.N,ESS*%
X157480000Y-102870000D03*
%TO.P,J4,8*%
%TO.N,N/C*%
X157480000Y-100330000D03*
%TO.P,J4,7*%
X157480000Y-97790000D03*
%TO.P,J4,6*%
X157480000Y-95250000D03*
%TO.P,J4,5*%
X157480000Y-92710000D03*
%TO.P,J4,4*%
X157480000Y-90170000D03*
%TO.P,J4,3*%
X157480000Y-87630000D03*
%TO.P,J4,2*%
X157480000Y-85090000D03*
D11*
%TO.P,J4,1*%
%TO.N,ESS*%
X157480000Y-82550000D03*
%TD*%
%TO.P,J5,1*%
%TO.N,PW_IN*%
%TA.AperFunction,ComponentPad*%
G36*
G01*
X137220000Y-108240000D02*
X137220000Y-106740000D01*
G75*
G02*
X137470000Y-106490000I250000J0D01*
G01*
X138670000Y-106490000D01*
G75*
G02*
X138920000Y-106740000I0J-250000D01*
G01*
X138920000Y-108240000D01*
G75*
G02*
X138670000Y-108490000I-250000J0D01*
G01*
X137470000Y-108490000D01*
G75*
G02*
X137220000Y-108240000I0J250000D01*
G01*
G37*
%TD.AperFunction*%
D10*
%TO.P,J5,2*%
%TO.N,ESS*%
X140570000Y-107490000D03*
%TD*%
D13*
%TO.P,SW1,*%
%TO.N,*%
X166370000Y-91440000D03*
X166370000Y-86360000D03*
%TO.P,SW1,1*%
%TO.N,+5V*%
%TA.AperFunction,ComponentPad*%
G36*
G01*
X162090000Y-85960000D02*
X162090000Y-86760000D01*
G75*
G02*
X161690000Y-87160000I-400000J0D01*
G01*
X160890000Y-87160000D01*
G75*
G02*
X160490000Y-86760000I0J400000D01*
G01*
X160490000Y-85960000D01*
G75*
G02*
X160890000Y-85560000I400000J0D01*
G01*
X161690000Y-85560000D01*
G75*
G02*
X162090000Y-85960000I0J-400000D01*
G01*
G37*
%TD.AperFunction*%
%TO.P,SW1,2*%
%TO.N,PW_IN*%
X161290000Y-88900000D03*
%TO.P,SW1,3*%
%TO.N,N/C*%
X161290000Y-91440000D03*
%TD*%
%TO.P,R1,1*%
%TO.N,Net-(R1-Pad1)*%
X140970000Y-83600000D03*
D14*
%TO.P,R1,2*%
%TO.N,ESS*%
X148590000Y-83600000D03*
%TD*%
D13*
%TO.P,R2,1*%
%TO.N,Net-(R2-Pad1)*%
X148590000Y-88900000D03*
D14*
%TO.P,R2,2*%
%TO.N,Net-(R1-Pad1)*%
X140970000Y-88900000D03*
%TD*%
D13*
%TO.P,R3,1*%
%TO.N,+5V*%
X148590000Y-95250000D03*
D14*
%TO.P,R3,2*%
%TO.N,Net-(R2-Pad1)*%
X140970000Y-95250000D03*
%TD*%
D15*
%TO.P,D1,1*%
%TO.N,ESS*%
X163830000Y-104140000D03*
D16*
%TO.P,D1,2*%
%TO.N,LED*%
X166370000Y-104140000D03*
%TD*%
D17*
%TO.P,H1,1*%
%TO.N,N/C*%
X131000000Y-76000000D03*
D18*
X133400000Y-76000000D03*
X132697056Y-77697056D03*
X131000000Y-78400000D03*
X129302944Y-77697056D03*
X128600000Y-76000000D03*
X129302944Y-74302944D03*
X131000000Y-73600000D03*
X132697056Y-74302944D03*
%TD*%
%TO.P,H2,1*%
%TO.N,N/C*%
X132697056Y-111302944D03*
X131000000Y-110600000D03*
X129302944Y-111302944D03*
X128600000Y-113000000D03*
X129302944Y-114697056D03*
X131000000Y-115400000D03*
X132697056Y-114697056D03*
X133400000Y-113000000D03*
D17*
X131000000Y-113000000D03*
%TD*%
%TO.P,H3,1*%
%TO.N,N/C*%
X165000000Y-113000000D03*
D18*
X167400000Y-113000000D03*
X166697056Y-114697056D03*
X165000000Y-115400000D03*
X163302944Y-114697056D03*
X162600000Y-113000000D03*
X163302944Y-111302944D03*
X165000000Y-110600000D03*
X166697056Y-111302944D03*
%TD*%
%TO.P,H4,1*%
%TO.N,N/C*%
X166697056Y-74302944D03*
X165000000Y-73600000D03*
X163302944Y-74302944D03*
X162600000Y-76000000D03*
X163302944Y-77697056D03*
X165000000Y-78400000D03*
X166697056Y-77697056D03*
X167400000Y-76000000D03*
D17*
X165000000Y-76000000D03*
%TD*%
D13*
%TO.P,R4,1*%
%TO.N,ESS*%
X140970000Y-101600000D03*
D14*
%TO.P,R4,2*%
%TO.N,LED*%
X148590000Y-101600000D03*
%TD*%
D19*
%TO.N,PW_IN*%
X162560000Y-88900000D02*
X161290000Y-88900000D01*
X163830000Y-92710000D02*
X163830000Y-90170000D01*
X162560000Y-93980000D02*
X163830000Y-92710000D01*
X163830000Y-90170000D02*
X162560000Y-88900000D01*
X151580000Y-93980000D02*
X162560000Y-93980000D01*
X138070000Y-107490000D02*
X151580000Y-93980000D01*
%TO.N,ESS*%
X157480000Y-102870000D02*
X153670000Y-106680000D01*
X153670000Y-106680000D02*
X153670000Y-107950000D01*
X153670000Y-107950000D02*
X152400000Y-109220000D01*
X142300000Y-109220000D02*
X140570000Y-107490000D01*
X152400000Y-109220000D02*
X142300000Y-109220000D01*
%TD*%
M02*
