%TF.GenerationSoftware,KiCad,Pcbnew,(5.1.9)-1*%
%TF.CreationDate,2022-07-09T00:28:58+09:00*%
%TF.ProjectId,Transmitter,5472616e-736d-4697-9474-65722e6b6963,rev?*%
%TF.SameCoordinates,Original*%
%TF.FileFunction,Legend,Top*%
%TF.FilePolarity,Positive*%
%FSLAX46Y46*%
G04 Gerber Fmt 4.6, Leading zero omitted, Abs format (unit mm)*
G04 Created by KiCad (PCBNEW (5.1.9)-1) date 2022-07-09 00:28:58*
%MOMM*%
%LPD*%
G01*
G04 APERTURE LIST*
%ADD10C,0.150000*%
%ADD11C,0.120000*%
G04 APERTURE END LIST*
D10*
X143071428Y-73802380D02*
X142738095Y-73326190D01*
X142500000Y-73802380D02*
X142500000Y-72802380D01*
X142880952Y-72802380D01*
X142976190Y-72850000D01*
X143023809Y-72897619D01*
X143071428Y-72992857D01*
X143071428Y-73135714D01*
X143023809Y-73230952D01*
X142976190Y-73278571D01*
X142880952Y-73326190D01*
X142500000Y-73326190D01*
X143500000Y-73278571D02*
X143833333Y-73278571D01*
X143976190Y-73802380D02*
X143500000Y-73802380D01*
X143500000Y-72802380D01*
X143976190Y-72802380D01*
X144357142Y-73754761D02*
X144500000Y-73802380D01*
X144738095Y-73802380D01*
X144833333Y-73754761D01*
X144880952Y-73707142D01*
X144928571Y-73611904D01*
X144928571Y-73516666D01*
X144880952Y-73421428D01*
X144833333Y-73373809D01*
X144738095Y-73326190D01*
X144547619Y-73278571D01*
X144452380Y-73230952D01*
X144404761Y-73183333D01*
X144357142Y-73088095D01*
X144357142Y-72992857D01*
X144404761Y-72897619D01*
X144452380Y-72850000D01*
X144547619Y-72802380D01*
X144785714Y-72802380D01*
X144928571Y-72850000D01*
X145309523Y-73754761D02*
X145452380Y-73802380D01*
X145690476Y-73802380D01*
X145785714Y-73754761D01*
X145833333Y-73707142D01*
X145880952Y-73611904D01*
X145880952Y-73516666D01*
X145833333Y-73421428D01*
X145785714Y-73373809D01*
X145690476Y-73326190D01*
X145500000Y-73278571D01*
X145404761Y-73230952D01*
X145357142Y-73183333D01*
X145309523Y-73088095D01*
X145309523Y-72992857D01*
X145357142Y-72897619D01*
X145404761Y-72850000D01*
X145500000Y-72802380D01*
X145738095Y-72802380D01*
X145880952Y-72850000D01*
X146309523Y-73421428D02*
X147071428Y-73421428D01*
X147404761Y-72802380D02*
X147976190Y-72802380D01*
X147690476Y-73802380D02*
X147690476Y-72802380D01*
X148309523Y-73802380D02*
X148309523Y-73135714D01*
X148309523Y-73326190D02*
X148357142Y-73230952D01*
X148404761Y-73183333D01*
X148500000Y-73135714D01*
X148595238Y-73135714D01*
X149357142Y-73802380D02*
X149357142Y-73278571D01*
X149309523Y-73183333D01*
X149214285Y-73135714D01*
X149023809Y-73135714D01*
X148928571Y-73183333D01*
X149357142Y-73754761D02*
X149261904Y-73802380D01*
X149023809Y-73802380D01*
X148928571Y-73754761D01*
X148880952Y-73659523D01*
X148880952Y-73564285D01*
X148928571Y-73469047D01*
X149023809Y-73421428D01*
X149261904Y-73421428D01*
X149357142Y-73373809D01*
X149833333Y-73135714D02*
X149833333Y-73802380D01*
X149833333Y-73230952D02*
X149880952Y-73183333D01*
X149976190Y-73135714D01*
X150119047Y-73135714D01*
X150214285Y-73183333D01*
X150261904Y-73278571D01*
X150261904Y-73802380D01*
X150690476Y-73754761D02*
X150785714Y-73802380D01*
X150976190Y-73802380D01*
X151071428Y-73754761D01*
X151119047Y-73659523D01*
X151119047Y-73611904D01*
X151071428Y-73516666D01*
X150976190Y-73469047D01*
X150833333Y-73469047D01*
X150738095Y-73421428D01*
X150690476Y-73326190D01*
X150690476Y-73278571D01*
X150738095Y-73183333D01*
X150833333Y-73135714D01*
X150976190Y-73135714D01*
X151071428Y-73183333D01*
X151547619Y-73802380D02*
X151547619Y-73135714D01*
X151547619Y-73230952D02*
X151595238Y-73183333D01*
X151690476Y-73135714D01*
X151833333Y-73135714D01*
X151928571Y-73183333D01*
X151976190Y-73278571D01*
X151976190Y-73802380D01*
X151976190Y-73278571D02*
X152023809Y-73183333D01*
X152119047Y-73135714D01*
X152261904Y-73135714D01*
X152357142Y-73183333D01*
X152404761Y-73278571D01*
X152404761Y-73802380D01*
X152880952Y-73802380D02*
X152880952Y-73135714D01*
X152880952Y-72802380D02*
X152833333Y-72850000D01*
X152880952Y-72897619D01*
X152928571Y-72850000D01*
X152880952Y-72802380D01*
X152880952Y-72897619D01*
X153214285Y-73135714D02*
X153595238Y-73135714D01*
X153357142Y-72802380D02*
X153357142Y-73659523D01*
X153404761Y-73754761D01*
X153500000Y-73802380D01*
X153595238Y-73802380D01*
X153785714Y-73135714D02*
X154166666Y-73135714D01*
X153928571Y-72802380D02*
X153928571Y-73659523D01*
X153976190Y-73754761D01*
X154071428Y-73802380D01*
X154166666Y-73802380D01*
X154880952Y-73754761D02*
X154785714Y-73802380D01*
X154595238Y-73802380D01*
X154500000Y-73754761D01*
X154452380Y-73659523D01*
X154452380Y-73278571D01*
X154500000Y-73183333D01*
X154595238Y-73135714D01*
X154785714Y-73135714D01*
X154880952Y-73183333D01*
X154928571Y-73278571D01*
X154928571Y-73373809D01*
X154452380Y-73469047D01*
X155357142Y-73802380D02*
X155357142Y-73135714D01*
X155357142Y-73326190D02*
X155404761Y-73230952D01*
X155452380Y-73183333D01*
X155547619Y-73135714D01*
X155642857Y-73135714D01*
X142047619Y-74547619D02*
X142095238Y-74500000D01*
X142190476Y-74452380D01*
X142428571Y-74452380D01*
X142523809Y-74500000D01*
X142571428Y-74547619D01*
X142619047Y-74642857D01*
X142619047Y-74738095D01*
X142571428Y-74880952D01*
X142000000Y-75452380D01*
X142619047Y-75452380D01*
X143238095Y-74452380D02*
X143333333Y-74452380D01*
X143428571Y-74500000D01*
X143476190Y-74547619D01*
X143523809Y-74642857D01*
X143571428Y-74833333D01*
X143571428Y-75071428D01*
X143523809Y-75261904D01*
X143476190Y-75357142D01*
X143428571Y-75404761D01*
X143333333Y-75452380D01*
X143238095Y-75452380D01*
X143142857Y-75404761D01*
X143095238Y-75357142D01*
X143047619Y-75261904D01*
X143000000Y-75071428D01*
X143000000Y-74833333D01*
X143047619Y-74642857D01*
X143095238Y-74547619D01*
X143142857Y-74500000D01*
X143238095Y-74452380D01*
X143952380Y-74547619D02*
X144000000Y-74500000D01*
X144095238Y-74452380D01*
X144333333Y-74452380D01*
X144428571Y-74500000D01*
X144476190Y-74547619D01*
X144523809Y-74642857D01*
X144523809Y-74738095D01*
X144476190Y-74880952D01*
X143904761Y-75452380D01*
X144523809Y-75452380D01*
X144904761Y-74547619D02*
X144952380Y-74500000D01*
X145047619Y-74452380D01*
X145285714Y-74452380D01*
X145380952Y-74500000D01*
X145428571Y-74547619D01*
X145476190Y-74642857D01*
X145476190Y-74738095D01*
X145428571Y-74880952D01*
X144857142Y-75452380D01*
X145476190Y-75452380D01*
X146666666Y-75452380D02*
X146666666Y-74452380D01*
X147571428Y-75404761D02*
X147476190Y-75452380D01*
X147285714Y-75452380D01*
X147190476Y-75404761D01*
X147142857Y-75357142D01*
X147095238Y-75261904D01*
X147095238Y-74976190D01*
X147142857Y-74880952D01*
X147190476Y-74833333D01*
X147285714Y-74785714D01*
X147476190Y-74785714D01*
X147571428Y-74833333D01*
X148000000Y-75452380D02*
X148000000Y-74452380D01*
X148428571Y-75452380D02*
X148428571Y-74928571D01*
X148380952Y-74833333D01*
X148285714Y-74785714D01*
X148142857Y-74785714D01*
X148047619Y-74833333D01*
X148000000Y-74880952D01*
X148904761Y-75452380D02*
X148904761Y-74785714D01*
X148904761Y-74452380D02*
X148857142Y-74500000D01*
X148904761Y-74547619D01*
X148952380Y-74500000D01*
X148904761Y-74452380D01*
X148904761Y-74547619D01*
X149380952Y-74785714D02*
X149380952Y-75452380D01*
X149380952Y-74880952D02*
X149428571Y-74833333D01*
X149523809Y-74785714D01*
X149666666Y-74785714D01*
X149761904Y-74833333D01*
X149809523Y-74928571D01*
X149809523Y-75452380D01*
X150428571Y-75452380D02*
X150333333Y-75404761D01*
X150285714Y-75357142D01*
X150238095Y-75261904D01*
X150238095Y-74976190D01*
X150285714Y-74880952D01*
X150333333Y-74833333D01*
X150428571Y-74785714D01*
X150571428Y-74785714D01*
X150666666Y-74833333D01*
X150714285Y-74880952D01*
X150761904Y-74976190D01*
X150761904Y-75261904D01*
X150714285Y-75357142D01*
X150666666Y-75404761D01*
X150571428Y-75452380D01*
X150428571Y-75452380D01*
X151142857Y-75404761D02*
X151238095Y-75452380D01*
X151428571Y-75452380D01*
X151523809Y-75404761D01*
X151571428Y-75309523D01*
X151571428Y-75261904D01*
X151523809Y-75166666D01*
X151428571Y-75119047D01*
X151285714Y-75119047D01*
X151190476Y-75071428D01*
X151142857Y-74976190D01*
X151142857Y-74928571D01*
X151190476Y-74833333D01*
X151285714Y-74785714D01*
X151428571Y-74785714D01*
X151523809Y-74833333D01*
X152380952Y-75404761D02*
X152285714Y-75452380D01*
X152095238Y-75452380D01*
X152000000Y-75404761D01*
X151952380Y-75309523D01*
X151952380Y-74928571D01*
X152000000Y-74833333D01*
X152095238Y-74785714D01*
X152285714Y-74785714D01*
X152380952Y-74833333D01*
X152428571Y-74928571D01*
X152428571Y-75023809D01*
X151952380Y-75119047D01*
X152857142Y-75452380D02*
X152857142Y-74452380D01*
X152952380Y-75071428D02*
X153238095Y-75452380D01*
X153238095Y-74785714D02*
X152857142Y-75166666D01*
X153666666Y-75452380D02*
X153666666Y-74785714D01*
X153666666Y-74452380D02*
X153619047Y-74500000D01*
X153666666Y-74547619D01*
X153714285Y-74500000D01*
X153666666Y-74452380D01*
X153666666Y-74547619D01*
X154142857Y-75071428D02*
X154904761Y-75071428D01*
X155714285Y-74928571D02*
X155857142Y-74976190D01*
X155904761Y-75023809D01*
X155952380Y-75119047D01*
X155952380Y-75261904D01*
X155904761Y-75357142D01*
X155857142Y-75404761D01*
X155761904Y-75452380D01*
X155380952Y-75452380D01*
X155380952Y-74452380D01*
X155714285Y-74452380D01*
X155809523Y-74500000D01*
X155857142Y-74547619D01*
X155904761Y-74642857D01*
X155904761Y-74738095D01*
X155857142Y-74833333D01*
X155809523Y-74880952D01*
X155714285Y-74928571D01*
X155380952Y-74928571D01*
X147547619Y-76578571D02*
X147214285Y-76578571D01*
X147214285Y-77102380D02*
X147214285Y-76102380D01*
X147690476Y-76102380D01*
X148500000Y-77102380D02*
X148500000Y-76578571D01*
X148452380Y-76483333D01*
X148357142Y-76435714D01*
X148166666Y-76435714D01*
X148071428Y-76483333D01*
X148500000Y-77054761D02*
X148404761Y-77102380D01*
X148166666Y-77102380D01*
X148071428Y-77054761D01*
X148023809Y-76959523D01*
X148023809Y-76864285D01*
X148071428Y-76769047D01*
X148166666Y-76721428D01*
X148404761Y-76721428D01*
X148500000Y-76673809D01*
X149119047Y-77102380D02*
X149023809Y-77054761D01*
X148976190Y-76959523D01*
X148976190Y-76102380D01*
X149928571Y-77054761D02*
X149833333Y-77102380D01*
X149642857Y-77102380D01*
X149547619Y-77054761D01*
X149500000Y-77007142D01*
X149452380Y-76911904D01*
X149452380Y-76626190D01*
X149500000Y-76530952D01*
X149547619Y-76483333D01*
X149642857Y-76435714D01*
X149833333Y-76435714D01*
X149928571Y-76483333D01*
X150500000Y-77102380D02*
X150404761Y-77054761D01*
X150357142Y-77007142D01*
X150309523Y-76911904D01*
X150309523Y-76626190D01*
X150357142Y-76530952D01*
X150404761Y-76483333D01*
X150500000Y-76435714D01*
X150642857Y-76435714D01*
X150738095Y-76483333D01*
X150785714Y-76530952D01*
X150833333Y-76626190D01*
X150833333Y-76911904D01*
X150785714Y-77007142D01*
X150738095Y-77054761D01*
X150642857Y-77102380D01*
X150500000Y-77102380D01*
D11*
%TO.C,J6*%
X149320000Y-116800000D02*
X145510000Y-116800000D01*
X145510000Y-116800000D02*
X145510000Y-105080000D01*
X145510000Y-105080000D02*
X146930000Y-105080000D01*
X146930000Y-105080000D02*
X146930000Y-109580000D01*
X146930000Y-109580000D02*
X149320000Y-109580000D01*
X149320000Y-116800000D02*
X153130000Y-116800000D01*
X153130000Y-116800000D02*
X153130000Y-105080000D01*
X153130000Y-105080000D02*
X151710000Y-105080000D01*
X151710000Y-105080000D02*
X151710000Y-109580000D01*
X151710000Y-109580000D02*
X149320000Y-109580000D01*
X147820000Y-110690000D02*
X147820000Y-116190000D01*
X147820000Y-116190000D02*
X148320000Y-116190000D01*
X148320000Y-116190000D02*
X148320000Y-110690000D01*
X148320000Y-110690000D02*
X147820000Y-110690000D01*
X150320000Y-110690000D02*
X150320000Y-116190000D01*
X150320000Y-116190000D02*
X150820000Y-116190000D01*
X150820000Y-116190000D02*
X150820000Y-110690000D01*
X150820000Y-110690000D02*
X150320000Y-110690000D01*
X148070000Y-105990000D02*
X147770000Y-105390000D01*
X147770000Y-105390000D02*
X148370000Y-105390000D01*
X148370000Y-105390000D02*
X148070000Y-105990000D01*
%TO.C,J3*%
X132080000Y-81220000D02*
X133410000Y-81220000D01*
X133410000Y-81220000D02*
X133410000Y-82550000D01*
X133410000Y-83820000D02*
X133410000Y-106740000D01*
X130750000Y-106740000D02*
X133410000Y-106740000D01*
X130750000Y-83820000D02*
X130750000Y-106740000D01*
X130750000Y-83820000D02*
X133410000Y-83820000D01*
%TO.C,J4*%
X156150000Y-83820000D02*
X158810000Y-83820000D01*
X156150000Y-83820000D02*
X156150000Y-106740000D01*
X156150000Y-106740000D02*
X158810000Y-106740000D01*
X158810000Y-83820000D02*
X158810000Y-106740000D01*
X158810000Y-81220000D02*
X158810000Y-82550000D01*
X157480000Y-81220000D02*
X158810000Y-81220000D01*
%TO.C,J5*%
X138370000Y-105390000D02*
X138070000Y-105990000D01*
X137770000Y-105390000D02*
X138370000Y-105390000D01*
X138070000Y-105990000D02*
X137770000Y-105390000D01*
X140820000Y-110690000D02*
X140320000Y-110690000D01*
X140820000Y-116190000D02*
X140820000Y-110690000D01*
X140320000Y-116190000D02*
X140820000Y-116190000D01*
X140320000Y-110690000D02*
X140320000Y-116190000D01*
X138320000Y-110690000D02*
X137820000Y-110690000D01*
X138320000Y-116190000D02*
X138320000Y-110690000D01*
X137820000Y-116190000D02*
X138320000Y-116190000D01*
X137820000Y-110690000D02*
X137820000Y-116190000D01*
X141710000Y-109580000D02*
X139320000Y-109580000D01*
X141710000Y-105080000D02*
X141710000Y-109580000D01*
X143130000Y-105080000D02*
X141710000Y-105080000D01*
X143130000Y-116800000D02*
X143130000Y-105080000D01*
X139320000Y-116800000D02*
X143130000Y-116800000D01*
X136930000Y-109580000D02*
X139320000Y-109580000D01*
X136930000Y-105080000D02*
X136930000Y-109580000D01*
X135510000Y-105080000D02*
X136930000Y-105080000D01*
X135510000Y-116800000D02*
X135510000Y-105080000D01*
X139320000Y-116800000D02*
X135510000Y-116800000D01*
%TO.C,SW1*%
X161170000Y-92550000D02*
X169120000Y-92550000D01*
X169120000Y-92550000D02*
X169120000Y-85250000D01*
X169120000Y-85250000D02*
X161170000Y-85250000D01*
X161170000Y-85250000D02*
X161170000Y-85400000D01*
X161170000Y-87900000D02*
X161170000Y-87400000D01*
X161170000Y-90400000D02*
X161170000Y-89900000D01*
X161170000Y-92550000D02*
X161170000Y-92400000D01*
%TO.C,R1*%
X148050000Y-84970000D02*
X148050000Y-84640000D01*
X141510000Y-84970000D02*
X148050000Y-84970000D01*
X141510000Y-84640000D02*
X141510000Y-84970000D01*
X148050000Y-82230000D02*
X148050000Y-82560000D01*
X141510000Y-82230000D02*
X148050000Y-82230000D01*
X141510000Y-82560000D02*
X141510000Y-82230000D01*
%TO.C,R2*%
X141510000Y-87530000D02*
X141510000Y-87860000D01*
X148050000Y-87530000D02*
X141510000Y-87530000D01*
X148050000Y-87860000D02*
X148050000Y-87530000D01*
X141510000Y-90270000D02*
X141510000Y-89940000D01*
X148050000Y-90270000D02*
X141510000Y-90270000D01*
X148050000Y-89940000D02*
X148050000Y-90270000D01*
%TO.C,R3*%
X141510000Y-93880000D02*
X141510000Y-94210000D01*
X148050000Y-93880000D02*
X141510000Y-93880000D01*
X148050000Y-94210000D02*
X148050000Y-93880000D01*
X141510000Y-96620000D02*
X141510000Y-96290000D01*
X148050000Y-96620000D02*
X141510000Y-96620000D01*
X148050000Y-96290000D02*
X148050000Y-96620000D01*
%TO.C,D1*%
X167600000Y-104140000D02*
G75*
G03*
X167600000Y-104140000I-2500000J0D01*
G01*
X162540000Y-102595000D02*
X162540000Y-105685000D01*
X168090000Y-104140462D02*
G75*
G03*
X162540000Y-102595170I-2990000J462D01*
G01*
X168090000Y-104139538D02*
G75*
G02*
X162540000Y-105684830I-2990000J-462D01*
G01*
%TO.C,R4*%
X141510000Y-100560000D02*
X141510000Y-100230000D01*
X141510000Y-100230000D02*
X148050000Y-100230000D01*
X148050000Y-100230000D02*
X148050000Y-100560000D01*
X141510000Y-102640000D02*
X141510000Y-102970000D01*
X141510000Y-102970000D02*
X148050000Y-102970000D01*
X148050000Y-102970000D02*
X148050000Y-102640000D01*
%TO.C,J6*%
D10*
X148986666Y-103442380D02*
X148986666Y-104156666D01*
X148939047Y-104299523D01*
X148843809Y-104394761D01*
X148700952Y-104442380D01*
X148605714Y-104442380D01*
X149891428Y-103442380D02*
X149700952Y-103442380D01*
X149605714Y-103490000D01*
X149558095Y-103537619D01*
X149462857Y-103680476D01*
X149415238Y-103870952D01*
X149415238Y-104251904D01*
X149462857Y-104347142D01*
X149510476Y-104394761D01*
X149605714Y-104442380D01*
X149796190Y-104442380D01*
X149891428Y-104394761D01*
X149939047Y-104347142D01*
X149986666Y-104251904D01*
X149986666Y-104013809D01*
X149939047Y-103918571D01*
X149891428Y-103870952D01*
X149796190Y-103823333D01*
X149605714Y-103823333D01*
X149510476Y-103870952D01*
X149462857Y-103918571D01*
X149415238Y-104013809D01*
%TO.C,J3*%
X134286666Y-82002380D02*
X134286666Y-82716666D01*
X134239047Y-82859523D01*
X134143809Y-82954761D01*
X134000952Y-83002380D01*
X133905714Y-83002380D01*
X134667619Y-82002380D02*
X135286666Y-82002380D01*
X134953333Y-82383333D01*
X135096190Y-82383333D01*
X135191428Y-82430952D01*
X135239047Y-82478571D01*
X135286666Y-82573809D01*
X135286666Y-82811904D01*
X135239047Y-82907142D01*
X135191428Y-82954761D01*
X135096190Y-83002380D01*
X134810476Y-83002380D01*
X134715238Y-82954761D01*
X134667619Y-82907142D01*
%TO.C,J4*%
X154606666Y-82002380D02*
X154606666Y-82716666D01*
X154559047Y-82859523D01*
X154463809Y-82954761D01*
X154320952Y-83002380D01*
X154225714Y-83002380D01*
X155511428Y-82335714D02*
X155511428Y-83002380D01*
X155273333Y-81954761D02*
X155035238Y-82669047D01*
X155654285Y-82669047D01*
%TO.C,J5*%
X138986666Y-103442380D02*
X138986666Y-104156666D01*
X138939047Y-104299523D01*
X138843809Y-104394761D01*
X138700952Y-104442380D01*
X138605714Y-104442380D01*
X139939047Y-103442380D02*
X139462857Y-103442380D01*
X139415238Y-103918571D01*
X139462857Y-103870952D01*
X139558095Y-103823333D01*
X139796190Y-103823333D01*
X139891428Y-103870952D01*
X139939047Y-103918571D01*
X139986666Y-104013809D01*
X139986666Y-104251904D01*
X139939047Y-104347142D01*
X139891428Y-104394761D01*
X139796190Y-104442380D01*
X139558095Y-104442380D01*
X139462857Y-104394761D01*
X139415238Y-104347142D01*
%TO.C,SW1*%
X163436666Y-84854761D02*
X163579523Y-84902380D01*
X163817619Y-84902380D01*
X163912857Y-84854761D01*
X163960476Y-84807142D01*
X164008095Y-84711904D01*
X164008095Y-84616666D01*
X163960476Y-84521428D01*
X163912857Y-84473809D01*
X163817619Y-84426190D01*
X163627142Y-84378571D01*
X163531904Y-84330952D01*
X163484285Y-84283333D01*
X163436666Y-84188095D01*
X163436666Y-84092857D01*
X163484285Y-83997619D01*
X163531904Y-83950000D01*
X163627142Y-83902380D01*
X163865238Y-83902380D01*
X164008095Y-83950000D01*
X164341428Y-83902380D02*
X164579523Y-84902380D01*
X164770000Y-84188095D01*
X164960476Y-84902380D01*
X165198571Y-83902380D01*
X166103333Y-84902380D02*
X165531904Y-84902380D01*
X165817619Y-84902380D02*
X165817619Y-83902380D01*
X165722380Y-84045238D01*
X165627142Y-84140476D01*
X165531904Y-84188095D01*
%TO.C,R1*%
X144613333Y-81682380D02*
X144280000Y-81206190D01*
X144041904Y-81682380D02*
X144041904Y-80682380D01*
X144422857Y-80682380D01*
X144518095Y-80730000D01*
X144565714Y-80777619D01*
X144613333Y-80872857D01*
X144613333Y-81015714D01*
X144565714Y-81110952D01*
X144518095Y-81158571D01*
X144422857Y-81206190D01*
X144041904Y-81206190D01*
X145565714Y-81682380D02*
X144994285Y-81682380D01*
X145280000Y-81682380D02*
X145280000Y-80682380D01*
X145184761Y-80825238D01*
X145089523Y-80920476D01*
X144994285Y-80968095D01*
%TO.C,R2*%
X144613333Y-91722380D02*
X144280000Y-91246190D01*
X144041904Y-91722380D02*
X144041904Y-90722380D01*
X144422857Y-90722380D01*
X144518095Y-90770000D01*
X144565714Y-90817619D01*
X144613333Y-90912857D01*
X144613333Y-91055714D01*
X144565714Y-91150952D01*
X144518095Y-91198571D01*
X144422857Y-91246190D01*
X144041904Y-91246190D01*
X144994285Y-90817619D02*
X145041904Y-90770000D01*
X145137142Y-90722380D01*
X145375238Y-90722380D01*
X145470476Y-90770000D01*
X145518095Y-90817619D01*
X145565714Y-90912857D01*
X145565714Y-91008095D01*
X145518095Y-91150952D01*
X144946666Y-91722380D01*
X145565714Y-91722380D01*
%TO.C,R3*%
X144613333Y-98072380D02*
X144280000Y-97596190D01*
X144041904Y-98072380D02*
X144041904Y-97072380D01*
X144422857Y-97072380D01*
X144518095Y-97120000D01*
X144565714Y-97167619D01*
X144613333Y-97262857D01*
X144613333Y-97405714D01*
X144565714Y-97500952D01*
X144518095Y-97548571D01*
X144422857Y-97596190D01*
X144041904Y-97596190D01*
X144946666Y-97072380D02*
X145565714Y-97072380D01*
X145232380Y-97453333D01*
X145375238Y-97453333D01*
X145470476Y-97500952D01*
X145518095Y-97548571D01*
X145565714Y-97643809D01*
X145565714Y-97881904D01*
X145518095Y-97977142D01*
X145470476Y-98024761D01*
X145375238Y-98072380D01*
X145089523Y-98072380D01*
X144994285Y-98024761D01*
X144946666Y-97977142D01*
%TO.C,D1*%
X164361904Y-100632380D02*
X164361904Y-99632380D01*
X164600000Y-99632380D01*
X164742857Y-99680000D01*
X164838095Y-99775238D01*
X164885714Y-99870476D01*
X164933333Y-100060952D01*
X164933333Y-100203809D01*
X164885714Y-100394285D01*
X164838095Y-100489523D01*
X164742857Y-100584761D01*
X164600000Y-100632380D01*
X164361904Y-100632380D01*
X165885714Y-100632380D02*
X165314285Y-100632380D01*
X165600000Y-100632380D02*
X165600000Y-99632380D01*
X165504761Y-99775238D01*
X165409523Y-99870476D01*
X165314285Y-99918095D01*
%TO.C,R4*%
X144613333Y-99682380D02*
X144280000Y-99206190D01*
X144041904Y-99682380D02*
X144041904Y-98682380D01*
X144422857Y-98682380D01*
X144518095Y-98730000D01*
X144565714Y-98777619D01*
X144613333Y-98872857D01*
X144613333Y-99015714D01*
X144565714Y-99110952D01*
X144518095Y-99158571D01*
X144422857Y-99206190D01*
X144041904Y-99206190D01*
X145470476Y-99015714D02*
X145470476Y-99682380D01*
X145232380Y-98634761D02*
X144994285Y-99349047D01*
X145613333Y-99349047D01*
%TD*%
M02*
