%TF.GenerationSoftware,KiCad,Pcbnew,(5.1.9)-1*%
%TF.CreationDate,2022-07-09T16:18:14+09:00*%
%TF.ProjectId,Transmitter,5472616e-736d-4697-9474-65722e6b6963,rev?*%
%TF.SameCoordinates,Original*%
%TF.FileFunction,Legend,Top*%
%TF.FilePolarity,Positive*%
%FSLAX46Y46*%
G04 Gerber Fmt 4.6, Leading zero omitted, Abs format (unit mm)*
G04 Created by KiCad (PCBNEW (5.1.9)-1) date 2022-07-09 16:18:14*
%MOMM*%
%LPD*%
G01*
G04 APERTURE LIST*
%ADD10C,0.150000*%
%ADD11C,0.120000*%
G04 APERTURE END LIST*
D10*
X142661428Y-75827380D02*
X142328095Y-75351190D01*
X142090000Y-75827380D02*
X142090000Y-74827380D01*
X142470952Y-74827380D01*
X142566190Y-74875000D01*
X142613809Y-74922619D01*
X142661428Y-75017857D01*
X142661428Y-75160714D01*
X142613809Y-75255952D01*
X142566190Y-75303571D01*
X142470952Y-75351190D01*
X142090000Y-75351190D01*
X143090000Y-75303571D02*
X143423333Y-75303571D01*
X143566190Y-75827380D02*
X143090000Y-75827380D01*
X143090000Y-74827380D01*
X143566190Y-74827380D01*
X143947142Y-75779761D02*
X144090000Y-75827380D01*
X144328095Y-75827380D01*
X144423333Y-75779761D01*
X144470952Y-75732142D01*
X144518571Y-75636904D01*
X144518571Y-75541666D01*
X144470952Y-75446428D01*
X144423333Y-75398809D01*
X144328095Y-75351190D01*
X144137619Y-75303571D01*
X144042380Y-75255952D01*
X143994761Y-75208333D01*
X143947142Y-75113095D01*
X143947142Y-75017857D01*
X143994761Y-74922619D01*
X144042380Y-74875000D01*
X144137619Y-74827380D01*
X144375714Y-74827380D01*
X144518571Y-74875000D01*
X144899523Y-75779761D02*
X145042380Y-75827380D01*
X145280476Y-75827380D01*
X145375714Y-75779761D01*
X145423333Y-75732142D01*
X145470952Y-75636904D01*
X145470952Y-75541666D01*
X145423333Y-75446428D01*
X145375714Y-75398809D01*
X145280476Y-75351190D01*
X145090000Y-75303571D01*
X144994761Y-75255952D01*
X144947142Y-75208333D01*
X144899523Y-75113095D01*
X144899523Y-75017857D01*
X144947142Y-74922619D01*
X144994761Y-74875000D01*
X145090000Y-74827380D01*
X145328095Y-74827380D01*
X145470952Y-74875000D01*
X145899523Y-75446428D02*
X146661428Y-75446428D01*
X146994761Y-74827380D02*
X147566190Y-74827380D01*
X147280476Y-75827380D02*
X147280476Y-74827380D01*
X147899523Y-75827380D02*
X147899523Y-75160714D01*
X147899523Y-75351190D02*
X147947142Y-75255952D01*
X147994761Y-75208333D01*
X148090000Y-75160714D01*
X148185238Y-75160714D01*
X148947142Y-75827380D02*
X148947142Y-75303571D01*
X148899523Y-75208333D01*
X148804285Y-75160714D01*
X148613809Y-75160714D01*
X148518571Y-75208333D01*
X148947142Y-75779761D02*
X148851904Y-75827380D01*
X148613809Y-75827380D01*
X148518571Y-75779761D01*
X148470952Y-75684523D01*
X148470952Y-75589285D01*
X148518571Y-75494047D01*
X148613809Y-75446428D01*
X148851904Y-75446428D01*
X148947142Y-75398809D01*
X149423333Y-75160714D02*
X149423333Y-75827380D01*
X149423333Y-75255952D02*
X149470952Y-75208333D01*
X149566190Y-75160714D01*
X149709047Y-75160714D01*
X149804285Y-75208333D01*
X149851904Y-75303571D01*
X149851904Y-75827380D01*
X150280476Y-75779761D02*
X150375714Y-75827380D01*
X150566190Y-75827380D01*
X150661428Y-75779761D01*
X150709047Y-75684523D01*
X150709047Y-75636904D01*
X150661428Y-75541666D01*
X150566190Y-75494047D01*
X150423333Y-75494047D01*
X150328095Y-75446428D01*
X150280476Y-75351190D01*
X150280476Y-75303571D01*
X150328095Y-75208333D01*
X150423333Y-75160714D01*
X150566190Y-75160714D01*
X150661428Y-75208333D01*
X151137619Y-75827380D02*
X151137619Y-75160714D01*
X151137619Y-75255952D02*
X151185238Y-75208333D01*
X151280476Y-75160714D01*
X151423333Y-75160714D01*
X151518571Y-75208333D01*
X151566190Y-75303571D01*
X151566190Y-75827380D01*
X151566190Y-75303571D02*
X151613809Y-75208333D01*
X151709047Y-75160714D01*
X151851904Y-75160714D01*
X151947142Y-75208333D01*
X151994761Y-75303571D01*
X151994761Y-75827380D01*
X152470952Y-75827380D02*
X152470952Y-75160714D01*
X152470952Y-74827380D02*
X152423333Y-74875000D01*
X152470952Y-74922619D01*
X152518571Y-74875000D01*
X152470952Y-74827380D01*
X152470952Y-74922619D01*
X152804285Y-75160714D02*
X153185238Y-75160714D01*
X152947142Y-74827380D02*
X152947142Y-75684523D01*
X152994761Y-75779761D01*
X153090000Y-75827380D01*
X153185238Y-75827380D01*
X153375714Y-75160714D02*
X153756666Y-75160714D01*
X153518571Y-74827380D02*
X153518571Y-75684523D01*
X153566190Y-75779761D01*
X153661428Y-75827380D01*
X153756666Y-75827380D01*
X154470952Y-75779761D02*
X154375714Y-75827380D01*
X154185238Y-75827380D01*
X154090000Y-75779761D01*
X154042380Y-75684523D01*
X154042380Y-75303571D01*
X154090000Y-75208333D01*
X154185238Y-75160714D01*
X154375714Y-75160714D01*
X154470952Y-75208333D01*
X154518571Y-75303571D01*
X154518571Y-75398809D01*
X154042380Y-75494047D01*
X154947142Y-75827380D02*
X154947142Y-75160714D01*
X154947142Y-75351190D02*
X154994761Y-75255952D01*
X155042380Y-75208333D01*
X155137619Y-75160714D01*
X155232857Y-75160714D01*
X141637619Y-76572619D02*
X141685238Y-76525000D01*
X141780476Y-76477380D01*
X142018571Y-76477380D01*
X142113809Y-76525000D01*
X142161428Y-76572619D01*
X142209047Y-76667857D01*
X142209047Y-76763095D01*
X142161428Y-76905952D01*
X141590000Y-77477380D01*
X142209047Y-77477380D01*
X142828095Y-76477380D02*
X142923333Y-76477380D01*
X143018571Y-76525000D01*
X143066190Y-76572619D01*
X143113809Y-76667857D01*
X143161428Y-76858333D01*
X143161428Y-77096428D01*
X143113809Y-77286904D01*
X143066190Y-77382142D01*
X143018571Y-77429761D01*
X142923333Y-77477380D01*
X142828095Y-77477380D01*
X142732857Y-77429761D01*
X142685238Y-77382142D01*
X142637619Y-77286904D01*
X142590000Y-77096428D01*
X142590000Y-76858333D01*
X142637619Y-76667857D01*
X142685238Y-76572619D01*
X142732857Y-76525000D01*
X142828095Y-76477380D01*
X143542380Y-76572619D02*
X143590000Y-76525000D01*
X143685238Y-76477380D01*
X143923333Y-76477380D01*
X144018571Y-76525000D01*
X144066190Y-76572619D01*
X144113809Y-76667857D01*
X144113809Y-76763095D01*
X144066190Y-76905952D01*
X143494761Y-77477380D01*
X144113809Y-77477380D01*
X144494761Y-76572619D02*
X144542380Y-76525000D01*
X144637619Y-76477380D01*
X144875714Y-76477380D01*
X144970952Y-76525000D01*
X145018571Y-76572619D01*
X145066190Y-76667857D01*
X145066190Y-76763095D01*
X145018571Y-76905952D01*
X144447142Y-77477380D01*
X145066190Y-77477380D01*
X146256666Y-77477380D02*
X146256666Y-76477380D01*
X147161428Y-77429761D02*
X147066190Y-77477380D01*
X146875714Y-77477380D01*
X146780476Y-77429761D01*
X146732857Y-77382142D01*
X146685238Y-77286904D01*
X146685238Y-77001190D01*
X146732857Y-76905952D01*
X146780476Y-76858333D01*
X146875714Y-76810714D01*
X147066190Y-76810714D01*
X147161428Y-76858333D01*
X147590000Y-77477380D02*
X147590000Y-76477380D01*
X148018571Y-77477380D02*
X148018571Y-76953571D01*
X147970952Y-76858333D01*
X147875714Y-76810714D01*
X147732857Y-76810714D01*
X147637619Y-76858333D01*
X147590000Y-76905952D01*
X148494761Y-77477380D02*
X148494761Y-76810714D01*
X148494761Y-76477380D02*
X148447142Y-76525000D01*
X148494761Y-76572619D01*
X148542380Y-76525000D01*
X148494761Y-76477380D01*
X148494761Y-76572619D01*
X148970952Y-76810714D02*
X148970952Y-77477380D01*
X148970952Y-76905952D02*
X149018571Y-76858333D01*
X149113809Y-76810714D01*
X149256666Y-76810714D01*
X149351904Y-76858333D01*
X149399523Y-76953571D01*
X149399523Y-77477380D01*
X150018571Y-77477380D02*
X149923333Y-77429761D01*
X149875714Y-77382142D01*
X149828095Y-77286904D01*
X149828095Y-77001190D01*
X149875714Y-76905952D01*
X149923333Y-76858333D01*
X150018571Y-76810714D01*
X150161428Y-76810714D01*
X150256666Y-76858333D01*
X150304285Y-76905952D01*
X150351904Y-77001190D01*
X150351904Y-77286904D01*
X150304285Y-77382142D01*
X150256666Y-77429761D01*
X150161428Y-77477380D01*
X150018571Y-77477380D01*
X150732857Y-77429761D02*
X150828095Y-77477380D01*
X151018571Y-77477380D01*
X151113809Y-77429761D01*
X151161428Y-77334523D01*
X151161428Y-77286904D01*
X151113809Y-77191666D01*
X151018571Y-77144047D01*
X150875714Y-77144047D01*
X150780476Y-77096428D01*
X150732857Y-77001190D01*
X150732857Y-76953571D01*
X150780476Y-76858333D01*
X150875714Y-76810714D01*
X151018571Y-76810714D01*
X151113809Y-76858333D01*
X151970952Y-77429761D02*
X151875714Y-77477380D01*
X151685238Y-77477380D01*
X151590000Y-77429761D01*
X151542380Y-77334523D01*
X151542380Y-76953571D01*
X151590000Y-76858333D01*
X151685238Y-76810714D01*
X151875714Y-76810714D01*
X151970952Y-76858333D01*
X152018571Y-76953571D01*
X152018571Y-77048809D01*
X151542380Y-77144047D01*
X152447142Y-77477380D02*
X152447142Y-76477380D01*
X152542380Y-77096428D02*
X152828095Y-77477380D01*
X152828095Y-76810714D02*
X152447142Y-77191666D01*
X153256666Y-77477380D02*
X153256666Y-76810714D01*
X153256666Y-76477380D02*
X153209047Y-76525000D01*
X153256666Y-76572619D01*
X153304285Y-76525000D01*
X153256666Y-76477380D01*
X153256666Y-76572619D01*
X153732857Y-77096428D02*
X154494761Y-77096428D01*
X155304285Y-76953571D02*
X155447142Y-77001190D01*
X155494761Y-77048809D01*
X155542380Y-77144047D01*
X155542380Y-77286904D01*
X155494761Y-77382142D01*
X155447142Y-77429761D01*
X155351904Y-77477380D01*
X154970952Y-77477380D01*
X154970952Y-76477380D01*
X155304285Y-76477380D01*
X155399523Y-76525000D01*
X155447142Y-76572619D01*
X155494761Y-76667857D01*
X155494761Y-76763095D01*
X155447142Y-76858333D01*
X155399523Y-76905952D01*
X155304285Y-76953571D01*
X154970952Y-76953571D01*
D11*
%TO.C,J6*%
X147620000Y-105390000D02*
X147320000Y-105990000D01*
X147020000Y-105390000D02*
X147620000Y-105390000D01*
X147320000Y-105990000D02*
X147020000Y-105390000D01*
X150070000Y-110690000D02*
X149570000Y-110690000D01*
X150070000Y-116190000D02*
X150070000Y-110690000D01*
X149570000Y-116190000D02*
X150070000Y-116190000D01*
X149570000Y-110690000D02*
X149570000Y-116190000D01*
X147570000Y-110690000D02*
X147070000Y-110690000D01*
X147570000Y-116190000D02*
X147570000Y-110690000D01*
X147070000Y-116190000D02*
X147570000Y-116190000D01*
X147070000Y-110690000D02*
X147070000Y-116190000D01*
X150960000Y-109580000D02*
X148570000Y-109580000D01*
X150960000Y-105080000D02*
X150960000Y-109580000D01*
X152380000Y-105080000D02*
X150960000Y-105080000D01*
X152380000Y-116800000D02*
X152380000Y-105080000D01*
X148570000Y-116800000D02*
X152380000Y-116800000D01*
X146180000Y-109580000D02*
X148570000Y-109580000D01*
X146180000Y-105080000D02*
X146180000Y-109580000D01*
X144760000Y-105080000D02*
X146180000Y-105080000D01*
X144760000Y-116800000D02*
X144760000Y-105080000D01*
X148570000Y-116800000D02*
X144760000Y-116800000D01*
%TO.C,J3*%
X130750000Y-83820000D02*
X133410000Y-83820000D01*
X130750000Y-83820000D02*
X130750000Y-106740000D01*
X130750000Y-106740000D02*
X133410000Y-106740000D01*
X133410000Y-83820000D02*
X133410000Y-106740000D01*
X133410000Y-81220000D02*
X133410000Y-82550000D01*
X132080000Y-81220000D02*
X133410000Y-81220000D01*
%TO.C,J4*%
X157480000Y-81220000D02*
X158810000Y-81220000D01*
X158810000Y-81220000D02*
X158810000Y-82550000D01*
X158810000Y-83820000D02*
X158810000Y-106740000D01*
X156150000Y-106740000D02*
X158810000Y-106740000D01*
X156150000Y-83820000D02*
X156150000Y-106740000D01*
X156150000Y-83820000D02*
X158810000Y-83820000D01*
%TO.C,J5*%
X139320000Y-116800000D02*
X135510000Y-116800000D01*
X135510000Y-116800000D02*
X135510000Y-105080000D01*
X135510000Y-105080000D02*
X136930000Y-105080000D01*
X136930000Y-105080000D02*
X136930000Y-109580000D01*
X136930000Y-109580000D02*
X139320000Y-109580000D01*
X139320000Y-116800000D02*
X143130000Y-116800000D01*
X143130000Y-116800000D02*
X143130000Y-105080000D01*
X143130000Y-105080000D02*
X141710000Y-105080000D01*
X141710000Y-105080000D02*
X141710000Y-109580000D01*
X141710000Y-109580000D02*
X139320000Y-109580000D01*
X137820000Y-110690000D02*
X137820000Y-116190000D01*
X137820000Y-116190000D02*
X138320000Y-116190000D01*
X138320000Y-116190000D02*
X138320000Y-110690000D01*
X138320000Y-110690000D02*
X137820000Y-110690000D01*
X140320000Y-110690000D02*
X140320000Y-116190000D01*
X140320000Y-116190000D02*
X140820000Y-116190000D01*
X140820000Y-116190000D02*
X140820000Y-110690000D01*
X140820000Y-110690000D02*
X140320000Y-110690000D01*
X138070000Y-105990000D02*
X137770000Y-105390000D01*
X137770000Y-105390000D02*
X138370000Y-105390000D01*
X138370000Y-105390000D02*
X138070000Y-105990000D01*
%TO.C,SW1*%
X161170000Y-88740000D02*
X161170000Y-88590000D01*
X161170000Y-86590000D02*
X161170000Y-86090000D01*
X161170000Y-84090000D02*
X161170000Y-83590000D01*
X161170000Y-81440000D02*
X161170000Y-81590000D01*
X169120000Y-81440000D02*
X161170000Y-81440000D01*
X169120000Y-88740000D02*
X169120000Y-81440000D01*
X161170000Y-88740000D02*
X169120000Y-88740000D01*
%TO.C,R1*%
X150725000Y-90265000D02*
X150395000Y-90265000D01*
X150395000Y-90265000D02*
X150395000Y-83725000D01*
X150395000Y-83725000D02*
X150725000Y-83725000D01*
X152805000Y-90265000D02*
X153135000Y-90265000D01*
X153135000Y-90265000D02*
X153135000Y-83725000D01*
X153135000Y-83725000D02*
X152805000Y-83725000D01*
%TO.C,R2*%
X150725000Y-101695000D02*
X150395000Y-101695000D01*
X150395000Y-101695000D02*
X150395000Y-95155000D01*
X150395000Y-95155000D02*
X150725000Y-95155000D01*
X152805000Y-101695000D02*
X153135000Y-101695000D01*
X153135000Y-101695000D02*
X153135000Y-95155000D01*
X153135000Y-95155000D02*
X152805000Y-95155000D01*
%TO.C,R3*%
X167410000Y-91980000D02*
X167740000Y-91980000D01*
X167740000Y-91980000D02*
X167740000Y-98520000D01*
X167740000Y-98520000D02*
X167410000Y-98520000D01*
X165330000Y-91980000D02*
X165000000Y-91980000D01*
X165000000Y-91980000D02*
X165000000Y-98520000D01*
X165000000Y-98520000D02*
X165330000Y-98520000D01*
%TO.C,D1*%
X162540000Y-102595000D02*
X162540000Y-105685000D01*
X167600000Y-104140000D02*
G75*
G03*
X167600000Y-104140000I-2500000J0D01*
G01*
X168090000Y-104140462D02*
G75*
G03*
X162540000Y-102595170I-2990000J462D01*
G01*
X168090000Y-104139538D02*
G75*
G02*
X162540000Y-105684830I-2990000J-462D01*
G01*
%TO.C,R4*%
X159920000Y-98520000D02*
X160250000Y-98520000D01*
X159920000Y-91980000D02*
X159920000Y-98520000D01*
X160250000Y-91980000D02*
X159920000Y-91980000D01*
X162660000Y-98520000D02*
X162330000Y-98520000D01*
X162660000Y-91980000D02*
X162660000Y-98520000D01*
X162330000Y-91980000D02*
X162660000Y-91980000D01*
%TO.C,U1*%
X138390000Y-98695000D02*
X148630000Y-98695000D01*
X138390000Y-82805000D02*
X148630000Y-82805000D01*
X138390000Y-82805000D02*
X138390000Y-98695000D01*
X148630000Y-82805000D02*
X148630000Y-98695000D01*
X140970000Y-98695000D02*
X140970000Y-101235000D01*
X143510000Y-98695000D02*
X143510000Y-101235000D01*
X146050000Y-98695000D02*
X146050000Y-101235000D01*
%TO.C,J6*%
D10*
X148236666Y-103442380D02*
X148236666Y-104156666D01*
X148189047Y-104299523D01*
X148093809Y-104394761D01*
X147950952Y-104442380D01*
X147855714Y-104442380D01*
X149141428Y-103442380D02*
X148950952Y-103442380D01*
X148855714Y-103490000D01*
X148808095Y-103537619D01*
X148712857Y-103680476D01*
X148665238Y-103870952D01*
X148665238Y-104251904D01*
X148712857Y-104347142D01*
X148760476Y-104394761D01*
X148855714Y-104442380D01*
X149046190Y-104442380D01*
X149141428Y-104394761D01*
X149189047Y-104347142D01*
X149236666Y-104251904D01*
X149236666Y-104013809D01*
X149189047Y-103918571D01*
X149141428Y-103870952D01*
X149046190Y-103823333D01*
X148855714Y-103823333D01*
X148760476Y-103870952D01*
X148712857Y-103918571D01*
X148665238Y-104013809D01*
%TO.C,J3*%
X134286666Y-82002380D02*
X134286666Y-82716666D01*
X134239047Y-82859523D01*
X134143809Y-82954761D01*
X134000952Y-83002380D01*
X133905714Y-83002380D01*
X134667619Y-82002380D02*
X135286666Y-82002380D01*
X134953333Y-82383333D01*
X135096190Y-82383333D01*
X135191428Y-82430952D01*
X135239047Y-82478571D01*
X135286666Y-82573809D01*
X135286666Y-82811904D01*
X135239047Y-82907142D01*
X135191428Y-82954761D01*
X135096190Y-83002380D01*
X134810476Y-83002380D01*
X134715238Y-82954761D01*
X134667619Y-82907142D01*
%TO.C,J4*%
X154606666Y-82002380D02*
X154606666Y-82716666D01*
X154559047Y-82859523D01*
X154463809Y-82954761D01*
X154320952Y-83002380D01*
X154225714Y-83002380D01*
X155511428Y-82335714D02*
X155511428Y-83002380D01*
X155273333Y-81954761D02*
X155035238Y-82669047D01*
X155654285Y-82669047D01*
%TO.C,J5*%
X138986666Y-103442380D02*
X138986666Y-104156666D01*
X138939047Y-104299523D01*
X138843809Y-104394761D01*
X138700952Y-104442380D01*
X138605714Y-104442380D01*
X139939047Y-103442380D02*
X139462857Y-103442380D01*
X139415238Y-103918571D01*
X139462857Y-103870952D01*
X139558095Y-103823333D01*
X139796190Y-103823333D01*
X139891428Y-103870952D01*
X139939047Y-103918571D01*
X139986666Y-104013809D01*
X139986666Y-104251904D01*
X139939047Y-104347142D01*
X139891428Y-104394761D01*
X139796190Y-104442380D01*
X139558095Y-104442380D01*
X139462857Y-104394761D01*
X139415238Y-104347142D01*
%TO.C,SW1*%
X163436666Y-81044761D02*
X163579523Y-81092380D01*
X163817619Y-81092380D01*
X163912857Y-81044761D01*
X163960476Y-80997142D01*
X164008095Y-80901904D01*
X164008095Y-80806666D01*
X163960476Y-80711428D01*
X163912857Y-80663809D01*
X163817619Y-80616190D01*
X163627142Y-80568571D01*
X163531904Y-80520952D01*
X163484285Y-80473333D01*
X163436666Y-80378095D01*
X163436666Y-80282857D01*
X163484285Y-80187619D01*
X163531904Y-80140000D01*
X163627142Y-80092380D01*
X163865238Y-80092380D01*
X164008095Y-80140000D01*
X164341428Y-80092380D02*
X164579523Y-81092380D01*
X164770000Y-80378095D01*
X164960476Y-81092380D01*
X165198571Y-80092380D01*
X166103333Y-81092380D02*
X165531904Y-81092380D01*
X165817619Y-81092380D02*
X165817619Y-80092380D01*
X165722380Y-80235238D01*
X165627142Y-80330476D01*
X165531904Y-80378095D01*
%TO.C,R1*%
X149847380Y-87161666D02*
X149371190Y-87495000D01*
X149847380Y-87733095D02*
X148847380Y-87733095D01*
X148847380Y-87352142D01*
X148895000Y-87256904D01*
X148942619Y-87209285D01*
X149037857Y-87161666D01*
X149180714Y-87161666D01*
X149275952Y-87209285D01*
X149323571Y-87256904D01*
X149371190Y-87352142D01*
X149371190Y-87733095D01*
X149847380Y-86209285D02*
X149847380Y-86780714D01*
X149847380Y-86495000D02*
X148847380Y-86495000D01*
X148990238Y-86590238D01*
X149085476Y-86685476D01*
X149133095Y-86780714D01*
%TO.C,R2*%
X149847380Y-98591666D02*
X149371190Y-98925000D01*
X149847380Y-99163095D02*
X148847380Y-99163095D01*
X148847380Y-98782142D01*
X148895000Y-98686904D01*
X148942619Y-98639285D01*
X149037857Y-98591666D01*
X149180714Y-98591666D01*
X149275952Y-98639285D01*
X149323571Y-98686904D01*
X149371190Y-98782142D01*
X149371190Y-99163095D01*
X148942619Y-98210714D02*
X148895000Y-98163095D01*
X148847380Y-98067857D01*
X148847380Y-97829761D01*
X148895000Y-97734523D01*
X148942619Y-97686904D01*
X149037857Y-97639285D01*
X149133095Y-97639285D01*
X149275952Y-97686904D01*
X149847380Y-98258333D01*
X149847380Y-97639285D01*
%TO.C,R3*%
X169192380Y-95416666D02*
X168716190Y-95750000D01*
X169192380Y-95988095D02*
X168192380Y-95988095D01*
X168192380Y-95607142D01*
X168240000Y-95511904D01*
X168287619Y-95464285D01*
X168382857Y-95416666D01*
X168525714Y-95416666D01*
X168620952Y-95464285D01*
X168668571Y-95511904D01*
X168716190Y-95607142D01*
X168716190Y-95988095D01*
X168192380Y-95083333D02*
X168192380Y-94464285D01*
X168573333Y-94797619D01*
X168573333Y-94654761D01*
X168620952Y-94559523D01*
X168668571Y-94511904D01*
X168763809Y-94464285D01*
X169001904Y-94464285D01*
X169097142Y-94511904D01*
X169144761Y-94559523D01*
X169192380Y-94654761D01*
X169192380Y-94940476D01*
X169144761Y-95035714D01*
X169097142Y-95083333D01*
%TO.C,D1*%
X164361904Y-100632380D02*
X164361904Y-99632380D01*
X164600000Y-99632380D01*
X164742857Y-99680000D01*
X164838095Y-99775238D01*
X164885714Y-99870476D01*
X164933333Y-100060952D01*
X164933333Y-100203809D01*
X164885714Y-100394285D01*
X164838095Y-100489523D01*
X164742857Y-100584761D01*
X164600000Y-100632380D01*
X164361904Y-100632380D01*
X165885714Y-100632380D02*
X165314285Y-100632380D01*
X165600000Y-100632380D02*
X165600000Y-99632380D01*
X165504761Y-99775238D01*
X165409523Y-99870476D01*
X165314285Y-99918095D01*
%TO.C,R4*%
X164112380Y-95416666D02*
X163636190Y-95750000D01*
X164112380Y-95988095D02*
X163112380Y-95988095D01*
X163112380Y-95607142D01*
X163160000Y-95511904D01*
X163207619Y-95464285D01*
X163302857Y-95416666D01*
X163445714Y-95416666D01*
X163540952Y-95464285D01*
X163588571Y-95511904D01*
X163636190Y-95607142D01*
X163636190Y-95988095D01*
X163445714Y-94559523D02*
X164112380Y-94559523D01*
X163064761Y-94797619D02*
X163779047Y-95035714D01*
X163779047Y-94416666D01*
%TO.C,U1*%
X142748095Y-81257380D02*
X142748095Y-82066904D01*
X142795714Y-82162142D01*
X142843333Y-82209761D01*
X142938571Y-82257380D01*
X143129047Y-82257380D01*
X143224285Y-82209761D01*
X143271904Y-82162142D01*
X143319523Y-82066904D01*
X143319523Y-81257380D01*
X144319523Y-82257380D02*
X143748095Y-82257380D01*
X144033809Y-82257380D02*
X144033809Y-81257380D01*
X143938571Y-81400238D01*
X143843333Y-81495476D01*
X143748095Y-81543095D01*
%TD*%
M02*
