%TF.GenerationSoftware,KiCad,Pcbnew,(5.1.9)-1*%
%TF.CreationDate,2022-07-09T00:28:58+09:00*%
%TF.ProjectId,Transmitter,5472616e-736d-4697-9474-65722e6b6963,rev?*%
%TF.SameCoordinates,Original*%
%TF.FileFunction,Soldermask,Top*%
%TF.FilePolarity,Negative*%
%FSLAX46Y46*%
G04 Gerber Fmt 4.6, Leading zero omitted, Abs format (unit mm)*
G04 Created by KiCad (PCBNEW (5.1.9)-1) date 2022-07-09 00:28:58*
%MOMM*%
%LPD*%
G01*
G04 APERTURE LIST*
%ADD10O,1.700000X2.000000*%
%ADD11R,1.700000X1.700000*%
%ADD12O,1.700000X1.700000*%
%ADD13C,1.600000*%
%ADD14O,1.600000X1.600000*%
%ADD15R,1.800000X1.800000*%
%ADD16C,1.800000*%
%ADD17C,6.400000*%
%ADD18C,0.800000*%
G04 APERTURE END LIST*
%TO.C,J6*%
G36*
G01*
X147220000Y-108240000D02*
X147220000Y-106740000D01*
G75*
G02*
X147470000Y-106490000I250000J0D01*
G01*
X148670000Y-106490000D01*
G75*
G02*
X148920000Y-106740000I0J-250000D01*
G01*
X148920000Y-108240000D01*
G75*
G02*
X148670000Y-108490000I-250000J0D01*
G01*
X147470000Y-108490000D01*
G75*
G02*
X147220000Y-108240000I0J250000D01*
G01*
G37*
D10*
X150570000Y-107490000D03*
%TD*%
D11*
%TO.C,J3*%
X132080000Y-82550000D03*
D12*
X132080000Y-85090000D03*
X132080000Y-87630000D03*
X132080000Y-90170000D03*
X132080000Y-92710000D03*
X132080000Y-95250000D03*
X132080000Y-97790000D03*
X132080000Y-100330000D03*
X132080000Y-102870000D03*
X132080000Y-105410000D03*
%TD*%
%TO.C,J4*%
X157480000Y-105410000D03*
X157480000Y-102870000D03*
X157480000Y-100330000D03*
X157480000Y-97790000D03*
X157480000Y-95250000D03*
X157480000Y-92710000D03*
X157480000Y-90170000D03*
X157480000Y-87630000D03*
X157480000Y-85090000D03*
D11*
X157480000Y-82550000D03*
%TD*%
%TO.C,J5*%
G36*
G01*
X137220000Y-108240000D02*
X137220000Y-106740000D01*
G75*
G02*
X137470000Y-106490000I250000J0D01*
G01*
X138670000Y-106490000D01*
G75*
G02*
X138920000Y-106740000I0J-250000D01*
G01*
X138920000Y-108240000D01*
G75*
G02*
X138670000Y-108490000I-250000J0D01*
G01*
X137470000Y-108490000D01*
G75*
G02*
X137220000Y-108240000I0J250000D01*
G01*
G37*
D10*
X140570000Y-107490000D03*
%TD*%
D13*
%TO.C,SW1*%
X166370000Y-91440000D03*
X166370000Y-86360000D03*
G36*
G01*
X162090000Y-85960000D02*
X162090000Y-86760000D01*
G75*
G02*
X161690000Y-87160000I-400000J0D01*
G01*
X160890000Y-87160000D01*
G75*
G02*
X160490000Y-86760000I0J400000D01*
G01*
X160490000Y-85960000D01*
G75*
G02*
X160890000Y-85560000I400000J0D01*
G01*
X161690000Y-85560000D01*
G75*
G02*
X162090000Y-85960000I0J-400000D01*
G01*
G37*
X161290000Y-88900000D03*
X161290000Y-91440000D03*
%TD*%
%TO.C,R1*%
X140970000Y-83600000D03*
D14*
X148590000Y-83600000D03*
%TD*%
D13*
%TO.C,R2*%
X148590000Y-88900000D03*
D14*
X140970000Y-88900000D03*
%TD*%
D13*
%TO.C,R3*%
X148590000Y-95250000D03*
D14*
X140970000Y-95250000D03*
%TD*%
D15*
%TO.C,D1*%
X163830000Y-104140000D03*
D16*
X166370000Y-104140000D03*
%TD*%
D17*
%TO.C,H1*%
X131000000Y-76000000D03*
D18*
X133400000Y-76000000D03*
X132697056Y-77697056D03*
X131000000Y-78400000D03*
X129302944Y-77697056D03*
X128600000Y-76000000D03*
X129302944Y-74302944D03*
X131000000Y-73600000D03*
X132697056Y-74302944D03*
%TD*%
%TO.C,H2*%
X132697056Y-111302944D03*
X131000000Y-110600000D03*
X129302944Y-111302944D03*
X128600000Y-113000000D03*
X129302944Y-114697056D03*
X131000000Y-115400000D03*
X132697056Y-114697056D03*
X133400000Y-113000000D03*
D17*
X131000000Y-113000000D03*
%TD*%
%TO.C,H3*%
X165000000Y-113000000D03*
D18*
X167400000Y-113000000D03*
X166697056Y-114697056D03*
X165000000Y-115400000D03*
X163302944Y-114697056D03*
X162600000Y-113000000D03*
X163302944Y-111302944D03*
X165000000Y-110600000D03*
X166697056Y-111302944D03*
%TD*%
%TO.C,H4*%
X166697056Y-74302944D03*
X165000000Y-73600000D03*
X163302944Y-74302944D03*
X162600000Y-76000000D03*
X163302944Y-77697056D03*
X165000000Y-78400000D03*
X166697056Y-77697056D03*
X167400000Y-76000000D03*
D17*
X165000000Y-76000000D03*
%TD*%
D13*
%TO.C,R4*%
X140970000Y-101600000D03*
D14*
X148590000Y-101600000D03*
%TD*%
M02*
