M48
; DRILL file {KiCad (5.1.9)-1} date 07/09/22 00:29:00
; FORMAT={-:-/ absolute / metric / decimal}
; #@! TF.CreationDate,2022-07-09T00:29:00+09:00
; #@! TF.GenerationSoftware,Kicad,Pcbnew,(5.1.9)-1
FMAT,2
METRIC
T1C0.500
T2C0.800
T3C0.890
T4C0.900
T5C1.000
T6C3.200
%
G90
G05
T1
X128.6Y-76.0
X128.6Y-113.0
X129.303Y-74.303
X129.303Y-77.697
X129.303Y-111.303
X129.303Y-114.697
X131.0Y-73.6
X131.0Y-78.4
X131.0Y-110.6
X131.0Y-115.4
X132.697Y-74.303
X132.697Y-77.697
X132.697Y-111.303
X132.697Y-114.697
X133.4Y-76.0
X133.4Y-113.0
X162.6Y-76.0
X162.6Y-113.0
X163.303Y-74.303
X163.303Y-77.697
X163.303Y-111.303
X163.303Y-114.697
X165.0Y-73.6
X165.0Y-78.4
X165.0Y-110.6
X165.0Y-115.4
X166.697Y-74.303
X166.697Y-77.697
X166.697Y-111.303
X166.697Y-114.697
X167.4Y-76.0
X167.4Y-113.0
T2
X140.97Y-83.6
X140.97Y-88.9
X140.97Y-95.25
X140.97Y-101.6
X148.59Y-83.6
X148.59Y-88.9
X148.59Y-95.25
X148.59Y-101.6
T3
X161.29Y-86.36
X161.29Y-88.9
X161.29Y-91.44
X166.37Y-86.36
X166.37Y-91.44
T4
X163.83Y-104.14
X166.37Y-104.14
T5
X132.08Y-82.55
X132.08Y-85.09
X132.08Y-87.63
X132.08Y-90.17
X132.08Y-92.71
X132.08Y-95.25
X132.08Y-97.79
X132.08Y-100.33
X132.08Y-102.87
X132.08Y-105.41
X138.07Y-107.49
X140.57Y-107.49
X148.07Y-107.49
X150.57Y-107.49
X157.48Y-82.55
X157.48Y-85.09
X157.48Y-87.63
X157.48Y-90.17
X157.48Y-92.71
X157.48Y-95.25
X157.48Y-97.79
X157.48Y-100.33
X157.48Y-102.87
X157.48Y-105.41
T6
X131.0Y-76.0
X131.0Y-113.0
X165.0Y-76.0
X165.0Y-113.0
T0
M30
