%TF.GenerationSoftware,KiCad,Pcbnew,(5.1.9)-1*%
%TF.CreationDate,2022-06-16T11:17:04+09:00*%
%TF.ProjectId,Receiver,52656365-6976-4657-922e-6b696361645f,rev?*%
%TF.SameCoordinates,Original*%
%TF.FileFunction,Copper,L1,Top*%
%TF.FilePolarity,Positive*%
%FSLAX46Y46*%
G04 Gerber Fmt 4.6, Leading zero omitted, Abs format (unit mm)*
G04 Created by KiCad (PCBNEW (5.1.9)-1) date 2022-06-16 11:17:04*
%MOMM*%
%LPD*%
G01*
G04 APERTURE LIST*
%TA.AperFunction,ComponentPad*%
%ADD10C,0.800000*%
%TD*%
%TA.AperFunction,ComponentPad*%
%ADD11C,6.400000*%
%TD*%
%TA.AperFunction,ComponentPad*%
%ADD12R,1.700000X1.700000*%
%TD*%
%TA.AperFunction,ComponentPad*%
%ADD13O,1.700000X1.700000*%
%TD*%
%TA.AperFunction,ComponentPad*%
%ADD14O,1.700000X2.000000*%
%TD*%
%TA.AperFunction,ComponentPad*%
%ADD15O,2.000000X1.700000*%
%TD*%
%TA.AperFunction,ComponentPad*%
%ADD16R,1.600000X1.600000*%
%TD*%
%TA.AperFunction,ComponentPad*%
%ADD17O,1.600000X1.600000*%
%TD*%
%TA.AperFunction,ComponentPad*%
%ADD18R,1.800000X1.800000*%
%TD*%
%TA.AperFunction,ComponentPad*%
%ADD19C,1.800000*%
%TD*%
%TA.AperFunction,SMDPad,CuDef*%
%ADD20O,2.748280X1.998980*%
%TD*%
%TA.AperFunction,SMDPad,CuDef*%
%ADD21O,1.016000X2.032000*%
%TD*%
%TA.AperFunction,SMDPad,CuDef*%
%ADD22C,1.143000*%
%TD*%
%TA.AperFunction,ViaPad*%
%ADD23C,0.800000*%
%TD*%
%TA.AperFunction,Conductor*%
%ADD24C,0.250000*%
%TD*%
G04 APERTURE END LIST*
D10*
%TO.P,REF\u002A\u002A,1*%
%TO.N,N/C*%
X150697056Y-146302944D03*
X149000000Y-145600000D03*
X147302944Y-146302944D03*
X146600000Y-148000000D03*
X147302944Y-149697056D03*
X149000000Y-150400000D03*
X150697056Y-149697056D03*
X151400000Y-148000000D03*
D11*
X149000000Y-148000000D03*
%TD*%
D10*
%TO.P,REF\u002A\u002A,1*%
%TO.N,N/C*%
X150697056Y-107302944D03*
X149000000Y-106600000D03*
X147302944Y-107302944D03*
X146600000Y-109000000D03*
X147302944Y-110697056D03*
X149000000Y-111400000D03*
X150697056Y-110697056D03*
X151400000Y-109000000D03*
D11*
X149000000Y-109000000D03*
%TD*%
D10*
%TO.P,REF\u002A\u002A,1*%
%TO.N,N/C*%
X86697056Y-107302944D03*
X85000000Y-106600000D03*
X83302944Y-107302944D03*
X82600000Y-109000000D03*
X83302944Y-110697056D03*
X85000000Y-111400000D03*
X86697056Y-110697056D03*
X87400000Y-109000000D03*
D11*
X85000000Y-109000000D03*
%TD*%
D10*
%TO.P,REF\u002A\u002A,1*%
%TO.N,N/C*%
X86697056Y-146302944D03*
X85000000Y-145600000D03*
X83302944Y-146302944D03*
X82600000Y-148000000D03*
X83302944Y-149697056D03*
X85000000Y-150400000D03*
X86697056Y-149697056D03*
X87400000Y-148000000D03*
D11*
X85000000Y-148000000D03*
%TD*%
D12*
%TO.P,J3,1*%
%TO.N,N/C*%
X99440000Y-110600000D03*
D13*
%TO.P,J3,2*%
X99440000Y-113140000D03*
%TO.P,J3,3*%
X99440000Y-115680000D03*
%TO.P,J3,4*%
%TO.N,RX*%
X99440000Y-118220000D03*
%TO.P,J3,5*%
%TO.N,N/C*%
X99440000Y-120760000D03*
%TO.P,J3,6*%
X99440000Y-123300000D03*
%TO.P,J3,7*%
X99440000Y-125840000D03*
%TO.P,J3,8*%
X99440000Y-128380000D03*
%TO.P,J3,9*%
%TO.N,+3V3*%
X99440000Y-130920000D03*
%TO.P,J3,10*%
%TO.N,N/C*%
X99440000Y-133460000D03*
%TD*%
%TO.P,J4,10*%
%TO.N,N/C*%
X124840000Y-133460000D03*
%TO.P,J4,9*%
%TO.N,GND*%
X124840000Y-130920000D03*
%TO.P,J4,8*%
%TO.N,N/C*%
X124840000Y-128380000D03*
%TO.P,J4,7*%
X124840000Y-125840000D03*
%TO.P,J4,6*%
X124840000Y-123300000D03*
%TO.P,J4,5*%
X124840000Y-120760000D03*
%TO.P,J4,4*%
X124840000Y-118220000D03*
%TO.P,J4,3*%
%TO.N,TX*%
X124840000Y-115680000D03*
%TO.P,J4,2*%
%TO.N,N/C*%
X124840000Y-113140000D03*
D12*
%TO.P,J4,1*%
X124840000Y-110600000D03*
%TD*%
%TO.P,J5,1*%
%TO.N,+5V*%
%TA.AperFunction,ComponentPad*%
G36*
G01*
X107150000Y-143750000D02*
X107150000Y-142250000D01*
G75*
G02*
X107400000Y-142000000I250000J0D01*
G01*
X108600000Y-142000000D01*
G75*
G02*
X108850000Y-142250000I0J-250000D01*
G01*
X108850000Y-143750000D01*
G75*
G02*
X108600000Y-144000000I-250000J0D01*
G01*
X107400000Y-144000000D01*
G75*
G02*
X107150000Y-143750000I0J250000D01*
G01*
G37*
%TD.AperFunction*%
D14*
%TO.P,J5,2*%
%TO.N,GND*%
X110500000Y-143000000D03*
%TD*%
%TO.P,J6,1*%
%TO.N,Net-(J6-Pad1)*%
%TA.AperFunction,ComponentPad*%
G36*
G01*
X89250000Y-127650000D02*
X90750000Y-127650000D01*
G75*
G02*
X91000000Y-127900000I0J-250000D01*
G01*
X91000000Y-129100000D01*
G75*
G02*
X90750000Y-129350000I-250000J0D01*
G01*
X89250000Y-129350000D01*
G75*
G02*
X89000000Y-129100000I0J250000D01*
G01*
X89000000Y-127900000D01*
G75*
G02*
X89250000Y-127650000I250000J0D01*
G01*
G37*
%TD.AperFunction*%
D15*
%TO.P,J6,2*%
%TO.N,Net-(D2-Pad2)*%
X90000000Y-131000000D03*
%TD*%
D16*
%TO.P,U1,1*%
%TO.N,Out1*%
X86000000Y-137000000D03*
D17*
%TO.P,U1,3*%
%TO.N,Net-(D1-Pad2)*%
X93620000Y-139540000D03*
%TO.P,U1,2*%
%TO.N,GND*%
X86000000Y-139540000D03*
%TO.P,U1,4*%
%TO.N,Net-(D2-Pad2)*%
X93620000Y-137000000D03*
%TD*%
D18*
%TO.P,D1,1*%
%TO.N,Net-(D1-Pad1)*%
X84000000Y-118540000D03*
D19*
%TO.P,D1,2*%
%TO.N,Net-(D1-Pad2)*%
X84000000Y-116000000D03*
%TD*%
%TO.P,D2,2*%
%TO.N,Net-(D2-Pad2)*%
X91000000Y-116000000D03*
D18*
%TO.P,D2,1*%
%TO.N,Net-(D2-Pad1)*%
X91000000Y-118540000D03*
%TD*%
D12*
%TO.P,SW1,1*%
%TO.N,Net-(D1-Pad1)*%
X84000000Y-123000000D03*
D13*
%TO.P,SW1,2*%
%TO.N,Net-(J6-Pad1)*%
X86540000Y-123000000D03*
%TO.P,SW1,3*%
%TO.N,Net-(D2-Pad1)*%
X89080000Y-123000000D03*
%TD*%
D20*
%TO.P,U2,14*%
%TO.N,+5V*%
X119997680Y-112882180D03*
%TO.P,U2,13*%
%TO.N,GND*%
X119997680Y-115422180D03*
%TO.P,U2,12*%
%TO.N,+3V3*%
X119997680Y-117962180D03*
%TO.P,U2,11*%
%TO.N,N/C*%
X119997680Y-120502180D03*
%TO.P,U2,10*%
X119997680Y-123042180D03*
%TO.P,U2,9*%
X119997680Y-125582180D03*
%TO.P,U2,8*%
%TO.N,RX*%
X119997680Y-128122180D03*
%TO.P,U2,7*%
%TO.N,TX*%
X103833120Y-128122180D03*
%TO.P,U2,6*%
%TO.N,N/C*%
X103833120Y-125582180D03*
%TO.P,U2,5*%
X103833120Y-123042180D03*
%TO.P,U2,4*%
%TO.N,Out2*%
X103833120Y-120502180D03*
%TO.P,U2,3*%
%TO.N,Out1*%
X103833120Y-117962180D03*
%TO.P,U2,2*%
%TO.N,N/C*%
X103833120Y-115422180D03*
%TO.P,U2,1*%
X103833120Y-112882180D03*
D21*
%TO.P,U2,15*%
X110700000Y-129200000D03*
%TO.P,U2,16*%
X113250000Y-129200000D03*
D22*
%TO.P,U2,17*%
X110698803Y-112195813D03*
%TO.P,U2,18*%
X113238803Y-112195813D03*
%TO.P,U2,19*%
X110698803Y-114735813D03*
%TO.P,U2,20*%
X113238803Y-114735813D03*
%TD*%
D19*
%TO.P,D3,2*%
%TO.N,Net-(D3-Pad2)*%
X141000000Y-115460000D03*
D18*
%TO.P,D3,1*%
%TO.N,Net-(D3-Pad1)*%
X141000000Y-118000000D03*
%TD*%
%TO.P,D4,1*%
%TO.N,Net-(D4-Pad1)*%
X149000000Y-118000000D03*
D19*
%TO.P,D4,2*%
%TO.N,Net-(D4-Pad2)*%
X149000000Y-115460000D03*
%TD*%
%TO.P,J1,1*%
%TO.N,Net-(J1-Pad1)*%
%TA.AperFunction,ComponentPad*%
G36*
G01*
X144750000Y-131850000D02*
X143250000Y-131850000D01*
G75*
G02*
X143000000Y-131600000I0J250000D01*
G01*
X143000000Y-130400000D01*
G75*
G02*
X143250000Y-130150000I250000J0D01*
G01*
X144750000Y-130150000D01*
G75*
G02*
X145000000Y-130400000I0J-250000D01*
G01*
X145000000Y-131600000D01*
G75*
G02*
X144750000Y-131850000I-250000J0D01*
G01*
G37*
%TD.AperFunction*%
D15*
%TO.P,J1,2*%
%TO.N,Net-(D4-Pad2)*%
X144000000Y-128500000D03*
%TD*%
D12*
%TO.P,SW2,1*%
%TO.N,Net-(D3-Pad1)*%
X145000000Y-123000000D03*
D13*
%TO.P,SW2,2*%
%TO.N,Net-(J1-Pad1)*%
X147540000Y-123000000D03*
%TO.P,SW2,3*%
%TO.N,Net-(D4-Pad1)*%
X150080000Y-123000000D03*
%TD*%
D16*
%TO.P,U3,1*%
%TO.N,Out2*%
X133000000Y-137000000D03*
D17*
%TO.P,U3,3*%
%TO.N,Net-(D3-Pad2)*%
X140620000Y-139540000D03*
%TO.P,U3,2*%
%TO.N,GND*%
X133000000Y-139540000D03*
%TO.P,U3,4*%
%TO.N,Net-(D4-Pad2)*%
X140620000Y-137000000D03*
%TD*%
D23*
%TO.N,+5V*%
X127500000Y-130000000D03*
%TO.N,RX*%
X104500000Y-110500000D03*
%TO.N,+3V3*%
X114000000Y-118000000D03*
%TO.N,TX*%
X108500000Y-128000000D03*
%TO.N,Out1*%
X107000000Y-126500000D03*
%TO.N,Out2*%
X101000000Y-120000000D03*
%TD*%
D24*
%TO.N,Net-(D1-Pad1)*%
X84000000Y-118540000D02*
X84000000Y-123000000D01*
%TO.N,Net-(D1-Pad2)*%
X93620000Y-139540000D02*
X91540000Y-139540000D01*
X91540000Y-139540000D02*
X82000000Y-130000000D01*
X82000000Y-130000000D02*
X82000000Y-117000000D01*
X82000000Y-117000000D02*
X83000000Y-116000000D01*
X83000000Y-116000000D02*
X84000000Y-116000000D01*
%TO.N,Net-(D2-Pad1)*%
X89080000Y-120460000D02*
X91000000Y-118540000D01*
X89080000Y-123000000D02*
X89080000Y-120460000D01*
%TO.N,GND*%
X86000000Y-139540000D02*
X89000000Y-142540000D01*
X89000000Y-142540000D02*
X101540000Y-142540000D01*
X101540000Y-142540000D02*
X104000000Y-145000000D01*
X104000000Y-145000000D02*
X109000000Y-145000000D01*
X110500000Y-143500000D02*
X110500000Y-143000000D01*
X109000000Y-145000000D02*
X110500000Y-143500000D01*
X129540000Y-143000000D02*
X133000000Y-139540000D01*
X110500000Y-143000000D02*
X129540000Y-143000000D01*
X124840000Y-130920000D02*
X131000000Y-137080000D01*
X131000000Y-137080000D02*
X131000000Y-138000000D01*
X132540000Y-139540000D02*
X133000000Y-139540000D01*
X131000000Y-138000000D02*
X132540000Y-139540000D01*
X122500000Y-116500000D02*
X121422180Y-115422180D01*
X121422180Y-115422180D02*
X119997680Y-115422180D01*
X122500000Y-128580000D02*
X122500000Y-116500000D01*
X124840000Y-130920000D02*
X122500000Y-128580000D01*
%TO.N,Net-(J1-Pad1)*%
X144000000Y-131000000D02*
X145000000Y-131000000D01*
X147540000Y-128460000D02*
X147540000Y-123000000D01*
X145000000Y-131000000D02*
X147540000Y-128460000D01*
%TO.N,Net-(D2-Pad2)*%
X90000000Y-133380000D02*
X93620000Y-137000000D01*
X90000000Y-131000000D02*
X90000000Y-133380000D01*
X91000000Y-116000000D02*
X93000000Y-116000000D01*
X93000000Y-116000000D02*
X94000000Y-117000000D01*
X94000000Y-117000000D02*
X94000000Y-129000000D01*
X94000000Y-129000000D02*
X92000000Y-131000000D01*
X92000000Y-131000000D02*
X90000000Y-131000000D01*
%TO.N,+5V*%
X119997680Y-112882180D02*
X124879860Y-108000000D01*
X124879860Y-108000000D02*
X126500000Y-108000000D01*
X126500000Y-108000000D02*
X127500000Y-109000000D01*
X127500000Y-109000000D02*
X127500000Y-130000000D01*
X127500000Y-130000000D02*
X127500000Y-130000000D01*
%TO.N,Net-(J6-Pad1)*%
X86540000Y-125040000D02*
X90000000Y-128500000D01*
X86540000Y-123000000D02*
X86540000Y-125040000D01*
%TO.N,RX*%
X99440000Y-118220000D02*
X100780000Y-118220000D01*
X100780000Y-118220000D02*
X101500000Y-117500000D01*
X101500000Y-117500000D02*
X101500000Y-112000000D01*
X101500000Y-112000000D02*
X101500000Y-111500000D01*
X101500000Y-111500000D02*
X102500000Y-110500000D01*
X102500000Y-110500000D02*
X103500000Y-110500000D01*
X103500000Y-110500000D02*
X104500000Y-110500000D01*
X104500000Y-110500000D02*
X104500000Y-110500000D01*
X104500000Y-110500000D02*
X117000000Y-123000000D01*
X117000000Y-123000000D02*
X117000000Y-127000000D01*
X118122180Y-128122180D02*
X119997680Y-128122180D01*
X117000000Y-127000000D02*
X118122180Y-128122180D01*
%TO.N,+3V3*%
X119959860Y-118000000D02*
X119997680Y-117962180D01*
X114000000Y-118000000D02*
X119959860Y-118000000D01*
%TO.N,TX*%
X103955300Y-128000000D02*
X103833120Y-128122180D01*
X108500000Y-128000000D02*
X103955300Y-128000000D01*
%TO.N,Net-(D3-Pad2)*%
X138540000Y-115460000D02*
X141000000Y-115460000D01*
X138000000Y-116000000D02*
X138540000Y-115460000D01*
X138000000Y-139000000D02*
X138000000Y-116000000D01*
X138540000Y-139540000D02*
X138000000Y-139000000D01*
X140620000Y-139540000D02*
X138540000Y-139540000D01*
%TO.N,Net-(D3-Pad1)*%
X141000000Y-118000000D02*
X141000000Y-120000000D01*
X144000000Y-123000000D02*
X145000000Y-123000000D01*
X141000000Y-120000000D02*
X144000000Y-123000000D01*
%TO.N,Net-(D4-Pad1)*%
X149000000Y-118000000D02*
X149000000Y-120000000D01*
X150080000Y-121080000D02*
X150080000Y-123000000D01*
X149000000Y-120000000D02*
X150080000Y-121080000D01*
%TO.N,Net-(D4-Pad2)*%
X144000000Y-128500000D02*
X142500000Y-128500000D01*
X140620000Y-130380000D02*
X140620000Y-137000000D01*
X142500000Y-128500000D02*
X140620000Y-130380000D01*
%TO.N,Out1*%
X107000000Y-126500000D02*
X107000000Y-119500000D01*
X105462180Y-117962180D02*
X103833120Y-117962180D01*
X107000000Y-119500000D02*
X105462180Y-117962180D01*
%TO.N,Out2*%
X101502180Y-120502180D02*
X101000000Y-120000000D01*
X103833120Y-120502180D02*
X101502180Y-120502180D01*
%TD*%
M02*
