%TF.GenerationSoftware,KiCad,Pcbnew,(5.1.9)-1*%
%TF.CreationDate,2022-06-16T11:17:04+09:00*%
%TF.ProjectId,Receiver,52656365-6976-4657-922e-6b696361645f,rev?*%
%TF.SameCoordinates,Original*%
%TF.FileFunction,Legend,Top*%
%TF.FilePolarity,Positive*%
%FSLAX46Y46*%
G04 Gerber Fmt 4.6, Leading zero omitted, Abs format (unit mm)*
G04 Created by KiCad (PCBNEW (5.1.9)-1) date 2022-06-16 11:17:04*
%MOMM*%
%LPD*%
G01*
G04 APERTURE LIST*
%ADD10C,0.150000*%
%ADD11C,0.120000*%
%ADD12C,0.066040*%
%ADD13C,0.127000*%
%ADD14C,0.100000*%
%ADD15C,0.101600*%
%ADD16C,0.076200*%
G04 APERTURE END LIST*
D10*
X121142857Y-146802380D02*
X120809523Y-146326190D01*
X120571428Y-146802380D02*
X120571428Y-145802380D01*
X120952380Y-145802380D01*
X121047619Y-145850000D01*
X121095238Y-145897619D01*
X121142857Y-145992857D01*
X121142857Y-146135714D01*
X121095238Y-146230952D01*
X121047619Y-146278571D01*
X120952380Y-146326190D01*
X120571428Y-146326190D01*
X121571428Y-146278571D02*
X121904761Y-146278571D01*
X122047619Y-146802380D02*
X121571428Y-146802380D01*
X121571428Y-145802380D01*
X122047619Y-145802380D01*
X122428571Y-146754761D02*
X122571428Y-146802380D01*
X122809523Y-146802380D01*
X122904761Y-146754761D01*
X122952380Y-146707142D01*
X123000000Y-146611904D01*
X123000000Y-146516666D01*
X122952380Y-146421428D01*
X122904761Y-146373809D01*
X122809523Y-146326190D01*
X122619047Y-146278571D01*
X122523809Y-146230952D01*
X122476190Y-146183333D01*
X122428571Y-146088095D01*
X122428571Y-145992857D01*
X122476190Y-145897619D01*
X122523809Y-145850000D01*
X122619047Y-145802380D01*
X122857142Y-145802380D01*
X123000000Y-145850000D01*
X123380952Y-146754761D02*
X123523809Y-146802380D01*
X123761904Y-146802380D01*
X123857142Y-146754761D01*
X123904761Y-146707142D01*
X123952380Y-146611904D01*
X123952380Y-146516666D01*
X123904761Y-146421428D01*
X123857142Y-146373809D01*
X123761904Y-146326190D01*
X123571428Y-146278571D01*
X123476190Y-146230952D01*
X123428571Y-146183333D01*
X123380952Y-146088095D01*
X123380952Y-145992857D01*
X123428571Y-145897619D01*
X123476190Y-145850000D01*
X123571428Y-145802380D01*
X123809523Y-145802380D01*
X123952380Y-145850000D01*
X124380952Y-146421428D02*
X125142857Y-146421428D01*
X126190476Y-146802380D02*
X125857142Y-146326190D01*
X125619047Y-146802380D02*
X125619047Y-145802380D01*
X126000000Y-145802380D01*
X126095238Y-145850000D01*
X126142857Y-145897619D01*
X126190476Y-145992857D01*
X126190476Y-146135714D01*
X126142857Y-146230952D01*
X126095238Y-146278571D01*
X126000000Y-146326190D01*
X125619047Y-146326190D01*
X127000000Y-146754761D02*
X126904761Y-146802380D01*
X126714285Y-146802380D01*
X126619047Y-146754761D01*
X126571428Y-146659523D01*
X126571428Y-146278571D01*
X126619047Y-146183333D01*
X126714285Y-146135714D01*
X126904761Y-146135714D01*
X127000000Y-146183333D01*
X127047619Y-146278571D01*
X127047619Y-146373809D01*
X126571428Y-146469047D01*
X127904761Y-146754761D02*
X127809523Y-146802380D01*
X127619047Y-146802380D01*
X127523809Y-146754761D01*
X127476190Y-146707142D01*
X127428571Y-146611904D01*
X127428571Y-146326190D01*
X127476190Y-146230952D01*
X127523809Y-146183333D01*
X127619047Y-146135714D01*
X127809523Y-146135714D01*
X127904761Y-146183333D01*
X128714285Y-146754761D02*
X128619047Y-146802380D01*
X128428571Y-146802380D01*
X128333333Y-146754761D01*
X128285714Y-146659523D01*
X128285714Y-146278571D01*
X128333333Y-146183333D01*
X128428571Y-146135714D01*
X128619047Y-146135714D01*
X128714285Y-146183333D01*
X128761904Y-146278571D01*
X128761904Y-146373809D01*
X128285714Y-146469047D01*
X129190476Y-146802380D02*
X129190476Y-146135714D01*
X129190476Y-145802380D02*
X129142857Y-145850000D01*
X129190476Y-145897619D01*
X129238095Y-145850000D01*
X129190476Y-145802380D01*
X129190476Y-145897619D01*
X129571428Y-146135714D02*
X129809523Y-146802380D01*
X130047619Y-146135714D01*
X130809523Y-146754761D02*
X130714285Y-146802380D01*
X130523809Y-146802380D01*
X130428571Y-146754761D01*
X130380952Y-146659523D01*
X130380952Y-146278571D01*
X130428571Y-146183333D01*
X130523809Y-146135714D01*
X130714285Y-146135714D01*
X130809523Y-146183333D01*
X130857142Y-146278571D01*
X130857142Y-146373809D01*
X130380952Y-146469047D01*
X131285714Y-146802380D02*
X131285714Y-146135714D01*
X131285714Y-146326190D02*
X131333333Y-146230952D01*
X131380952Y-146183333D01*
X131476190Y-146135714D01*
X131571428Y-146135714D01*
X119047619Y-147547619D02*
X119095238Y-147500000D01*
X119190476Y-147452380D01*
X119428571Y-147452380D01*
X119523809Y-147500000D01*
X119571428Y-147547619D01*
X119619047Y-147642857D01*
X119619047Y-147738095D01*
X119571428Y-147880952D01*
X119000000Y-148452380D01*
X119619047Y-148452380D01*
X120238095Y-147452380D02*
X120333333Y-147452380D01*
X120428571Y-147500000D01*
X120476190Y-147547619D01*
X120523809Y-147642857D01*
X120571428Y-147833333D01*
X120571428Y-148071428D01*
X120523809Y-148261904D01*
X120476190Y-148357142D01*
X120428571Y-148404761D01*
X120333333Y-148452380D01*
X120238095Y-148452380D01*
X120142857Y-148404761D01*
X120095238Y-148357142D01*
X120047619Y-148261904D01*
X120000000Y-148071428D01*
X120000000Y-147833333D01*
X120047619Y-147642857D01*
X120095238Y-147547619D01*
X120142857Y-147500000D01*
X120238095Y-147452380D01*
X120952380Y-147547619D02*
X121000000Y-147500000D01*
X121095238Y-147452380D01*
X121333333Y-147452380D01*
X121428571Y-147500000D01*
X121476190Y-147547619D01*
X121523809Y-147642857D01*
X121523809Y-147738095D01*
X121476190Y-147880952D01*
X120904761Y-148452380D01*
X121523809Y-148452380D01*
X121904761Y-147547619D02*
X121952380Y-147500000D01*
X122047619Y-147452380D01*
X122285714Y-147452380D01*
X122380952Y-147500000D01*
X122428571Y-147547619D01*
X122476190Y-147642857D01*
X122476190Y-147738095D01*
X122428571Y-147880952D01*
X121857142Y-148452380D01*
X122476190Y-148452380D01*
X123666666Y-148452380D02*
X123666666Y-147452380D01*
X124571428Y-148404761D02*
X124476190Y-148452380D01*
X124285714Y-148452380D01*
X124190476Y-148404761D01*
X124142857Y-148357142D01*
X124095238Y-148261904D01*
X124095238Y-147976190D01*
X124142857Y-147880952D01*
X124190476Y-147833333D01*
X124285714Y-147785714D01*
X124476190Y-147785714D01*
X124571428Y-147833333D01*
X125000000Y-148452380D02*
X125000000Y-147452380D01*
X125428571Y-148452380D02*
X125428571Y-147928571D01*
X125380952Y-147833333D01*
X125285714Y-147785714D01*
X125142857Y-147785714D01*
X125047619Y-147833333D01*
X125000000Y-147880952D01*
X125904761Y-148452380D02*
X125904761Y-147785714D01*
X125904761Y-147452380D02*
X125857142Y-147500000D01*
X125904761Y-147547619D01*
X125952380Y-147500000D01*
X125904761Y-147452380D01*
X125904761Y-147547619D01*
X126380952Y-147785714D02*
X126380952Y-148452380D01*
X126380952Y-147880952D02*
X126428571Y-147833333D01*
X126523809Y-147785714D01*
X126666666Y-147785714D01*
X126761904Y-147833333D01*
X126809523Y-147928571D01*
X126809523Y-148452380D01*
X127428571Y-148452380D02*
X127333333Y-148404761D01*
X127285714Y-148357142D01*
X127238095Y-148261904D01*
X127238095Y-147976190D01*
X127285714Y-147880952D01*
X127333333Y-147833333D01*
X127428571Y-147785714D01*
X127571428Y-147785714D01*
X127666666Y-147833333D01*
X127714285Y-147880952D01*
X127761904Y-147976190D01*
X127761904Y-148261904D01*
X127714285Y-148357142D01*
X127666666Y-148404761D01*
X127571428Y-148452380D01*
X127428571Y-148452380D01*
X128142857Y-148404761D02*
X128238095Y-148452380D01*
X128428571Y-148452380D01*
X128523809Y-148404761D01*
X128571428Y-148309523D01*
X128571428Y-148261904D01*
X128523809Y-148166666D01*
X128428571Y-148119047D01*
X128285714Y-148119047D01*
X128190476Y-148071428D01*
X128142857Y-147976190D01*
X128142857Y-147928571D01*
X128190476Y-147833333D01*
X128285714Y-147785714D01*
X128428571Y-147785714D01*
X128523809Y-147833333D01*
X129380952Y-148404761D02*
X129285714Y-148452380D01*
X129095238Y-148452380D01*
X129000000Y-148404761D01*
X128952380Y-148309523D01*
X128952380Y-147928571D01*
X129000000Y-147833333D01*
X129095238Y-147785714D01*
X129285714Y-147785714D01*
X129380952Y-147833333D01*
X129428571Y-147928571D01*
X129428571Y-148023809D01*
X128952380Y-148119047D01*
X129857142Y-148452380D02*
X129857142Y-147452380D01*
X129952380Y-148071428D02*
X130238095Y-148452380D01*
X130238095Y-147785714D02*
X129857142Y-148166666D01*
X130666666Y-148452380D02*
X130666666Y-147785714D01*
X130666666Y-147452380D02*
X130619047Y-147500000D01*
X130666666Y-147547619D01*
X130714285Y-147500000D01*
X130666666Y-147452380D01*
X130666666Y-147547619D01*
X131142857Y-148071428D02*
X131904761Y-148071428D01*
X132714285Y-147928571D02*
X132857142Y-147976190D01*
X132904761Y-148023809D01*
X132952380Y-148119047D01*
X132952380Y-148261904D01*
X132904761Y-148357142D01*
X132857142Y-148404761D01*
X132761904Y-148452380D01*
X132380952Y-148452380D01*
X132380952Y-147452380D01*
X132714285Y-147452380D01*
X132809523Y-147500000D01*
X132857142Y-147547619D01*
X132904761Y-147642857D01*
X132904761Y-147738095D01*
X132857142Y-147833333D01*
X132809523Y-147880952D01*
X132714285Y-147928571D01*
X132380952Y-147928571D01*
X124547619Y-149578571D02*
X124214285Y-149578571D01*
X124214285Y-150102380D02*
X124214285Y-149102380D01*
X124690476Y-149102380D01*
X125500000Y-150102380D02*
X125500000Y-149578571D01*
X125452380Y-149483333D01*
X125357142Y-149435714D01*
X125166666Y-149435714D01*
X125071428Y-149483333D01*
X125500000Y-150054761D02*
X125404761Y-150102380D01*
X125166666Y-150102380D01*
X125071428Y-150054761D01*
X125023809Y-149959523D01*
X125023809Y-149864285D01*
X125071428Y-149769047D01*
X125166666Y-149721428D01*
X125404761Y-149721428D01*
X125500000Y-149673809D01*
X126119047Y-150102380D02*
X126023809Y-150054761D01*
X125976190Y-149959523D01*
X125976190Y-149102380D01*
X126928571Y-150054761D02*
X126833333Y-150102380D01*
X126642857Y-150102380D01*
X126547619Y-150054761D01*
X126500000Y-150007142D01*
X126452380Y-149911904D01*
X126452380Y-149626190D01*
X126500000Y-149530952D01*
X126547619Y-149483333D01*
X126642857Y-149435714D01*
X126833333Y-149435714D01*
X126928571Y-149483333D01*
X127500000Y-150102380D02*
X127404761Y-150054761D01*
X127357142Y-150007142D01*
X127309523Y-149911904D01*
X127309523Y-149626190D01*
X127357142Y-149530952D01*
X127404761Y-149483333D01*
X127500000Y-149435714D01*
X127642857Y-149435714D01*
X127738095Y-149483333D01*
X127785714Y-149530952D01*
X127833333Y-149626190D01*
X127833333Y-149911904D01*
X127785714Y-150007142D01*
X127738095Y-150054761D01*
X127642857Y-150102380D01*
X127500000Y-150102380D01*
D11*
%TO.C,J3*%
X99440000Y-109270000D02*
X100770000Y-109270000D01*
X100770000Y-109270000D02*
X100770000Y-110600000D01*
X100770000Y-111870000D02*
X100770000Y-134790000D01*
X98110000Y-134790000D02*
X100770000Y-134790000D01*
X98110000Y-111870000D02*
X98110000Y-134790000D01*
X98110000Y-111870000D02*
X100770000Y-111870000D01*
%TO.C,J4*%
X123510000Y-111870000D02*
X126170000Y-111870000D01*
X123510000Y-111870000D02*
X123510000Y-134790000D01*
X123510000Y-134790000D02*
X126170000Y-134790000D01*
X126170000Y-111870000D02*
X126170000Y-134790000D01*
X126170000Y-109270000D02*
X126170000Y-110600000D01*
X124840000Y-109270000D02*
X126170000Y-109270000D01*
%TO.C,J5*%
X108300000Y-140900000D02*
X108000000Y-141500000D01*
X107700000Y-140900000D02*
X108300000Y-140900000D01*
X108000000Y-141500000D02*
X107700000Y-140900000D01*
X110750000Y-146200000D02*
X110250000Y-146200000D01*
X110750000Y-151700000D02*
X110750000Y-146200000D01*
X110250000Y-151700000D02*
X110750000Y-151700000D01*
X110250000Y-146200000D02*
X110250000Y-151700000D01*
X108250000Y-146200000D02*
X107750000Y-146200000D01*
X108250000Y-151700000D02*
X108250000Y-146200000D01*
X107750000Y-151700000D02*
X108250000Y-151700000D01*
X107750000Y-146200000D02*
X107750000Y-151700000D01*
X111640000Y-145090000D02*
X109250000Y-145090000D01*
X111640000Y-140590000D02*
X111640000Y-145090000D01*
X113060000Y-140590000D02*
X111640000Y-140590000D01*
X113060000Y-152310000D02*
X113060000Y-140590000D01*
X109250000Y-152310000D02*
X113060000Y-152310000D01*
X106860000Y-145090000D02*
X109250000Y-145090000D01*
X106860000Y-140590000D02*
X106860000Y-145090000D01*
X105440000Y-140590000D02*
X106860000Y-140590000D01*
X105440000Y-152310000D02*
X105440000Y-140590000D01*
X109250000Y-152310000D02*
X105440000Y-152310000D01*
%TO.C,J6*%
X92100000Y-128800000D02*
X91500000Y-128500000D01*
X92100000Y-128200000D02*
X92100000Y-128800000D01*
X91500000Y-128500000D02*
X92100000Y-128200000D01*
X86800000Y-131250000D02*
X86800000Y-130750000D01*
X81300000Y-131250000D02*
X86800000Y-131250000D01*
X81300000Y-130750000D02*
X81300000Y-131250000D01*
X86800000Y-130750000D02*
X81300000Y-130750000D01*
X86800000Y-128750000D02*
X86800000Y-128250000D01*
X81300000Y-128750000D02*
X86800000Y-128750000D01*
X81300000Y-128250000D02*
X81300000Y-128750000D01*
X86800000Y-128250000D02*
X81300000Y-128250000D01*
X87910000Y-132140000D02*
X87910000Y-129750000D01*
X92410000Y-132140000D02*
X87910000Y-132140000D01*
X92410000Y-133560000D02*
X92410000Y-132140000D01*
X80690000Y-133560000D02*
X92410000Y-133560000D01*
X80690000Y-129750000D02*
X80690000Y-133560000D01*
X87910000Y-127360000D02*
X87910000Y-129750000D01*
X92410000Y-127360000D02*
X87910000Y-127360000D01*
X92410000Y-125940000D02*
X92410000Y-127360000D01*
X80690000Y-125940000D02*
X92410000Y-125940000D01*
X80690000Y-129750000D02*
X80690000Y-125940000D01*
%TO.C,U1*%
X92460000Y-135670000D02*
X90810000Y-135670000D01*
X92460000Y-140870000D02*
X92460000Y-135670000D01*
X87160000Y-140870000D02*
X92460000Y-140870000D01*
X87160000Y-135670000D02*
X87160000Y-140870000D01*
X88810000Y-135670000D02*
X87160000Y-135670000D01*
X90810000Y-135670000D02*
G75*
G02*
X88810000Y-135670000I-1000000J0D01*
G01*
%TO.C,D1*%
X86500000Y-117270000D02*
G75*
G03*
X86500000Y-117270000I-2500000J0D01*
G01*
X82455000Y-119830000D02*
X85545000Y-119830000D01*
X84000462Y-114280000D02*
G75*
G03*
X82455170Y-119830000I-462J-2990000D01*
G01*
X83999538Y-114280000D02*
G75*
G02*
X85544830Y-119830000I462J-2990000D01*
G01*
%TO.C,D2*%
X89455000Y-119830000D02*
X92545000Y-119830000D01*
X93500000Y-117270000D02*
G75*
G03*
X93500000Y-117270000I-2500000J0D01*
G01*
X90999538Y-114280000D02*
G75*
G02*
X92544830Y-119830000I462J-2990000D01*
G01*
X91000462Y-114280000D02*
G75*
G03*
X89455170Y-119830000I-462J-2990000D01*
G01*
%TO.C,SW1*%
X82670000Y-124330000D02*
X82670000Y-123000000D01*
X84000000Y-124330000D02*
X82670000Y-124330000D01*
X85270000Y-124330000D02*
X85270000Y-121670000D01*
X85270000Y-121670000D02*
X90410000Y-121670000D01*
X85270000Y-124330000D02*
X90410000Y-124330000D01*
X90410000Y-124330000D02*
X90410000Y-121670000D01*
D12*
%TO.C,U2*%
X109350000Y-113220000D02*
X114430000Y-113220000D01*
X114430000Y-113220000D02*
X114430000Y-110680000D01*
X109350000Y-110680000D02*
X114430000Y-110680000D01*
X109350000Y-113220000D02*
X109350000Y-110680000D01*
X109350000Y-130365000D02*
X115065000Y-130365000D01*
X115065000Y-130365000D02*
X115065000Y-127825000D01*
X109350000Y-127825000D02*
X115065000Y-127825000D01*
X109350000Y-130365000D02*
X109350000Y-127825000D01*
X106683000Y-112585000D02*
X108461000Y-112585000D01*
X108461000Y-112585000D02*
X108461000Y-109918000D01*
X106683000Y-109918000D02*
X108461000Y-109918000D01*
X106683000Y-112585000D02*
X106683000Y-109918000D01*
X106683000Y-116651540D02*
X108461000Y-116651540D01*
X108461000Y-116651540D02*
X108461000Y-113982000D01*
X106683000Y-113982000D02*
X108461000Y-113982000D01*
X106683000Y-116651540D02*
X106683000Y-113982000D01*
X115319000Y-116651540D02*
X117097000Y-116651540D01*
X117097000Y-116651540D02*
X117097000Y-113982000D01*
X115319000Y-113982000D02*
X117097000Y-113982000D01*
X115319000Y-116651540D02*
X115319000Y-113982000D01*
X115319000Y-112585000D02*
X117097000Y-112585000D01*
X117097000Y-112585000D02*
X117097000Y-109918000D01*
X115319000Y-109918000D02*
X117097000Y-109918000D01*
X115319000Y-112585000D02*
X115319000Y-109918000D01*
D13*
X103000000Y-131000000D02*
X120797780Y-131000000D01*
X120797780Y-131000000D02*
X120797780Y-110001820D01*
X120797780Y-110001820D02*
X103670560Y-110001820D01*
X103670560Y-110001820D02*
X103000000Y-110672380D01*
X103000000Y-110672380D02*
X103000000Y-131000000D01*
X107399280Y-108576880D02*
X116393420Y-108576880D01*
X116393420Y-108576880D02*
X116393420Y-115930180D01*
X116393420Y-115930180D02*
X107394200Y-115930180D01*
X107394200Y-115930180D02*
X107394200Y-108576880D01*
D14*
X102365000Y-112839000D02*
G75*
G03*
X102365000Y-112839000I-254000J0D01*
G01*
D11*
%TO.C,D3*%
X143500000Y-116730000D02*
G75*
G03*
X143500000Y-116730000I-2500000J0D01*
G01*
X139455000Y-119290000D02*
X142545000Y-119290000D01*
X140999538Y-113740000D02*
G75*
G02*
X142544830Y-119290000I462J-2990000D01*
G01*
X141000462Y-113740000D02*
G75*
G03*
X139455170Y-119290000I-462J-2990000D01*
G01*
%TO.C,D4*%
X147455000Y-119290000D02*
X150545000Y-119290000D01*
X151500000Y-116730000D02*
G75*
G03*
X151500000Y-116730000I-2500000J0D01*
G01*
X149000462Y-113740000D02*
G75*
G03*
X147455170Y-119290000I-462J-2990000D01*
G01*
X148999538Y-113740000D02*
G75*
G02*
X150544830Y-119290000I462J-2990000D01*
G01*
%TO.C,J1*%
X141900000Y-130700000D02*
X142500000Y-131000000D01*
X141900000Y-131300000D02*
X141900000Y-130700000D01*
X142500000Y-131000000D02*
X141900000Y-131300000D01*
X147200000Y-128250000D02*
X147200000Y-128750000D01*
X152700000Y-128250000D02*
X147200000Y-128250000D01*
X152700000Y-128750000D02*
X152700000Y-128250000D01*
X147200000Y-128750000D02*
X152700000Y-128750000D01*
X147200000Y-130750000D02*
X147200000Y-131250000D01*
X152700000Y-130750000D02*
X147200000Y-130750000D01*
X152700000Y-131250000D02*
X152700000Y-130750000D01*
X147200000Y-131250000D02*
X152700000Y-131250000D01*
X146090000Y-127360000D02*
X146090000Y-129750000D01*
X141590000Y-127360000D02*
X146090000Y-127360000D01*
X141590000Y-125940000D02*
X141590000Y-127360000D01*
X153310000Y-125940000D02*
X141590000Y-125940000D01*
X153310000Y-129750000D02*
X153310000Y-125940000D01*
X146090000Y-132140000D02*
X146090000Y-129750000D01*
X141590000Y-132140000D02*
X146090000Y-132140000D01*
X141590000Y-133560000D02*
X141590000Y-132140000D01*
X153310000Y-133560000D02*
X141590000Y-133560000D01*
X153310000Y-129750000D02*
X153310000Y-133560000D01*
%TO.C,SW2*%
X143670000Y-124330000D02*
X143670000Y-123000000D01*
X145000000Y-124330000D02*
X143670000Y-124330000D01*
X146270000Y-124330000D02*
X146270000Y-121670000D01*
X146270000Y-121670000D02*
X151410000Y-121670000D01*
X146270000Y-124330000D02*
X151410000Y-124330000D01*
X151410000Y-124330000D02*
X151410000Y-121670000D01*
%TO.C,U3*%
X139460000Y-135670000D02*
X137810000Y-135670000D01*
X139460000Y-140870000D02*
X139460000Y-135670000D01*
X134160000Y-140870000D02*
X139460000Y-140870000D01*
X134160000Y-135670000D02*
X134160000Y-140870000D01*
X135810000Y-135670000D02*
X134160000Y-135670000D01*
X137810000Y-135670000D02*
G75*
G02*
X135810000Y-135670000I-1000000J0D01*
G01*
%TO.C,J3*%
D10*
X99106666Y-107282380D02*
X99106666Y-107996666D01*
X99059047Y-108139523D01*
X98963809Y-108234761D01*
X98820952Y-108282380D01*
X98725714Y-108282380D01*
X99487619Y-107282380D02*
X100106666Y-107282380D01*
X99773333Y-107663333D01*
X99916190Y-107663333D01*
X100011428Y-107710952D01*
X100059047Y-107758571D01*
X100106666Y-107853809D01*
X100106666Y-108091904D01*
X100059047Y-108187142D01*
X100011428Y-108234761D01*
X99916190Y-108282380D01*
X99630476Y-108282380D01*
X99535238Y-108234761D01*
X99487619Y-108187142D01*
%TO.C,J4*%
X124506666Y-107282380D02*
X124506666Y-107996666D01*
X124459047Y-108139523D01*
X124363809Y-108234761D01*
X124220952Y-108282380D01*
X124125714Y-108282380D01*
X125411428Y-107615714D02*
X125411428Y-108282380D01*
X125173333Y-107234761D02*
X124935238Y-107949047D01*
X125554285Y-107949047D01*
%TO.C,U2*%
D15*
X111657166Y-108732666D02*
X111657166Y-109452333D01*
X111699500Y-109537000D01*
X111741833Y-109579333D01*
X111826500Y-109621666D01*
X111995833Y-109621666D01*
X112080500Y-109579333D01*
X112122833Y-109537000D01*
X112165166Y-109452333D01*
X112165166Y-108732666D01*
X112546166Y-108817333D02*
X112588500Y-108775000D01*
X112673166Y-108732666D01*
X112884833Y-108732666D01*
X112969500Y-108775000D01*
X113011833Y-108817333D01*
X113054166Y-108902000D01*
X113054166Y-108986666D01*
X113011833Y-109113666D01*
X112503833Y-109621666D01*
X113054166Y-109621666D01*
D16*
X108667828Y-120451742D02*
X108754914Y-120480771D01*
X108900057Y-120480771D01*
X108958114Y-120451742D01*
X108987142Y-120422714D01*
X109016171Y-120364657D01*
X109016171Y-120306600D01*
X108987142Y-120248542D01*
X108958114Y-120219514D01*
X108900057Y-120190485D01*
X108783942Y-120161457D01*
X108725885Y-120132428D01*
X108696857Y-120103400D01*
X108667828Y-120045342D01*
X108667828Y-119987285D01*
X108696857Y-119929228D01*
X108725885Y-119900200D01*
X108783942Y-119871171D01*
X108929085Y-119871171D01*
X109016171Y-119900200D01*
X109509657Y-120451742D02*
X109451600Y-120480771D01*
X109335485Y-120480771D01*
X109277428Y-120451742D01*
X109248400Y-120393685D01*
X109248400Y-120161457D01*
X109277428Y-120103400D01*
X109335485Y-120074371D01*
X109451600Y-120074371D01*
X109509657Y-120103400D01*
X109538685Y-120161457D01*
X109538685Y-120219514D01*
X109248400Y-120277571D01*
X110032171Y-120451742D02*
X109974114Y-120480771D01*
X109858000Y-120480771D01*
X109799942Y-120451742D01*
X109770914Y-120393685D01*
X109770914Y-120161457D01*
X109799942Y-120103400D01*
X109858000Y-120074371D01*
X109974114Y-120074371D01*
X110032171Y-120103400D01*
X110061200Y-120161457D01*
X110061200Y-120219514D01*
X109770914Y-120277571D01*
X110554685Y-120451742D02*
X110496628Y-120480771D01*
X110380514Y-120480771D01*
X110322457Y-120451742D01*
X110293428Y-120393685D01*
X110293428Y-120161457D01*
X110322457Y-120103400D01*
X110380514Y-120074371D01*
X110496628Y-120074371D01*
X110554685Y-120103400D01*
X110583714Y-120161457D01*
X110583714Y-120219514D01*
X110293428Y-120277571D01*
X111106228Y-120480771D02*
X111106228Y-119871171D01*
X111106228Y-120451742D02*
X111048171Y-120480771D01*
X110932057Y-120480771D01*
X110874000Y-120451742D01*
X110844971Y-120422714D01*
X110815942Y-120364657D01*
X110815942Y-120190485D01*
X110844971Y-120132428D01*
X110874000Y-120103400D01*
X110932057Y-120074371D01*
X111048171Y-120074371D01*
X111106228Y-120103400D01*
X111657771Y-120074371D02*
X111657771Y-120480771D01*
X111396514Y-120074371D02*
X111396514Y-120393685D01*
X111425542Y-120451742D01*
X111483600Y-120480771D01*
X111570685Y-120480771D01*
X111628742Y-120451742D01*
X111657771Y-120422714D01*
X111948057Y-120480771D02*
X111948057Y-120074371D01*
X111948057Y-119871171D02*
X111919028Y-119900200D01*
X111948057Y-119929228D01*
X111977085Y-119900200D01*
X111948057Y-119871171D01*
X111948057Y-119929228D01*
X112238342Y-120074371D02*
X112238342Y-120480771D01*
X112238342Y-120132428D02*
X112267371Y-120103400D01*
X112325428Y-120074371D01*
X112412514Y-120074371D01*
X112470571Y-120103400D01*
X112499600Y-120161457D01*
X112499600Y-120480771D01*
X112876971Y-120480771D02*
X112818914Y-120451742D01*
X112789885Y-120422714D01*
X112760857Y-120364657D01*
X112760857Y-120190485D01*
X112789885Y-120132428D01*
X112818914Y-120103400D01*
X112876971Y-120074371D01*
X112964057Y-120074371D01*
X113022114Y-120103400D01*
X113051142Y-120132428D01*
X113080171Y-120190485D01*
X113080171Y-120364657D01*
X113051142Y-120422714D01*
X113022114Y-120451742D01*
X112964057Y-120480771D01*
X112876971Y-120480771D01*
X113283371Y-119871171D02*
X113689771Y-120480771D01*
X113689771Y-119871171D02*
X113283371Y-120480771D01*
X113922000Y-120480771D02*
X113922000Y-119871171D01*
X114183257Y-120306600D02*
X114473542Y-120306600D01*
X114125200Y-120480771D02*
X114328400Y-119871171D01*
X114531600Y-120480771D01*
X114850914Y-119871171D02*
X114967028Y-119871171D01*
X115025085Y-119900200D01*
X115083142Y-119958257D01*
X115112171Y-120074371D01*
X115112171Y-120277571D01*
X115083142Y-120393685D01*
X115025085Y-120451742D01*
X114967028Y-120480771D01*
X114850914Y-120480771D01*
X114792857Y-120451742D01*
X114734800Y-120393685D01*
X114705771Y-120277571D01*
X114705771Y-120074371D01*
X114734800Y-119958257D01*
X114792857Y-119900200D01*
X114850914Y-119871171D01*
%TD*%
M02*
