M48
; DRILL file {KiCad (5.1.9)-1} date 06/16/22 11:17:06
; FORMAT={-:-/ absolute / metric / decimal}
; #@! TF.CreationDate,2022-06-16T11:17:06+09:00
; #@! TF.GenerationSoftware,Kicad,Pcbnew,(5.1.9)-1
FMAT,2
METRIC
T1C0.400
T2C0.500
T3C0.800
T4C0.900
T5C1.000
T6C3.200
%
G90
G05
T1
X101.0Y-120.0
X104.5Y-110.5
X107.0Y-126.5
X108.5Y-128.0
X114.0Y-118.0
X127.5Y-130.0
T2
X82.6Y-109.0
X82.6Y-148.0
X83.303Y-107.303
X83.303Y-110.697
X83.303Y-146.303
X83.303Y-149.697
X85.0Y-106.6
X85.0Y-111.4
X85.0Y-145.6
X85.0Y-150.4
X86.697Y-107.303
X86.697Y-110.697
X86.697Y-146.303
X86.697Y-149.697
X87.4Y-109.0
X87.4Y-148.0
X146.6Y-109.0
X146.6Y-148.0
X147.303Y-107.303
X147.303Y-110.697
X147.303Y-146.303
X147.303Y-149.697
X149.0Y-106.6
X149.0Y-111.4
X149.0Y-145.6
X149.0Y-150.4
X150.697Y-107.303
X150.697Y-110.697
X150.697Y-146.303
X150.697Y-149.697
X151.4Y-109.0
X151.4Y-148.0
T3
X86.0Y-137.0
X86.0Y-139.54
X93.62Y-137.0
X93.62Y-139.54
X133.0Y-137.0
X133.0Y-139.54
X140.62Y-137.0
X140.62Y-139.54
T4
X84.0Y-116.0
X84.0Y-118.54
X91.0Y-116.0
X91.0Y-118.54
X141.0Y-115.46
X141.0Y-118.0
X149.0Y-115.46
X149.0Y-118.0
T5
X84.0Y-123.0
X86.54Y-123.0
X89.08Y-123.0
X90.0Y-128.5
X90.0Y-131.0
X99.44Y-110.6
X99.44Y-113.14
X99.44Y-115.68
X99.44Y-118.22
X99.44Y-120.76
X99.44Y-123.3
X99.44Y-125.84
X99.44Y-128.38
X99.44Y-130.92
X99.44Y-133.46
X108.0Y-143.0
X110.5Y-143.0
X124.84Y-110.6
X124.84Y-113.14
X124.84Y-115.68
X124.84Y-118.22
X124.84Y-120.76
X124.84Y-123.3
X124.84Y-125.84
X124.84Y-128.38
X124.84Y-130.92
X124.84Y-133.46
X144.0Y-128.5
X144.0Y-131.0
X145.0Y-123.0
X147.54Y-123.0
X150.08Y-123.0
T6
X85.0Y-109.0
X85.0Y-148.0
X149.0Y-109.0
X149.0Y-148.0
T0
M30
