%TF.GenerationSoftware,KiCad,Pcbnew,(5.1.9)-1*%
%TF.CreationDate,2022-06-16T11:17:04+09:00*%
%TF.ProjectId,Receiver,52656365-6976-4657-922e-6b696361645f,rev?*%
%TF.SameCoordinates,Original*%
%TF.FileFunction,Soldermask,Bot*%
%TF.FilePolarity,Negative*%
%FSLAX46Y46*%
G04 Gerber Fmt 4.6, Leading zero omitted, Abs format (unit mm)*
G04 Created by KiCad (PCBNEW (5.1.9)-1) date 2022-06-16 11:17:04*
%MOMM*%
%LPD*%
G01*
G04 APERTURE LIST*
%ADD10C,0.800000*%
%ADD11C,6.400000*%
%ADD12R,1.700000X1.700000*%
%ADD13O,1.700000X1.700000*%
%ADD14O,1.700000X2.000000*%
%ADD15O,2.000000X1.700000*%
%ADD16R,1.600000X1.600000*%
%ADD17O,1.600000X1.600000*%
%ADD18R,1.800000X1.800000*%
%ADD19C,1.800000*%
G04 APERTURE END LIST*
D10*
%TO.C,REF\u002A\u002A*%
X150697056Y-146302944D03*
X149000000Y-145600000D03*
X147302944Y-146302944D03*
X146600000Y-148000000D03*
X147302944Y-149697056D03*
X149000000Y-150400000D03*
X150697056Y-149697056D03*
X151400000Y-148000000D03*
D11*
X149000000Y-148000000D03*
%TD*%
D10*
%TO.C,REF\u002A\u002A*%
X150697056Y-107302944D03*
X149000000Y-106600000D03*
X147302944Y-107302944D03*
X146600000Y-109000000D03*
X147302944Y-110697056D03*
X149000000Y-111400000D03*
X150697056Y-110697056D03*
X151400000Y-109000000D03*
D11*
X149000000Y-109000000D03*
%TD*%
D10*
%TO.C,REF\u002A\u002A*%
X86697056Y-107302944D03*
X85000000Y-106600000D03*
X83302944Y-107302944D03*
X82600000Y-109000000D03*
X83302944Y-110697056D03*
X85000000Y-111400000D03*
X86697056Y-110697056D03*
X87400000Y-109000000D03*
D11*
X85000000Y-109000000D03*
%TD*%
D10*
%TO.C,REF\u002A\u002A*%
X86697056Y-146302944D03*
X85000000Y-145600000D03*
X83302944Y-146302944D03*
X82600000Y-148000000D03*
X83302944Y-149697056D03*
X85000000Y-150400000D03*
X86697056Y-149697056D03*
X87400000Y-148000000D03*
D11*
X85000000Y-148000000D03*
%TD*%
D12*
%TO.C,J3*%
X99440000Y-110600000D03*
D13*
X99440000Y-113140000D03*
X99440000Y-115680000D03*
X99440000Y-118220000D03*
X99440000Y-120760000D03*
X99440000Y-123300000D03*
X99440000Y-125840000D03*
X99440000Y-128380000D03*
X99440000Y-130920000D03*
X99440000Y-133460000D03*
%TD*%
%TO.C,J4*%
X124840000Y-133460000D03*
X124840000Y-130920000D03*
X124840000Y-128380000D03*
X124840000Y-125840000D03*
X124840000Y-123300000D03*
X124840000Y-120760000D03*
X124840000Y-118220000D03*
X124840000Y-115680000D03*
X124840000Y-113140000D03*
D12*
X124840000Y-110600000D03*
%TD*%
%TO.C,J5*%
G36*
G01*
X107150000Y-143750000D02*
X107150000Y-142250000D01*
G75*
G02*
X107400000Y-142000000I250000J0D01*
G01*
X108600000Y-142000000D01*
G75*
G02*
X108850000Y-142250000I0J-250000D01*
G01*
X108850000Y-143750000D01*
G75*
G02*
X108600000Y-144000000I-250000J0D01*
G01*
X107400000Y-144000000D01*
G75*
G02*
X107150000Y-143750000I0J250000D01*
G01*
G37*
D14*
X110500000Y-143000000D03*
%TD*%
%TO.C,J6*%
G36*
G01*
X89250000Y-127650000D02*
X90750000Y-127650000D01*
G75*
G02*
X91000000Y-127900000I0J-250000D01*
G01*
X91000000Y-129100000D01*
G75*
G02*
X90750000Y-129350000I-250000J0D01*
G01*
X89250000Y-129350000D01*
G75*
G02*
X89000000Y-129100000I0J250000D01*
G01*
X89000000Y-127900000D01*
G75*
G02*
X89250000Y-127650000I250000J0D01*
G01*
G37*
D15*
X90000000Y-131000000D03*
%TD*%
D16*
%TO.C,U1*%
X86000000Y-137000000D03*
D17*
X93620000Y-139540000D03*
X86000000Y-139540000D03*
X93620000Y-137000000D03*
%TD*%
D18*
%TO.C,D1*%
X84000000Y-118540000D03*
D19*
X84000000Y-116000000D03*
%TD*%
%TO.C,D2*%
X91000000Y-116000000D03*
D18*
X91000000Y-118540000D03*
%TD*%
D12*
%TO.C,SW1*%
X84000000Y-123000000D03*
D13*
X86540000Y-123000000D03*
X89080000Y-123000000D03*
%TD*%
D19*
%TO.C,D3*%
X141000000Y-115460000D03*
D18*
X141000000Y-118000000D03*
%TD*%
%TO.C,D4*%
X149000000Y-118000000D03*
D19*
X149000000Y-115460000D03*
%TD*%
%TO.C,J1*%
G36*
G01*
X144750000Y-131850000D02*
X143250000Y-131850000D01*
G75*
G02*
X143000000Y-131600000I0J250000D01*
G01*
X143000000Y-130400000D01*
G75*
G02*
X143250000Y-130150000I250000J0D01*
G01*
X144750000Y-130150000D01*
G75*
G02*
X145000000Y-130400000I0J-250000D01*
G01*
X145000000Y-131600000D01*
G75*
G02*
X144750000Y-131850000I-250000J0D01*
G01*
G37*
D15*
X144000000Y-128500000D03*
%TD*%
D12*
%TO.C,SW2*%
X145000000Y-123000000D03*
D13*
X147540000Y-123000000D03*
X150080000Y-123000000D03*
%TD*%
D16*
%TO.C,U3*%
X133000000Y-137000000D03*
D17*
X140620000Y-139540000D03*
X133000000Y-139540000D03*
X140620000Y-137000000D03*
%TD*%
M02*
