M48
; DRILL file {KiCad (5.1.9)-1} date 08/08/22 16:48:12
; FORMAT={-:-/ absolute / metric / decimal}
; #@! TF.CreationDate,2022-08-08T16:48:12+09:00
; #@! TF.GenerationSoftware,Kicad,Pcbnew,(5.1.9)-1
FMAT,2
METRIC
T1C0.400
T2C0.500
T3C0.800
T4C0.890
T5C0.900
T6C1.000
T7C1.100
T8C3.200
T9C3.500
%
G90
G05
T1
X146.05Y-99.06
T2
X128.6Y-76.0
X128.6Y-113.0
X129.303Y-74.303
X129.303Y-77.697
X129.303Y-111.303
X129.303Y-114.697
X131.0Y-73.6
X131.0Y-78.4
X131.0Y-110.6
X131.0Y-115.4
X132.697Y-74.303
X132.697Y-77.697
X132.697Y-111.303
X132.697Y-114.697
X133.4Y-76.0
X133.4Y-113.0
X162.6Y-76.0
X162.6Y-113.0
X163.303Y-74.303
X163.303Y-77.697
X163.303Y-111.303
X163.303Y-114.697
X165.0Y-73.6
X165.0Y-78.4
X165.0Y-110.6
X165.0Y-115.4
X166.697Y-74.303
X166.697Y-77.697
X166.697Y-111.303
X166.697Y-114.697
X167.4Y-76.0
X167.4Y-113.0
T3
X149.86Y-83.82
X149.86Y-91.44
X149.86Y-94.615
X149.86Y-102.235
X159.385Y-91.44
X159.385Y-106.68
X159.385Y-114.3
X160.02Y-95.925
X160.02Y-98.425
X163.83Y-97.155
X165.83Y-97.155
X167.005Y-91.44
T4
X161.29Y-82.55
X161.29Y-85.09
X161.29Y-87.63
X166.37Y-82.55
X166.37Y-87.63
T5
X163.83Y-104.14
X166.37Y-104.14
T6
X130.175Y-82.55
X130.175Y-85.09
X130.175Y-87.63
X130.175Y-90.17
X130.175Y-92.71
X130.175Y-95.25
X130.175Y-97.79
X130.175Y-100.33
X130.175Y-102.87
X130.175Y-105.41
X138.07Y-107.49
X140.57Y-107.49
X147.32Y-107.49
X149.82Y-107.49
X155.575Y-82.55
X155.575Y-85.09
X155.575Y-87.63
X155.575Y-90.17
X155.575Y-92.71
X155.575Y-95.25
X155.575Y-97.79
X155.575Y-100.33
X155.575Y-102.87
X155.575Y-105.41
T7
X137.795Y-101.75
X140.335Y-101.75
X142.875Y-101.75
T8
X131.0Y-76.0
X131.0Y-113.0
X165.0Y-76.0
X165.0Y-113.0
T9
X140.335Y-85.09
T0
M30
