%TF.GenerationSoftware,KiCad,Pcbnew,(5.1.9)-1*%
%TF.CreationDate,2022-08-08T16:48:10+09:00*%
%TF.ProjectId,Transmitter,5472616e-736d-4697-9474-65722e6b6963,rev?*%
%TF.SameCoordinates,Original*%
%TF.FileFunction,Legend,Top*%
%TF.FilePolarity,Positive*%
%FSLAX46Y46*%
G04 Gerber Fmt 4.6, Leading zero omitted, Abs format (unit mm)*
G04 Created by KiCad (PCBNEW (5.1.9)-1) date 2022-08-08 16:48:10*
%MOMM*%
%LPD*%
G01*
G04 APERTURE LIST*
%ADD10C,0.150000*%
%ADD11C,0.120000*%
G04 APERTURE END LIST*
D10*
X147741428Y-73922380D02*
X147408095Y-73446190D01*
X147170000Y-73922380D02*
X147170000Y-72922380D01*
X147550952Y-72922380D01*
X147646190Y-72970000D01*
X147693809Y-73017619D01*
X147741428Y-73112857D01*
X147741428Y-73255714D01*
X147693809Y-73350952D01*
X147646190Y-73398571D01*
X147550952Y-73446190D01*
X147170000Y-73446190D01*
X148170000Y-73398571D02*
X148503333Y-73398571D01*
X148646190Y-73922380D02*
X148170000Y-73922380D01*
X148170000Y-72922380D01*
X148646190Y-72922380D01*
X149027142Y-73874761D02*
X149170000Y-73922380D01*
X149408095Y-73922380D01*
X149503333Y-73874761D01*
X149550952Y-73827142D01*
X149598571Y-73731904D01*
X149598571Y-73636666D01*
X149550952Y-73541428D01*
X149503333Y-73493809D01*
X149408095Y-73446190D01*
X149217619Y-73398571D01*
X149122380Y-73350952D01*
X149074761Y-73303333D01*
X149027142Y-73208095D01*
X149027142Y-73112857D01*
X149074761Y-73017619D01*
X149122380Y-72970000D01*
X149217619Y-72922380D01*
X149455714Y-72922380D01*
X149598571Y-72970000D01*
X149979523Y-73874761D02*
X150122380Y-73922380D01*
X150360476Y-73922380D01*
X150455714Y-73874761D01*
X150503333Y-73827142D01*
X150550952Y-73731904D01*
X150550952Y-73636666D01*
X150503333Y-73541428D01*
X150455714Y-73493809D01*
X150360476Y-73446190D01*
X150170000Y-73398571D01*
X150074761Y-73350952D01*
X150027142Y-73303333D01*
X149979523Y-73208095D01*
X149979523Y-73112857D01*
X150027142Y-73017619D01*
X150074761Y-72970000D01*
X150170000Y-72922380D01*
X150408095Y-72922380D01*
X150550952Y-72970000D01*
X150979523Y-73541428D02*
X151741428Y-73541428D01*
X152074761Y-72922380D02*
X152646190Y-72922380D01*
X152360476Y-73922380D02*
X152360476Y-72922380D01*
X152979523Y-73922380D02*
X152979523Y-73255714D01*
X152979523Y-73446190D02*
X153027142Y-73350952D01*
X153074761Y-73303333D01*
X153170000Y-73255714D01*
X153265238Y-73255714D01*
X154027142Y-73922380D02*
X154027142Y-73398571D01*
X153979523Y-73303333D01*
X153884285Y-73255714D01*
X153693809Y-73255714D01*
X153598571Y-73303333D01*
X154027142Y-73874761D02*
X153931904Y-73922380D01*
X153693809Y-73922380D01*
X153598571Y-73874761D01*
X153550952Y-73779523D01*
X153550952Y-73684285D01*
X153598571Y-73589047D01*
X153693809Y-73541428D01*
X153931904Y-73541428D01*
X154027142Y-73493809D01*
X154503333Y-73255714D02*
X154503333Y-73922380D01*
X154503333Y-73350952D02*
X154550952Y-73303333D01*
X154646190Y-73255714D01*
X154789047Y-73255714D01*
X154884285Y-73303333D01*
X154931904Y-73398571D01*
X154931904Y-73922380D01*
X155360476Y-73874761D02*
X155455714Y-73922380D01*
X155646190Y-73922380D01*
X155741428Y-73874761D01*
X155789047Y-73779523D01*
X155789047Y-73731904D01*
X155741428Y-73636666D01*
X155646190Y-73589047D01*
X155503333Y-73589047D01*
X155408095Y-73541428D01*
X155360476Y-73446190D01*
X155360476Y-73398571D01*
X155408095Y-73303333D01*
X155503333Y-73255714D01*
X155646190Y-73255714D01*
X155741428Y-73303333D01*
X156217619Y-73922380D02*
X156217619Y-73255714D01*
X156217619Y-73350952D02*
X156265238Y-73303333D01*
X156360476Y-73255714D01*
X156503333Y-73255714D01*
X156598571Y-73303333D01*
X156646190Y-73398571D01*
X156646190Y-73922380D01*
X156646190Y-73398571D02*
X156693809Y-73303333D01*
X156789047Y-73255714D01*
X156931904Y-73255714D01*
X157027142Y-73303333D01*
X157074761Y-73398571D01*
X157074761Y-73922380D01*
X157550952Y-73922380D02*
X157550952Y-73255714D01*
X157550952Y-72922380D02*
X157503333Y-72970000D01*
X157550952Y-73017619D01*
X157598571Y-72970000D01*
X157550952Y-72922380D01*
X157550952Y-73017619D01*
X157884285Y-73255714D02*
X158265238Y-73255714D01*
X158027142Y-72922380D02*
X158027142Y-73779523D01*
X158074761Y-73874761D01*
X158170000Y-73922380D01*
X158265238Y-73922380D01*
X158455714Y-73255714D02*
X158836666Y-73255714D01*
X158598571Y-72922380D02*
X158598571Y-73779523D01*
X158646190Y-73874761D01*
X158741428Y-73922380D01*
X158836666Y-73922380D01*
X159550952Y-73874761D02*
X159455714Y-73922380D01*
X159265238Y-73922380D01*
X159170000Y-73874761D01*
X159122380Y-73779523D01*
X159122380Y-73398571D01*
X159170000Y-73303333D01*
X159265238Y-73255714D01*
X159455714Y-73255714D01*
X159550952Y-73303333D01*
X159598571Y-73398571D01*
X159598571Y-73493809D01*
X159122380Y-73589047D01*
X160027142Y-73922380D02*
X160027142Y-73255714D01*
X160027142Y-73446190D02*
X160074761Y-73350952D01*
X160122380Y-73303333D01*
X160217619Y-73255714D01*
X160312857Y-73255714D01*
X146717619Y-74667619D02*
X146765238Y-74620000D01*
X146860476Y-74572380D01*
X147098571Y-74572380D01*
X147193809Y-74620000D01*
X147241428Y-74667619D01*
X147289047Y-74762857D01*
X147289047Y-74858095D01*
X147241428Y-75000952D01*
X146670000Y-75572380D01*
X147289047Y-75572380D01*
X147908095Y-74572380D02*
X148003333Y-74572380D01*
X148098571Y-74620000D01*
X148146190Y-74667619D01*
X148193809Y-74762857D01*
X148241428Y-74953333D01*
X148241428Y-75191428D01*
X148193809Y-75381904D01*
X148146190Y-75477142D01*
X148098571Y-75524761D01*
X148003333Y-75572380D01*
X147908095Y-75572380D01*
X147812857Y-75524761D01*
X147765238Y-75477142D01*
X147717619Y-75381904D01*
X147670000Y-75191428D01*
X147670000Y-74953333D01*
X147717619Y-74762857D01*
X147765238Y-74667619D01*
X147812857Y-74620000D01*
X147908095Y-74572380D01*
X148622380Y-74667619D02*
X148670000Y-74620000D01*
X148765238Y-74572380D01*
X149003333Y-74572380D01*
X149098571Y-74620000D01*
X149146190Y-74667619D01*
X149193809Y-74762857D01*
X149193809Y-74858095D01*
X149146190Y-75000952D01*
X148574761Y-75572380D01*
X149193809Y-75572380D01*
X149574761Y-74667619D02*
X149622380Y-74620000D01*
X149717619Y-74572380D01*
X149955714Y-74572380D01*
X150050952Y-74620000D01*
X150098571Y-74667619D01*
X150146190Y-74762857D01*
X150146190Y-74858095D01*
X150098571Y-75000952D01*
X149527142Y-75572380D01*
X150146190Y-75572380D01*
X151336666Y-75572380D02*
X151336666Y-74572380D01*
X152241428Y-75524761D02*
X152146190Y-75572380D01*
X151955714Y-75572380D01*
X151860476Y-75524761D01*
X151812857Y-75477142D01*
X151765238Y-75381904D01*
X151765238Y-75096190D01*
X151812857Y-75000952D01*
X151860476Y-74953333D01*
X151955714Y-74905714D01*
X152146190Y-74905714D01*
X152241428Y-74953333D01*
X152670000Y-75572380D02*
X152670000Y-74572380D01*
X153098571Y-75572380D02*
X153098571Y-75048571D01*
X153050952Y-74953333D01*
X152955714Y-74905714D01*
X152812857Y-74905714D01*
X152717619Y-74953333D01*
X152670000Y-75000952D01*
X153574761Y-75572380D02*
X153574761Y-74905714D01*
X153574761Y-74572380D02*
X153527142Y-74620000D01*
X153574761Y-74667619D01*
X153622380Y-74620000D01*
X153574761Y-74572380D01*
X153574761Y-74667619D01*
X154050952Y-74905714D02*
X154050952Y-75572380D01*
X154050952Y-75000952D02*
X154098571Y-74953333D01*
X154193809Y-74905714D01*
X154336666Y-74905714D01*
X154431904Y-74953333D01*
X154479523Y-75048571D01*
X154479523Y-75572380D01*
X155098571Y-75572380D02*
X155003333Y-75524761D01*
X154955714Y-75477142D01*
X154908095Y-75381904D01*
X154908095Y-75096190D01*
X154955714Y-75000952D01*
X155003333Y-74953333D01*
X155098571Y-74905714D01*
X155241428Y-74905714D01*
X155336666Y-74953333D01*
X155384285Y-75000952D01*
X155431904Y-75096190D01*
X155431904Y-75381904D01*
X155384285Y-75477142D01*
X155336666Y-75524761D01*
X155241428Y-75572380D01*
X155098571Y-75572380D01*
X155812857Y-75524761D02*
X155908095Y-75572380D01*
X156098571Y-75572380D01*
X156193809Y-75524761D01*
X156241428Y-75429523D01*
X156241428Y-75381904D01*
X156193809Y-75286666D01*
X156098571Y-75239047D01*
X155955714Y-75239047D01*
X155860476Y-75191428D01*
X155812857Y-75096190D01*
X155812857Y-75048571D01*
X155860476Y-74953333D01*
X155955714Y-74905714D01*
X156098571Y-74905714D01*
X156193809Y-74953333D01*
X157050952Y-75524761D02*
X156955714Y-75572380D01*
X156765238Y-75572380D01*
X156670000Y-75524761D01*
X156622380Y-75429523D01*
X156622380Y-75048571D01*
X156670000Y-74953333D01*
X156765238Y-74905714D01*
X156955714Y-74905714D01*
X157050952Y-74953333D01*
X157098571Y-75048571D01*
X157098571Y-75143809D01*
X156622380Y-75239047D01*
X157527142Y-75572380D02*
X157527142Y-74572380D01*
X157622380Y-75191428D02*
X157908095Y-75572380D01*
X157908095Y-74905714D02*
X157527142Y-75286666D01*
X158336666Y-75572380D02*
X158336666Y-74905714D01*
X158336666Y-74572380D02*
X158289047Y-74620000D01*
X158336666Y-74667619D01*
X158384285Y-74620000D01*
X158336666Y-74572380D01*
X158336666Y-74667619D01*
X158812857Y-75191428D02*
X159574761Y-75191428D01*
X160384285Y-75048571D02*
X160527142Y-75096190D01*
X160574761Y-75143809D01*
X160622380Y-75239047D01*
X160622380Y-75381904D01*
X160574761Y-75477142D01*
X160527142Y-75524761D01*
X160431904Y-75572380D01*
X160050952Y-75572380D01*
X160050952Y-74572380D01*
X160384285Y-74572380D01*
X160479523Y-74620000D01*
X160527142Y-74667619D01*
X160574761Y-74762857D01*
X160574761Y-74858095D01*
X160527142Y-74953333D01*
X160479523Y-75000952D01*
X160384285Y-75048571D01*
X160050952Y-75048571D01*
D11*
%TO.C,J6*%
X148570000Y-116800000D02*
X144760000Y-116800000D01*
X144760000Y-116800000D02*
X144760000Y-105080000D01*
X144760000Y-105080000D02*
X146180000Y-105080000D01*
X146180000Y-105080000D02*
X146180000Y-109580000D01*
X146180000Y-109580000D02*
X148570000Y-109580000D01*
X148570000Y-116800000D02*
X152380000Y-116800000D01*
X152380000Y-116800000D02*
X152380000Y-105080000D01*
X152380000Y-105080000D02*
X150960000Y-105080000D01*
X150960000Y-105080000D02*
X150960000Y-109580000D01*
X150960000Y-109580000D02*
X148570000Y-109580000D01*
X147070000Y-110690000D02*
X147070000Y-116190000D01*
X147070000Y-116190000D02*
X147570000Y-116190000D01*
X147570000Y-116190000D02*
X147570000Y-110690000D01*
X147570000Y-110690000D02*
X147070000Y-110690000D01*
X149570000Y-110690000D02*
X149570000Y-116190000D01*
X149570000Y-116190000D02*
X150070000Y-116190000D01*
X150070000Y-116190000D02*
X150070000Y-110690000D01*
X150070000Y-110690000D02*
X149570000Y-110690000D01*
X147320000Y-105990000D02*
X147020000Y-105390000D01*
X147020000Y-105390000D02*
X147620000Y-105390000D01*
X147620000Y-105390000D02*
X147320000Y-105990000D01*
%TO.C,J3*%
X130175000Y-81220000D02*
X131505000Y-81220000D01*
X131505000Y-81220000D02*
X131505000Y-82550000D01*
X131505000Y-83820000D02*
X131505000Y-106740000D01*
X128845000Y-106740000D02*
X131505000Y-106740000D01*
X128845000Y-83820000D02*
X128845000Y-106740000D01*
X128845000Y-83820000D02*
X131505000Y-83820000D01*
%TO.C,J4*%
X154245000Y-83820000D02*
X156905000Y-83820000D01*
X154245000Y-83820000D02*
X154245000Y-106740000D01*
X154245000Y-106740000D02*
X156905000Y-106740000D01*
X156905000Y-83820000D02*
X156905000Y-106740000D01*
X156905000Y-81220000D02*
X156905000Y-82550000D01*
X155575000Y-81220000D02*
X156905000Y-81220000D01*
%TO.C,J5*%
X138370000Y-105390000D02*
X138070000Y-105990000D01*
X137770000Y-105390000D02*
X138370000Y-105390000D01*
X138070000Y-105990000D02*
X137770000Y-105390000D01*
X140820000Y-110690000D02*
X140320000Y-110690000D01*
X140820000Y-116190000D02*
X140820000Y-110690000D01*
X140320000Y-116190000D02*
X140820000Y-116190000D01*
X140320000Y-110690000D02*
X140320000Y-116190000D01*
X138320000Y-110690000D02*
X137820000Y-110690000D01*
X138320000Y-116190000D02*
X138320000Y-110690000D01*
X137820000Y-116190000D02*
X138320000Y-116190000D01*
X137820000Y-110690000D02*
X137820000Y-116190000D01*
X141710000Y-109580000D02*
X139320000Y-109580000D01*
X141710000Y-105080000D02*
X141710000Y-109580000D01*
X143130000Y-105080000D02*
X141710000Y-105080000D01*
X143130000Y-116800000D02*
X143130000Y-105080000D01*
X139320000Y-116800000D02*
X143130000Y-116800000D01*
X136930000Y-109580000D02*
X139320000Y-109580000D01*
X136930000Y-105080000D02*
X136930000Y-109580000D01*
X135510000Y-105080000D02*
X136930000Y-105080000D01*
X135510000Y-116800000D02*
X135510000Y-105080000D01*
X139320000Y-116800000D02*
X135510000Y-116800000D01*
%TO.C,SW1*%
X161170000Y-88740000D02*
X169120000Y-88740000D01*
X169120000Y-88740000D02*
X169120000Y-81440000D01*
X169120000Y-81440000D02*
X161170000Y-81440000D01*
X161170000Y-81440000D02*
X161170000Y-81590000D01*
X161170000Y-84090000D02*
X161170000Y-83590000D01*
X161170000Y-86590000D02*
X161170000Y-86090000D01*
X161170000Y-88740000D02*
X161170000Y-88590000D01*
%TO.C,R1*%
X151230000Y-84360000D02*
X150900000Y-84360000D01*
X151230000Y-90900000D02*
X151230000Y-84360000D01*
X150900000Y-90900000D02*
X151230000Y-90900000D01*
X148490000Y-84360000D02*
X148820000Y-84360000D01*
X148490000Y-90900000D02*
X148490000Y-84360000D01*
X148820000Y-90900000D02*
X148490000Y-90900000D01*
%TO.C,R2*%
X151230000Y-95155000D02*
X150900000Y-95155000D01*
X151230000Y-101695000D02*
X151230000Y-95155000D01*
X150900000Y-101695000D02*
X151230000Y-101695000D01*
X148490000Y-95155000D02*
X148820000Y-95155000D01*
X148490000Y-101695000D02*
X148490000Y-95155000D01*
X148820000Y-101695000D02*
X148490000Y-101695000D01*
%TO.C,R3*%
X166465000Y-92810000D02*
X166465000Y-92480000D01*
X159925000Y-92810000D02*
X166465000Y-92810000D01*
X159925000Y-92480000D02*
X159925000Y-92810000D01*
X166465000Y-90070000D02*
X166465000Y-90400000D01*
X159925000Y-90070000D02*
X166465000Y-90070000D01*
X159925000Y-90400000D02*
X159925000Y-90070000D01*
%TO.C,D1*%
X167600000Y-104140000D02*
G75*
G03*
X167600000Y-104140000I-2500000J0D01*
G01*
X162540000Y-102595000D02*
X162540000Y-105685000D01*
X168090000Y-104140462D02*
G75*
G03*
X162540000Y-102595170I-2990000J462D01*
G01*
X168090000Y-104139538D02*
G75*
G02*
X162540000Y-105684830I-2990000J-462D01*
G01*
%TO.C,R4*%
X160425000Y-107220000D02*
X160755000Y-107220000D01*
X160755000Y-107220000D02*
X160755000Y-113760000D01*
X160755000Y-113760000D02*
X160425000Y-113760000D01*
X158345000Y-107220000D02*
X158015000Y-107220000D01*
X158015000Y-107220000D02*
X158015000Y-113760000D01*
X158015000Y-113760000D02*
X158345000Y-113760000D01*
%TO.C,U1*%
X142875000Y-98060000D02*
X142875000Y-100600000D01*
X140335000Y-98060000D02*
X140335000Y-100600000D01*
X137795000Y-98060000D02*
X137795000Y-100600000D01*
X145455000Y-82170000D02*
X145455000Y-98060000D01*
X135215000Y-82170000D02*
X135215000Y-98060000D01*
X135215000Y-82170000D02*
X145455000Y-82170000D01*
X135215000Y-98060000D02*
X145455000Y-98060000D01*
%TO.C,C1*%
X158650000Y-99295000D02*
X158650000Y-95055000D01*
X161390000Y-99295000D02*
X161390000Y-95055000D01*
X158650000Y-99295000D02*
X159355000Y-99295000D01*
X160685000Y-99295000D02*
X161390000Y-99295000D01*
X158650000Y-95055000D02*
X159355000Y-95055000D01*
X160685000Y-95055000D02*
X161390000Y-95055000D01*
%TO.C,C2*%
X167450000Y-97155000D02*
G75*
G03*
X167450000Y-97155000I-2620000J0D01*
G01*
X164830000Y-98195000D02*
X164830000Y-99735000D01*
X164830000Y-94575000D02*
X164830000Y-96115000D01*
X164870000Y-98195000D02*
X164870000Y-99735000D01*
X164870000Y-94575000D02*
X164870000Y-96115000D01*
X164910000Y-94576000D02*
X164910000Y-96115000D01*
X164910000Y-98195000D02*
X164910000Y-99734000D01*
X164950000Y-94577000D02*
X164950000Y-96115000D01*
X164950000Y-98195000D02*
X164950000Y-99733000D01*
X164990000Y-94579000D02*
X164990000Y-96115000D01*
X164990000Y-98195000D02*
X164990000Y-99731000D01*
X165030000Y-94582000D02*
X165030000Y-96115000D01*
X165030000Y-98195000D02*
X165030000Y-99728000D01*
X165070000Y-94586000D02*
X165070000Y-96115000D01*
X165070000Y-98195000D02*
X165070000Y-99724000D01*
X165110000Y-94590000D02*
X165110000Y-96115000D01*
X165110000Y-98195000D02*
X165110000Y-99720000D01*
X165150000Y-94594000D02*
X165150000Y-96115000D01*
X165150000Y-98195000D02*
X165150000Y-99716000D01*
X165190000Y-94599000D02*
X165190000Y-96115000D01*
X165190000Y-98195000D02*
X165190000Y-99711000D01*
X165230000Y-94605000D02*
X165230000Y-96115000D01*
X165230000Y-98195000D02*
X165230000Y-99705000D01*
X165270000Y-94612000D02*
X165270000Y-96115000D01*
X165270000Y-98195000D02*
X165270000Y-99698000D01*
X165310000Y-94619000D02*
X165310000Y-96115000D01*
X165310000Y-98195000D02*
X165310000Y-99691000D01*
X165350000Y-94627000D02*
X165350000Y-96115000D01*
X165350000Y-98195000D02*
X165350000Y-99683000D01*
X165390000Y-94635000D02*
X165390000Y-96115000D01*
X165390000Y-98195000D02*
X165390000Y-99675000D01*
X165430000Y-94644000D02*
X165430000Y-96115000D01*
X165430000Y-98195000D02*
X165430000Y-99666000D01*
X165470000Y-94654000D02*
X165470000Y-96115000D01*
X165470000Y-98195000D02*
X165470000Y-99656000D01*
X165510000Y-94664000D02*
X165510000Y-96115000D01*
X165510000Y-98195000D02*
X165510000Y-99646000D01*
X165551000Y-94675000D02*
X165551000Y-96115000D01*
X165551000Y-98195000D02*
X165551000Y-99635000D01*
X165591000Y-94687000D02*
X165591000Y-96115000D01*
X165591000Y-98195000D02*
X165591000Y-99623000D01*
X165631000Y-94700000D02*
X165631000Y-96115000D01*
X165631000Y-98195000D02*
X165631000Y-99610000D01*
X165671000Y-94713000D02*
X165671000Y-96115000D01*
X165671000Y-98195000D02*
X165671000Y-99597000D01*
X165711000Y-94727000D02*
X165711000Y-96115000D01*
X165711000Y-98195000D02*
X165711000Y-99583000D01*
X165751000Y-94741000D02*
X165751000Y-96115000D01*
X165751000Y-98195000D02*
X165751000Y-99569000D01*
X165791000Y-94757000D02*
X165791000Y-96115000D01*
X165791000Y-98195000D02*
X165791000Y-99553000D01*
X165831000Y-94773000D02*
X165831000Y-96115000D01*
X165831000Y-98195000D02*
X165831000Y-99537000D01*
X165871000Y-94790000D02*
X165871000Y-96115000D01*
X165871000Y-98195000D02*
X165871000Y-99520000D01*
X165911000Y-94807000D02*
X165911000Y-96115000D01*
X165911000Y-98195000D02*
X165911000Y-99503000D01*
X165951000Y-94826000D02*
X165951000Y-96115000D01*
X165951000Y-98195000D02*
X165951000Y-99484000D01*
X165991000Y-94845000D02*
X165991000Y-96115000D01*
X165991000Y-98195000D02*
X165991000Y-99465000D01*
X166031000Y-94865000D02*
X166031000Y-96115000D01*
X166031000Y-98195000D02*
X166031000Y-99445000D01*
X166071000Y-94887000D02*
X166071000Y-96115000D01*
X166071000Y-98195000D02*
X166071000Y-99423000D01*
X166111000Y-94908000D02*
X166111000Y-96115000D01*
X166111000Y-98195000D02*
X166111000Y-99402000D01*
X166151000Y-94931000D02*
X166151000Y-96115000D01*
X166151000Y-98195000D02*
X166151000Y-99379000D01*
X166191000Y-94955000D02*
X166191000Y-96115000D01*
X166191000Y-98195000D02*
X166191000Y-99355000D01*
X166231000Y-94980000D02*
X166231000Y-96115000D01*
X166231000Y-98195000D02*
X166231000Y-99330000D01*
X166271000Y-95006000D02*
X166271000Y-96115000D01*
X166271000Y-98195000D02*
X166271000Y-99304000D01*
X166311000Y-95033000D02*
X166311000Y-96115000D01*
X166311000Y-98195000D02*
X166311000Y-99277000D01*
X166351000Y-95060000D02*
X166351000Y-96115000D01*
X166351000Y-98195000D02*
X166351000Y-99250000D01*
X166391000Y-95090000D02*
X166391000Y-96115000D01*
X166391000Y-98195000D02*
X166391000Y-99220000D01*
X166431000Y-95120000D02*
X166431000Y-96115000D01*
X166431000Y-98195000D02*
X166431000Y-99190000D01*
X166471000Y-95151000D02*
X166471000Y-96115000D01*
X166471000Y-98195000D02*
X166471000Y-99159000D01*
X166511000Y-95184000D02*
X166511000Y-96115000D01*
X166511000Y-98195000D02*
X166511000Y-99126000D01*
X166551000Y-95218000D02*
X166551000Y-96115000D01*
X166551000Y-98195000D02*
X166551000Y-99092000D01*
X166591000Y-95254000D02*
X166591000Y-96115000D01*
X166591000Y-98195000D02*
X166591000Y-99056000D01*
X166631000Y-95291000D02*
X166631000Y-96115000D01*
X166631000Y-98195000D02*
X166631000Y-99019000D01*
X166671000Y-95329000D02*
X166671000Y-96115000D01*
X166671000Y-98195000D02*
X166671000Y-98981000D01*
X166711000Y-95370000D02*
X166711000Y-96115000D01*
X166711000Y-98195000D02*
X166711000Y-98940000D01*
X166751000Y-95412000D02*
X166751000Y-96115000D01*
X166751000Y-98195000D02*
X166751000Y-98898000D01*
X166791000Y-95456000D02*
X166791000Y-96115000D01*
X166791000Y-98195000D02*
X166791000Y-98854000D01*
X166831000Y-95502000D02*
X166831000Y-96115000D01*
X166831000Y-98195000D02*
X166831000Y-98808000D01*
X166871000Y-95550000D02*
X166871000Y-98760000D01*
X166911000Y-95601000D02*
X166911000Y-98709000D01*
X166951000Y-95655000D02*
X166951000Y-98655000D01*
X166991000Y-95712000D02*
X166991000Y-98598000D01*
X167031000Y-95772000D02*
X167031000Y-98538000D01*
X167071000Y-95836000D02*
X167071000Y-98474000D01*
X167111000Y-95904000D02*
X167111000Y-98406000D01*
X167151000Y-95977000D02*
X167151000Y-98333000D01*
X167191000Y-96057000D02*
X167191000Y-98253000D01*
X167231000Y-96144000D02*
X167231000Y-98166000D01*
X167271000Y-96240000D02*
X167271000Y-98070000D01*
X167311000Y-96350000D02*
X167311000Y-97960000D01*
X167351000Y-96478000D02*
X167351000Y-97832000D01*
X167391000Y-96637000D02*
X167391000Y-97673000D01*
X167431000Y-96871000D02*
X167431000Y-97439000D01*
X162025225Y-95680000D02*
X162525225Y-95680000D01*
X162275225Y-95430000D02*
X162275225Y-95930000D01*
%TO.C,J6*%
D10*
X148236666Y-103442380D02*
X148236666Y-104156666D01*
X148189047Y-104299523D01*
X148093809Y-104394761D01*
X147950952Y-104442380D01*
X147855714Y-104442380D01*
X149141428Y-103442380D02*
X148950952Y-103442380D01*
X148855714Y-103490000D01*
X148808095Y-103537619D01*
X148712857Y-103680476D01*
X148665238Y-103870952D01*
X148665238Y-104251904D01*
X148712857Y-104347142D01*
X148760476Y-104394761D01*
X148855714Y-104442380D01*
X149046190Y-104442380D01*
X149141428Y-104394761D01*
X149189047Y-104347142D01*
X149236666Y-104251904D01*
X149236666Y-104013809D01*
X149189047Y-103918571D01*
X149141428Y-103870952D01*
X149046190Y-103823333D01*
X148855714Y-103823333D01*
X148760476Y-103870952D01*
X148712857Y-103918571D01*
X148665238Y-104013809D01*
%TO.C,J3*%
X132381666Y-82002380D02*
X132381666Y-82716666D01*
X132334047Y-82859523D01*
X132238809Y-82954761D01*
X132095952Y-83002380D01*
X132000714Y-83002380D01*
X132762619Y-82002380D02*
X133381666Y-82002380D01*
X133048333Y-82383333D01*
X133191190Y-82383333D01*
X133286428Y-82430952D01*
X133334047Y-82478571D01*
X133381666Y-82573809D01*
X133381666Y-82811904D01*
X133334047Y-82907142D01*
X133286428Y-82954761D01*
X133191190Y-83002380D01*
X132905476Y-83002380D01*
X132810238Y-82954761D01*
X132762619Y-82907142D01*
%TO.C,J4*%
X152701666Y-82002380D02*
X152701666Y-82716666D01*
X152654047Y-82859523D01*
X152558809Y-82954761D01*
X152415952Y-83002380D01*
X152320714Y-83002380D01*
X153606428Y-82335714D02*
X153606428Y-83002380D01*
X153368333Y-81954761D02*
X153130238Y-82669047D01*
X153749285Y-82669047D01*
%TO.C,J5*%
X138986666Y-103442380D02*
X138986666Y-104156666D01*
X138939047Y-104299523D01*
X138843809Y-104394761D01*
X138700952Y-104442380D01*
X138605714Y-104442380D01*
X139939047Y-103442380D02*
X139462857Y-103442380D01*
X139415238Y-103918571D01*
X139462857Y-103870952D01*
X139558095Y-103823333D01*
X139796190Y-103823333D01*
X139891428Y-103870952D01*
X139939047Y-103918571D01*
X139986666Y-104013809D01*
X139986666Y-104251904D01*
X139939047Y-104347142D01*
X139891428Y-104394761D01*
X139796190Y-104442380D01*
X139558095Y-104442380D01*
X139462857Y-104394761D01*
X139415238Y-104347142D01*
%TO.C,SW1*%
X163436666Y-81044761D02*
X163579523Y-81092380D01*
X163817619Y-81092380D01*
X163912857Y-81044761D01*
X163960476Y-80997142D01*
X164008095Y-80901904D01*
X164008095Y-80806666D01*
X163960476Y-80711428D01*
X163912857Y-80663809D01*
X163817619Y-80616190D01*
X163627142Y-80568571D01*
X163531904Y-80520952D01*
X163484285Y-80473333D01*
X163436666Y-80378095D01*
X163436666Y-80282857D01*
X163484285Y-80187619D01*
X163531904Y-80140000D01*
X163627142Y-80092380D01*
X163865238Y-80092380D01*
X164008095Y-80140000D01*
X164341428Y-80092380D02*
X164579523Y-81092380D01*
X164770000Y-80378095D01*
X164960476Y-81092380D01*
X165198571Y-80092380D01*
X166103333Y-81092380D02*
X165531904Y-81092380D01*
X165817619Y-81092380D02*
X165817619Y-80092380D01*
X165722380Y-80235238D01*
X165627142Y-80330476D01*
X165531904Y-80378095D01*
%TO.C,R1*%
X147942380Y-87796666D02*
X147466190Y-88130000D01*
X147942380Y-88368095D02*
X146942380Y-88368095D01*
X146942380Y-87987142D01*
X146990000Y-87891904D01*
X147037619Y-87844285D01*
X147132857Y-87796666D01*
X147275714Y-87796666D01*
X147370952Y-87844285D01*
X147418571Y-87891904D01*
X147466190Y-87987142D01*
X147466190Y-88368095D01*
X147942380Y-86844285D02*
X147942380Y-87415714D01*
X147942380Y-87130000D02*
X146942380Y-87130000D01*
X147085238Y-87225238D01*
X147180476Y-87320476D01*
X147228095Y-87415714D01*
%TO.C,R2*%
X147942380Y-98591666D02*
X147466190Y-98925000D01*
X147942380Y-99163095D02*
X146942380Y-99163095D01*
X146942380Y-98782142D01*
X146990000Y-98686904D01*
X147037619Y-98639285D01*
X147132857Y-98591666D01*
X147275714Y-98591666D01*
X147370952Y-98639285D01*
X147418571Y-98686904D01*
X147466190Y-98782142D01*
X147466190Y-99163095D01*
X147037619Y-98210714D02*
X146990000Y-98163095D01*
X146942380Y-98067857D01*
X146942380Y-97829761D01*
X146990000Y-97734523D01*
X147037619Y-97686904D01*
X147132857Y-97639285D01*
X147228095Y-97639285D01*
X147370952Y-97686904D01*
X147942380Y-98258333D01*
X147942380Y-97639285D01*
%TO.C,R3*%
X163028333Y-89522380D02*
X162695000Y-89046190D01*
X162456904Y-89522380D02*
X162456904Y-88522380D01*
X162837857Y-88522380D01*
X162933095Y-88570000D01*
X162980714Y-88617619D01*
X163028333Y-88712857D01*
X163028333Y-88855714D01*
X162980714Y-88950952D01*
X162933095Y-88998571D01*
X162837857Y-89046190D01*
X162456904Y-89046190D01*
X163361666Y-88522380D02*
X163980714Y-88522380D01*
X163647380Y-88903333D01*
X163790238Y-88903333D01*
X163885476Y-88950952D01*
X163933095Y-88998571D01*
X163980714Y-89093809D01*
X163980714Y-89331904D01*
X163933095Y-89427142D01*
X163885476Y-89474761D01*
X163790238Y-89522380D01*
X163504523Y-89522380D01*
X163409285Y-89474761D01*
X163361666Y-89427142D01*
%TO.C,D1*%
X164361904Y-100632380D02*
X164361904Y-99632380D01*
X164600000Y-99632380D01*
X164742857Y-99680000D01*
X164838095Y-99775238D01*
X164885714Y-99870476D01*
X164933333Y-100060952D01*
X164933333Y-100203809D01*
X164885714Y-100394285D01*
X164838095Y-100489523D01*
X164742857Y-100584761D01*
X164600000Y-100632380D01*
X164361904Y-100632380D01*
X165885714Y-100632380D02*
X165314285Y-100632380D01*
X165600000Y-100632380D02*
X165600000Y-99632380D01*
X165504761Y-99775238D01*
X165409523Y-99870476D01*
X165314285Y-99918095D01*
%TO.C,R4*%
X162207380Y-110656666D02*
X161731190Y-110990000D01*
X162207380Y-111228095D02*
X161207380Y-111228095D01*
X161207380Y-110847142D01*
X161255000Y-110751904D01*
X161302619Y-110704285D01*
X161397857Y-110656666D01*
X161540714Y-110656666D01*
X161635952Y-110704285D01*
X161683571Y-110751904D01*
X161731190Y-110847142D01*
X161731190Y-111228095D01*
X161540714Y-109799523D02*
X162207380Y-109799523D01*
X161159761Y-110037619D02*
X161874047Y-110275714D01*
X161874047Y-109656666D01*
%TO.C,U1*%
X139573095Y-80622380D02*
X139573095Y-81431904D01*
X139620714Y-81527142D01*
X139668333Y-81574761D01*
X139763571Y-81622380D01*
X139954047Y-81622380D01*
X140049285Y-81574761D01*
X140096904Y-81527142D01*
X140144523Y-81431904D01*
X140144523Y-80622380D01*
X141144523Y-81622380D02*
X140573095Y-81622380D01*
X140858809Y-81622380D02*
X140858809Y-80622380D01*
X140763571Y-80765238D01*
X140668333Y-80860476D01*
X140573095Y-80908095D01*
%TO.C,C1*%
X157877142Y-97341666D02*
X157924761Y-97389285D01*
X157972380Y-97532142D01*
X157972380Y-97627380D01*
X157924761Y-97770238D01*
X157829523Y-97865476D01*
X157734285Y-97913095D01*
X157543809Y-97960714D01*
X157400952Y-97960714D01*
X157210476Y-97913095D01*
X157115238Y-97865476D01*
X157020000Y-97770238D01*
X156972380Y-97627380D01*
X156972380Y-97532142D01*
X157020000Y-97389285D01*
X157067619Y-97341666D01*
X157972380Y-96389285D02*
X157972380Y-96960714D01*
X157972380Y-96675000D02*
X156972380Y-96675000D01*
X157115238Y-96770238D01*
X157210476Y-96865476D01*
X157258095Y-96960714D01*
%TO.C,C2*%
X164663333Y-93762142D02*
X164615714Y-93809761D01*
X164472857Y-93857380D01*
X164377619Y-93857380D01*
X164234761Y-93809761D01*
X164139523Y-93714523D01*
X164091904Y-93619285D01*
X164044285Y-93428809D01*
X164044285Y-93285952D01*
X164091904Y-93095476D01*
X164139523Y-93000238D01*
X164234761Y-92905000D01*
X164377619Y-92857380D01*
X164472857Y-92857380D01*
X164615714Y-92905000D01*
X164663333Y-92952619D01*
X165044285Y-92952619D02*
X165091904Y-92905000D01*
X165187142Y-92857380D01*
X165425238Y-92857380D01*
X165520476Y-92905000D01*
X165568095Y-92952619D01*
X165615714Y-93047857D01*
X165615714Y-93143095D01*
X165568095Y-93285952D01*
X164996666Y-93857380D01*
X165615714Y-93857380D01*
%TD*%
M02*
