%TF.GenerationSoftware,KiCad,Pcbnew,(5.1.9)-1*%
%TF.CreationDate,2022-08-08T16:48:10+09:00*%
%TF.ProjectId,Transmitter,5472616e-736d-4697-9474-65722e6b6963,rev?*%
%TF.SameCoordinates,Original*%
%TF.FileFunction,Copper,L1,Top*%
%TF.FilePolarity,Positive*%
%FSLAX46Y46*%
G04 Gerber Fmt 4.6, Leading zero omitted, Abs format (unit mm)*
G04 Created by KiCad (PCBNEW (5.1.9)-1) date 2022-08-08 16:48:10*
%MOMM*%
%LPD*%
G01*
G04 APERTURE LIST*
%TA.AperFunction,ComponentPad*%
%ADD10O,1.700000X2.000000*%
%TD*%
%TA.AperFunction,ComponentPad*%
%ADD11R,1.700000X1.700000*%
%TD*%
%TA.AperFunction,ComponentPad*%
%ADD12O,1.700000X1.700000*%
%TD*%
%TA.AperFunction,ComponentPad*%
%ADD13C,1.600000*%
%TD*%
%TA.AperFunction,ComponentPad*%
%ADD14O,1.600000X1.600000*%
%TD*%
%TA.AperFunction,ComponentPad*%
%ADD15R,1.800000X1.800000*%
%TD*%
%TA.AperFunction,ComponentPad*%
%ADD16C,1.800000*%
%TD*%
%TA.AperFunction,ComponentPad*%
%ADD17C,6.400000*%
%TD*%
%TA.AperFunction,ComponentPad*%
%ADD18C,0.800000*%
%TD*%
%TA.AperFunction,ComponentPad*%
%ADD19R,1.905000X2.000000*%
%TD*%
%TA.AperFunction,ComponentPad*%
%ADD20O,1.905000X2.000000*%
%TD*%
%TA.AperFunction,ComponentPad*%
%ADD21R,1.600000X1.600000*%
%TD*%
%TA.AperFunction,ViaPad*%
%ADD22C,0.800000*%
%TD*%
%TA.AperFunction,Conductor*%
%ADD23C,0.250000*%
%TD*%
G04 APERTURE END LIST*
%TO.P,J6,1*%
%TO.N,+3V3*%
%TA.AperFunction,ComponentPad*%
G36*
G01*
X146470000Y-108240000D02*
X146470000Y-106740000D01*
G75*
G02*
X146720000Y-106490000I250000J0D01*
G01*
X147920000Y-106490000D01*
G75*
G02*
X148170000Y-106740000I0J-250000D01*
G01*
X148170000Y-108240000D01*
G75*
G02*
X147920000Y-108490000I-250000J0D01*
G01*
X146720000Y-108490000D01*
G75*
G02*
X146470000Y-108240000I0J250000D01*
G01*
G37*
%TD.AperFunction*%
D10*
%TO.P,J6,2*%
%TO.N,ESS*%
X149820000Y-107490000D03*
%TD*%
D11*
%TO.P,J3,1*%
%TO.N,N/C*%
X130175000Y-82550000D03*
D12*
%TO.P,J3,2*%
X130175000Y-85090000D03*
%TO.P,J3,3*%
X130175000Y-87630000D03*
%TO.P,J3,4*%
X130175000Y-90170000D03*
%TO.P,J3,5*%
%TO.N,+3V3*%
X130175000Y-92710000D03*
%TO.P,J3,6*%
%TO.N,N/C*%
X130175000Y-95250000D03*
%TO.P,J3,7*%
X130175000Y-97790000D03*
%TO.P,J3,8*%
X130175000Y-100330000D03*
%TO.P,J3,9*%
%TO.N,+3V3*%
X130175000Y-102870000D03*
%TO.P,J3,10*%
%TO.N,N/C*%
X130175000Y-105410000D03*
%TD*%
%TO.P,J4,10*%
%TO.N,N/C*%
X155575000Y-105410000D03*
%TO.P,J4,9*%
%TO.N,GND*%
X155575000Y-102870000D03*
%TO.P,J4,8*%
%TO.N,N/C*%
X155575000Y-100330000D03*
%TO.P,J4,7*%
X155575000Y-97790000D03*
%TO.P,J4,6*%
X155575000Y-95250000D03*
%TO.P,J4,5*%
X155575000Y-92710000D03*
%TO.P,J4,4*%
X155575000Y-90170000D03*
%TO.P,J4,3*%
X155575000Y-87630000D03*
%TO.P,J4,2*%
X155575000Y-85090000D03*
D11*
%TO.P,J4,1*%
%TO.N,ESS*%
X155575000Y-82550000D03*
%TD*%
%TO.P,J5,1*%
%TO.N,PW_IN*%
%TA.AperFunction,ComponentPad*%
G36*
G01*
X137220000Y-108240000D02*
X137220000Y-106740000D01*
G75*
G02*
X137470000Y-106490000I250000J0D01*
G01*
X138670000Y-106490000D01*
G75*
G02*
X138920000Y-106740000I0J-250000D01*
G01*
X138920000Y-108240000D01*
G75*
G02*
X138670000Y-108490000I-250000J0D01*
G01*
X137470000Y-108490000D01*
G75*
G02*
X137220000Y-108240000I0J250000D01*
G01*
G37*
%TD.AperFunction*%
D10*
%TO.P,J5,2*%
%TO.N,GND*%
X140570000Y-107490000D03*
%TD*%
D13*
%TO.P,SW1,*%
%TO.N,*%
X166370000Y-87630000D03*
X166370000Y-82550000D03*
%TO.P,SW1,1*%
%TO.N,+5V*%
%TA.AperFunction,ComponentPad*%
G36*
G01*
X162090000Y-82150000D02*
X162090000Y-82950000D01*
G75*
G02*
X161690000Y-83350000I-400000J0D01*
G01*
X160890000Y-83350000D01*
G75*
G02*
X160490000Y-82950000I0J400000D01*
G01*
X160490000Y-82150000D01*
G75*
G02*
X160890000Y-81750000I400000J0D01*
G01*
X161690000Y-81750000D01*
G75*
G02*
X162090000Y-82150000I0J-400000D01*
G01*
G37*
%TD.AperFunction*%
%TO.P,SW1,2*%
%TO.N,PW_IN*%
X161290000Y-85090000D03*
%TO.P,SW1,3*%
%TO.N,N/C*%
X161290000Y-87630000D03*
%TD*%
%TO.P,R1,1*%
%TO.N,Net-(R1-Pad1)*%
X149860000Y-91440000D03*
D14*
%TO.P,R1,2*%
%TO.N,GND*%
X149860000Y-83820000D03*
%TD*%
D13*
%TO.P,R2,1*%
%TO.N,Net-(R2-Pad1)*%
X149860000Y-102235000D03*
D14*
%TO.P,R2,2*%
%TO.N,Net-(R1-Pad1)*%
X149860000Y-94615000D03*
%TD*%
D13*
%TO.P,R3,1*%
%TO.N,+5V*%
X159385000Y-91440000D03*
D14*
%TO.P,R3,2*%
%TO.N,Net-(R2-Pad1)*%
X167005000Y-91440000D03*
%TD*%
D15*
%TO.P,D1,1*%
%TO.N,GND*%
X163830000Y-104140000D03*
D16*
%TO.P,D1,2*%
%TO.N,LED*%
X166370000Y-104140000D03*
%TD*%
D17*
%TO.P,H1,1*%
%TO.N,N/C*%
X131000000Y-76000000D03*
D18*
X133400000Y-76000000D03*
X132697056Y-77697056D03*
X131000000Y-78400000D03*
X129302944Y-77697056D03*
X128600000Y-76000000D03*
X129302944Y-74302944D03*
X131000000Y-73600000D03*
X132697056Y-74302944D03*
%TD*%
%TO.P,H2,1*%
%TO.N,N/C*%
X132697056Y-111302944D03*
X131000000Y-110600000D03*
X129302944Y-111302944D03*
X128600000Y-113000000D03*
X129302944Y-114697056D03*
X131000000Y-115400000D03*
X132697056Y-114697056D03*
X133400000Y-113000000D03*
D17*
X131000000Y-113000000D03*
%TD*%
%TO.P,H3,1*%
%TO.N,N/C*%
X165000000Y-113000000D03*
D18*
X167400000Y-113000000D03*
X166697056Y-114697056D03*
X165000000Y-115400000D03*
X163302944Y-114697056D03*
X162600000Y-113000000D03*
X163302944Y-111302944D03*
X165000000Y-110600000D03*
X166697056Y-111302944D03*
%TD*%
%TO.P,H4,1*%
%TO.N,N/C*%
X166697056Y-74302944D03*
X165000000Y-73600000D03*
X163302944Y-74302944D03*
X162600000Y-76000000D03*
X163302944Y-77697056D03*
X165000000Y-78400000D03*
X166697056Y-77697056D03*
X167400000Y-76000000D03*
D17*
X165000000Y-76000000D03*
%TD*%
D13*
%TO.P,R4,1*%
%TO.N,LED*%
X159385000Y-106680000D03*
D14*
%TO.P,R4,2*%
%TO.N,ESS*%
X159385000Y-114300000D03*
%TD*%
D19*
%TO.P,U1,1*%
%TO.N,+5V*%
X137795000Y-101750000D03*
D20*
%TO.P,U1,2*%
%TO.N,GND*%
X140335000Y-101750000D03*
%TO.P,U1,3*%
%TO.N,+3V3*%
X142875000Y-101750000D03*
%TD*%
D13*
%TO.P,C1,1*%
%TO.N,+5V*%
X160020000Y-98425000D03*
%TO.P,C1,2*%
%TO.N,GND*%
X160020000Y-95925000D03*
%TD*%
D21*
%TO.P,C2,1*%
%TO.N,+3V3*%
X163830000Y-97155000D03*
D13*
%TO.P,C2,2*%
%TO.N,GND*%
X165830000Y-97155000D03*
%TD*%
D22*
%TO.N,GND*%
X146050000Y-99060000D03*
%TD*%
D23*
%TO.N,+5V*%
X161290000Y-82550000D02*
X163830000Y-85090000D01*
X163830000Y-85090000D02*
X163830000Y-90170000D01*
X163830000Y-90170000D02*
X162560000Y-91440000D01*
X162560000Y-91440000D02*
X159385000Y-91440000D01*
%TO.N,+3V3*%
X130175000Y-92710000D02*
X128905000Y-92710000D01*
X128905000Y-92710000D02*
X128270000Y-93345000D01*
X128270000Y-93345000D02*
X128270000Y-102235000D01*
X128905000Y-102870000D02*
X130175000Y-102870000D01*
X128270000Y-102235000D02*
X128905000Y-102870000D01*
X142875000Y-100330000D02*
X142875000Y-101750000D01*
X142240000Y-99695000D02*
X142875000Y-100330000D01*
X133350000Y-99695000D02*
X142240000Y-99695000D01*
X130175000Y-102870000D02*
X133350000Y-99695000D01*
X145900000Y-104775000D02*
X145022500Y-103897500D01*
X142875000Y-101750000D02*
X145022500Y-103897500D01*
X154940000Y-109220000D02*
X150495000Y-104775000D01*
X160020000Y-109220000D02*
X154940000Y-109220000D01*
X161925000Y-107315000D02*
X160020000Y-109220000D01*
X161925000Y-99060000D02*
X161925000Y-107315000D01*
X163830000Y-97155000D02*
X161925000Y-99060000D01*
X150495000Y-104775000D02*
X145900000Y-104775000D01*
X142875000Y-101750000D02*
X142875000Y-106045000D01*
X144320000Y-107490000D02*
X147320000Y-107490000D01*
X142875000Y-106045000D02*
X144320000Y-107490000D01*
%TO.N,Net-(R1-Pad1)*%
X149860000Y-94615000D02*
X149860000Y-91440000D01*
%TO.N,Net-(R2-Pad1)*%
X167005000Y-91440000D02*
X164465000Y-93980000D01*
X164465000Y-93980000D02*
X154305000Y-93980000D01*
X154305000Y-93980000D02*
X149860000Y-98425000D01*
X149860000Y-98425000D02*
X149860000Y-102235000D01*
%TO.N,ESS*%
X156630000Y-114300000D02*
X149820000Y-107490000D01*
X159385000Y-114300000D02*
X156630000Y-114300000D01*
%TO.N,GND*%
X163830000Y-104140000D02*
X163830000Y-102235000D01*
X165830000Y-100235000D02*
X165830000Y-97155000D01*
X163830000Y-102235000D02*
X165830000Y-100235000D01*
X140335000Y-107255000D02*
X140570000Y-107490000D01*
X140335000Y-101750000D02*
X140335000Y-107255000D01*
X160020000Y-95925000D02*
X165140000Y-95925000D01*
X165830000Y-96615000D02*
X165830000Y-97155000D01*
X165140000Y-95925000D02*
X165830000Y-96615000D01*
X155575000Y-102870000D02*
X151765000Y-102870000D01*
X151765000Y-102870000D02*
X150495000Y-104140000D01*
X150495000Y-104140000D02*
X149860000Y-104140000D01*
X146050000Y-99060000D02*
X146050000Y-102235000D01*
X146050000Y-102235000D02*
X147320000Y-103505000D01*
X147320000Y-103505000D02*
X147955000Y-104140000D01*
X147955000Y-104140000D02*
X149860000Y-104140000D01*
%TD*%
M02*
