%TF.GenerationSoftware,KiCad,Pcbnew,(5.1.9)-1*%
%TF.CreationDate,2022-07-09T00:31:52+09:00*%
%TF.ProjectId,Receiver,52656365-6976-4657-922e-6b696361645f,rev?*%
%TF.SameCoordinates,Original*%
%TF.FileFunction,Copper,L2,Bot*%
%TF.FilePolarity,Positive*%
%FSLAX46Y46*%
G04 Gerber Fmt 4.6, Leading zero omitted, Abs format (unit mm)*
G04 Created by KiCad (PCBNEW (5.1.9)-1) date 2022-07-09 00:31:52*
%MOMM*%
%LPD*%
G01*
G04 APERTURE LIST*
%TA.AperFunction,ComponentPad*%
%ADD10C,6.400000*%
%TD*%
%TA.AperFunction,ComponentPad*%
%ADD11C,0.800000*%
%TD*%
%TA.AperFunction,ComponentPad*%
%ADD12R,1.700000X1.700000*%
%TD*%
%TA.AperFunction,ComponentPad*%
%ADD13O,1.700000X1.700000*%
%TD*%
%TA.AperFunction,ComponentPad*%
%ADD14O,1.700000X2.000000*%
%TD*%
%TA.AperFunction,ComponentPad*%
%ADD15R,1.600000X1.600000*%
%TD*%
%TA.AperFunction,ComponentPad*%
%ADD16O,1.600000X1.600000*%
%TD*%
%TA.AperFunction,ComponentPad*%
%ADD17R,1.800000X1.800000*%
%TD*%
%TA.AperFunction,ComponentPad*%
%ADD18C,1.800000*%
%TD*%
%TA.AperFunction,ComponentPad*%
%ADD19C,1.524000*%
%TD*%
%TA.AperFunction,ComponentPad*%
%ADD20R,1.905000X2.000000*%
%TD*%
%TA.AperFunction,ComponentPad*%
%ADD21O,1.905000X2.000000*%
%TD*%
%TA.AperFunction,ComponentPad*%
%ADD22C,1.600000*%
%TD*%
%TA.AperFunction,ViaPad*%
%ADD23C,0.800000*%
%TD*%
%TA.AperFunction,Conductor*%
%ADD24C,0.250000*%
%TD*%
G04 APERTURE END LIST*
D10*
%TO.P,REF\u002A\u002A,1*%
%TO.N,N/C*%
X177749200Y-148437600D03*
D11*
X180149200Y-148437600D03*
X179446256Y-150134656D03*
X177749200Y-150837600D03*
X176052144Y-150134656D03*
X175349200Y-148437600D03*
X176052144Y-146740544D03*
X177749200Y-146037600D03*
X179446256Y-146740544D03*
%TD*%
%TO.P,REF\u002A\u002A,1*%
%TO.N,N/C*%
X179497056Y-83596144D03*
X177800000Y-82893200D03*
X176102944Y-83596144D03*
X175400000Y-85293200D03*
X176102944Y-86990256D03*
X177800000Y-87693200D03*
X179497056Y-86990256D03*
X180200000Y-85293200D03*
D10*
X177800000Y-85293200D03*
%TD*%
D12*
%TO.P,J3,1*%
%TO.N,N/C*%
X104540000Y-103580000D03*
D13*
%TO.P,J3,2*%
X104540000Y-106120000D03*
%TO.P,J3,3*%
X104540000Y-108660000D03*
%TO.P,J3,4*%
X104540000Y-111200000D03*
%TO.P,J3,5*%
X104540000Y-113740000D03*
%TO.P,J3,6*%
X104540000Y-116280000D03*
%TO.P,J3,7*%
X104540000Y-118820000D03*
%TO.P,J3,8*%
X104540000Y-121360000D03*
%TO.P,J3,9*%
%TO.N,+3V3*%
X104540000Y-123900000D03*
%TO.P,J3,10*%
%TO.N,N/C*%
X104540000Y-126440000D03*
%TD*%
%TO.P,J4,10*%
%TO.N,N/C*%
X129940000Y-126440000D03*
%TO.P,J4,9*%
%TO.N,GND*%
X129940000Y-123900000D03*
%TO.P,J4,8*%
%TO.N,N/C*%
X129940000Y-121360000D03*
%TO.P,J4,7*%
X129940000Y-118820000D03*
%TO.P,J4,6*%
X129940000Y-116280000D03*
%TO.P,J4,5*%
%TO.N,+3V3*%
X129940000Y-113740000D03*
%TO.P,J4,4*%
%TO.N,N/C*%
X129940000Y-111200000D03*
%TO.P,J4,3*%
X129940000Y-108660000D03*
%TO.P,J4,2*%
X129940000Y-106120000D03*
D12*
%TO.P,J4,1*%
%TO.N,OUT1*%
X129940000Y-103580000D03*
%TD*%
%TO.P,J5,1*%
%TO.N,+5V*%
%TA.AperFunction,ComponentPad*%
G36*
G01*
X122340000Y-144260000D02*
X122340000Y-142760000D01*
G75*
G02*
X122590000Y-142510000I250000J0D01*
G01*
X123790000Y-142510000D01*
G75*
G02*
X124040000Y-142760000I0J-250000D01*
G01*
X124040000Y-144260000D01*
G75*
G02*
X123790000Y-144510000I-250000J0D01*
G01*
X122590000Y-144510000D01*
G75*
G02*
X122340000Y-144260000I0J250000D01*
G01*
G37*
%TD.AperFunction*%
D14*
%TO.P,J5,2*%
%TO.N,GND*%
X125690000Y-143510000D03*
%TD*%
%TO.P,J6,1*%
%TO.N,Net-(J6-Pad1)*%
%TA.AperFunction,ComponentPad*%
G36*
G01*
X112180000Y-144260000D02*
X112180000Y-142760000D01*
G75*
G02*
X112430000Y-142510000I250000J0D01*
G01*
X113630000Y-142510000D01*
G75*
G02*
X113880000Y-142760000I0J-250000D01*
G01*
X113880000Y-144260000D01*
G75*
G02*
X113630000Y-144510000I-250000J0D01*
G01*
X112430000Y-144510000D01*
G75*
G02*
X112180000Y-144260000I0J250000D01*
G01*
G37*
%TD.AperFunction*%
%TO.P,J6,2*%
%TO.N,Net-(D2-Pad2)*%
X115530000Y-143510000D03*
%TD*%
D15*
%TO.P,U1,1*%
%TO.N,OUT*%
X137160000Y-97790000D03*
D16*
%TO.P,U1,3*%
%TO.N,Net-(D1-Pad2)*%
X144780000Y-100330000D03*
%TO.P,U1,2*%
%TO.N,GND*%
X137160000Y-100330000D03*
%TO.P,U1,4*%
%TO.N,Net-(D2-Pad2)*%
X144780000Y-97790000D03*
%TD*%
D17*
%TO.P,D1,1*%
%TO.N,Net-(D1-Pad1)*%
X160220000Y-86120000D03*
D18*
%TO.P,D1,2*%
%TO.N,Net-(D1-Pad2)*%
X160220000Y-83580000D03*
%TD*%
%TO.P,D2,2*%
%TO.N,Net-(D2-Pad2)*%
X167220000Y-83580000D03*
D17*
%TO.P,D2,1*%
%TO.N,Net-(D2-Pad1)*%
X167220000Y-86120000D03*
%TD*%
D10*
%TO.P,H1,1*%
%TO.N,N/C*%
X104140000Y-85090000D03*
D11*
X106540000Y-85090000D03*
X105837056Y-86787056D03*
X104140000Y-87490000D03*
X102442944Y-86787056D03*
X101740000Y-85090000D03*
X102442944Y-83392944D03*
X104140000Y-82690000D03*
X105837056Y-83392944D03*
%TD*%
%TO.P,H2,1*%
%TO.N,N/C*%
X105837056Y-146892944D03*
X104140000Y-146190000D03*
X102442944Y-146892944D03*
X101740000Y-148590000D03*
X102442944Y-150287056D03*
X104140000Y-150990000D03*
X105837056Y-150287056D03*
X106540000Y-148590000D03*
D10*
X104140000Y-148590000D03*
%TD*%
%TO.P,H3,1*%
%TO.N,N/C*%
X190500000Y-148590000D03*
D11*
X192900000Y-148590000D03*
X192197056Y-150287056D03*
X190500000Y-150990000D03*
X188802944Y-150287056D03*
X188100000Y-148590000D03*
X188802944Y-146892944D03*
X190500000Y-146190000D03*
X192197056Y-146892944D03*
%TD*%
%TO.P,H4,1*%
%TO.N,N/C*%
X192197056Y-83392944D03*
X190500000Y-82690000D03*
X188802944Y-83392944D03*
X188100000Y-85090000D03*
X188802944Y-86787056D03*
X190500000Y-87490000D03*
X192197056Y-86787056D03*
X192900000Y-85090000D03*
D10*
X190500000Y-85090000D03*
%TD*%
D15*
%TO.P,SW2,1*%
%TO.N,+3V3*%
X137160000Y-119380000D03*
D16*
%TO.P,SW2,3*%
%TO.N,OUT4*%
X144780000Y-121920000D03*
%TO.P,SW2,2*%
%TO.N,+3V3*%
X137160000Y-121920000D03*
%TO.P,SW2,4*%
%TO.N,OUT3*%
X144780000Y-119380000D03*
%TD*%
D19*
%TO.P,U2,4*%
%TO.N,N/C*%
X149936200Y-113055400D03*
%TO.P,U2,5*%
X149936200Y-115595400D03*
%TO.P,U2,6*%
%TO.N,OUT2*%
X149936200Y-118135400D03*
%TO.P,U2,7*%
%TO.N,N/C*%
X149936200Y-120675400D03*
%TO.P,U2,8*%
X149936200Y-123215400D03*
%TO.P,U2,9*%
X149936200Y-125755400D03*
%TO.P,U2,10*%
X149936200Y-128295400D03*
%TO.P,U2,3*%
X149936200Y-110515400D03*
%TO.P,U2,2*%
%TO.N,+5V*%
X149936200Y-107975400D03*
%TO.P,U2,1*%
%TO.N,GND*%
X149936200Y-105435400D03*
%TD*%
D20*
%TO.P,U3,1*%
%TO.N,+5V*%
X113030000Y-101600000D03*
D21*
%TO.P,U3,2*%
%TO.N,+3V3*%
X115570000Y-101600000D03*
%TO.P,U3,3*%
%TO.N,GND*%
X118110000Y-101600000D03*
%TD*%
D15*
%TO.P,U4,1*%
%TO.N,OUT1*%
X134620000Y-148590000D03*
D16*
%TO.P,U4,8*%
%TO.N,N/C*%
X149860000Y-140970000D03*
%TO.P,U4,2*%
%TO.N,OUT3*%
X137160000Y-148590000D03*
%TO.P,U4,9*%
%TO.N,N/C*%
X147320000Y-140970000D03*
%TO.P,U4,3*%
%TO.N,OUT5*%
X139700000Y-148590000D03*
%TO.P,U4,10*%
%TO.N,N/C*%
X144780000Y-140970000D03*
%TO.P,U4,4*%
%TO.N,OUT2*%
X142240000Y-148590000D03*
%TO.P,U4,11*%
%TO.N,N/C*%
X142240000Y-140970000D03*
%TO.P,U4,5*%
%TO.N,OUT4*%
X144780000Y-148590000D03*
%TO.P,U4,12*%
%TO.N,N/C*%
X139700000Y-140970000D03*
%TO.P,U4,6*%
%TO.N,OUT6*%
X147320000Y-148590000D03*
%TO.P,U4,13*%
%TO.N,N/C*%
X137160000Y-140970000D03*
%TO.P,U4,7*%
X149860000Y-148590000D03*
%TO.P,U4,14*%
%TO.N,+5V*%
X134620000Y-140970000D03*
%TD*%
%TO.P,U5,14*%
%TO.N,+5V*%
X133350000Y-83820000D03*
%TO.P,U5,7*%
%TO.N,N/C*%
X148590000Y-91440000D03*
%TO.P,U5,13*%
X135890000Y-83820000D03*
%TO.P,U5,6*%
X146050000Y-91440000D03*
%TO.P,U5,12*%
X138430000Y-83820000D03*
%TO.P,U5,5*%
X143510000Y-91440000D03*
%TO.P,U5,11*%
X140970000Y-83820000D03*
%TO.P,U5,4*%
X140970000Y-91440000D03*
%TO.P,U5,10*%
X143510000Y-83820000D03*
%TO.P,U5,3*%
%TO.N,OUT*%
X138430000Y-91440000D03*
%TO.P,U5,9*%
%TO.N,N/C*%
X146050000Y-83820000D03*
%TO.P,U5,2*%
%TO.N,OUT6*%
X135890000Y-91440000D03*
%TO.P,U5,8*%
%TO.N,N/C*%
X148590000Y-83820000D03*
D15*
%TO.P,U5,1*%
%TO.N,OUT5*%
X133350000Y-91440000D03*
%TD*%
D22*
%TO.P,SW1,*%
%TO.N,*%
X102870000Y-135890000D03*
X102870000Y-140970000D03*
%TO.P,SW1,1*%
%TO.N,Net-(D1-Pad1)*%
%TA.AperFunction,ComponentPad*%
G36*
G01*
X107150000Y-141370000D02*
X107150000Y-140570000D01*
G75*
G02*
X107550000Y-140170000I400000J0D01*
G01*
X108350000Y-140170000D01*
G75*
G02*
X108750000Y-140570000I0J-400000D01*
G01*
X108750000Y-141370000D01*
G75*
G02*
X108350000Y-141770000I-400000J0D01*
G01*
X107550000Y-141770000D01*
G75*
G02*
X107150000Y-141370000I0J400000D01*
G01*
G37*
%TD.AperFunction*%
%TO.P,SW1,2*%
%TO.N,Net-(J6-Pad1)*%
X107950000Y-138430000D03*
%TO.P,SW1,3*%
%TO.N,Net-(D2-Pad1)*%
X107950000Y-135890000D03*
%TD*%
D23*
%TO.N,Net-(D1-Pad2)*%
X150368000Y-94742000D03*
%TO.N,Net-(D2-Pad1)*%
X167220000Y-142201000D03*
%TO.N,GND*%
X126873000Y-112903000D03*
X126873000Y-120777000D03*
%TO.N,OUT4*%
X146050000Y-143891000D03*
%TO.N,OUT5*%
X133350000Y-96266000D03*
X133350000Y-101346000D03*
%TO.N,OUT6*%
X135255000Y-96901000D03*
X135763000Y-102108000D03*
%TD*%
D24*
%TO.N,Net-(D1-Pad1)*%
X153098500Y-150050500D02*
X160220000Y-142929000D01*
X125920500Y-150050500D02*
X153098500Y-150050500D01*
X125857000Y-150114000D02*
X125920500Y-150050500D01*
X113919000Y-150114000D02*
X125857000Y-150114000D01*
X160220000Y-142929000D02*
X160220000Y-86120000D01*
X107950000Y-144145000D02*
X113919000Y-150114000D01*
X107950000Y-140970000D02*
X107950000Y-144145000D01*
%TO.N,Net-(D1-Pad2)*%
X144780000Y-100330000D02*
X150368000Y-94742000D01*
%TO.N,Net-(D2-Pad1)*%
X167220000Y-86120000D02*
X167220000Y-142201000D01*
%TO.N,GND*%
X118110000Y-101600000D02*
X125730000Y-101600000D01*
X127000000Y-100330000D02*
X137160000Y-100330000D01*
X125730000Y-101600000D02*
X127000000Y-100330000D01*
X125730000Y-101600000D02*
X126873000Y-102743000D01*
X126873000Y-102743000D02*
X126873000Y-112903000D01*
X126873000Y-120777000D02*
X126873000Y-122428000D01*
X128345000Y-123900000D02*
X129940000Y-123900000D01*
X126873000Y-122428000D02*
X128345000Y-123900000D01*
X142265400Y-105435400D02*
X149936200Y-105435400D01*
X137160000Y-100330000D02*
X142265400Y-105435400D01*
X125690000Y-126555000D02*
X125690000Y-143510000D01*
X128345000Y-123900000D02*
X125690000Y-126555000D01*
%TO.N,+5V*%
X133350000Y-83820000D02*
X128270000Y-83820000D01*
X113030000Y-99060000D02*
X113030000Y-101600000D01*
X128270000Y-83820000D02*
X113030000Y-99060000D01*
X152273000Y-105638600D02*
X149936200Y-107975400D01*
X152273000Y-90170000D02*
X152273000Y-105638600D01*
X147701000Y-85598000D02*
X152273000Y-90170000D01*
X135128000Y-85598000D02*
X147701000Y-85598000D01*
X133350000Y-83820000D02*
X135128000Y-85598000D01*
X134620000Y-143764000D02*
X134620000Y-140970000D01*
X132842000Y-145542000D02*
X134620000Y-143764000D01*
X124206000Y-145542000D02*
X132842000Y-145542000D01*
X123190000Y-144526000D02*
X124206000Y-145542000D01*
X123190000Y-143510000D02*
X123190000Y-144526000D01*
%TO.N,Net-(J6-Pad1)*%
X107950000Y-138430000D02*
X110109000Y-138430000D01*
X113030000Y-141351000D02*
X113030000Y-143510000D01*
X110109000Y-138430000D02*
X113030000Y-141351000D01*
%TO.N,+3V3*%
X105970000Y-123900000D02*
X104540000Y-123900000D01*
X132969000Y-119380000D02*
X131191000Y-117602000D01*
X137160000Y-119380000D02*
X132969000Y-119380000D01*
X115570000Y-101600000D02*
X115570000Y-109855000D01*
X115570000Y-109855000D02*
X115570000Y-110363000D01*
X111569500Y-114363500D02*
X111569500Y-118300500D01*
X115570000Y-110363000D02*
X111569500Y-114363500D01*
X111569500Y-118300500D02*
X105970000Y-123900000D01*
X115570000Y-110363000D02*
X122809000Y-117602000D01*
X131191000Y-117602000D02*
X122809000Y-117602000D01*
%TO.N,OUT4*%
X144780000Y-121920000D02*
X144780000Y-133223000D01*
X144780000Y-133223000D02*
X146050000Y-134493000D01*
X146050000Y-134493000D02*
X146050000Y-141224000D01*
X146050000Y-141224000D02*
X146050000Y-143891000D01*
%TO.N,OUT*%
X138430000Y-91440000D02*
X138430000Y-94361000D01*
X137160000Y-95631000D02*
X137160000Y-97790000D01*
X138430000Y-94361000D02*
X137160000Y-95631000D01*
%TO.N,OUT5*%
X133350000Y-91440000D02*
X133350000Y-96266000D01*
X140970000Y-140081000D02*
X140970000Y-147320000D01*
X140825001Y-139936001D02*
X140970000Y-140081000D01*
X140970000Y-147320000D02*
X139700000Y-148590000D01*
X140825001Y-119743001D02*
X140825001Y-139936001D01*
X133985000Y-112903000D02*
X140825001Y-119743001D01*
X133985000Y-101981000D02*
X133985000Y-112903000D01*
X133350000Y-101346000D02*
X133985000Y-101981000D01*
%TO.N,OUT6*%
X135890000Y-91440000D02*
X135890000Y-96266000D01*
X135890000Y-96266000D02*
X135255000Y-96901000D01*
X135763000Y-102108000D02*
X135763000Y-112268000D01*
X143365001Y-119870001D02*
X143365001Y-139936001D01*
X135763000Y-112268000D02*
X143365001Y-119870001D01*
X143365001Y-139936001D02*
X143510000Y-140081000D01*
X143510000Y-140081000D02*
X143510000Y-145034000D01*
X143510000Y-145034000D02*
X145034000Y-146558000D01*
X145288000Y-146558000D02*
X147320000Y-148590000D01*
X145034000Y-146558000D02*
X145288000Y-146558000D01*
%TD*%
M02*
