M48
; DRILL file {KiCad (5.1.9)-1} date 07/09/22 00:31:54
; FORMAT={-:-/ absolute / metric / decimal}
; #@! TF.CreationDate,2022-07-09T00:31:54+09:00
; #@! TF.GenerationSoftware,Kicad,Pcbnew,(5.1.9)-1
FMAT,2
METRIC
T1C0.400
T2C0.500
T3C0.762
T4C0.800
T5C0.890
T6C0.900
T7C1.000
T8C1.100
T9C3.200
T10C3.500
%
G90
G05
T1
X126.873Y-112.903
X126.873Y-120.777
X133.35Y-96.266
X133.35Y-101.346
X135.255Y-96.901
X135.763Y-102.108
X146.05Y-143.891
X150.368Y-94.742
X167.22Y-142.201
T2
X101.74Y-85.09
X101.74Y-148.59
X102.443Y-83.393
X102.443Y-86.787
X102.443Y-146.893
X102.443Y-150.287
X104.14Y-82.69
X104.14Y-87.49
X104.14Y-146.19
X104.14Y-150.99
X105.837Y-83.393
X105.837Y-86.787
X105.837Y-146.893
X105.837Y-150.287
X106.54Y-85.09
X106.54Y-148.59
X175.349Y-148.438
X175.4Y-85.293
X176.052Y-146.741
X176.052Y-150.135
X176.103Y-83.596
X176.103Y-86.99
X177.749Y-146.038
X177.749Y-150.838
X177.8Y-82.893
X177.8Y-87.693
X179.446Y-146.741
X179.446Y-150.135
X179.497Y-83.596
X179.497Y-86.99
X180.149Y-148.438
X180.2Y-85.293
X188.1Y-85.09
X188.1Y-148.59
X188.803Y-83.393
X188.803Y-86.787
X188.803Y-146.893
X188.803Y-150.287
X190.5Y-82.69
X190.5Y-87.49
X190.5Y-146.19
X190.5Y-150.99
X192.197Y-83.393
X192.197Y-86.787
X192.197Y-146.893
X192.197Y-150.287
X192.9Y-85.09
X192.9Y-148.59
T3
X149.936Y-105.435
X149.936Y-107.975
X149.936Y-110.515
X149.936Y-113.055
X149.936Y-115.595
X149.936Y-118.135
X149.936Y-120.675
X149.936Y-123.215
X149.936Y-125.755
X149.936Y-128.295
T4
X133.35Y-83.82
X133.35Y-91.44
X134.62Y-140.97
X134.62Y-148.59
X135.89Y-83.82
X135.89Y-91.44
X137.16Y-97.79
X137.16Y-100.33
X137.16Y-119.38
X137.16Y-121.92
X137.16Y-140.97
X137.16Y-148.59
X138.43Y-83.82
X138.43Y-91.44
X139.7Y-140.97
X139.7Y-148.59
X140.97Y-83.82
X140.97Y-91.44
X142.24Y-140.97
X142.24Y-148.59
X143.51Y-83.82
X143.51Y-91.44
X144.78Y-97.79
X144.78Y-100.33
X144.78Y-119.38
X144.78Y-121.92
X144.78Y-140.97
X144.78Y-148.59
X146.05Y-83.82
X146.05Y-91.44
X147.32Y-140.97
X147.32Y-148.59
X148.59Y-83.82
X148.59Y-91.44
X149.86Y-140.97
X149.86Y-148.59
T5
X102.87Y-135.89
X102.87Y-140.97
X107.95Y-135.89
X107.95Y-138.43
X107.95Y-140.97
T6
X160.22Y-83.58
X160.22Y-86.12
X167.22Y-83.58
X167.22Y-86.12
T7
X104.54Y-103.58
X104.54Y-106.12
X104.54Y-108.66
X104.54Y-111.2
X104.54Y-113.74
X104.54Y-116.28
X104.54Y-118.82
X104.54Y-121.36
X104.54Y-123.9
X104.54Y-126.44
X113.03Y-143.51
X115.53Y-143.51
X123.19Y-143.51
X125.69Y-143.51
X129.94Y-103.58
X129.94Y-106.12
X129.94Y-108.66
X129.94Y-111.2
X129.94Y-113.74
X129.94Y-116.28
X129.94Y-118.82
X129.94Y-121.36
X129.94Y-123.9
X129.94Y-126.44
T8
X113.03Y-101.6
X115.57Y-101.6
X118.11Y-101.6
T9
X104.14Y-85.09
X104.14Y-148.59
X177.749Y-148.438
X177.8Y-85.293
X190.5Y-85.09
X190.5Y-148.59
T10
X115.57Y-84.94
T0
M30
