%TF.GenerationSoftware,KiCad,Pcbnew,(5.1.9)-1*%
%TF.CreationDate,2022-07-09T16:27:42+09:00*%
%TF.ProjectId,Receiver,52656365-6976-4657-922e-6b696361645f,rev?*%
%TF.SameCoordinates,Original*%
%TF.FileFunction,Copper,L1,Top*%
%TF.FilePolarity,Positive*%
%FSLAX46Y46*%
G04 Gerber Fmt 4.6, Leading zero omitted, Abs format (unit mm)*
G04 Created by KiCad (PCBNEW (5.1.9)-1) date 2022-07-09 16:27:42*
%MOMM*%
%LPD*%
G01*
G04 APERTURE LIST*
%TA.AperFunction,ComponentPad*%
%ADD10C,6.400000*%
%TD*%
%TA.AperFunction,ComponentPad*%
%ADD11C,0.800000*%
%TD*%
%TA.AperFunction,ComponentPad*%
%ADD12R,1.700000X1.700000*%
%TD*%
%TA.AperFunction,ComponentPad*%
%ADD13O,1.700000X1.700000*%
%TD*%
%TA.AperFunction,ComponentPad*%
%ADD14O,1.700000X2.000000*%
%TD*%
%TA.AperFunction,ComponentPad*%
%ADD15R,1.600000X1.600000*%
%TD*%
%TA.AperFunction,ComponentPad*%
%ADD16O,1.600000X1.600000*%
%TD*%
%TA.AperFunction,ComponentPad*%
%ADD17R,1.800000X1.800000*%
%TD*%
%TA.AperFunction,ComponentPad*%
%ADD18C,1.800000*%
%TD*%
%TA.AperFunction,ComponentPad*%
%ADD19C,1.524000*%
%TD*%
%TA.AperFunction,ComponentPad*%
%ADD20R,1.905000X2.000000*%
%TD*%
%TA.AperFunction,ComponentPad*%
%ADD21O,1.905000X2.000000*%
%TD*%
%TA.AperFunction,ComponentPad*%
%ADD22C,1.600000*%
%TD*%
%TA.AperFunction,ViaPad*%
%ADD23C,0.800000*%
%TD*%
%TA.AperFunction,Conductor*%
%ADD24C,0.250000*%
%TD*%
G04 APERTURE END LIST*
D10*
%TO.P,REF\u002A\u002A,1*%
%TO.N,N/C*%
X177749200Y-148437600D03*
D11*
X180149200Y-148437600D03*
X179446256Y-150134656D03*
X177749200Y-150837600D03*
X176052144Y-150134656D03*
X175349200Y-148437600D03*
X176052144Y-146740544D03*
X177749200Y-146037600D03*
X179446256Y-146740544D03*
%TD*%
%TO.P,REF\u002A\u002A,1*%
%TO.N,N/C*%
X179497056Y-83596144D03*
X177800000Y-82893200D03*
X176102944Y-83596144D03*
X175400000Y-85293200D03*
X176102944Y-86990256D03*
X177800000Y-87693200D03*
X179497056Y-86990256D03*
X180200000Y-85293200D03*
D10*
X177800000Y-85293200D03*
%TD*%
D12*
%TO.P,J3,1*%
%TO.N,N/C*%
X104540000Y-103580000D03*
D13*
%TO.P,J3,2*%
X104540000Y-106120000D03*
%TO.P,J3,3*%
X104540000Y-108660000D03*
%TO.P,J3,4*%
X104540000Y-111200000D03*
%TO.P,J3,5*%
X104540000Y-113740000D03*
%TO.P,J3,6*%
X104540000Y-116280000D03*
%TO.P,J3,7*%
X104540000Y-118820000D03*
%TO.P,J3,8*%
X104540000Y-121360000D03*
%TO.P,J3,9*%
%TO.N,+3V3*%
X104540000Y-123900000D03*
%TO.P,J3,10*%
%TO.N,N/C*%
X104540000Y-126440000D03*
%TD*%
%TO.P,J4,10*%
%TO.N,N/C*%
X129940000Y-126440000D03*
%TO.P,J4,9*%
%TO.N,GND*%
X129940000Y-123900000D03*
%TO.P,J4,8*%
%TO.N,N/C*%
X129940000Y-121360000D03*
%TO.P,J4,7*%
X129940000Y-118820000D03*
%TO.P,J4,6*%
X129940000Y-116280000D03*
%TO.P,J4,5*%
%TO.N,+3V3*%
X129940000Y-113740000D03*
%TO.P,J4,4*%
%TO.N,N/C*%
X129940000Y-111200000D03*
%TO.P,J4,3*%
X129940000Y-108660000D03*
%TO.P,J4,2*%
X129940000Y-106120000D03*
D12*
%TO.P,J4,1*%
%TO.N,OUT1*%
X129940000Y-103580000D03*
%TD*%
%TO.P,J5,1*%
%TO.N,+5V*%
%TA.AperFunction,ComponentPad*%
G36*
G01*
X122340000Y-144260000D02*
X122340000Y-142760000D01*
G75*
G02*
X122590000Y-142510000I250000J0D01*
G01*
X123790000Y-142510000D01*
G75*
G02*
X124040000Y-142760000I0J-250000D01*
G01*
X124040000Y-144260000D01*
G75*
G02*
X123790000Y-144510000I-250000J0D01*
G01*
X122590000Y-144510000D01*
G75*
G02*
X122340000Y-144260000I0J250000D01*
G01*
G37*
%TD.AperFunction*%
D14*
%TO.P,J5,2*%
%TO.N,GND*%
X125690000Y-143510000D03*
%TD*%
%TO.P,J6,1*%
%TO.N,Net-(J6-Pad1)*%
%TA.AperFunction,ComponentPad*%
G36*
G01*
X112180000Y-144260000D02*
X112180000Y-142760000D01*
G75*
G02*
X112430000Y-142510000I250000J0D01*
G01*
X113630000Y-142510000D01*
G75*
G02*
X113880000Y-142760000I0J-250000D01*
G01*
X113880000Y-144260000D01*
G75*
G02*
X113630000Y-144510000I-250000J0D01*
G01*
X112430000Y-144510000D01*
G75*
G02*
X112180000Y-144260000I0J250000D01*
G01*
G37*
%TD.AperFunction*%
%TO.P,J6,2*%
%TO.N,Net-(D2-Pad2)*%
X115530000Y-143510000D03*
%TD*%
D15*
%TO.P,U1,1*%
%TO.N,OUT*%
X137160000Y-97790000D03*
D16*
%TO.P,U1,3*%
%TO.N,Net-(D1-Pad2)*%
X144780000Y-100330000D03*
%TO.P,U1,2*%
%TO.N,GND*%
X137160000Y-100330000D03*
%TO.P,U1,4*%
%TO.N,Net-(D2-Pad2)*%
X144780000Y-97790000D03*
%TD*%
D17*
%TO.P,D1,1*%
%TO.N,Net-(D1-Pad1)*%
X160220000Y-86120000D03*
D18*
%TO.P,D1,2*%
%TO.N,Net-(D1-Pad2)*%
X160220000Y-83580000D03*
%TD*%
%TO.P,D2,2*%
%TO.N,Net-(D2-Pad2)*%
X167220000Y-83580000D03*
D17*
%TO.P,D2,1*%
%TO.N,Net-(D2-Pad1)*%
X167220000Y-86120000D03*
%TD*%
D10*
%TO.P,H1,1*%
%TO.N,N/C*%
X104140000Y-85090000D03*
D11*
X106540000Y-85090000D03*
X105837056Y-86787056D03*
X104140000Y-87490000D03*
X102442944Y-86787056D03*
X101740000Y-85090000D03*
X102442944Y-83392944D03*
X104140000Y-82690000D03*
X105837056Y-83392944D03*
%TD*%
%TO.P,H2,1*%
%TO.N,N/C*%
X105837056Y-146892944D03*
X104140000Y-146190000D03*
X102442944Y-146892944D03*
X101740000Y-148590000D03*
X102442944Y-150287056D03*
X104140000Y-150990000D03*
X105837056Y-150287056D03*
X106540000Y-148590000D03*
D10*
X104140000Y-148590000D03*
%TD*%
%TO.P,H3,1*%
%TO.N,N/C*%
X190500000Y-148590000D03*
D11*
X192900000Y-148590000D03*
X192197056Y-150287056D03*
X190500000Y-150990000D03*
X188802944Y-150287056D03*
X188100000Y-148590000D03*
X188802944Y-146892944D03*
X190500000Y-146190000D03*
X192197056Y-146892944D03*
%TD*%
%TO.P,H4,1*%
%TO.N,N/C*%
X192197056Y-83392944D03*
X190500000Y-82690000D03*
X188802944Y-83392944D03*
X188100000Y-85090000D03*
X188802944Y-86787056D03*
X190500000Y-87490000D03*
X192197056Y-86787056D03*
X192900000Y-85090000D03*
D10*
X190500000Y-85090000D03*
%TD*%
D15*
%TO.P,SW2,1*%
%TO.N,+3V3*%
X137160000Y-119380000D03*
D16*
%TO.P,SW2,3*%
%TO.N,OUT4*%
X144780000Y-121920000D03*
%TO.P,SW2,2*%
%TO.N,+3V3*%
X137160000Y-121920000D03*
%TO.P,SW2,4*%
%TO.N,OUT3*%
X144780000Y-119380000D03*
%TD*%
D19*
%TO.P,U2,4*%
%TO.N,N/C*%
X149936200Y-113055400D03*
%TO.P,U2,5*%
X149936200Y-115595400D03*
%TO.P,U2,6*%
%TO.N,OUT2*%
X149936200Y-118135400D03*
%TO.P,U2,7*%
%TO.N,N/C*%
X149936200Y-120675400D03*
%TO.P,U2,8*%
X149936200Y-123215400D03*
%TO.P,U2,9*%
X149936200Y-125755400D03*
%TO.P,U2,10*%
X149936200Y-128295400D03*
%TO.P,U2,3*%
X149936200Y-110515400D03*
%TO.P,U2,2*%
%TO.N,+5V*%
X149936200Y-107975400D03*
%TO.P,U2,1*%
%TO.N,GND*%
X149936200Y-105435400D03*
%TD*%
D20*
%TO.P,U3,1*%
%TO.N,+5V*%
X113030000Y-101600000D03*
D21*
%TO.P,U3,2*%
%TO.N,+3V3*%
X115570000Y-101600000D03*
%TO.P,U3,3*%
%TO.N,GND*%
X118110000Y-101600000D03*
%TD*%
D15*
%TO.P,U4,1*%
%TO.N,OUT1*%
X134620000Y-148590000D03*
D16*
%TO.P,U4,8*%
%TO.N,N/C*%
X149860000Y-140970000D03*
%TO.P,U4,2*%
%TO.N,OUT3*%
X137160000Y-148590000D03*
%TO.P,U4,9*%
%TO.N,N/C*%
X147320000Y-140970000D03*
%TO.P,U4,3*%
%TO.N,OUT5*%
X139700000Y-148590000D03*
%TO.P,U4,10*%
%TO.N,N/C*%
X144780000Y-140970000D03*
%TO.P,U4,4*%
%TO.N,OUT2*%
X142240000Y-148590000D03*
%TO.P,U4,11*%
%TO.N,N/C*%
X142240000Y-140970000D03*
%TO.P,U4,5*%
%TO.N,OUT4*%
X144780000Y-148590000D03*
%TO.P,U4,12*%
%TO.N,N/C*%
X139700000Y-140970000D03*
%TO.P,U4,6*%
%TO.N,OUT6*%
X147320000Y-148590000D03*
%TO.P,U4,13*%
%TO.N,N/C*%
X137160000Y-140970000D03*
%TO.P,U4,7*%
X149860000Y-148590000D03*
%TO.P,U4,14*%
%TO.N,+5V*%
X134620000Y-140970000D03*
%TD*%
%TO.P,U5,14*%
%TO.N,+5V*%
X133350000Y-83820000D03*
%TO.P,U5,7*%
%TO.N,N/C*%
X148590000Y-91440000D03*
%TO.P,U5,13*%
X135890000Y-83820000D03*
%TO.P,U5,6*%
X146050000Y-91440000D03*
%TO.P,U5,12*%
X138430000Y-83820000D03*
%TO.P,U5,5*%
X143510000Y-91440000D03*
%TO.P,U5,11*%
X140970000Y-83820000D03*
%TO.P,U5,4*%
X140970000Y-91440000D03*
%TO.P,U5,10*%
X143510000Y-83820000D03*
%TO.P,U5,3*%
%TO.N,OUT*%
X138430000Y-91440000D03*
%TO.P,U5,9*%
%TO.N,N/C*%
X146050000Y-83820000D03*
%TO.P,U5,2*%
%TO.N,OUT6*%
X135890000Y-91440000D03*
%TO.P,U5,8*%
%TO.N,N/C*%
X148590000Y-83820000D03*
D15*
%TO.P,U5,1*%
%TO.N,OUT5*%
X133350000Y-91440000D03*
%TD*%
D22*
%TO.P,SW1,*%
%TO.N,*%
X102870000Y-135890000D03*
X102870000Y-140970000D03*
%TO.P,SW1,1*%
%TO.N,Net-(D1-Pad1)*%
%TA.AperFunction,ComponentPad*%
G36*
G01*
X107150000Y-141370000D02*
X107150000Y-140570000D01*
G75*
G02*
X107550000Y-140170000I400000J0D01*
G01*
X108350000Y-140170000D01*
G75*
G02*
X108750000Y-140570000I0J-400000D01*
G01*
X108750000Y-141370000D01*
G75*
G02*
X108350000Y-141770000I-400000J0D01*
G01*
X107550000Y-141770000D01*
G75*
G02*
X107150000Y-141370000I0J400000D01*
G01*
G37*
%TD.AperFunction*%
%TO.P,SW1,2*%
%TO.N,Net-(J6-Pad1)*%
X107950000Y-138430000D03*
%TO.P,SW1,3*%
%TO.N,Net-(D2-Pad1)*%
X107950000Y-135890000D03*
%TD*%
D23*
%TO.N,Net-(D1-Pad2)*%
X150368000Y-94742000D03*
%TO.N,Net-(D2-Pad1)*%
X157783000Y-151638000D03*
%TO.N,GND*%
X126873000Y-112903000D03*
X126873000Y-120777000D03*
%TO.N,OUT4*%
X146050000Y-143891000D03*
%TO.N,OUT5*%
X133350000Y-96266000D03*
X133350000Y-101346000D03*
%TO.N,OUT6*%
X135255000Y-96901000D03*
X135763000Y-102108000D03*
%TD*%
D24*
%TO.N,Net-(D1-Pad2)*%
X150368000Y-94742000D02*
X150368000Y-90551000D01*
X157339000Y-83580000D02*
X160220000Y-83580000D01*
X150368000Y-90551000D02*
X157339000Y-83580000D01*
%TO.N,Net-(D2-Pad1)*%
X105918000Y-137922000D02*
X107950000Y-135890000D01*
X114046000Y-151638000D02*
X105918000Y-143510000D01*
X157783000Y-151638000D02*
X157783000Y-151638000D01*
X105918000Y-143510000D02*
X105918000Y-137922000D01*
X157783000Y-151638000D02*
X114046000Y-151638000D01*
%TO.N,GND*%
X126873000Y-112903000D02*
X126873000Y-120777000D01*
%TO.N,Net-(D2-Pad2)*%
X165682000Y-82042000D02*
X167220000Y-83580000D01*
X152527000Y-82042000D02*
X165682000Y-82042000D01*
X144780000Y-89789000D02*
X152527000Y-82042000D01*
X144780000Y-97790000D02*
X144780000Y-89789000D01*
X142240000Y-95250000D02*
X144780000Y-97790000D01*
X132207000Y-95250000D02*
X142240000Y-95250000D01*
X115530000Y-111927000D02*
X132207000Y-95250000D01*
X115530000Y-143510000D02*
X115530000Y-111927000D01*
%TO.N,+5V*%
X123190000Y-106680000D02*
X123190000Y-143510000D01*
X128270000Y-101600000D02*
X123190000Y-106680000D01*
X131572000Y-101600000D02*
X131572000Y-102108000D01*
X131572000Y-101600000D02*
X128270000Y-101600000D01*
X131572000Y-102108000D02*
X132334000Y-102870000D01*
X132334000Y-102870000D02*
X132334000Y-106172000D01*
X134137400Y-107975400D02*
X141376400Y-107975400D01*
X132334000Y-106172000D02*
X134137400Y-107975400D01*
X149936200Y-107975400D02*
X141376400Y-107975400D01*
%TO.N,+3V3*%
X137160000Y-119380000D02*
X137160000Y-121920000D01*
X131520000Y-113740000D02*
X137160000Y-119380000D01*
X129940000Y-113740000D02*
X131520000Y-113740000D01*
%TO.N,OUT1*%
X129940000Y-103580000D02*
X127941000Y-103580000D01*
X124714000Y-106807000D02*
X124714000Y-135128000D01*
X127941000Y-103580000D02*
X124714000Y-106807000D01*
X134620000Y-145034000D02*
X134620000Y-148590000D01*
X124714000Y-135128000D02*
X134620000Y-145034000D01*
%TO.N,OUT4*%
X146050000Y-147320000D02*
X144780000Y-148590000D01*
X146050000Y-143891000D02*
X146050000Y-147320000D01*
%TO.N,OUT3*%
X137160000Y-148590000D02*
X137160000Y-145923000D01*
X137160000Y-145923000D02*
X132080000Y-140843000D01*
X132080000Y-132080000D02*
X132080000Y-140843000D01*
X144780000Y-119380000D02*
X132080000Y-132080000D01*
%TO.N,OUT2*%
X142240000Y-148590000D02*
X142240000Y-144653000D01*
X142240000Y-144653000D02*
X140970000Y-143383000D01*
X140970000Y-143383000D02*
X140970000Y-134493000D01*
X140970000Y-134493000D02*
X147320000Y-128143000D01*
X147320000Y-120751600D02*
X149936200Y-118135400D01*
X147320000Y-128143000D02*
X147320000Y-120751600D01*
%TO.N,OUT5*%
X133350000Y-96266000D02*
X133350000Y-101346000D01*
%TO.N,OUT6*%
X135255000Y-96901000D02*
X135255000Y-101600000D01*
X135255000Y-101600000D02*
X135763000Y-102108000D01*
%TD*%
M02*
