%TF.GenerationSoftware,KiCad,Pcbnew,(6.0.8)*%
%TF.CreationDate,2022-10-07T10:45:27+09:00*%
%TF.ProjectId,Transmitter,5472616e-736d-4697-9474-65722e6b6963,rev?*%
%TF.SameCoordinates,Original*%
%TF.FileFunction,Legend,Bot*%
%TF.FilePolarity,Positive*%
%FSLAX46Y46*%
G04 Gerber Fmt 4.6, Leading zero omitted, Abs format (unit mm)*
G04 Created by KiCad (PCBNEW (6.0.8)) date 2022-10-07 10:45:27*
%MOMM*%
%LPD*%
G01*
G04 APERTURE LIST*
%ADD10C,0.150000*%
%ADD11C,0.120000*%
G04 APERTURE END LIST*
D10*
X156166666Y-94452380D02*
X156166666Y-95166666D01*
X156119047Y-95309523D01*
X156023809Y-95404761D01*
X155880952Y-95452380D01*
X155785714Y-95452380D01*
X157119047Y-95452380D02*
X156642857Y-95452380D01*
X156642857Y-94452380D01*
X158023809Y-95357142D02*
X157976190Y-95404761D01*
X157833333Y-95452380D01*
X157738095Y-95452380D01*
X157595238Y-95404761D01*
X157500000Y-95309523D01*
X157452380Y-95214285D01*
X157404761Y-95023809D01*
X157404761Y-94880952D01*
X157452380Y-94690476D01*
X157500000Y-94595238D01*
X157595238Y-94500000D01*
X157738095Y-94452380D01*
X157833333Y-94452380D01*
X157976190Y-94500000D01*
X158023809Y-94547619D01*
X158738095Y-94452380D02*
X158738095Y-95166666D01*
X158690476Y-95309523D01*
X158595238Y-95404761D01*
X158452380Y-95452380D01*
X158357142Y-95452380D01*
X159690476Y-95452380D02*
X159214285Y-95452380D01*
X159214285Y-94452380D01*
X160595238Y-95357142D02*
X160547619Y-95404761D01*
X160404761Y-95452380D01*
X160309523Y-95452380D01*
X160166666Y-95404761D01*
X160071428Y-95309523D01*
X160023809Y-95214285D01*
X159976190Y-95023809D01*
X159976190Y-94880952D01*
X160023809Y-94690476D01*
X160071428Y-94595238D01*
X160166666Y-94500000D01*
X160309523Y-94452380D01*
X160404761Y-94452380D01*
X160547619Y-94500000D01*
X160595238Y-94547619D01*
X161309523Y-94452380D02*
X161309523Y-95166666D01*
X161261904Y-95309523D01*
X161166666Y-95404761D01*
X161023809Y-95452380D01*
X160928571Y-95452380D01*
X162261904Y-95452380D02*
X161785714Y-95452380D01*
X161785714Y-94452380D01*
X163166666Y-95357142D02*
X163119047Y-95404761D01*
X162976190Y-95452380D01*
X162880952Y-95452380D01*
X162738095Y-95404761D01*
X162642857Y-95309523D01*
X162595238Y-95214285D01*
X162547619Y-95023809D01*
X162547619Y-94880952D01*
X162595238Y-94690476D01*
X162642857Y-94595238D01*
X162738095Y-94500000D01*
X162880952Y-94452380D01*
X162976190Y-94452380D01*
X163119047Y-94500000D01*
X163166666Y-94547619D01*
%TO.C,J8*%
X126222380Y-98736666D02*
X126936666Y-98736666D01*
X127079523Y-98689047D01*
X127174761Y-98593809D01*
X127222380Y-98450952D01*
X127222380Y-98355714D01*
X126650952Y-99355714D02*
X126603333Y-99260476D01*
X126555714Y-99212857D01*
X126460476Y-99165238D01*
X126412857Y-99165238D01*
X126317619Y-99212857D01*
X126270000Y-99260476D01*
X126222380Y-99355714D01*
X126222380Y-99546190D01*
X126270000Y-99641428D01*
X126317619Y-99689047D01*
X126412857Y-99736666D01*
X126460476Y-99736666D01*
X126555714Y-99689047D01*
X126603333Y-99641428D01*
X126650952Y-99546190D01*
X126650952Y-99355714D01*
X126698571Y-99260476D01*
X126746190Y-99212857D01*
X126841428Y-99165238D01*
X127031904Y-99165238D01*
X127127142Y-99212857D01*
X127174761Y-99260476D01*
X127222380Y-99355714D01*
X127222380Y-99546190D01*
X127174761Y-99641428D01*
X127127142Y-99689047D01*
X127031904Y-99736666D01*
X126841428Y-99736666D01*
X126746190Y-99689047D01*
X126698571Y-99641428D01*
X126650952Y-99546190D01*
%TO.C,J7*%
X126222380Y-91131666D02*
X126936666Y-91131666D01*
X127079523Y-91084047D01*
X127174761Y-90988809D01*
X127222380Y-90845952D01*
X127222380Y-90750714D01*
X126222380Y-91512619D02*
X126222380Y-92179285D01*
X127222380Y-91750714D01*
D11*
%TO.C,J5*%
X139690000Y-73860000D02*
X140440000Y-73860000D01*
X146540000Y-70910000D02*
X143490000Y-70910000D01*
X139690000Y-75360000D02*
X141490000Y-75360000D01*
X141490000Y-75360000D02*
X141490000Y-76110000D01*
X140640000Y-76410000D02*
X139390000Y-76410000D01*
X147290000Y-73860000D02*
X146540000Y-73860000D01*
X147300000Y-76120000D02*
X139680000Y-76120000D01*
X145490000Y-75360000D02*
X147290000Y-75360000D01*
X143990000Y-75360000D02*
X143990000Y-76110000D01*
X139390000Y-76410000D02*
X139390000Y-75160000D01*
X147300000Y-70150000D02*
X147300000Y-76120000D01*
X147290000Y-76110000D02*
X145490000Y-76110000D01*
X142990000Y-75360000D02*
X143990000Y-75360000D01*
X139680000Y-76120000D02*
X139680000Y-70150000D01*
X146540000Y-73860000D02*
X146540000Y-70910000D01*
X145490000Y-76110000D02*
X145490000Y-75360000D01*
X141490000Y-76110000D02*
X139690000Y-76110000D01*
X139690000Y-76110000D02*
X139690000Y-75360000D01*
X139680000Y-70150000D02*
X147300000Y-70150000D01*
X140440000Y-73860000D02*
X140440000Y-70910000D01*
X142990000Y-76110000D02*
X142990000Y-75360000D01*
X147290000Y-75360000D02*
X147290000Y-76110000D01*
X140440000Y-70910000D02*
X143490000Y-70910000D01*
X143990000Y-76110000D02*
X142990000Y-76110000D01*
%TO.C,J8*%
X130810000Y-100400000D02*
X135950000Y-100400000D01*
X130810000Y-97740000D02*
X135950000Y-97740000D01*
X128210000Y-100400000D02*
X129540000Y-100400000D01*
X135950000Y-97740000D02*
X135950000Y-100400000D01*
X128210000Y-99070000D02*
X128210000Y-100400000D01*
X130810000Y-97740000D02*
X130810000Y-100400000D01*
%TO.C,J7*%
X130810000Y-90135000D02*
X130810000Y-92795000D01*
X130810000Y-90135000D02*
X135950000Y-90135000D01*
X130810000Y-92795000D02*
X135950000Y-92795000D01*
X128210000Y-92795000D02*
X129540000Y-92795000D01*
X128210000Y-91465000D02*
X128210000Y-92795000D01*
X135950000Y-90135000D02*
X135950000Y-92795000D01*
%TD*%
M02*
