%TF.GenerationSoftware,KiCad,Pcbnew,(6.0.8)*%
%TF.CreationDate,2022-10-07T10:45:27+09:00*%
%TF.ProjectId,Transmitter,5472616e-736d-4697-9474-65722e6b6963,rev?*%
%TF.SameCoordinates,Original*%
%TF.FileFunction,Soldermask,Top*%
%TF.FilePolarity,Negative*%
%FSLAX46Y46*%
G04 Gerber Fmt 4.6, Leading zero omitted, Abs format (unit mm)*
G04 Created by KiCad (PCBNEW (6.0.8)) date 2022-10-07 10:45:27*
%MOMM*%
%LPD*%
G01*
G04 APERTURE LIST*
G04 Aperture macros list*
%AMRoundRect*
0 Rectangle with rounded corners*
0 $1 Rounding radius*
0 $2 $3 $4 $5 $6 $7 $8 $9 X,Y pos of 4 corners*
0 Add a 4 corners polygon primitive as box body*
4,1,4,$2,$3,$4,$5,$6,$7,$8,$9,$2,$3,0*
0 Add four circle primitives for the rounded corners*
1,1,$1+$1,$2,$3*
1,1,$1+$1,$4,$5*
1,1,$1+$1,$6,$7*
1,1,$1+$1,$8,$9*
0 Add four rect primitives between the rounded corners*
20,1,$1+$1,$2,$3,$4,$5,0*
20,1,$1+$1,$4,$5,$6,$7,0*
20,1,$1+$1,$6,$7,$8,$9,0*
20,1,$1+$1,$8,$9,$2,$3,0*%
G04 Aperture macros list end*
%ADD10R,1.700000X1.700000*%
%ADD11O,1.700000X1.700000*%
%ADD12RoundRect,0.250000X-0.600000X-0.750000X0.600000X-0.750000X0.600000X0.750000X-0.600000X0.750000X0*%
%ADD13O,1.700000X2.000000*%
%ADD14RoundRect,0.250000X0.600000X0.750000X-0.600000X0.750000X-0.600000X-0.750000X0.600000X-0.750000X0*%
%ADD15C,0.800000*%
%ADD16C,6.400000*%
%ADD17C,1.600000*%
%ADD18RoundRect,0.400000X0.400000X-0.400000X0.400000X0.400000X-0.400000X0.400000X-0.400000X-0.400000X0*%
G04 APERTURE END LIST*
D10*
%TO.C,J4*%
X171475000Y-85120000D03*
D11*
X171475000Y-87660000D03*
X171475000Y-90200000D03*
X171475000Y-92740000D03*
X171475000Y-95280000D03*
X171475000Y-97820000D03*
X171475000Y-100360000D03*
X171475000Y-102900000D03*
X171475000Y-105440000D03*
X171475000Y-107980000D03*
%TD*%
D10*
%TO.C,J3*%
X146075000Y-85120000D03*
D11*
X146075000Y-87660000D03*
X146075000Y-90200000D03*
X146075000Y-92740000D03*
X146075000Y-95280000D03*
X146075000Y-97820000D03*
X146075000Y-100360000D03*
X146075000Y-102900000D03*
X146075000Y-105440000D03*
X146075000Y-107980000D03*
%TD*%
D12*
%TO.C,J5*%
X142240000Y-73660000D03*
D13*
X144740000Y-73660000D03*
%TD*%
D10*
%TO.C,J1*%
X124460000Y-78740000D03*
D11*
X124460000Y-81280000D03*
X124460000Y-83820000D03*
X124460000Y-86360000D03*
X124460000Y-88900000D03*
X124460000Y-91440000D03*
X124460000Y-93980000D03*
X124460000Y-96520000D03*
X124460000Y-99060000D03*
X124460000Y-101600000D03*
X124460000Y-104140000D03*
X124460000Y-106680000D03*
X124460000Y-109220000D03*
X124460000Y-111760000D03*
X124460000Y-114300000D03*
%TD*%
D14*
%TO.C,ESS*%
X133500000Y-79450000D03*
D13*
X131000000Y-79450000D03*
%TD*%
D15*
%TO.C,REF\u002A\u002A*%
X119302944Y-117302944D03*
X118600000Y-119000000D03*
D16*
X121000000Y-119000000D03*
D15*
X119302944Y-120697056D03*
X122697056Y-117302944D03*
X121000000Y-116600000D03*
X122697056Y-120697056D03*
X121000000Y-121400000D03*
X123400000Y-119000000D03*
%TD*%
%TO.C,REF\u002A\u002A*%
X169802944Y-117302944D03*
X171500000Y-116600000D03*
X173197056Y-120697056D03*
X171500000Y-121400000D03*
X169802944Y-120697056D03*
X169100000Y-119000000D03*
X173900000Y-119000000D03*
D16*
X171500000Y-119000000D03*
D15*
X173197056Y-117302944D03*
%TD*%
D17*
%TO.C,SW1*%
X129540000Y-114910000D03*
X132080000Y-114910000D03*
D18*
X134620000Y-114910000D03*
D17*
X129540000Y-119990000D03*
X134620000Y-119990000D03*
%TD*%
D10*
%TO.C,J2*%
X139700000Y-78740000D03*
D11*
X139700000Y-81280000D03*
X139700000Y-83820000D03*
X139700000Y-86360000D03*
X139700000Y-88900000D03*
X139700000Y-91440000D03*
X139700000Y-93980000D03*
X139700000Y-96520000D03*
X139700000Y-99060000D03*
X139700000Y-101600000D03*
X139700000Y-104140000D03*
X139700000Y-106680000D03*
X139700000Y-109220000D03*
X139700000Y-111760000D03*
X139700000Y-114300000D03*
%TD*%
D16*
%TO.C,REF\u002A\u002A*%
X121000000Y-73500000D03*
D15*
X122697056Y-71802944D03*
X121000000Y-75900000D03*
X118600000Y-73500000D03*
X119302944Y-75197056D03*
X121000000Y-71100000D03*
X122697056Y-75197056D03*
X119302944Y-71802944D03*
X123400000Y-73500000D03*
%TD*%
%TO.C,REF\u002A\u002A*%
X160000000Y-84100000D03*
X158302944Y-84802944D03*
D16*
X160000000Y-86500000D03*
D15*
X161697056Y-88197056D03*
X160000000Y-88900000D03*
X157600000Y-86500000D03*
X158302944Y-88197056D03*
X162400000Y-86500000D03*
X161697056Y-84802944D03*
%TD*%
%TO.C,REF\u002A\u002A*%
X161697056Y-100302944D03*
X162400000Y-102000000D03*
X158302944Y-103697056D03*
X160000000Y-104400000D03*
X160000000Y-99600000D03*
X158302944Y-100302944D03*
X157600000Y-102000000D03*
X161697056Y-103697056D03*
D16*
X160000000Y-102000000D03*
%TD*%
D15*
%TO.C,REF\u002A\u002A*%
X173197056Y-71802944D03*
X169802944Y-75197056D03*
X169802944Y-71802944D03*
X169100000Y-73500000D03*
D16*
X171500000Y-73500000D03*
D15*
X171500000Y-71100000D03*
X173900000Y-73500000D03*
X173197056Y-75197056D03*
X171500000Y-75900000D03*
%TD*%
D10*
%TO.C,J8*%
X129540000Y-99070000D03*
D11*
X132080000Y-99070000D03*
X134620000Y-99070000D03*
%TD*%
D10*
%TO.C,J7*%
X129540000Y-91465000D03*
D11*
X132080000Y-91465000D03*
X134620000Y-91465000D03*
%TD*%
M02*
