M48
; DRILL file {KiCad (6.0.8)} date Fri Oct  7 10:45:29 2022
; FORMAT={-:-/ absolute / metric / decimal}
; #@! TF.CreationDate,2022-10-07T10:45:29+09:00
; #@! TF.GenerationSoftware,Kicad,Pcbnew,(6.0.8)
; #@! TF.FileFunction,MixedPlating,1,2
FMAT,2
METRIC
; #@! TA.AperFunction,Plated,PTH,ViaDrill
T1C0.400
; #@! TA.AperFunction,Plated,PTH,ComponentDrill
T2C0.500
; #@! TA.AperFunction,Plated,PTH,ComponentDrill
T3C0.890
; #@! TA.AperFunction,Plated,PTH,ComponentDrill
T4C1.000
; #@! TA.AperFunction,Plated,PTH,ComponentDrill
T5C3.200
%
G90
G05
T1
X132.08Y-93.98
X134.62Y-83.82
T2
X118.6Y-73.5
X118.6Y-119.0
X119.303Y-71.803
X119.303Y-75.197
X119.303Y-117.303
X119.303Y-120.697
X121.0Y-71.1
X121.0Y-75.9
X121.0Y-116.6
X121.0Y-121.4
X122.697Y-71.803
X122.697Y-75.197
X122.697Y-117.303
X122.697Y-120.697
X123.4Y-73.5
X123.4Y-119.0
X157.6Y-86.5
X157.6Y-102.0
X158.303Y-84.803
X158.303Y-88.197
X158.303Y-100.303
X158.303Y-103.697
X160.0Y-84.1
X160.0Y-88.9
X160.0Y-99.6
X160.0Y-104.4
X161.697Y-84.803
X161.697Y-88.197
X161.697Y-100.303
X161.697Y-103.697
X162.4Y-86.5
X162.4Y-102.0
X169.1Y-73.5
X169.1Y-119.0
X169.803Y-71.803
X169.803Y-75.197
X169.803Y-117.303
X169.803Y-120.697
X171.5Y-71.1
X171.5Y-75.9
X171.5Y-116.6
X171.5Y-121.4
X173.197Y-71.803
X173.197Y-75.197
X173.197Y-117.303
X173.197Y-120.697
X173.9Y-73.5
X173.9Y-119.0
T3
X129.54Y-114.91
X129.54Y-119.99
X132.08Y-114.91
X134.62Y-114.91
X134.62Y-119.99
T4
X124.46Y-78.74
X124.46Y-81.28
X124.46Y-83.82
X124.46Y-86.36
X124.46Y-88.9
X124.46Y-91.44
X124.46Y-93.98
X124.46Y-96.52
X124.46Y-99.06
X124.46Y-101.6
X124.46Y-104.14
X124.46Y-106.68
X124.46Y-109.22
X124.46Y-111.76
X124.46Y-114.3
X129.54Y-91.465
X129.54Y-99.07
X131.0Y-79.45
X132.08Y-91.465
X132.08Y-99.07
X133.5Y-79.45
X134.62Y-91.465
X134.62Y-99.07
X139.7Y-78.74
X139.7Y-81.28
X139.7Y-83.82
X139.7Y-86.36
X139.7Y-88.9
X139.7Y-91.44
X139.7Y-93.98
X139.7Y-96.52
X139.7Y-99.06
X139.7Y-101.6
X139.7Y-104.14
X139.7Y-106.68
X139.7Y-109.22
X139.7Y-111.76
X139.7Y-114.3
X142.24Y-73.66
X144.74Y-73.66
X146.075Y-85.12
X146.075Y-87.66
X146.075Y-90.2
X146.075Y-92.74
X146.075Y-95.28
X146.075Y-97.82
X146.075Y-100.36
X146.075Y-102.9
X146.075Y-105.44
X146.075Y-107.98
X171.475Y-85.12
X171.475Y-87.66
X171.475Y-90.2
X171.475Y-92.74
X171.475Y-95.28
X171.475Y-97.82
X171.475Y-100.36
X171.475Y-102.9
X171.475Y-105.44
X171.475Y-107.98
T5
X121.0Y-73.5
X121.0Y-119.0
X160.0Y-86.5
X160.0Y-102.0
X171.5Y-73.5
X171.5Y-119.0
T0
M30
