%TF.GenerationSoftware,KiCad,Pcbnew,(6.0.8)*%
%TF.CreationDate,2022-10-07T10:45:27+09:00*%
%TF.ProjectId,Transmitter,5472616e-736d-4697-9474-65722e6b6963,rev?*%
%TF.SameCoordinates,Original*%
%TF.FileFunction,Copper,L2,Bot*%
%TF.FilePolarity,Positive*%
%FSLAX46Y46*%
G04 Gerber Fmt 4.6, Leading zero omitted, Abs format (unit mm)*
G04 Created by KiCad (PCBNEW (6.0.8)) date 2022-10-07 10:45:27*
%MOMM*%
%LPD*%
G01*
G04 APERTURE LIST*
G04 Aperture macros list*
%AMRoundRect*
0 Rectangle with rounded corners*
0 $1 Rounding radius*
0 $2 $3 $4 $5 $6 $7 $8 $9 X,Y pos of 4 corners*
0 Add a 4 corners polygon primitive as box body*
4,1,4,$2,$3,$4,$5,$6,$7,$8,$9,$2,$3,0*
0 Add four circle primitives for the rounded corners*
1,1,$1+$1,$2,$3*
1,1,$1+$1,$4,$5*
1,1,$1+$1,$6,$7*
1,1,$1+$1,$8,$9*
0 Add four rect primitives between the rounded corners*
20,1,$1+$1,$2,$3,$4,$5,0*
20,1,$1+$1,$4,$5,$6,$7,0*
20,1,$1+$1,$6,$7,$8,$9,0*
20,1,$1+$1,$8,$9,$2,$3,0*%
G04 Aperture macros list end*
%TA.AperFunction,ComponentPad*%
%ADD10R,1.700000X1.700000*%
%TD*%
%TA.AperFunction,ComponentPad*%
%ADD11O,1.700000X1.700000*%
%TD*%
%TA.AperFunction,ComponentPad*%
%ADD12RoundRect,0.250000X-0.600000X-0.750000X0.600000X-0.750000X0.600000X0.750000X-0.600000X0.750000X0*%
%TD*%
%TA.AperFunction,ComponentPad*%
%ADD13O,1.700000X2.000000*%
%TD*%
%TA.AperFunction,ComponentPad*%
%ADD14RoundRect,0.250000X0.600000X0.750000X-0.600000X0.750000X-0.600000X-0.750000X0.600000X-0.750000X0*%
%TD*%
%TA.AperFunction,ComponentPad*%
%ADD15C,0.800000*%
%TD*%
%TA.AperFunction,ComponentPad*%
%ADD16C,6.400000*%
%TD*%
%TA.AperFunction,ComponentPad*%
%ADD17C,1.600000*%
%TD*%
%TA.AperFunction,ComponentPad*%
%ADD18RoundRect,0.400000X0.400000X-0.400000X0.400000X0.400000X-0.400000X0.400000X-0.400000X-0.400000X0*%
%TD*%
%TA.AperFunction,ViaPad*%
%ADD19C,0.800000*%
%TD*%
%TA.AperFunction,Conductor*%
%ADD20C,0.250000*%
%TD*%
G04 APERTURE END LIST*
D10*
%TO.P,J4,1*%
%TO.N,Net-(J4-Pad1)*%
X171475000Y-85120000D03*
D11*
%TO.P,J4,2*%
%TO.N,Net-(J4-Pad2)*%
X171475000Y-87660000D03*
%TO.P,J4,3*%
%TO.N,TX*%
X171475000Y-90200000D03*
%TO.P,J4,4*%
%TO.N,Net-(J4-Pad4)*%
X171475000Y-92740000D03*
%TO.P,J4,5*%
%TO.N,Net-(J4-Pad5)*%
X171475000Y-95280000D03*
%TO.P,J4,6*%
%TO.N,Net-(J4-Pad6)*%
X171475000Y-97820000D03*
%TO.P,J4,7*%
%TO.N,Net-(J4-Pad7)*%
X171475000Y-100360000D03*
%TO.P,J4,8*%
%TO.N,Net-(J4-Pad8)*%
X171475000Y-102900000D03*
%TO.P,J4,9*%
%TO.N,GND*%
X171475000Y-105440000D03*
%TO.P,J4,10*%
%TO.N,Net-(J4-Pad10)*%
X171475000Y-107980000D03*
%TD*%
D10*
%TO.P,J3,1*%
%TO.N,Net-(J3-Pad1)*%
X146075000Y-85120000D03*
D11*
%TO.P,J3,2*%
%TO.N,Net-(J3-Pad2)*%
X146075000Y-87660000D03*
%TO.P,J3,3*%
%TO.N,Net-(J3-Pad3)*%
X146075000Y-90200000D03*
%TO.P,J3,4*%
%TO.N,RX*%
X146075000Y-92740000D03*
%TO.P,J3,5*%
%TO.N,Net-(J3-Pad5)*%
X146075000Y-95280000D03*
%TO.P,J3,6*%
%TO.N,Net-(J3-Pad6)*%
X146075000Y-97820000D03*
%TO.P,J3,7*%
%TO.N,Net-(J3-Pad7)*%
X146075000Y-100360000D03*
%TO.P,J3,8*%
%TO.N,Net-(J3-Pad8)*%
X146075000Y-102900000D03*
%TO.P,J3,9*%
%TO.N,+3V3*%
X146075000Y-105440000D03*
%TO.P,J3,10*%
%TO.N,Net-(J3-Pad10)*%
X146075000Y-107980000D03*
%TD*%
D12*
%TO.P,J5,1*%
%TO.N,PW_IN*%
X142240000Y-73660000D03*
D13*
%TO.P,J5,2*%
%TO.N,GND*%
X144740000Y-73660000D03*
%TD*%
D10*
%TO.P,J1,1*%
%TO.N,TX*%
X124460000Y-78740000D03*
D11*
%TO.P,J1,2*%
%TO.N,RX*%
X124460000Y-81280000D03*
%TO.P,J1,3*%
%TO.N,Net-(J1-Pad3)*%
X124460000Y-83820000D03*
%TO.P,J1,4*%
%TO.N,Net-(J1-Pad4)*%
X124460000Y-86360000D03*
%TO.P,J1,5*%
%TO.N,Net-(J1-Pad5)*%
X124460000Y-88900000D03*
%TO.P,J1,6*%
%TO.N,ESS_IN*%
X124460000Y-91440000D03*
%TO.P,J1,7*%
%TO.N,Net-(J1-Pad7)*%
X124460000Y-93980000D03*
%TO.P,J1,8*%
%TO.N,Net-(J1-Pad8)*%
X124460000Y-96520000D03*
%TO.P,J1,9*%
%TO.N,Net-(J1-Pad9)*%
X124460000Y-99060000D03*
%TO.P,J1,10*%
%TO.N,Net-(J1-Pad10)*%
X124460000Y-101600000D03*
%TO.P,J1,11*%
%TO.N,Net-(J1-Pad11)*%
X124460000Y-104140000D03*
%TO.P,J1,12*%
%TO.N,Net-(J1-Pad12)*%
X124460000Y-106680000D03*
%TO.P,J1,13*%
%TO.N,Net-(J1-Pad13)*%
X124460000Y-109220000D03*
%TO.P,J1,14*%
%TO.N,Net-(J1-Pad14)*%
X124460000Y-111760000D03*
%TO.P,J1,15*%
%TO.N,Net-(J1-Pad15)*%
X124460000Y-114300000D03*
%TD*%
D14*
%TO.P,ESS,1*%
%TO.N,+5V*%
X133500000Y-79450000D03*
D13*
%TO.P,ESS,2*%
%TO.N,ESS_IN*%
X131000000Y-79450000D03*
%TD*%
D15*
%TO.P,REF\u002A\u002A,1*%
%TO.N,N/C*%
X119302944Y-117302944D03*
X118600000Y-119000000D03*
D16*
X121000000Y-119000000D03*
D15*
X119302944Y-120697056D03*
X122697056Y-117302944D03*
X121000000Y-116600000D03*
X122697056Y-120697056D03*
X121000000Y-121400000D03*
X123400000Y-119000000D03*
%TD*%
%TO.P,REF\u002A\u002A,1*%
%TO.N,N/C*%
X169802944Y-117302944D03*
X171500000Y-116600000D03*
X173197056Y-120697056D03*
X171500000Y-121400000D03*
X169802944Y-120697056D03*
X169100000Y-119000000D03*
X173900000Y-119000000D03*
D16*
X171500000Y-119000000D03*
D15*
X173197056Y-117302944D03*
%TD*%
D17*
%TO.P,SW1,3*%
%TO.N,Net-(SW1-Pad3)*%
X129540000Y-114910000D03*
%TO.P,SW1,2*%
%TO.N,PW_IN*%
X132080000Y-114910000D03*
D18*
%TO.P,SW1,1*%
%TO.N,VCC*%
X134620000Y-114910000D03*
D17*
%TO.P,SW1,*%
%TO.N,*%
X129540000Y-119990000D03*
X134620000Y-119990000D03*
%TD*%
D10*
%TO.P,J2,1*%
%TO.N,Net-(J2-Pad1)*%
X139700000Y-78740000D03*
D11*
%TO.P,J2,2*%
%TO.N,GND*%
X139700000Y-81280000D03*
%TO.P,J2,3*%
%TO.N,Net-(J2-Pad3)*%
X139700000Y-83820000D03*
%TO.P,J2,4*%
%TO.N,+5V*%
X139700000Y-86360000D03*
%TO.P,J2,5*%
%TO.N,Net-(J2-Pad5)*%
X139700000Y-88900000D03*
%TO.P,J2,6*%
%TO.N,Net-(J2-Pad6)*%
X139700000Y-91440000D03*
%TO.P,J2,7*%
%TO.N,Net-(J2-Pad7)*%
X139700000Y-93980000D03*
%TO.P,J2,8*%
%TO.N,Net-(J2-Pad8)*%
X139700000Y-96520000D03*
%TO.P,J2,9*%
%TO.N,Net-(J2-Pad9)*%
X139700000Y-99060000D03*
%TO.P,J2,10*%
%TO.N,Net-(J2-Pad10)*%
X139700000Y-101600000D03*
%TO.P,J2,11*%
%TO.N,Net-(J2-Pad11)*%
X139700000Y-104140000D03*
%TO.P,J2,12*%
%TO.N,Net-(J2-Pad12)*%
X139700000Y-106680000D03*
%TO.P,J2,13*%
%TO.N,Net-(J2-Pad13)*%
X139700000Y-109220000D03*
%TO.P,J2,14*%
%TO.N,+3V3*%
X139700000Y-111760000D03*
%TO.P,J2,15*%
%TO.N,Net-(J2-Pad15)*%
X139700000Y-114300000D03*
%TD*%
D16*
%TO.P,REF\u002A\u002A,1*%
%TO.N,N/C*%
X121000000Y-73500000D03*
D15*
X122697056Y-71802944D03*
X121000000Y-75900000D03*
X118600000Y-73500000D03*
X119302944Y-75197056D03*
X121000000Y-71100000D03*
X122697056Y-75197056D03*
X119302944Y-71802944D03*
X123400000Y-73500000D03*
%TD*%
%TO.P,REF\u002A\u002A,1*%
%TO.N,N/C*%
X160000000Y-84100000D03*
X158302944Y-84802944D03*
D16*
X160000000Y-86500000D03*
D15*
X161697056Y-88197056D03*
X160000000Y-88900000D03*
X157600000Y-86500000D03*
X158302944Y-88197056D03*
X162400000Y-86500000D03*
X161697056Y-84802944D03*
%TD*%
%TO.P,REF\u002A\u002A,1*%
%TO.N,N/C*%
X161697056Y-100302944D03*
X162400000Y-102000000D03*
X158302944Y-103697056D03*
X160000000Y-104400000D03*
X160000000Y-99600000D03*
X158302944Y-100302944D03*
X157600000Y-102000000D03*
X161697056Y-103697056D03*
D16*
X160000000Y-102000000D03*
%TD*%
D15*
%TO.P,REF\u002A\u002A,1*%
%TO.N,N/C*%
X173197056Y-71802944D03*
X169802944Y-75197056D03*
X169802944Y-71802944D03*
X169100000Y-73500000D03*
D16*
X171500000Y-73500000D03*
D15*
X171500000Y-71100000D03*
X173900000Y-73500000D03*
X173197056Y-75197056D03*
X171500000Y-75900000D03*
%TD*%
D10*
%TO.P,J8,1*%
%TO.N,+5V*%
X129540000Y-99070000D03*
D11*
%TO.P,J8,2*%
%TO.N,GND*%
X132080000Y-99070000D03*
%TO.P,J8,3*%
%TO.N,VCC*%
X134620000Y-99070000D03*
%TD*%
D10*
%TO.P,J7,1*%
%TO.N,Net-(J7-Pad1)*%
X129540000Y-91465000D03*
D11*
%TO.P,J7,2*%
%TO.N,Net-(J7-Pad2)*%
X132080000Y-91465000D03*
%TO.P,J7,3*%
%TO.N,Net-(J7-Pad3)*%
X134620000Y-91465000D03*
%TD*%
D19*
%TO.N,GND*%
X134620000Y-83820000D03*
X132080000Y-93980000D03*
%TD*%
D20*
%TO.N,GND*%
X137160000Y-81280000D02*
X134620000Y-83820000D01*
X132080000Y-99070000D02*
X132080000Y-94615000D01*
X139700000Y-81280000D02*
X137160000Y-81280000D01*
X132080000Y-94615000D02*
X132080000Y-93980000D01*
%TO.N,RX*%
X137795000Y-90170000D02*
X141605000Y-90170000D01*
X132080000Y-88900000D02*
X136525000Y-88900000D01*
X124460000Y-81280000D02*
X132080000Y-88900000D01*
X136525000Y-88900000D02*
X137795000Y-90170000D01*
X144175000Y-92740000D02*
X146075000Y-92740000D01*
X141605000Y-90170000D02*
X144175000Y-92740000D01*
%TO.N,TX*%
X127000000Y-76200000D02*
X156845000Y-76200000D01*
X168940000Y-90200000D02*
X171475000Y-90200000D01*
X168275000Y-87630000D02*
X168275000Y-89535000D01*
X168275000Y-89535000D02*
X168940000Y-90200000D01*
X156845000Y-76200000D02*
X168275000Y-87630000D01*
X124460000Y-78740000D02*
X127000000Y-76200000D01*
%TD*%
M02*
