%TF.GenerationSoftware,KiCad,Pcbnew,(5.1.9)-1*%
%TF.CreationDate,2022-07-08T18:02:33+09:00*%
%TF.ProjectId,Transmitter,5472616e-736d-4697-9474-65722e6b6963,rev?*%
%TF.SameCoordinates,Original*%
%TF.FileFunction,Soldermask,Top*%
%TF.FilePolarity,Negative*%
%FSLAX46Y46*%
G04 Gerber Fmt 4.6, Leading zero omitted, Abs format (unit mm)*
G04 Created by KiCad (PCBNEW (5.1.9)-1) date 2022-07-08 18:02:33*
%MOMM*%
%LPD*%
G01*
G04 APERTURE LIST*
%ADD10C,0.800000*%
%ADD11C,6.400000*%
%ADD12O,2.000000X1.700000*%
%ADD13R,1.700000X1.700000*%
%ADD14O,1.700000X1.700000*%
%ADD15C,1.600000*%
%ADD16O,1.600000X1.600000*%
%ADD17O,2.748280X1.998980*%
%ADD18O,1.016000X2.032000*%
%ADD19C,1.143000*%
G04 APERTURE END LIST*
D10*
%TO.C,REF\u002A\u002A*%
X168697056Y-110302944D03*
X167000000Y-109600000D03*
X165302944Y-110302944D03*
X164600000Y-112000000D03*
X165302944Y-113697056D03*
X167000000Y-114400000D03*
X168697056Y-113697056D03*
X169400000Y-112000000D03*
D11*
X167000000Y-112000000D03*
%TD*%
D10*
%TO.C,REF\u002A\u002A*%
X126697056Y-110302944D03*
X125000000Y-109600000D03*
X123302944Y-110302944D03*
X122600000Y-112000000D03*
X123302944Y-113697056D03*
X125000000Y-114400000D03*
X126697056Y-113697056D03*
X127400000Y-112000000D03*
D11*
X125000000Y-112000000D03*
%TD*%
D10*
%TO.C,REF\u002A\u002A*%
X168697056Y-72302944D03*
X167000000Y-71600000D03*
X165302944Y-72302944D03*
X164600000Y-74000000D03*
X165302944Y-75697056D03*
X167000000Y-76400000D03*
X168697056Y-75697056D03*
X169400000Y-74000000D03*
D11*
X167000000Y-74000000D03*
%TD*%
D10*
%TO.C,REF\u002A\u002A*%
X126697056Y-72302944D03*
X125000000Y-71600000D03*
X123302944Y-72302944D03*
X122600000Y-74000000D03*
X123302944Y-75697056D03*
X125000000Y-76400000D03*
X126697056Y-75697056D03*
X127400000Y-74000000D03*
D11*
X125000000Y-74000000D03*
%TD*%
%TO.C,ESS*%
G36*
G01*
X129250000Y-95150000D02*
X130750000Y-95150000D01*
G75*
G02*
X131000000Y-95400000I0J-250000D01*
G01*
X131000000Y-96600000D01*
G75*
G02*
X130750000Y-96850000I-250000J0D01*
G01*
X129250000Y-96850000D01*
G75*
G02*
X129000000Y-96600000I0J250000D01*
G01*
X129000000Y-95400000D01*
G75*
G02*
X129250000Y-95150000I250000J0D01*
G01*
G37*
D12*
X130000000Y-98500000D03*
%TD*%
D13*
%TO.C,J3*%
X135890000Y-81550000D03*
D14*
X135890000Y-84090000D03*
X135890000Y-86630000D03*
X135890000Y-89170000D03*
X135890000Y-91710000D03*
X135890000Y-94250000D03*
X135890000Y-96790000D03*
X135890000Y-99330000D03*
X135890000Y-101870000D03*
X135890000Y-104410000D03*
%TD*%
%TO.C,J4*%
X161290000Y-104410000D03*
X161290000Y-101870000D03*
X161290000Y-99330000D03*
X161290000Y-96790000D03*
X161290000Y-94250000D03*
X161290000Y-91710000D03*
X161290000Y-89170000D03*
X161290000Y-86630000D03*
X161290000Y-84090000D03*
D13*
X161290000Y-81550000D03*
%TD*%
%TO.C,5V*%
G36*
G01*
X129250000Y-85150000D02*
X130750000Y-85150000D01*
G75*
G02*
X131000000Y-85400000I0J-250000D01*
G01*
X131000000Y-86600000D01*
G75*
G02*
X130750000Y-86850000I-250000J0D01*
G01*
X129250000Y-86850000D01*
G75*
G02*
X129000000Y-86600000I0J250000D01*
G01*
X129000000Y-85400000D01*
G75*
G02*
X129250000Y-85150000I250000J0D01*
G01*
G37*
D12*
X130000000Y-88500000D03*
%TD*%
D15*
%TO.C,SW*%
X138080000Y-72920000D03*
X133000000Y-72920000D03*
G36*
G01*
X132600000Y-77200000D02*
X133400000Y-77200000D01*
G75*
G02*
X133800000Y-77600000I0J-400000D01*
G01*
X133800000Y-78400000D01*
G75*
G02*
X133400000Y-78800000I-400000J0D01*
G01*
X132600000Y-78800000D01*
G75*
G02*
X132200000Y-78400000I0J400000D01*
G01*
X132200000Y-77600000D01*
G75*
G02*
X132600000Y-77200000I400000J0D01*
G01*
G37*
X135540000Y-78000000D03*
X138080000Y-78000000D03*
%TD*%
%TO.C,R1*%
X139000000Y-109000000D03*
D16*
X131380000Y-109000000D03*
%TD*%
D15*
%TO.C,R2*%
X150000000Y-109000000D03*
D16*
X142380000Y-109000000D03*
%TD*%
D15*
%TO.C,R3*%
X161000000Y-109000000D03*
D16*
X153380000Y-109000000D03*
%TD*%
D17*
%TO.C,U1*%
X156697680Y-82482180D03*
X156697680Y-85022180D03*
X156697680Y-87562180D03*
X156697680Y-90102180D03*
X156697680Y-92642180D03*
X156697680Y-95182180D03*
X156697680Y-97722180D03*
X140533120Y-97722180D03*
X140533120Y-95182180D03*
X140533120Y-92642180D03*
X140533120Y-90102180D03*
X140533120Y-87562180D03*
X140533120Y-85022180D03*
X140533120Y-82482180D03*
D18*
X147400000Y-98800000D03*
X149950000Y-98800000D03*
D19*
X147398803Y-81795813D03*
X149938803Y-81795813D03*
X147398803Y-84335813D03*
X149938803Y-84335813D03*
%TD*%
M02*
