M48
; DRILL file {KiCad (6.0.8)} date Fri Oct  7 14:48:38 2022
; FORMAT={-:-/ absolute / metric / decimal}
; #@! TF.CreationDate,2022-10-07T14:48:38+09:00
; #@! TF.GenerationSoftware,Kicad,Pcbnew,(6.0.8)
; #@! TF.FileFunction,MixedPlating,1,2
FMAT,2
METRIC
; #@! TA.AperFunction,Plated,PTH,ViaDrill
T1C0.400
; #@! TA.AperFunction,Plated,PTH,ComponentDrill
T2C0.500
; #@! TA.AperFunction,Plated,PTH,ComponentDrill
T3C0.890
; #@! TA.AperFunction,Plated,PTH,ComponentDrill
T4C1.000
; #@! TA.AperFunction,Plated,PTH,ComponentDrill
T5C3.200
%
G90
G05
T1
X166.37Y-88.9
T2
X118.6Y-73.5
X118.6Y-119.0
X119.303Y-71.803
X119.303Y-75.197
X119.303Y-117.303
X119.303Y-120.697
X121.0Y-71.1
X121.0Y-75.9
X121.0Y-116.6
X121.0Y-121.4
X122.697Y-71.803
X122.697Y-75.197
X122.697Y-117.303
X122.697Y-120.697
X123.4Y-73.5
X123.4Y-119.0
X137.1Y-95.0
X137.803Y-93.303
X137.803Y-96.697
X139.5Y-92.6
X139.5Y-97.4
X141.197Y-93.303
X141.197Y-96.697
X141.9Y-95.0
X151.6Y-95.0
X152.303Y-93.303
X152.303Y-96.697
X154.0Y-92.6
X154.0Y-97.4
X155.697Y-93.303
X155.697Y-96.697
X156.4Y-95.0
X169.1Y-73.5
X169.1Y-119.0
X169.803Y-71.803
X169.803Y-75.197
X169.803Y-117.303
X169.803Y-120.697
X171.5Y-71.1
X171.5Y-75.9
X171.5Y-116.6
X171.5Y-121.4
X173.197Y-71.803
X173.197Y-75.197
X173.197Y-117.303
X173.197Y-120.697
X173.9Y-73.5
X173.9Y-119.0
T3
X160.02Y-114.91
X160.02Y-119.99
X162.56Y-114.91
X165.1Y-114.91
X165.1Y-119.99
T4
X125.75Y-85.725
X125.75Y-100.965
X128.29Y-85.725
X128.29Y-100.965
X130.83Y-85.725
X130.83Y-100.965
X131.0Y-79.45
X133.37Y-85.725
X133.37Y-100.965
X133.5Y-79.45
X135.91Y-85.725
X135.91Y-100.965
X138.45Y-85.725
X138.45Y-100.965
X140.99Y-85.725
X140.99Y-100.965
X145.69Y-72.75
X145.69Y-75.25
X146.075Y-85.12
X146.075Y-87.66
X146.075Y-90.2
X146.075Y-92.74
X146.075Y-95.28
X146.075Y-97.82
X146.075Y-100.36
X146.075Y-102.9
X146.075Y-105.44
X146.075Y-107.98
X157.495Y-71.755
X157.495Y-74.295
X157.495Y-76.835
X165.1Y-71.755
X165.1Y-74.295
X165.1Y-76.835
X171.475Y-85.12
X171.475Y-87.66
X171.475Y-90.2
X171.475Y-92.74
X171.475Y-95.28
X171.475Y-97.82
X171.475Y-100.36
X171.475Y-102.9
X171.475Y-105.44
X171.475Y-107.98
T5
X121.0Y-73.5
X121.0Y-119.0
X139.5Y-95.0
X154.0Y-95.0
X171.5Y-73.5
X171.5Y-119.0
T0
M30
