%TF.GenerationSoftware,KiCad,Pcbnew,(6.0.8)*%
%TF.CreationDate,2022-10-07T14:48:36+09:00*%
%TF.ProjectId,Transmitter,5472616e-736d-4697-9474-65722e6b6963,rev?*%
%TF.SameCoordinates,Original*%
%TF.FileFunction,Copper,L1,Top*%
%TF.FilePolarity,Positive*%
%FSLAX46Y46*%
G04 Gerber Fmt 4.6, Leading zero omitted, Abs format (unit mm)*
G04 Created by KiCad (PCBNEW (6.0.8)) date 2022-10-07 14:48:36*
%MOMM*%
%LPD*%
G01*
G04 APERTURE LIST*
G04 Aperture macros list*
%AMRoundRect*
0 Rectangle with rounded corners*
0 $1 Rounding radius*
0 $2 $3 $4 $5 $6 $7 $8 $9 X,Y pos of 4 corners*
0 Add a 4 corners polygon primitive as box body*
4,1,4,$2,$3,$4,$5,$6,$7,$8,$9,$2,$3,0*
0 Add four circle primitives for the rounded corners*
1,1,$1+$1,$2,$3*
1,1,$1+$1,$4,$5*
1,1,$1+$1,$6,$7*
1,1,$1+$1,$8,$9*
0 Add four rect primitives between the rounded corners*
20,1,$1+$1,$2,$3,$4,$5,0*
20,1,$1+$1,$4,$5,$6,$7,0*
20,1,$1+$1,$6,$7,$8,$9,0*
20,1,$1+$1,$8,$9,$2,$3,0*%
G04 Aperture macros list end*
%TA.AperFunction,ComponentPad*%
%ADD10R,1.700000X1.700000*%
%TD*%
%TA.AperFunction,ComponentPad*%
%ADD11O,1.700000X1.700000*%
%TD*%
%TA.AperFunction,ComponentPad*%
%ADD12RoundRect,0.250000X0.600000X0.750000X-0.600000X0.750000X-0.600000X-0.750000X0.600000X-0.750000X0*%
%TD*%
%TA.AperFunction,ComponentPad*%
%ADD13O,1.700000X2.000000*%
%TD*%
%TA.AperFunction,ComponentPad*%
%ADD14C,0.800000*%
%TD*%
%TA.AperFunction,ComponentPad*%
%ADD15C,6.400000*%
%TD*%
%TA.AperFunction,ComponentPad*%
%ADD16C,1.600000*%
%TD*%
%TA.AperFunction,ComponentPad*%
%ADD17RoundRect,0.400000X0.400000X-0.400000X0.400000X0.400000X-0.400000X0.400000X-0.400000X-0.400000X0*%
%TD*%
%TA.AperFunction,ComponentPad*%
%ADD18RoundRect,0.250000X0.750000X-0.600000X0.750000X0.600000X-0.750000X0.600000X-0.750000X-0.600000X0*%
%TD*%
%TA.AperFunction,ComponentPad*%
%ADD19O,2.000000X1.700000*%
%TD*%
%TA.AperFunction,ViaPad*%
%ADD20C,0.800000*%
%TD*%
%TA.AperFunction,Conductor*%
%ADD21C,0.250000*%
%TD*%
G04 APERTURE END LIST*
D10*
%TO.P,J4,1,Pin_1*%
%TO.N,unconnected-(J4-Pad1)*%
X171475000Y-85120000D03*
D11*
%TO.P,J4,2,Pin_2*%
%TO.N,unconnected-(J4-Pad2)*%
X171475000Y-87660000D03*
%TO.P,J4,3,Pin_3*%
%TO.N,TX*%
X171475000Y-90200000D03*
%TO.P,J4,4,Pin_4*%
%TO.N,unconnected-(J4-Pad4)*%
X171475000Y-92740000D03*
%TO.P,J4,5,Pin_5*%
%TO.N,unconnected-(J4-Pad5)*%
X171475000Y-95280000D03*
%TO.P,J4,6,Pin_6*%
%TO.N,unconnected-(J4-Pad6)*%
X171475000Y-97820000D03*
%TO.P,J4,7,Pin_7*%
%TO.N,unconnected-(J4-Pad7)*%
X171475000Y-100360000D03*
%TO.P,J4,8,Pin_8*%
%TO.N,unconnected-(J4-Pad8)*%
X171475000Y-102900000D03*
%TO.P,J4,9,Pin_9*%
%TO.N,GND*%
X171475000Y-105440000D03*
%TO.P,J4,10,Pin_10*%
%TO.N,unconnected-(J4-Pad10)*%
X171475000Y-107980000D03*
%TD*%
D10*
%TO.P,J3,1,Pin_1*%
%TO.N,unconnected-(J3-Pad1)*%
X146075000Y-85120000D03*
D11*
%TO.P,J3,2,Pin_2*%
%TO.N,unconnected-(J3-Pad2)*%
X146075000Y-87660000D03*
%TO.P,J3,3,Pin_3*%
%TO.N,unconnected-(J3-Pad3)*%
X146075000Y-90200000D03*
%TO.P,J3,4,Pin_4*%
%TO.N,RX*%
X146075000Y-92740000D03*
%TO.P,J3,5,Pin_5*%
%TO.N,unconnected-(J3-Pad5)*%
X146075000Y-95280000D03*
%TO.P,J3,6,Pin_6*%
%TO.N,unconnected-(J3-Pad6)*%
X146075000Y-97820000D03*
%TO.P,J3,7,Pin_7*%
%TO.N,unconnected-(J3-Pad7)*%
X146075000Y-100360000D03*
%TO.P,J3,8,Pin_8*%
%TO.N,unconnected-(J3-Pad8)*%
X146075000Y-102900000D03*
%TO.P,J3,9,Pin_9*%
%TO.N,+3V3*%
X146075000Y-105440000D03*
%TO.P,J3,10,Pin_10*%
%TO.N,unconnected-(J3-Pad10)*%
X146075000Y-107980000D03*
%TD*%
D10*
%TO.P,J1,1,Pin_1*%
%TO.N,ESS_IN*%
X125750000Y-100965000D03*
D11*
%TO.P,J1,2,Pin_2*%
%TO.N,unconnected-(J1-Pad2)*%
X128290000Y-100965000D03*
%TO.P,J1,3,Pin_3*%
%TO.N,unconnected-(J1-Pad3)*%
X130830000Y-100965000D03*
%TO.P,J1,4,Pin_4*%
%TO.N,unconnected-(J1-Pad4)*%
X133370000Y-100965000D03*
%TO.P,J1,5,Pin_5*%
%TO.N,unconnected-(J1-Pad5)*%
X135910000Y-100965000D03*
%TO.P,J1,6,Pin_6*%
%TO.N,unconnected-(J1-Pad6)*%
X138450000Y-100965000D03*
%TO.P,J1,7,Pin_7*%
%TO.N,TX*%
X140990000Y-100965000D03*
%TD*%
D12*
%TO.P,ESS,1*%
%TO.N,+5V*%
X133500000Y-79450000D03*
D13*
%TO.P,ESS,2*%
%TO.N,ESS_IN*%
X131000000Y-79450000D03*
%TD*%
D10*
%TO.P,J8,1,Pin_1*%
%TO.N,+5V*%
X165100000Y-76835000D03*
D11*
%TO.P,J8,2,Pin_2*%
%TO.N,GND*%
X165100000Y-74295000D03*
%TO.P,J8,3,Pin_3*%
%TO.N,VCC*%
X165100000Y-71755000D03*
%TD*%
D10*
%TO.P,J2,1,Pin_1*%
%TO.N,+5V*%
X125750000Y-85725000D03*
D11*
%TO.P,J2,2,Pin_2*%
%TO.N,GND*%
X128290000Y-85725000D03*
%TO.P,J2,3,Pin_3*%
%TO.N,+3V3*%
X130830000Y-85725000D03*
%TO.P,J2,4,Pin_4*%
%TO.N,unconnected-(J2-Pad4)*%
X133370000Y-85725000D03*
%TO.P,J2,5,Pin_5*%
%TO.N,unconnected-(J2-Pad5)*%
X135910000Y-85725000D03*
%TO.P,J2,6,Pin_6*%
%TO.N,unconnected-(J2-Pad6)*%
X138450000Y-85725000D03*
%TO.P,J2,7,Pin_7*%
%TO.N,RX*%
X140990000Y-85725000D03*
%TD*%
D14*
%TO.P,REF\u002A\u002A,1*%
%TO.N,N/C*%
X119302944Y-117302944D03*
X118600000Y-119000000D03*
D15*
X121000000Y-119000000D03*
D14*
X119302944Y-120697056D03*
X122697056Y-117302944D03*
X121000000Y-116600000D03*
X122697056Y-120697056D03*
X121000000Y-121400000D03*
X123400000Y-119000000D03*
%TD*%
%TO.P,REF\u002A\u002A,1*%
%TO.N,N/C*%
X169802944Y-117302944D03*
X171500000Y-116600000D03*
X173197056Y-120697056D03*
X171500000Y-121400000D03*
X169802944Y-120697056D03*
X169100000Y-119000000D03*
X173900000Y-119000000D03*
D15*
X171500000Y-119000000D03*
D14*
X173197056Y-117302944D03*
%TD*%
D10*
%TO.P,J7,1,Pin_1*%
%TO.N,unconnected-(J7-Pad1)*%
X157495000Y-76835000D03*
D11*
%TO.P,J7,2,Pin_2*%
%TO.N,unconnected-(J7-Pad2)*%
X157495000Y-74295000D03*
%TO.P,J7,3,Pin_3*%
%TO.N,unconnected-(J7-Pad3)*%
X157495000Y-71755000D03*
%TD*%
D16*
%TO.P,SW1,*%
%TO.N,*%
X165100000Y-119990000D03*
X160020000Y-119990000D03*
D17*
%TO.P,SW1,1,A*%
%TO.N,VCC*%
X165100000Y-114910000D03*
D16*
%TO.P,SW1,2,B*%
%TO.N,PW_IN*%
X162560000Y-114910000D03*
%TO.P,SW1,3,C*%
%TO.N,unconnected-(SW1-Pad3)*%
X160020000Y-114910000D03*
%TD*%
D15*
%TO.P,REF\u002A\u002A,1*%
%TO.N,N/C*%
X121000000Y-73500000D03*
D14*
X122697056Y-71802944D03*
X121000000Y-75900000D03*
X118600000Y-73500000D03*
X119302944Y-75197056D03*
X121000000Y-71100000D03*
X122697056Y-75197056D03*
X119302944Y-71802944D03*
X123400000Y-73500000D03*
%TD*%
%TO.P,REF\u002A\u002A,1*%
%TO.N,N/C*%
X137100000Y-95000000D03*
X137802944Y-96697056D03*
D15*
X139500000Y-95000000D03*
D14*
X141197056Y-93302944D03*
X141900000Y-95000000D03*
X139500000Y-97400000D03*
X141197056Y-96697056D03*
X139500000Y-92600000D03*
X137802944Y-93302944D03*
%TD*%
%TO.P,REF\u002A\u002A,1*%
%TO.N,N/C*%
X152302944Y-93302944D03*
X154000000Y-92600000D03*
X155697056Y-96697056D03*
X156400000Y-95000000D03*
X151600000Y-95000000D03*
X152302944Y-96697056D03*
X154000000Y-97400000D03*
X155697056Y-93302944D03*
D15*
X154000000Y-95000000D03*
%TD*%
D14*
%TO.P,REF\u002A\u002A,1*%
%TO.N,N/C*%
X173197056Y-71802944D03*
X169802944Y-75197056D03*
X169802944Y-71802944D03*
X169100000Y-73500000D03*
D15*
X171500000Y-73500000D03*
D14*
X171500000Y-71100000D03*
X173900000Y-73500000D03*
X173197056Y-75197056D03*
X171500000Y-75900000D03*
%TD*%
D18*
%TO.P,J5,1,Pin_1*%
%TO.N,PW_IN*%
X145690000Y-75250000D03*
D19*
%TO.P,J5,2,Pin_2*%
%TO.N,GND*%
X145690000Y-72750000D03*
%TD*%
D20*
%TO.N,VCC*%
X166370000Y-88900000D03*
%TD*%
D21*
%TO.N,+3V3*%
X136555000Y-105440000D02*
X146075000Y-105440000D01*
X134620000Y-99060000D02*
X134620000Y-103505000D01*
X130830000Y-95270000D02*
X134620000Y-99060000D01*
X134620000Y-103505000D02*
X136555000Y-105440000D01*
X130830000Y-85725000D02*
X130830000Y-95270000D01*
%TO.N,+5V*%
X125750000Y-83165000D02*
X125750000Y-85725000D01*
X126365000Y-82550000D02*
X125750000Y-83165000D01*
X130400000Y-82550000D02*
X126365000Y-82550000D01*
X133500000Y-79450000D02*
X130400000Y-82550000D01*
%TO.N,VCC*%
X165100000Y-90170000D02*
X166370000Y-88900000D01*
X165100000Y-114910000D02*
X165100000Y-90170000D01*
%TO.N,GND*%
X168275000Y-104140000D02*
X169575000Y-105440000D01*
X168275000Y-77470000D02*
X168275000Y-104140000D01*
X165100000Y-74295000D02*
X168275000Y-77470000D01*
X169575000Y-105440000D02*
X171475000Y-105440000D01*
%TO.N,PW_IN*%
X150180000Y-75250000D02*
X162560000Y-87630000D01*
X145690000Y-75250000D02*
X150180000Y-75250000D01*
X162560000Y-87630000D02*
X162560000Y-114910000D01*
%TO.N,GND*%
X163195000Y-74295000D02*
X165100000Y-74295000D01*
X153670000Y-73025000D02*
X161925000Y-73025000D01*
X153395000Y-72750000D02*
X153670000Y-73025000D01*
X145690000Y-72750000D02*
X153395000Y-72750000D01*
X161925000Y-73025000D02*
X163195000Y-74295000D01*
%TD*%
M02*
