%TF.GenerationSoftware,KiCad,Pcbnew,(5.1.9)-1*%
%TF.CreationDate,2022-08-15T05:54:51+09:00*%
%TF.ProjectId,Receiver,52656365-6976-4657-922e-6b696361645f,rev?*%
%TF.SameCoordinates,Original*%
%TF.FileFunction,Copper,L2,Bot*%
%TF.FilePolarity,Positive*%
%FSLAX46Y46*%
G04 Gerber Fmt 4.6, Leading zero omitted, Abs format (unit mm)*
G04 Created by KiCad (PCBNEW (5.1.9)-1) date 2022-08-15 05:54:51*
%MOMM*%
%LPD*%
G01*
G04 APERTURE LIST*
%TA.AperFunction,ComponentPad*%
%ADD10R,1.700000X1.700000*%
%TD*%
%TA.AperFunction,ComponentPad*%
%ADD11O,1.700000X1.700000*%
%TD*%
%TA.AperFunction,ComponentPad*%
%ADD12O,1.700000X2.000000*%
%TD*%
%TA.AperFunction,ComponentPad*%
%ADD13R,1.600000X1.600000*%
%TD*%
%TA.AperFunction,ComponentPad*%
%ADD14O,1.600000X1.600000*%
%TD*%
%TA.AperFunction,ComponentPad*%
%ADD15R,1.800000X1.800000*%
%TD*%
%TA.AperFunction,ComponentPad*%
%ADD16C,1.800000*%
%TD*%
%TA.AperFunction,ComponentPad*%
%ADD17C,6.400000*%
%TD*%
%TA.AperFunction,ComponentPad*%
%ADD18C,0.800000*%
%TD*%
%TA.AperFunction,ComponentPad*%
%ADD19C,1.600000*%
%TD*%
%TA.AperFunction,ViaPad*%
%ADD20C,0.800000*%
%TD*%
%TA.AperFunction,Conductor*%
%ADD21C,0.250000*%
%TD*%
G04 APERTURE END LIST*
D10*
%TO.P,J3,1*%
%TO.N,N/C*%
X89280000Y-116840000D03*
D11*
%TO.P,J3,2*%
X89280000Y-119380000D03*
%TO.P,J3,3*%
X89280000Y-121920000D03*
%TO.P,J3,4*%
%TO.N,RX*%
X89280000Y-124460000D03*
%TO.P,J3,5*%
%TO.N,N/C*%
X89280000Y-127000000D03*
%TO.P,J3,6*%
X89280000Y-129540000D03*
%TO.P,J3,7*%
X89280000Y-132080000D03*
%TO.P,J3,8*%
X89280000Y-134620000D03*
%TO.P,J3,9*%
%TO.N,+3V3*%
X89280000Y-137160000D03*
%TO.P,J3,10*%
%TO.N,N/C*%
X89280000Y-139700000D03*
%TD*%
%TO.P,J4,10*%
%TO.N,N/C*%
X114680000Y-139700000D03*
%TO.P,J4,9*%
%TO.N,GND*%
X114680000Y-137160000D03*
%TO.P,J4,8*%
%TO.N,N/C*%
X114680000Y-134620000D03*
%TO.P,J4,7*%
X114680000Y-132080000D03*
%TO.P,J4,6*%
X114680000Y-129540000D03*
%TO.P,J4,5*%
X114680000Y-127000000D03*
%TO.P,J4,4*%
X114680000Y-124460000D03*
%TO.P,J4,3*%
%TO.N,TX*%
X114680000Y-121920000D03*
%TO.P,J4,2*%
%TO.N,N/C*%
X114680000Y-119380000D03*
D10*
%TO.P,J4,1*%
X114680000Y-116840000D03*
%TD*%
%TO.P,J5,1*%
%TO.N,+5V*%
%TA.AperFunction,ComponentPad*%
G36*
G01*
X93130000Y-144260000D02*
X93130000Y-142760000D01*
G75*
G02*
X93380000Y-142510000I250000J0D01*
G01*
X94580000Y-142510000D01*
G75*
G02*
X94830000Y-142760000I0J-250000D01*
G01*
X94830000Y-144260000D01*
G75*
G02*
X94580000Y-144510000I-250000J0D01*
G01*
X93380000Y-144510000D01*
G75*
G02*
X93130000Y-144260000I0J250000D01*
G01*
G37*
%TD.AperFunction*%
D12*
%TO.P,J5,2*%
%TO.N,GND*%
X96480000Y-143510000D03*
%TD*%
%TO.P,J6,1*%
%TO.N,Net-(J6-Pad1)*%
%TA.AperFunction,ComponentPad*%
G36*
G01*
X102020000Y-144260000D02*
X102020000Y-142760000D01*
G75*
G02*
X102270000Y-142510000I250000J0D01*
G01*
X103470000Y-142510000D01*
G75*
G02*
X103720000Y-142760000I0J-250000D01*
G01*
X103720000Y-144260000D01*
G75*
G02*
X103470000Y-144510000I-250000J0D01*
G01*
X102270000Y-144510000D01*
G75*
G02*
X102020000Y-144260000I0J250000D01*
G01*
G37*
%TD.AperFunction*%
%TO.P,J6,2*%
%TO.N,Net-(D2-Pad2)*%
X105370000Y-143510000D03*
%TD*%
D13*
%TO.P,U1,1*%
%TO.N,Out1*%
X85725000Y-118745000D03*
D14*
%TO.P,U1,3*%
%TO.N,Net-(D1-Pad2)*%
X83185000Y-126365000D03*
%TO.P,U1,2*%
%TO.N,GND*%
X83185000Y-118745000D03*
%TO.P,U1,4*%
%TO.N,Net-(D2-Pad2)*%
X85725000Y-126365000D03*
%TD*%
D15*
%TO.P,D1,1*%
%TO.N,Net-(D1-Pad1)*%
X82550000Y-132080000D03*
D16*
%TO.P,D1,2*%
%TO.N,Net-(D1-Pad2)*%
X85090000Y-132080000D03*
%TD*%
%TO.P,D2,2*%
%TO.N,Net-(D2-Pad2)*%
X85090000Y-139700000D03*
D15*
%TO.P,D2,1*%
%TO.N,Net-(D2-Pad1)*%
X82550000Y-139700000D03*
%TD*%
D17*
%TO.P,H1,1*%
%TO.N,N/C*%
X85090000Y-108585000D03*
D18*
X87490000Y-108585000D03*
X86787056Y-110282056D03*
X85090000Y-110985000D03*
X83392944Y-110282056D03*
X82690000Y-108585000D03*
X83392944Y-106887944D03*
X85090000Y-106185000D03*
X86787056Y-106887944D03*
%TD*%
%TO.P,H2,1*%
%TO.N,N/C*%
X86787056Y-146892944D03*
X85090000Y-146190000D03*
X83392944Y-146892944D03*
X82690000Y-148590000D03*
X83392944Y-150287056D03*
X85090000Y-150990000D03*
X86787056Y-150287056D03*
X87490000Y-148590000D03*
D17*
X85090000Y-148590000D03*
%TD*%
%TO.P,H3,1*%
%TO.N,N/C*%
X113665000Y-148590000D03*
D18*
X116065000Y-148590000D03*
X115362056Y-150287056D03*
X113665000Y-150990000D03*
X111967944Y-150287056D03*
X111265000Y-148590000D03*
X111967944Y-146892944D03*
X113665000Y-146190000D03*
X115362056Y-146892944D03*
%TD*%
%TO.P,H4,1*%
%TO.N,N/C*%
X115362056Y-106887944D03*
X113665000Y-106185000D03*
X111967944Y-106887944D03*
X111265000Y-108585000D03*
X111967944Y-110282056D03*
X113665000Y-110985000D03*
X115362056Y-110282056D03*
X116065000Y-108585000D03*
D17*
X113665000Y-108585000D03*
%TD*%
D19*
%TO.P,SW1,*%
%TO.N,*%
X95885000Y-107315000D03*
X90805000Y-107315000D03*
%TO.P,SW1,1*%
%TO.N,Net-(D1-Pad1)*%
%TA.AperFunction,ComponentPad*%
G36*
G01*
X90405000Y-111595000D02*
X91205000Y-111595000D01*
G75*
G02*
X91605000Y-111995000I0J-400000D01*
G01*
X91605000Y-112795000D01*
G75*
G02*
X91205000Y-113195000I-400000J0D01*
G01*
X90405000Y-113195000D01*
G75*
G02*
X90005000Y-112795000I0J400000D01*
G01*
X90005000Y-111995000D01*
G75*
G02*
X90405000Y-111595000I400000J0D01*
G01*
G37*
%TD.AperFunction*%
%TO.P,SW1,2*%
%TO.N,Net-(J6-Pad1)*%
X93345000Y-112395000D03*
%TO.P,SW1,3*%
%TO.N,Net-(D2-Pad1)*%
X95885000Y-112395000D03*
%TD*%
D20*
%TO.N,GND*%
X115570000Y-114300000D03*
%TO.N,Net-(D2-Pad2)*%
X93980000Y-147320000D03*
%TO.N,+5V*%
X112395000Y-122555000D03*
%TO.N,Net-(J6-Pad1)*%
X93980000Y-146050000D03*
X91440000Y-121285000D03*
%TO.N,+3V3*%
X106680000Y-135890000D03*
X106045000Y-139700000D03*
%TO.N,Out1*%
X96520000Y-119380000D03*
%TD*%
D21*
%TO.N,Net-(D1-Pad1)*%
X86360000Y-112395000D02*
X90805000Y-112395000D01*
X84455000Y-112395000D02*
X86360000Y-112395000D01*
X81915000Y-128554990D02*
X81915000Y-114935000D01*
X82550000Y-129189990D02*
X81915000Y-128554990D01*
X82550000Y-132080000D02*
X82550000Y-129189990D01*
X81915000Y-114935000D02*
X82550000Y-114300000D01*
X82550000Y-114300000D02*
X84455000Y-112395000D01*
%TO.N,GND*%
X114680000Y-137160000D02*
X110490000Y-141350000D01*
X110490000Y-141350000D02*
X110490000Y-144780000D01*
X110490000Y-144780000D02*
X107950000Y-147320000D01*
X107950000Y-147320000D02*
X97790000Y-147320000D01*
X96480000Y-146010000D02*
X96480000Y-143510000D01*
X97790000Y-147320000D02*
X96480000Y-146010000D01*
X86360000Y-114300000D02*
X115570000Y-114300000D01*
X83820000Y-114300000D02*
X86360000Y-114300000D01*
X83185000Y-114935000D02*
X83820000Y-114300000D01*
X83185000Y-118745000D02*
X83185000Y-114935000D01*
%TO.N,Net-(D2-Pad2)*%
X93980000Y-147320000D02*
X90170000Y-147320000D01*
X90170000Y-147320000D02*
X85090000Y-142240000D01*
X85090000Y-142240000D02*
X85090000Y-139700000D01*
X85090000Y-139700000D02*
X85090000Y-136525000D01*
X85090000Y-136525000D02*
X86995000Y-134620000D01*
X86995000Y-127635000D02*
X85725000Y-126365000D01*
X86995000Y-134620000D02*
X86995000Y-127635000D01*
%TO.N,+5V*%
X112395000Y-135890000D02*
X112395000Y-122555000D01*
X107315000Y-140970000D02*
X112395000Y-135890000D01*
X94615000Y-140970000D02*
X107315000Y-140970000D01*
X93980000Y-141605000D02*
X94615000Y-140970000D01*
X93980000Y-143510000D02*
X93980000Y-141605000D01*
%TO.N,Net-(J6-Pad1)*%
X92710000Y-146050000D02*
X91440000Y-144780000D01*
X92710000Y-146050000D02*
X93980000Y-146050000D01*
X91440000Y-144780000D02*
X91440000Y-143510000D01*
X91440000Y-121285000D02*
X91440000Y-143510000D01*
%TO.N,+3V3*%
X106680000Y-135890000D02*
X106680000Y-137160000D01*
X106045000Y-139700000D02*
X106680000Y-139065000D01*
X106680000Y-139065000D02*
X106680000Y-135890000D01*
%TO.N,Out1*%
X96520000Y-117475000D02*
X96520000Y-119380000D01*
X93980000Y-114935000D02*
X96520000Y-117475000D01*
X86995000Y-114935000D02*
X93980000Y-114935000D01*
X85725000Y-116205000D02*
X86995000Y-114935000D01*
X85725000Y-118745000D02*
X85725000Y-116205000D01*
%TD*%
M02*
