%TF.GenerationSoftware,KiCad,Pcbnew,(5.1.9)-1*%
%TF.CreationDate,2022-08-15T05:54:51+09:00*%
%TF.ProjectId,Receiver,52656365-6976-4657-922e-6b696361645f,rev?*%
%TF.SameCoordinates,Original*%
%TF.FileFunction,Soldermask,Bot*%
%TF.FilePolarity,Negative*%
%FSLAX46Y46*%
G04 Gerber Fmt 4.6, Leading zero omitted, Abs format (unit mm)*
G04 Created by KiCad (PCBNEW (5.1.9)-1) date 2022-08-15 05:54:51*
%MOMM*%
%LPD*%
G01*
G04 APERTURE LIST*
%ADD10R,1.700000X1.700000*%
%ADD11O,1.700000X1.700000*%
%ADD12O,1.700000X2.000000*%
%ADD13R,1.600000X1.600000*%
%ADD14O,1.600000X1.600000*%
%ADD15R,1.800000X1.800000*%
%ADD16C,1.800000*%
%ADD17C,6.400000*%
%ADD18C,0.800000*%
%ADD19C,1.600000*%
G04 APERTURE END LIST*
D10*
%TO.C,J3*%
X89280000Y-116840000D03*
D11*
X89280000Y-119380000D03*
X89280000Y-121920000D03*
X89280000Y-124460000D03*
X89280000Y-127000000D03*
X89280000Y-129540000D03*
X89280000Y-132080000D03*
X89280000Y-134620000D03*
X89280000Y-137160000D03*
X89280000Y-139700000D03*
%TD*%
%TO.C,J4*%
X114680000Y-139700000D03*
X114680000Y-137160000D03*
X114680000Y-134620000D03*
X114680000Y-132080000D03*
X114680000Y-129540000D03*
X114680000Y-127000000D03*
X114680000Y-124460000D03*
X114680000Y-121920000D03*
X114680000Y-119380000D03*
D10*
X114680000Y-116840000D03*
%TD*%
%TO.C,J5*%
G36*
G01*
X93130000Y-144260000D02*
X93130000Y-142760000D01*
G75*
G02*
X93380000Y-142510000I250000J0D01*
G01*
X94580000Y-142510000D01*
G75*
G02*
X94830000Y-142760000I0J-250000D01*
G01*
X94830000Y-144260000D01*
G75*
G02*
X94580000Y-144510000I-250000J0D01*
G01*
X93380000Y-144510000D01*
G75*
G02*
X93130000Y-144260000I0J250000D01*
G01*
G37*
D12*
X96480000Y-143510000D03*
%TD*%
%TO.C,J6*%
G36*
G01*
X102020000Y-144260000D02*
X102020000Y-142760000D01*
G75*
G02*
X102270000Y-142510000I250000J0D01*
G01*
X103470000Y-142510000D01*
G75*
G02*
X103720000Y-142760000I0J-250000D01*
G01*
X103720000Y-144260000D01*
G75*
G02*
X103470000Y-144510000I-250000J0D01*
G01*
X102270000Y-144510000D01*
G75*
G02*
X102020000Y-144260000I0J250000D01*
G01*
G37*
X105370000Y-143510000D03*
%TD*%
D13*
%TO.C,U1*%
X85725000Y-118745000D03*
D14*
X83185000Y-126365000D03*
X83185000Y-118745000D03*
X85725000Y-126365000D03*
%TD*%
D15*
%TO.C,D1*%
X82550000Y-132080000D03*
D16*
X85090000Y-132080000D03*
%TD*%
%TO.C,D2*%
X85090000Y-139700000D03*
D15*
X82550000Y-139700000D03*
%TD*%
D17*
%TO.C,H1*%
X85090000Y-108585000D03*
D18*
X87490000Y-108585000D03*
X86787056Y-110282056D03*
X85090000Y-110985000D03*
X83392944Y-110282056D03*
X82690000Y-108585000D03*
X83392944Y-106887944D03*
X85090000Y-106185000D03*
X86787056Y-106887944D03*
%TD*%
%TO.C,H2*%
X86787056Y-146892944D03*
X85090000Y-146190000D03*
X83392944Y-146892944D03*
X82690000Y-148590000D03*
X83392944Y-150287056D03*
X85090000Y-150990000D03*
X86787056Y-150287056D03*
X87490000Y-148590000D03*
D17*
X85090000Y-148590000D03*
%TD*%
%TO.C,H3*%
X113665000Y-148590000D03*
D18*
X116065000Y-148590000D03*
X115362056Y-150287056D03*
X113665000Y-150990000D03*
X111967944Y-150287056D03*
X111265000Y-148590000D03*
X111967944Y-146892944D03*
X113665000Y-146190000D03*
X115362056Y-146892944D03*
%TD*%
%TO.C,H4*%
X115362056Y-106887944D03*
X113665000Y-106185000D03*
X111967944Y-106887944D03*
X111265000Y-108585000D03*
X111967944Y-110282056D03*
X113665000Y-110985000D03*
X115362056Y-110282056D03*
X116065000Y-108585000D03*
D17*
X113665000Y-108585000D03*
%TD*%
D19*
%TO.C,SW1*%
X95885000Y-107315000D03*
X90805000Y-107315000D03*
G36*
G01*
X90405000Y-111595000D02*
X91205000Y-111595000D01*
G75*
G02*
X91605000Y-111995000I0J-400000D01*
G01*
X91605000Y-112795000D01*
G75*
G02*
X91205000Y-113195000I-400000J0D01*
G01*
X90405000Y-113195000D01*
G75*
G02*
X90005000Y-112795000I0J400000D01*
G01*
X90005000Y-111995000D01*
G75*
G02*
X90405000Y-111595000I400000J0D01*
G01*
G37*
X93345000Y-112395000D03*
X95885000Y-112395000D03*
%TD*%
M02*
