M48
; DRILL file {KiCad (5.1.9)-1} date 08/15/22 05:54:53
; FORMAT={-:-/ absolute / metric / decimal}
; #@! TF.CreationDate,2022-08-15T05:54:53+09:00
; #@! TF.GenerationSoftware,Kicad,Pcbnew,(5.1.9)-1
FMAT,2
METRIC
T1C0.400
T2C0.500
T3C0.800
T4C0.890
T5C0.900
T6C1.000
T7C3.200
%
G90
G05
T1
X91.44Y-121.285
X93.98Y-146.05
X93.98Y-147.32
X96.52Y-119.38
X106.045Y-139.7
X106.68Y-135.89
X112.395Y-122.555
X115.57Y-114.3
T2
X82.69Y-108.585
X82.69Y-148.59
X83.393Y-106.888
X83.393Y-110.282
X83.393Y-146.893
X83.393Y-150.287
X85.09Y-106.185
X85.09Y-110.985
X85.09Y-146.19
X85.09Y-150.99
X86.787Y-106.888
X86.787Y-110.282
X86.787Y-146.893
X86.787Y-150.287
X87.49Y-108.585
X87.49Y-148.59
X111.265Y-108.585
X111.265Y-148.59
X111.968Y-106.888
X111.968Y-110.282
X111.968Y-146.893
X111.968Y-150.287
X113.665Y-106.185
X113.665Y-110.985
X113.665Y-146.19
X113.665Y-150.99
X115.362Y-106.888
X115.362Y-110.282
X115.362Y-146.893
X115.362Y-150.287
X116.065Y-108.585
X116.065Y-148.59
T3
X83.185Y-118.745
X83.185Y-126.365
X85.725Y-118.745
X85.725Y-126.365
T4
X90.805Y-107.315
X90.805Y-112.395
X93.345Y-112.395
X95.885Y-107.315
X95.885Y-112.395
T5
X82.55Y-132.08
X82.55Y-139.7
X85.09Y-132.08
X85.09Y-139.7
T6
X89.28Y-116.84
X89.28Y-119.38
X89.28Y-121.92
X89.28Y-124.46
X89.28Y-127.0
X89.28Y-129.54
X89.28Y-132.08
X89.28Y-134.62
X89.28Y-137.16
X89.28Y-139.7
X93.98Y-143.51
X96.48Y-143.51
X102.87Y-143.51
X105.37Y-143.51
X114.68Y-116.84
X114.68Y-119.38
X114.68Y-121.92
X114.68Y-124.46
X114.68Y-127.0
X114.68Y-129.54
X114.68Y-132.08
X114.68Y-134.62
X114.68Y-137.16
X114.68Y-139.7
T7
X85.09Y-108.585
X85.09Y-148.59
X113.665Y-108.585
X113.665Y-148.59
T0
M30
